<?xml version="1.0" encoding="utf-8"?>
<!-- Generator: Adobe Illustrator 25.0.1, SVG Export Plug-In . SVG Version: 6.00 Build 0)  -->
<svg version="1.1" id="Layer_1" xmlns="http://www.w3.org/2000/svg" xmlns:xlink="http://www.w3.org/1999/xlink" x="0px" y="0px"
	 viewBox="0 0 720 720" style="enable-background:new 0 0 720 720;" xml:space="preserve">
<style type="text/css">
	.st0{fill:url(#SVGID_1_);}
	.st1{fill:url(#SVGID_2_);}
	.st2{fill:url(#SVGID_3_);}
	.st3{fill:url(#SVGID_4_);}
	.st4{fill:url(#SVGID_5_);}
	.st5{fill:url(#SVGID_6_);}
	.st6{fill:url(#SVGID_7_);stroke:url(#SVGID_8_);stroke-linejoin:round;stroke-miterlimit:10;}
</style>
<g>
	
		<linearGradient id="SVGID_1_" gradientUnits="userSpaceOnUse" x1="4238.1074" y1="989.3201" x2="4209.7769" y2="940.25" gradientTransform="matrix(-1 0 0 -1 4415.5 1455.6057)">
		<stop  offset="0" style="stop-color:#BC896F"/>
		<stop  offset="0.9985" style="stop-color:#B27149"/>
	</linearGradient>
	<path class="st0" d="M175.4,500.1c0,10.6,9.1,19.2,20.1,18.6c9.8-0.5,17.7-8.4,18.1-18c0.1-2.8-0.4-5.4-1.5-7.9h0l-15-34.3
		c-1-2.3-4.4-2.3-5.4,0l-15,34.3h0C176,495.2,175.4,497.6,175.4,500.1z"/>
	
		<linearGradient id="SVGID_2_" gradientUnits="userSpaceOnUse" x1="4164.4785" y1="908.7449" x2="4136.1479" y2="859.6749" gradientTransform="matrix(-1 0 0 -1 4415.5 1455.6057)">
		<stop  offset="0" style="stop-color:#BC896F"/>
		<stop  offset="0.9985" style="stop-color:#B27149"/>
	</linearGradient>
	<path class="st1" d="M249.1,580.7c0,10.6,9.1,19.2,20.1,18.6c9.8-0.5,17.7-8.4,18.1-18c0.1-2.8-0.4-5.4-1.5-7.9h0l-15-34.3
		c-1-2.3-4.4-2.3-5.4,0l-15,34.3h0C249.6,575.7,249.1,578.2,249.1,580.7z"/>
	
		<linearGradient id="SVGID_3_" gradientUnits="userSpaceOnUse" x1="4120.0234" y1="1022.6615" x2="4091.6926" y2="973.5914" gradientTransform="matrix(-1 0 0 -1 4415.5 1455.6057)">
		<stop  offset="0" style="stop-color:#BC896F"/>
		<stop  offset="0.9985" style="stop-color:#B27149"/>
	</linearGradient>
	<path class="st2" d="M293.5,466.8c0,10.6,9.1,19.2,20.1,18.6c9.8-0.5,17.7-8.4,18.1-18c0.1-2.8-0.4-5.4-1.5-7.9h0l-15-34.3
		c-1-2.3-4.4-2.3-5.4,0l-15,34.3h0C294,461.8,293.5,464.2,293.5,466.8z"/>
	
		<linearGradient id="SVGID_4_" gradientUnits="userSpaceOnUse" x1="4015.8313" y1="939.3079" x2="3987.5007" y2="890.2379" gradientTransform="matrix(-1 0 0 -1 4415.5 1455.6057)">
		<stop  offset="0" style="stop-color:#BC896F"/>
		<stop  offset="0.9985" style="stop-color:#B27149"/>
	</linearGradient>
	<path class="st3" d="M397.7,550.1c0,10.6,9.1,19.2,20.1,18.6c9.8-0.5,17.7-8.4,18.1-18c0.1-2.8-0.4-5.4-1.5-7.9h0l-15-34.3
		c-1-2.3-4.4-2.3-5.4,0l-15,34.3h0C398.2,545.2,397.7,547.6,397.7,550.1z"/>
	
		<linearGradient id="SVGID_5_" gradientUnits="userSpaceOnUse" x1="3981.1006" y1="1022.6615" x2="3952.77" y2="973.5914" gradientTransform="matrix(-1 0 0 -1 4415.5 1455.6057)">
		<stop  offset="0" style="stop-color:#BC896F"/>
		<stop  offset="0.9985" style="stop-color:#B27149"/>
	</linearGradient>
	<path class="st4" d="M432.4,466.8c0,10.6,9.1,19.2,20.1,18.6c9.8-0.5,17.7-8.4,18.1-18c0.1-2.8-0.4-5.4-1.5-7.9h0l-15-34.3
		c-1-2.3-4.4-2.3-5.4,0l-15,34.3h0C433,461.8,432.4,464.2,432.4,466.8z"/>
	<linearGradient id="SVGID_6_" gradientUnits="userSpaceOnUse" x1="541.103" y1="382.4742" x2="400.7677" y2="139.4063">
		<stop  offset="0" style="stop-color:#BC896F"/>
		<stop  offset="0.9985" style="stop-color:#B27149"/>
	</linearGradient>
	<circle class="st5" cx="470.9" cy="260.9" r="140.3"/>
	<linearGradient id="SVGID_7_" gradientUnits="userSpaceOnUse" x1="396.349" y1="486.2349" x2="239.7006" y2="214.9119">
		<stop  offset="1.501339e-03" style="stop-color:#B27149;stop-opacity:0.5"/>
		<stop  offset="1" style="stop-color:#F4F0EF"/>
	</linearGradient>
	<linearGradient id="SVGID_8_" gradientUnits="userSpaceOnUse" x1="108.2528" y1="313.0363" x2="539.913" y2="313.0363">
		<stop  offset="1.501342e-03" style="stop-color:#B27149;stop-opacity:0.5"/>
		<stop  offset="1" style="stop-color:#F4F0EF"/>
	</linearGradient>
	<path class="st6" d="M539.4,354.7c0-46.8-37.9-84.7-84.7-84.7c-9.6,0-18.8,1.6-27.5,4.6c-10.7-50.2-55.3-87.9-108.7-87.9
		c-61.4,0-111.1,49.8-111.1,111.1c0,5.2,0.4,10.2,1.1,15.2c-9.6-5.3-20.6-8.2-32.3-8.2c-37.2,0-67.4,30.2-67.4,67.4
		c0,36,28.3,65.5,63.9,67.3v0.1h291.7v-0.6C506.6,434.1,539.4,398.2,539.4,354.7z"/>
</g>
</svg>
