<?xml version="1.0" encoding="utf-8"?>
<!-- Generator: Adobe Illustrator 25.0.1, SVG Export Plug-In . SVG Version: 6.00 Build 0)  -->
<svg version="1.1" id="Layer_1" xmlns="http://www.w3.org/2000/svg" xmlns:xlink="http://www.w3.org/1999/xlink" x="0px" y="0px"
	 viewBox="0 0 720 720" style="enable-background:new 0 0 720 720;" xml:space="preserve">
<style type="text/css">
	.st0{fill:url(#SVGID_1_);}
	.st1{fill:url(#SVGID_2_);}
	.st2{fill:url(#SVGID_3_);}
	.st3{fill:url(#SVGID_4_);}
	.st4{fill:url(#SVGID_5_);}
	.st5{fill:url(#SVGID_6_);}
	.st6{opacity:0.38;fill:url(#SVGID_7_);stroke:url(#SVGID_8_);stroke-miterlimit:10;}
</style>
<g>
	
		<linearGradient id="SVGID_1_" gradientUnits="userSpaceOnUse" x1="4238.3188" y1="989.1953" x2="4209.9419" y2="940.0456" gradientTransform="matrix(-1 0 0 -1 4415.5 1455.6057)">
		<stop  offset="0" style="stop-color:#FFFFFF"/>
		<stop  offset="1" style="stop-color:#000000"/>
	</linearGradient>
	<path class="st0" d="M175.2,500.3c0,10.7,9.1,19.2,20.2,18.7c12.8-0.4,21.9-14.3,16.6-25.9h0l-15-34.4c-1-2.3-4.4-2.3-5.4,0
		l-15,34.4h0C175.7,495.3,175.2,497.7,175.2,500.3z"/>
	
		<linearGradient id="SVGID_2_" gradientUnits="userSpaceOnUse" x1="4164.603" y1="908.5257" x2="4136.2266" y2="859.3759" gradientTransform="matrix(-1 0 0 -1 4415.5 1455.6057)">
		<stop  offset="0" style="stop-color:#FFFFFF"/>
		<stop  offset="1" style="stop-color:#000000"/>
	</linearGradient>
	<path class="st1" d="M248.9,581c0,10.7,9.1,19.2,20.2,18.7c12.8-0.4,21.9-14.3,16.6-25.9h0l-15-34.4c-1-2.3-4.4-2.3-5.4,0l-15,34.4
		h0C249.5,576,248.9,578.4,248.9,581z"/>
	
		<linearGradient id="SVGID_3_" gradientUnits="userSpaceOnUse" x1="4120.0957" y1="1022.5759" x2="4091.7192" y2="973.4261" gradientTransform="matrix(-1 0 0 -1 4415.5 1455.6057)">
		<stop  offset="0" style="stop-color:#FFFFFF"/>
		<stop  offset="1" style="stop-color:#000000"/>
	</linearGradient>
	<path class="st2" d="M293.4,466.9c0,10.7,9.1,19.2,20.2,18.7c12.8-0.4,21.9-14.3,16.6-25.9h0l-15-34.4c-1-2.3-4.4-2.3-5.4,0
		l-15,34.4h0C294,461.9,293.4,464.4,293.4,466.9z"/>
	
		<linearGradient id="SVGID_4_" gradientUnits="userSpaceOnUse" x1="4015.7817" y1="939.1245" x2="3987.405" y2="889.9748" gradientTransform="matrix(-1 0 0 -1 4415.5 1455.6057)">
		<stop  offset="0" style="stop-color:#FFFFFF"/>
		<stop  offset="1" style="stop-color:#000000"/>
	</linearGradient>
	<path class="st3" d="M397.8,550.4c0,10.7,9.1,19.2,20.2,18.7c12.8-0.4,21.9-14.3,16.6-25.9h0l-15-34.4c-1-2.3-4.4-2.3-5.4,0
		l-15,34.4h0C398.3,545.4,397.8,547.8,397.8,550.4z"/>
	
		<linearGradient id="SVGID_5_" gradientUnits="userSpaceOnUse" x1="3981.0103" y1="1022.5759" x2="3952.6338" y2="973.4261" gradientTransform="matrix(-1 0 0 -1 4415.5 1455.6057)">
		<stop  offset="0" style="stop-color:#FFFFFF"/>
		<stop  offset="1" style="stop-color:#000000"/>
	</linearGradient>
	<path class="st4" d="M432.5,466.9c0,10.7,9.1,19.2,20.2,18.7c12.8-0.4,21.9-14.3,16.6-25.9h0l-15-34.4c-1-2.3-4.4-2.3-5.4,0
		l-15,34.4h0C433.1,461.9,432.5,464.4,432.5,466.9z"/>
	<linearGradient id="SVGID_6_" gradientUnits="userSpaceOnUse" x1="541.2029" y1="382.5674" x2="400.551" y2="138.9512">
		<stop  offset="0" style="stop-color:#FFFFFF"/>
		<stop  offset="1" style="stop-color:#000000"/>
	</linearGradient>
	<path class="st5" d="M611.5,260.8c0,77.6-62.9,140.5-140.5,140.5c-186.3-7.4-186.3-273.6,0-281
		C548.7,120.3,611.5,183.2,611.5,260.8z"/>
	<linearGradient id="SVGID_7_" gradientUnits="userSpaceOnUse" x1="396.4201" y1="486.3684" x2="239.6407" y2="214.8186">
		<stop  offset="0" style="stop-color:#FFFFFF"/>
		<stop  offset="1" style="stop-color:#000000"/>
	</linearGradient>
	<linearGradient id="SVGID_8_" gradientUnits="userSpaceOnUse" x1="107.9551" y1="313.1974" x2="540.1409" y2="313.1974">
		<stop  offset="0" style="stop-color:#FFFFFF"/>
		<stop  offset="1" style="stop-color:#000000;stop-opacity:0.5"/>
	</linearGradient>
	<path class="st6" d="M539.6,354.7c1.1-57.2-58.8-99.6-112.3-80.3c-34.3-137.8-233.4-104-219,38.5c-43.7-24.7-100.5,8.6-99.8,59.2
		c0,36.1,28.3,65.6,64,67.4v0.1h292.1V439C506.8,434.1,539.6,398.3,539.6,354.7z"/>
</g>
</svg>
