<?xml version="1.0" encoding="utf-8"?>
<!-- Generator: Adobe Illustrator 25.0.1, SVG Export Plug-In . SVG Version: 6.00 Build 0)  -->
<svg version="1.1" id="Layer_1" xmlns="http://www.w3.org/2000/svg" xmlns:xlink="http://www.w3.org/1999/xlink" x="0px" y="0px"
	 viewBox="0 0 720 720" style="enable-background:new 0 0 720 720;" xml:space="preserve">
<style type="text/css">
	.st0{fill:url(#SVGID_1_);}
	.st1{fill:url(#SVGID_2_);}
	.st2{fill:url(#SVGID_3_);}
	.st3{fill:url(#SVGID_4_);}
	.st4{fill:url(#SVGID_5_);}
	.st5{fill:url(#SVGID_6_);}
	.st6{opacity:0.76;fill:url(#SVGID_7_);stroke:url(#SVGID_8_);stroke-width:0.5;stroke-miterlimit:10;}
</style>
<g>
	
		<linearGradient id="SVGID_1_" gradientUnits="userSpaceOnUse" x1="4240.4702" y1="957.3271" x2="4211.7593" y2="907.5989" gradientTransform="matrix(-1 0 0 -1 4415.5 1455.6057)">
		<stop  offset="0" style="stop-color:#ADBA3E"/>
		<stop  offset="1" style="stop-color:#718200"/>
	</linearGradient>
	<path class="st0" d="M173,532.6c0,10.8,9.2,19.4,20.4,18.9c13-0.4,22.1-14.5,16.8-26.2h0l-15.2-34.8c-1-2.4-4.5-2.4-5.5,0
		l-15.2,34.8h0C173.6,527.5,173,530,173,532.6z"/>
	
		<linearGradient id="SVGID_2_" gradientUnits="userSpaceOnUse" x1="4165.8872" y1="875.7081" x2="4137.1768" y2="825.98" gradientTransform="matrix(-1 0 0 -1 4415.5 1455.6057)">
		<stop  offset="0" style="stop-color:#ADBA3E"/>
		<stop  offset="1" style="stop-color:#718200"/>
	</linearGradient>
	<path class="st1" d="M247.6,614.2c0,10.8,9.2,19.4,20.4,18.9c13-0.4,22.1-14.5,16.8-26.2h0l-15.2-34.8c-1-2.4-4.5-2.4-5.5,0
		l-15.2,34.8h0C248.2,609.1,247.6,611.6,247.6,614.2z"/>
	
		<linearGradient id="SVGID_3_" gradientUnits="userSpaceOnUse" x1="4120.856" y1="991.1005" x2="4092.1455" y2="941.3723" gradientTransform="matrix(-1 0 0 -1 4415.5 1455.6057)">
		<stop  offset="0" style="stop-color:#ADBA3E"/>
		<stop  offset="1" style="stop-color:#718200"/>
	</linearGradient>
	<path class="st2" d="M292.7,498.8c0,10.8,9.2,19.4,20.4,18.9c13-0.4,22.1-14.5,16.8-26.2h0l-15.2-34.8c-1-2.4-4.5-2.4-5.5,0
		l-15.2,34.8h0C293.2,493.7,292.7,496.2,292.7,498.8z"/>
	
		<linearGradient id="SVGID_4_" gradientUnits="userSpaceOnUse" x1="4015.3142" y1="906.6671" x2="3986.6038" y2="856.9389" gradientTransform="matrix(-1 0 0 -1 4415.5 1455.6057)">
		<stop  offset="0" style="stop-color:#ADBA3E"/>
		<stop  offset="1" style="stop-color:#718200"/>
	</linearGradient>
	<path class="st3" d="M398.2,583.2c0,10.8,9.2,19.4,20.4,18.9c13-0.4,22.1-14.5,16.8-26.2h0l-15.2-34.8c-1-2.4-4.5-2.4-5.5,0
		l-15.2,34.8h0C398.7,578.2,398.2,580.6,398.2,583.2z"/>
	
		<linearGradient id="SVGID_5_" gradientUnits="userSpaceOnUse" x1="3980.1338" y1="991.1005" x2="3951.4231" y2="941.3723" gradientTransform="matrix(-1 0 0 -1 4415.5 1455.6057)">
		<stop  offset="0" style="stop-color:#ADBA3E"/>
		<stop  offset="1" style="stop-color:#718200"/>
	</linearGradient>
	<path class="st4" d="M433.4,498.8c0,10.8,9.2,19.4,20.4,18.9c13-0.4,22.1-14.5,16.8-26.2h0l-15.2-34.8c-1-2.4-4.5-2.4-5.5,0
		l-15.2,34.8h0C433.9,493.7,433.4,496.2,433.4,498.8z"/>
	<linearGradient id="SVGID_6_" gradientUnits="userSpaceOnUse" x1="543.3353" y1="413.4489" x2="401.0282" y2="166.9658">
		<stop  offset="0" style="stop-color:#ADBA3E"/>
		<stop  offset="1" style="stop-color:#718200"/>
	</linearGradient>
	<path class="st5" d="M614.5,290.3c0,78.5-63.6,142.1-142.1,142.1c-188.5-7.5-188.5-276.8,0-284.3
		C550.9,148.1,614.5,211.8,614.5,290.3z"/>
	<linearGradient id="SVGID_7_" gradientUnits="userSpaceOnUse" x1="396.8487" y1="518.4715" x2="238.2243" y2="243.726">
		<stop  offset="3.534978e-03" style="stop-color:#FFFFFF;stop-opacity:0.7"/>
		<stop  offset="1" style="stop-color:#A0AE32"/>
	</linearGradient>
	<linearGradient id="SVGID_8_" gradientUnits="userSpaceOnUse" x1="105.2449" y1="343.2625" x2="542.0049" y2="343.2625">
		<stop  offset="0" style="stop-color:#FFFFFF"/>
		<stop  offset="1" style="stop-color:#718416;stop-opacity:0.8"/>
	</linearGradient>
	<path class="st6" d="M541.7,385.3c1.1-57.8-59.5-100.8-113.6-81.2C393.3,164.6,192,198.8,206.5,343c-44.2-25-101.7,8.7-101,59.9
		c0,36.5,28.7,66.3,64.7,68.2v0.1h295.5v-0.6C508.5,465.6,541.7,429.3,541.7,385.3z"/>
</g>
</svg>
