<?xml version="1.0" encoding="utf-8"?>
<!-- Generator: Adobe Illustrator 25.0.1, SVG Export Plug-In . SVG Version: 6.00 Build 0)  -->
<svg version="1.1" id="Layer_1" xmlns="http://www.w3.org/2000/svg" xmlns:xlink="http://www.w3.org/1999/xlink" x="0px" y="0px"
	 viewBox="0 0 720 720" style="enable-background:new 0 0 720 720;" xml:space="preserve">
<style type="text/css">
	.st0{fill:url(#SVGID_1_);}
	.st1{fill:url(#SVGID_2_);}
	.st2{fill:url(#SVGID_3_);}
	.st3{fill:url(#SVGID_4_);}
	.st4{fill:url(#SVGID_5_);}
	.st5{fill:url(#SVGID_6_);}
	.st6{fill:url(#SVGID_7_);stroke:url(#SVGID_8_);stroke-miterlimit:10;}
</style>
<g>
	
		<linearGradient id="SVGID_1_" gradientUnits="userSpaceOnUse" x1="4241.5303" y1="987.3258" x2="4212.6553" y2="937.3126" gradientTransform="matrix(-1 0 0 -1 4415.5 1455.6057)">
		<stop  offset="0" style="stop-color:#F2D432"/>
		<stop  offset="1" style="stop-color:#DEB800"/>
	</linearGradient>
	<path class="st0" d="M172,502.8c0,10.8,9.3,19.6,20.5,19c13.1-0.4,22.2-14.5,16.9-26.3h0l-15.3-35c-1-2.4-4.5-2.4-5.5,0l-15.3,35h0
		C172.5,497.7,172,500.2,172,502.8z"/>
	
		<linearGradient id="SVGID_2_" gradientUnits="userSpaceOnUse" x1="4166.52" y1="905.239" x2="4137.645" y2="855.2258" gradientTransform="matrix(-1 0 0 -1 4415.5 1455.6057)">
		<stop  offset="0" style="stop-color:#F2D432"/>
		<stop  offset="1" style="stop-color:#DEB800"/>
	</linearGradient>
	<path class="st1" d="M247,584.8c0,10.8,9.3,19.6,20.5,19c13.1-0.4,22.2-14.5,16.9-26.3h0l-15.3-35c-1-2.4-4.5-2.4-5.5,0l-15.3,35h0
		C247.5,579.8,247,582.2,247,584.8z"/>
	
		<linearGradient id="SVGID_3_" gradientUnits="userSpaceOnUse" x1="4121.231" y1="1021.2928" x2="4092.3557" y2="971.2796" gradientTransform="matrix(-1 0 0 -1 4415.5 1455.6057)">
		<stop  offset="0" style="stop-color:#F2D432"/>
		<stop  offset="1" style="stop-color:#DEB800"/>
	</linearGradient>
	<path class="st2" d="M292.3,468.8c0,10.8,9.3,19.6,20.5,19c13.1-0.4,22.2-14.5,16.9-26.3h0l-15.3-35c-1-2.4-4.5-2.4-5.5,0l-15.3,35
		h0C292.8,463.7,292.3,466.2,292.3,468.8z"/>
	
		<linearGradient id="SVGID_4_" gradientUnits="userSpaceOnUse" x1="4015.084" y1="936.3754" x2="3986.2087" y2="886.3621" gradientTransform="matrix(-1 0 0 -1 4415.5 1455.6057)">
		<stop  offset="0" style="stop-color:#F2D432"/>
		<stop  offset="1" style="stop-color:#DEB800"/>
	</linearGradient>
	<path class="st3" d="M398.4,553.7c0,10.8,9.3,19.6,20.5,19c13.1-0.4,22.2-14.5,16.9-26.3h0l-15.3-35c-1-2.4-4.5-2.4-5.5,0l-15.3,35
		h0C399,548.6,398.4,551.1,398.4,553.7z"/>
	
		<linearGradient id="SVGID_5_" gradientUnits="userSpaceOnUse" x1="3979.7017" y1="1021.2928" x2="3950.8264" y2="971.2796" gradientTransform="matrix(-1 0 0 -1 4415.5 1455.6057)">
		<stop  offset="0" style="stop-color:#F2D432"/>
		<stop  offset="1" style="stop-color:#DEB800"/>
	</linearGradient>
	<path class="st4" d="M433.8,468.8c0,10.8,9.3,19.6,20.5,19c13.1-0.4,22.2-14.5,16.9-26.3h0l-15.3-35c-1-2.4-4.5-2.4-5.5,0l-15.3,35
		h0C434.3,463.7,433.8,466.2,433.8,468.8z"/>
	<linearGradient id="SVGID_6_" gradientUnits="userSpaceOnUse" x1="544.3864" y1="382.9639" x2="401.2634" y2="135.0677">
		<stop  offset="0" style="stop-color:#F2D432"/>
		<stop  offset="1" style="stop-color:#DEB800"/>
	</linearGradient>
	<path class="st5" d="M616,259.1C616,338,552,402,473,402c-189.6-7.5-189.6-278.4,0-285.9C552,116.1,616,180.1,616,259.1z"/>
	<linearGradient id="SVGID_7_" gradientUnits="userSpaceOnUse" x1="397.06" y1="488.5885" x2="237.5262" y2="212.2679">
		<stop  offset="0" style="stop-color:#DEB800;stop-opacity:0.5"/>
		<stop  offset="1" style="stop-color:#F4F0EF;stop-opacity:0.5"/>
	</linearGradient>
	<linearGradient id="SVGID_8_" gradientUnits="userSpaceOnUse" x1="103.5358" y1="312.3751" x2="543.2969" y2="312.3751">
		<stop  offset="0" style="stop-color:#DEB800;stop-opacity:0.5"/>
		<stop  offset="1" style="stop-color:#F4F0EF;stop-opacity:0.3"/>
	</linearGradient>
	<path class="st6" d="M542.8,354.6c1.1-58.2-59.9-101.3-114.3-81.7C393.5,132.7,191,167.1,205.6,312.1
		c-44.5-25.2-102.3,8.8-101.6,60.2c0,36.7,28.8,66.7,65.1,68.6v0.1h297.2v-0.6C509.4,435.4,542.8,398.9,542.8,354.6z"/>
</g>
</svg>
