<?xml version="1.0" encoding="utf-8"?>
<!-- Generator: Adobe Illustrator 25.0.1, SVG Export Plug-In . SVG Version: 6.00 Build 0)  -->
<svg version="1.1" id="Layer_1" xmlns="http://www.w3.org/2000/svg" xmlns:xlink="http://www.w3.org/1999/xlink" x="0px" y="0px"
	 viewBox="0 0 720 720" style="enable-background:new 0 0 720 720;" xml:space="preserve">
<style type="text/css">
	.st0{fill:url(#SVGID_1_);}
	.st1{fill:url(#SVGID_2_);stroke:url(#SVGID_3_);stroke-linejoin:round;stroke-miterlimit:10;}
	.st2{fill:url(#SVGID_4_);stroke:url(#SVGID_5_);stroke-linejoin:round;stroke-miterlimit:10;}
</style>
<g>
	<linearGradient id="SVGID_1_" gradientUnits="userSpaceOnUse" x1="488.604" y1="499.2254" x2="275.119" y2="129.4585">
		<stop  offset="0" style="stop-color:#BC896F"/>
		<stop  offset="0.9985" style="stop-color:#B27149"/>
	</linearGradient>
	<path class="st0" d="M501,243.2c0-80.4-67.2-145-148.5-140.8c-72.6,3.8-130.9,63.2-133.4,135.8c-0.7,21.1,3.2,41.2,10.8,59.3h-0.3
		L340,556.8c7.5,17.6,32.5,17.6,40,0l110.5-259.4h-0.3C497.1,280.8,501,262.4,501,243.2z"/>
	<linearGradient id="SVGID_2_" gradientUnits="userSpaceOnUse" x1="404.9792" y1="325.9534" x2="315.0208" y2="170.141">
		<stop  offset="1.501339e-03" style="stop-color:#B27149;stop-opacity:0.5"/>
		<stop  offset="1" style="stop-color:#F4F0EF"/>
	</linearGradient>
	<linearGradient id="SVGID_3_" gradientUnits="userSpaceOnUse" x1="405.2292" y1="326.3864" x2="314.7708" y2="169.708">
		<stop  offset="1.501342e-03" style="stop-color:#B27149;stop-opacity:0.5"/>
		<stop  offset="1" style="stop-color:#F4F0EF"/>
	</linearGradient>
	<circle class="st1" cx="360" cy="248" r="89.9"/>
	<linearGradient id="SVGID_4_" gradientUnits="userSpaceOnUse" x1="402.3941" y1="634.1495" x2="317.6059" y2="487.2921">
		<stop  offset="0" style="stop-color:#F4F0EF"/>
		<stop  offset="0.9985" style="stop-color:#B27149;stop-opacity:0.5"/>
	</linearGradient>
	<linearGradient id="SVGID_5_" gradientUnits="userSpaceOnUse" x1="221.749" y1="560.7208" x2="498.251" y2="560.7208">
		<stop  offset="1.501339e-03" style="stop-color:#B27149;stop-opacity:0.5"/>
		<stop  offset="1" style="stop-color:#F4F0EF;stop-opacity:0.7"/>
	</linearGradient>
	<ellipse class="st2" cx="360" cy="560.7" rx="137.8" ry="57.1"/>
</g>
</svg>
