<?xml version="1.0" encoding="utf-8"?>
<!-- Generator: Adobe Illustrator 25.0.1, SVG Export Plug-In . SVG Version: 6.00 Build 0)  -->
<svg version="1.1" id="Layer_1" xmlns="http://www.w3.org/2000/svg" xmlns:xlink="http://www.w3.org/1999/xlink" x="0px" y="0px"
	 viewBox="0 0 720 720" style="enable-background:new 0 0 720 720;" xml:space="preserve">
<style type="text/css">
	.st0{fill:url(#SVGID_1_);}
	.st1{fill:url(#SVGID_2_);stroke:url(#SVGID_3_);stroke-miterlimit:10;}
	.st2{fill:url(#SVGID_4_);stroke:url(#SVGID_5_);stroke-miterlimit:10;}
</style>
<g>
	<linearGradient id="SVGID_1_" gradientUnits="userSpaceOnUse" x1="489.2459" y1="499.7972" x2="274.814" y2="128.3903">
		<stop  offset="0" style="stop-color:#F2D432"/>
		<stop  offset="1" style="stop-color:#DEB800"/>
	</linearGradient>
	<path class="st0" d="M501.7,242.7c0-80.7-67.5-145.6-149.1-141.4c-96.1,3.8-161.4,108.1-123.2,195.9h-0.3L340,557.6
		c7.5,17.7,32.6,17.7,40.1,0l110.9-260.4h-0.3C497.8,280.4,501.7,262,501.7,242.7z"/>
	<linearGradient id="SVGID_2_" gradientUnits="userSpaceOnUse" x1="404.8511" y1="325.8564" x2="314.4255" y2="169.2348">
		<stop  offset="0" style="stop-color:#DEB800;stop-opacity:0.5"/>
		<stop  offset="1" style="stop-color:#F4F0EF;stop-opacity:0.5"/>
	</linearGradient>
	<linearGradient id="SVGID_3_" gradientUnits="userSpaceOnUse" x1="405.1011" y1="326.2895" x2="314.1755" y2="168.8018">
		<stop  offset="0" style="stop-color:#DEB800;stop-opacity:0.5"/>
		<stop  offset="1" style="stop-color:#F4F0EF;stop-opacity:0.3"/>
	</linearGradient>
	<path class="st1" d="M450.1,247.6c0,49.9-40.4,90.3-90.3,90.3C240,333.1,240,162,359.8,157.3C409.6,157.3,450.1,197.7,450.1,247.6z
		"/>
	<linearGradient id="SVGID_4_" gradientUnits="userSpaceOnUse" x1="402.4052" y1="635.1821" x2="317.1183" y2="487.4608">
		<stop  offset="0" style="stop-color:#DEB800;stop-opacity:0.5"/>
		<stop  offset="1" style="stop-color:#F4F0EF;stop-opacity:0.5"/>
	</linearGradient>
	<linearGradient id="SVGID_5_" gradientUnits="userSpaceOnUse" x1="221.508" y1="561.5451" x2="498.492" y2="561.5451">
		<stop  offset="0" style="stop-color:#DEB800;stop-opacity:0.5"/>
		<stop  offset="1" style="stop-color:#F4F0EF;stop-opacity:0.3"/>
	</linearGradient>
	<path class="st2" d="M498,561.5c0,31.7-61.9,57.3-138.3,57.3c-183.6-3.1-183.5-111.5,0-114.6C436.1,504.2,498,529.9,498,561.5z"/>
</g>
</svg>
