<?xml version="1.0" encoding="utf-8"?>
<!-- Generator: Adobe Illustrator 25.0.1, SVG Export Plug-In . SVG Version: 6.00 Build 0)  -->
<svg version="1.1" id="Layer_1" xmlns="http://www.w3.org/2000/svg" xmlns:xlink="http://www.w3.org/1999/xlink" x="0px" y="0px"
	 viewBox="0 0 720 720" style="enable-background:new 0 0 720 720;" xml:space="preserve">
<style type="text/css">
	.st0{fill:url(#SVGID_1_);}
	.st1{opacity:0.38;fill:url(#SVGID_2_);stroke:url(#SVGID_3_);stroke-miterlimit:10;}
	.st2{opacity:0.38;fill:url(#SVGID_4_);stroke:url(#SVGID_5_);stroke-miterlimit:10;}
</style>
<g>
	<linearGradient id="SVGID_1_" gradientUnits="userSpaceOnUse" x1="488.8717" y1="499.3925" x2="275.0606" y2="129.0609">
		<stop  offset="0" style="stop-color:#FFFFFF"/>
		<stop  offset="1" style="stop-color:#000000"/>
	</linearGradient>
	<path class="st0" d="M501.3,243c0-80.5-67.3-145.2-148.7-141c-95.9,3.8-160.9,107.7-122.8,195.3h-0.3l110.6,259.7
		c7.5,17.6,32.5,17.6,40,0l110.6-259.7h-0.3C497.4,280.7,501.3,262.3,501.3,243z"/>
	<linearGradient id="SVGID_2_" gradientUnits="userSpaceOnUse" x1="405.0724" y1="325.9553" x2="314.9087" y2="169.7871">
		<stop  offset="0" style="stop-color:#FFFFFF"/>
		<stop  offset="1" style="stop-color:#000000"/>
	</linearGradient>
	<linearGradient id="SVGID_3_" gradientUnits="userSpaceOnUse" x1="405.3224" y1="326.3883" x2="314.6587" y2="169.3541">
		<stop  offset="0" style="stop-color:#FFFFFF"/>
		<stop  offset="1" style="stop-color:#000000;stop-opacity:0.5"/>
	</linearGradient>
	<path class="st1" d="M450.2,247.9c0,49.7-40.3,90.1-90.1,90.1c-119.5-4.7-119.4-175.4,0-180.1C409.8,157.9,450.2,198.2,450.2,247.9
		z"/>
	<linearGradient id="SVGID_4_" gradientUnits="userSpaceOnUse" x1="402.7196" y1="634.3854" x2="317.6796" y2="487.0918">
		<stop  offset="0" style="stop-color:#FFFFFF"/>
		<stop  offset="1" style="stop-color:#000000"/>
	</linearGradient>
	<linearGradient id="SVGID_5_" gradientUnits="userSpaceOnUse" x1="222.3447" y1="560.9616" x2="498.5297" y2="560.9616">
		<stop  offset="0" style="stop-color:#FFFFFF"/>
		<stop  offset="1" style="stop-color:#000000;stop-opacity:0.5"/>
	</linearGradient>
	<path class="st2" d="M498,561c0,31.6-61.7,57.2-137.9,57.2c-183-3.1-183-111.2,0-114.3C436.3,503.8,498,529.4,498,561z"/>
</g>
</svg>
