<?xml version="1.0" encoding="utf-8"?>
<!-- Generator: Adobe Illustrator 25.0.1, SVG Export Plug-In . SVG Version: 6.00 Build 0)  -->
<svg version="1.1" id="Layer_1" xmlns="http://www.w3.org/2000/svg" xmlns:xlink="http://www.w3.org/1999/xlink" x="0px" y="0px"
	 viewBox="0 0 720 720" style="enable-background:new 0 0 720 720;" xml:space="preserve">
<style type="text/css">
	.st0{fill:url(#SVGID_1_);}
	.st1{opacity:0.38;fill:url(#SVGID_2_);stroke:url(#SVGID_3_);stroke-miterlimit:10;}
</style>
<g>
	<linearGradient id="SVGID_1_" gradientUnits="userSpaceOnUse" x1="154.4192" y1="418.7496" x2="565.687" y2="418.7496">
		<stop  offset="0" style="stop-color:#FFFFFF"/>
		<stop  offset="1" style="stop-color:#000000"/>
	</linearGradient>
	<path class="st0" d="M418.7,604.4c0-48.6,0-97.1,0-145.7c0-8.6-3.1-15.7-10.9-19.6c-3.3-1.7-7.3-2.6-11.1-2.6
		c-24.5-0.2-49-0.2-73.6-0.1c-13.6,0.1-21.9,8.7-21.9,22.3c0,48.6,0,97.2,0,145.8c-32.1,0-64.2,0-96.3,0
		c-25.4,0-46.9-18.8-50.2-43.9c-0.7-56.7-0.1-113.5-0.2-170.2c0-3.1,0.9-6.4,2.3-9.2c5.4-10.7,13.8-18.7,23.3-25.8
		c50.8-37.6,101.7-75,152.4-112.7c14.2-10.5,29.3-12,45.5-5.7c55,37.3,107.3,79,161.3,117.9c12.2,9.6,26.3,21.7,26.3,38.6
		c-0.1,53.4-0.1,106.8-0.1,160.2c1,28.2-23.5,51-51.2,50.8C482.5,604.3,450.7,604.4,418.7,604.4z"/>
	<linearGradient id="SVGID_2_" gradientUnits="userSpaceOnUse" x1="100.375" y1="233.3525" x2="619.625" y2="233.3525">
		<stop  offset="0" style="stop-color:#FFFFFF"/>
		<stop  offset="1" style="stop-color:#000000"/>
	</linearGradient>
	<linearGradient id="SVGID_3_" gradientUnits="userSpaceOnUse" x1="99.875" y1="233.3525" x2="620.125" y2="233.3525">
		<stop  offset="0" style="stop-color:#FFFFFF"/>
		<stop  offset="1" style="stop-color:#000000;stop-opacity:0.5"/>
	</linearGradient>
	<path class="st1" d="M448.6,169.9c0-6.4,0-12.2,0-17.9c0.1-10.7,7.9-19.7,18.7-20.2c12.1-0.5,24.2-0.6,36.3-0.1
		c12.4,0.4,20.1,9.3,20.2,22.1c0,22.5,0.1,45.1,0,67.6c0,2.8,0.7,4.5,3,6.2c26.3,19.2,52.4,38.5,78.6,57.8
		c15.9,11.7,18.8,30,7.3,45.8c-10.2,17.9-30.7,26.6-48.6,13.8c-14.4-10.3-28.6-21-42.9-31.5c-44.8-33-89.8-65.8-134.4-99.1
		c-13.3-10-36.9-12.3-53.7,0.2c-58.3,43.3-117,86.2-175.5,129.3c-23.2,16.9-44.3,1.8-54.8-21c-5.6-13.3-1-27.7,11.2-36.8
		c10.7-8,21.5-15.9,32.2-23.8c62.1-45.6,124.2-91.2,186.2-137c16.4-12.5,37.8-12.9,54.3-0.8C407.4,139.5,427.7,154.9,448.6,169.9z"
		/>
</g>
</svg>
