<?xml version="1.0" encoding="utf-8"?>
<!-- Generator: Adobe Illustrator 25.0.1, SVG Export Plug-In . SVG Version: 6.00 Build 0)  -->
<svg version="1.1" id="Layer_1" xmlns="http://www.w3.org/2000/svg" xmlns:xlink="http://www.w3.org/1999/xlink" x="0px" y="0px"
	 viewBox="0 0 720 720" style="enable-background:new 0 0 720 720;" xml:space="preserve">
<style type="text/css">
	.st0{fill:url(#SVGID_1_);}
	.st1{fill:url(#SVGID_2_);stroke:url(#SVGID_3_);stroke-miterlimit:10;}
</style>
<g>
	<linearGradient id="SVGID_1_" gradientUnits="userSpaceOnUse" x1="153.8223" y1="418.9202" x2="566.2842" y2="418.9202">
		<stop  offset="0" style="stop-color:#F2D432"/>
		<stop  offset="1" style="stop-color:#DEB800"/>
	</linearGradient>
	<path class="st0" d="M418.9,605.1c0-48.8,0-97.4,0-146.1c0-8.7-3.1-15.7-10.9-19.7c-3.3-1.7-7.4-2.6-11.1-2.6
		c-24.6-0.2-49.2-0.2-73.8-0.1c-13.6,0.1-22,8.7-22,22.3c0,48.8,0,97.4,0,146.2c-32.2,0-64.4,0-96.6,0c-25.5,0-47-18.9-50.3-44
		c-0.7-56.9-0.1-113.8-0.2-170.7c0-3.1,0.9-6.5,2.3-9.3c5.4-10.7,13.8-18.8,23.3-25.8c51-37.7,102-75.3,152.9-113
		c14.2-10.6,29.4-12,45.6-5.7c55.1,37.4,107.6,79.3,161.8,118.2c12.3,9.6,26.3,21.8,26.4,38.7c-0.1,53.6-0.1,107.1-0.1,160.7
		c1.1,28.3-23.5,51.1-51.3,51C482.9,605,450.9,605.1,418.9,605.1z"/>
	<linearGradient id="SVGID_2_" gradientUnits="userSpaceOnUse" x1="99.6211" y1="232.9848" x2="620.3788" y2="232.9848">
		<stop  offset="0" style="stop-color:#DEB800;stop-opacity:0.5"/>
		<stop  offset="1" style="stop-color:#F4F0EF;stop-opacity:0.5"/>
	</linearGradient>
	<linearGradient id="SVGID_3_" gradientUnits="userSpaceOnUse" x1="99.1211" y1="232.9848" x2="620.8788" y2="232.9848">
		<stop  offset="0" style="stop-color:#DEB800;stop-opacity:0.5"/>
		<stop  offset="1" style="stop-color:#F4F0EF;stop-opacity:0.3"/>
	</linearGradient>
	<path class="st1" d="M448.9,169.3c0-6.5,0-12.2,0-18c0.1-10.8,7.9-19.7,18.7-20.2c12.1-0.5,24.3-0.6,36.4-0.1
		c12.4,0.4,20.2,9.3,20.2,22.2c0,22.6,0.1,45.2,0,67.8c0,2.8,0.7,4.5,3,6.2c26.3,19.3,52.6,38.6,78.8,58c15.9,11.7,18.8,30,7.3,46
		c-10.2,17.9-30.8,26.7-48.7,13.8c-14.4-10.4-28.7-21-43-31.5c-45-33.1-90.1-66-134.8-99.4c-13.4-10-37-12.3-53.8,0.2
		c-58.5,43.4-117.3,86.5-176,129.7c-23.3,17-44.5,1.8-55-21.1c-5.6-13.3-1-27.8,11.2-37c10.7-8,21.5-15.9,32.3-23.9
		c62.3-45.8,124.6-91.5,186.7-137.4c16.5-12.5,37.9-12.9,54.4-0.8C407.5,138.9,427.9,154.3,448.9,169.3z"/>
</g>
</svg>
