<?xml version="1.0" encoding="utf-8"?>
<!-- Generator: Adobe Illustrator 25.0.1, SVG Export Plug-In . SVG Version: 6.00 Build 0)  -->
<svg version="1.1" id="Layer_1" xmlns="http://www.w3.org/2000/svg" xmlns:xlink="http://www.w3.org/1999/xlink" x="0px" y="0px"
	 viewBox="0 0 720 720" style="enable-background:new 0 0 720 720;" xml:space="preserve">
<style type="text/css">
	.st0{fill:url(#SVGID_1_);}
	.st1{fill:url(#SVGID_2_);stroke:url(#SVGID_3_);stroke-linejoin:round;stroke-miterlimit:10;}
</style>
<g>
	<linearGradient id="SVGID_1_" gradientUnits="userSpaceOnUse" x1="153.608" y1="380.3581" x2="564.3016" y2="380.3581">
		<stop  offset="0" style="stop-color:#BC896F"/>
		<stop  offset="0.9985" style="stop-color:#B27149"/>
	</linearGradient>
	<path class="st0" d="M417.5,565.8c0-1.8,0-3,0-4.3c0-47.1,0-94.2,0-141.3c0-8.6-3.1-15.6-10.9-19.6c-3.3-1.7-7.3-2.6-11.1-2.6
		c-24.5-0.2-49-0.2-73.5-0.1c-13.5,0.1-21.9,8.7-21.9,22.2c0,47.1,0,94.2,0,141.3c0,1.3,0,2.7,0,4.3c-1.3,0-2.3,0-3.4,0
		c-30.9,0-61.9,0-92.8,0c-25.4,0-46.8-18.8-50.1-43.9c-0.3-2.2-0.3-4.4-0.3-6.6c0-54.5,0-109,0.1-163.5c0-3.1,0.9-6.4,2.3-9.2
		c5.4-10.7,13.8-18.7,23.2-25.7C230,279.4,280.8,242,331.5,204.4c14.2-10.5,29.3-12,45.4-5.7c2.9,1.1,5.5,2.9,8,4.8
		C436,241.1,487,278.8,538,316.5c8.2,6,15.5,13,21.1,21.5c3.4,5.2,5.2,10.7,5.1,17c-0.1,53.3-0.1,106.7-0.1,160
		c0,19-8.2,33.5-24.4,43.3c-8.1,5-17.1,7.5-26.7,7.4c-30.6,0-61.3,0-91.9,0C420.1,565.8,419,565.8,417.5,565.8z"/>
	<linearGradient id="SVGID_2_" gradientUnits="userSpaceOnUse" x1="99.5475" y1="195.1639" x2="618.1754" y2="195.1639">
		<stop  offset="1.501339e-03" style="stop-color:#B27149;stop-opacity:0.5"/>
		<stop  offset="1" style="stop-color:#F4F0EF"/>
	</linearGradient>
	<linearGradient id="SVGID_3_" gradientUnits="userSpaceOnUse" x1="99.0475" y1="195.1639" x2="618.6754" y2="195.1639">
		<stop  offset="1.501342e-03" style="stop-color:#B27149;stop-opacity:0.5"/>
		<stop  offset="1" style="stop-color:#F4F0EF"/>
	</linearGradient>
	<path class="st1" d="M447.4,131.8c0-6.4,0-12.2,0-17.9c0.1-10.7,7.9-19.7,18.7-20.1c12.1-0.5,24.2-0.6,36.2-0.1
		c12.4,0.4,20.1,9.3,20.1,22.1c0,22.5,0.1,45,0,67.5c0,2.8,0.7,4.5,3,6.2c26.2,19.2,52.4,38.5,78.5,57.8
		c15.8,11.7,18.8,29.9,7.3,45.8c-1.8,2.4-3.5,4.9-5.4,7.3c-10.7,13.7-29,16.6-43.1,6.4c-14.4-10.3-28.6-20.9-42.8-31.4
		c-44.8-33-89.7-65.7-134.3-99c-13.3-9.9-36.9-12.2-53.6,0.2c-58.3,43.3-116.9,86.1-175.3,129.1c-15.9,11.7-34.4,8.9-46-7
		c-3.2-4.5-6.7-8.9-8.8-13.9c-5.6-13.3-1-27.7,11.2-36.8c10.7-8,21.4-15.9,32.2-23.8c62-45.6,124-91.1,186-136.8
		c14.3-10.6,29.4-12.2,45.7-5.9c3,1.2,5.9,3.1,8.5,5.1c19.7,14.4,39.3,28.8,58.9,43.2C445.2,130.3,446,130.8,447.4,131.8z"/>
</g>
</svg>
