<?xml version="1.0" encoding="utf-8"?>
<!-- Generator: Adobe Illustrator 25.0.1, SVG Export Plug-In . SVG Version: 6.00 Build 0)  -->
<svg version="1.1" id="Layer_1" xmlns="http://www.w3.org/2000/svg" xmlns:xlink="http://www.w3.org/1999/xlink" x="0px" y="0px"
	 viewBox="0 0 720 720" style="enable-background:new 0 0 720 720;" xml:space="preserve">
<style type="text/css">
	.st0{opacity:0.38;fill:url(#SVGID_1_);stroke:url(#SVGID_2_);stroke-miterlimit:10;}
	.st1{opacity:0.67;fill:#F4EDED;}
</style>
<g>
	<g>
		
			<image style="overflow:visible;" width="1710" height="1817" xlink:href="93A0C557.png"  transform="matrix(0.24 0 0 0.24 161.04 24.48)">
		</image>
	</g>
	<linearGradient id="SVGID_1_" gradientUnits="userSpaceOnUse" x1="113.1542" y1="325.3896" x2="674.8966" y2="645.9132">
		<stop  offset="0" style="stop-color:#FFFFFF"/>
		<stop  offset="1" style="stop-color:#000000"/>
	</linearGradient>
	<linearGradient id="SVGID_2_" gradientUnits="userSpaceOnUse" x1="102.0605" y1="457.9101" x2="617.9395" y2="457.9101">
		<stop  offset="0" style="stop-color:#FFFFFF"/>
		<stop  offset="1" style="stop-color:#000000;stop-opacity:0.5"/>
	</linearGradient>
	<path class="st0" d="M590.5,659.4H129.5c-14.8,0-27-12-27-26.6l30.7-348.5c0-15.3,10.7-27.8,23.8-27.8h406
		c13.1,0,23.8,12.5,23.8,27.8l30.7,348.5C617.4,647.4,605.3,659.4,590.5,659.4z"/>
	<path class="st1" d="M268.3,367.6c0,19.9-16.1,36-36,36c-47.7-1.9-47.7-70,0-71.9C252.3,331.7,268.3,347.8,268.3,367.6z"/>
	<path class="st1" d="M535.1,367.6c0,19.9-16.1,36-36,36c-47.7-1.9-47.7-70,0-71.9C519,331.7,535.1,347.8,535.1,367.6z"/>
</g>
</svg>
