<?xml version="1.0" encoding="utf-8"?>
<!-- Generator: Adobe Illustrator 25.0.1, SVG Export Plug-In . SVG Version: 6.00 Build 0)  -->
<svg version="1.1" id="Layer_1" xmlns="http://www.w3.org/2000/svg" xmlns:xlink="http://www.w3.org/1999/xlink" x="0px" y="0px"
	 viewBox="0 0 720 720" style="enable-background:new 0 0 720 720;" xml:space="preserve">
<style type="text/css">
	.st0{opacity:0.76;fill:url(#SVGID_1_);stroke:url(#SVGID_2_);stroke-width:0.5;stroke-miterlimit:10;}
	.st1{opacity:0.67;fill:#F4EDED;}
</style>
<g>
	<g>
		
			<image style="overflow:visible;" width="1727" height="1836" xlink:href="964926AF.png"  transform="matrix(0.24 0 0 0.24 159.12 20.88)">
		</image>
	</g>
	<linearGradient id="SVGID_1_" gradientUnits="userSpaceOnUse" x1="110.2492" y1="324.9823" x2="678.6024" y2="649.2779">
		<stop  offset="3.534978e-03" style="stop-color:#FFFFFF;stop-opacity:0.7"/>
		<stop  offset="1" style="stop-color:#A0AE32"/>
	</linearGradient>
	<linearGradient id="SVGID_2_" gradientUnits="userSpaceOnUse" x1="99.2809" y1="459.0623" x2="620.7191" y2="459.0623">
		<stop  offset="0" style="stop-color:#FFFFFF"/>
		<stop  offset="1" style="stop-color:#718416;stop-opacity:0.8"/>
	</linearGradient>
	<path class="st0" d="M593.2,662.9H126.8c-15,0-27.3-12.1-27.3-26.9l31-352.6c0-15.5,10.8-28.2,24-28.2h410.8
		c13.2,0,24,12.7,24,28.2l31,352.6C620.5,650.8,608.2,662.9,593.2,662.9z"/>
	<path class="st1" d="M267.3,367.7c0,20.1-16.3,36.4-36.4,36.4c-48.3-1.9-48.2-70.8,0-72.8C251,331.3,267.3,347.6,267.3,367.7z"/>
	<path class="st1" d="M537.2,367.7c0,20.1-16.3,36.4-36.4,36.4c-48.3-1.9-48.2-70.8,0-72.8C520.9,331.3,537.2,347.6,537.2,367.7z"/>
</g>
</svg>
