<?xml version="1.0" encoding="utf-8"?>
<!-- Generator: Adobe Illustrator 25.0.1, SVG Export Plug-In . SVG Version: 6.00 Build 0)  -->
<svg version="1.1" id="Layer_1" xmlns="http://www.w3.org/2000/svg" xmlns:xlink="http://www.w3.org/1999/xlink" x="0px" y="0px"
	 viewBox="0 0 720 720" style="enable-background:new 0 0 720 720;" xml:space="preserve">
<style type="text/css">
	.st0{fill:url(#SVGID_1_);}
	.st1{fill:url(#SVGID_2_);stroke:url(#SVGID_3_);stroke-miterlimit:10;}
	.st2{fill:url(#SVGID_4_);stroke:url(#SVGID_5_);stroke-miterlimit:10;}
</style>
<g>
	<linearGradient id="SVGID_1_" gradientUnits="userSpaceOnUse" x1="225.4408" y1="358.481" x2="505.9281" y2="358.481">
		<stop  offset="0" style="stop-color:#F2D432"/>
		<stop  offset="1" style="stop-color:#DEB800"/>
	</linearGradient>
	<path class="st0" d="M457.8,472.7H273.5c-26.4,0-48.1-21.6-48.1-48.1V292.4c0-26.4,21.6-48.1,48.1-48.1h184.3
		c26.4,0,48.1,21.6,48.1,48.1v132.2C505.9,451,484.3,472.7,457.8,472.7z"/>
	<linearGradient id="SVGID_2_" gradientUnits="userSpaceOnUse" x1="96.8745" y1="476.2823" x2="623.1959" y2="476.2823">
		<stop  offset="0" style="stop-color:#DEB800;stop-opacity:0.5"/>
		<stop  offset="1" style="stop-color:#F4F0EF;stop-opacity:0.5"/>
	</linearGradient>
	<linearGradient id="SVGID_3_" gradientUnits="userSpaceOnUse" x1="96.3745" y1="476.2823" x2="623.6959" y2="476.2823">
		<stop  offset="0" style="stop-color:#DEB800;stop-opacity:0.5"/>
		<stop  offset="1" style="stop-color:#F4F0EF;stop-opacity:0.3"/>
	</linearGradient>
	<path class="st1" d="M194.9,390.9c18.6-5.3,38.3-6.6,38.3-6.6c9.2-0.6,17.9-0.5,26.3,0.1c22.4,1.6,44.8,3.9,66.9,7.9
		c34.3,6.3,68.2,14.3,102.2,21.7c21.4,3.3,22.8,36.9,2.8,43.5c-5.7,1.9-11.9,3.4-17.9,3.3c-23.1-0.6-46.2-1.9-69.3-2.8
		c-14.5-0.6-29-1-43.4-1.1c-2.5,0-5,2.3-7.5,3.6c1.4,2.6,2.3,5.9,4.4,7.7c80.7,74.4,193.3,9.5,247.4-65.4c15.5-20.3,37.1-31,62-35.1
		c10.3-1.4,19.9,1.5,14.6,12.8c-10.1,24.9-24.5,47.4-40.8,68.7c-61.1,80.2-156.2,148.5-261.6,133.5c-33.2-4.3-73.6-4.6-124.8-17.6
		c-46.2-11.8-69.6-18.1-84.2-39.2c-1.5-2.2-17.8-26.5-12.2-56.3C108.1,415.5,181.2,394.8,194.9,390.9z"/>
	
		<linearGradient id="SVGID_4_" gradientUnits="userSpaceOnUse" x1="700.0372" y1="578.0405" x2="1226.3586" y2="578.0405" gradientTransform="matrix(-1 0 0 -1 1323.1627 821.7582)">
		<stop  offset="0" style="stop-color:#DEB800;stop-opacity:0.5"/>
		<stop  offset="1" style="stop-color:#F4F0EF;stop-opacity:0.5"/>
	</linearGradient>
	
		<linearGradient id="SVGID_5_" gradientUnits="userSpaceOnUse" x1="699.5372" y1="578.0405" x2="1226.8586" y2="578.0405" gradientTransform="matrix(-1 0 0 -1 1323.1627 821.7582)">
		<stop  offset="0" style="stop-color:#DEB800;stop-opacity:0.5"/>
		<stop  offset="1" style="stop-color:#F4F0EF;stop-opacity:0.3"/>
	</linearGradient>
	<path class="st2" d="M525.1,329.1c-18.6,5.3-38.3,6.6-38.3,6.6c-9.2,0.6-17.9,0.5-26.3-0.1c-22.4-1.6-44.8-3.9-66.9-7.9
		c-34.3-6.3-68.2-14.3-102.2-21.7c-21.4-3.3-22.8-36.9-2.8-43.5c5.7-1.9,11.9-3.4,17.9-3.3c23.1,0.6,46.2,1.9,69.3,2.8
		c14.5,0.6,29,1,43.4,1.1c2.5,0,5-2.3,7.5-3.6c-1.4-2.6-2.3-5.9-4.4-7.7c-80.7-74.4-193.3-9.5-247.4,65.4
		c-15.5,20.3-37.1,31-62,35.1c-10.3,1.4-19.9-1.5-14.6-12.8c10.1-24.9,24.5-47.4,40.8-68.7c61.1-80.2,156.2-148.5,261.6-133.5
		c33.2,4.3,73.6,4.6,124.8,17.6c46.2,11.8,69.6,18.1,84.2,39.2c1.5,2.2,17.8,26.5,12.2,56.3C611.9,304.5,538.8,325.2,525.1,329.1z"
		/>
</g>
</svg>
