<?xml version="1.0" encoding="utf-8"?>
<!-- Generator: Adobe Illustrator 25.0.1, SVG Export Plug-In . SVG Version: 6.00 Build 0)  -->
<svg version="1.1" id="Layer_1" xmlns="http://www.w3.org/2000/svg" xmlns:xlink="http://www.w3.org/1999/xlink" x="0px" y="0px"
	 viewBox="0 0 720 720" style="enable-background:new 0 0 720 720;" xml:space="preserve">
<style type="text/css">
	.st0{fill:url(#SVGID_1_);}
	.st1{fill:url(#SVGID_2_);}
	.st2{fill:url(#SVGID_3_);stroke:url(#SVGID_4_);stroke-linejoin:round;stroke-miterlimit:10;}
	.st3{fill:url(#SVGID_5_);stroke:url(#SVGID_6_);stroke-linejoin:round;stroke-miterlimit:10;}
	.st4{fill:url(#SVGID_7_);}
</style>
<g>
	
		<linearGradient id="SVGID_1_" gradientUnits="userSpaceOnUse" x1="1086.4202" y1="613.9376" x2="1049.4976" y2="549.9857" gradientTransform="matrix(-1 0 0 1 1324.7034 0)">
		<stop  offset="0" style="stop-color:#BC896F"/>
		<stop  offset="0.9985" style="stop-color:#B27149"/>
	</linearGradient>
	<ellipse class="st0" cx="256.7" cy="582" rx="37" ry="36.9"/>
	
		<linearGradient id="SVGID_2_" gradientUnits="userSpaceOnUse" x1="974.9521" y1="613.9376" x2="938.0295" y2="549.9857" gradientTransform="matrix(-1 0 0 1 1324.7034 0)">
		<stop  offset="0" style="stop-color:#BC896F"/>
		<stop  offset="0.9985" style="stop-color:#B27149"/>
	</linearGradient>
	<ellipse class="st1" cx="368.2" cy="582" rx="37" ry="36.9"/>
	
		<linearGradient id="SVGID_3_" gradientUnits="userSpaceOnUse" x1="719.8395" y1="255.2682" x2="1028.2872" y2="255.2682" gradientTransform="matrix(-1 0 0 1 1324.7034 0)">
		<stop  offset="1.501339e-03" style="stop-color:#B27149;stop-opacity:0.5"/>
		<stop  offset="1" style="stop-color:#F4F0EF"/>
	</linearGradient>
	
		<linearGradient id="SVGID_4_" gradientUnits="userSpaceOnUse" x1="719.3395" y1="255.2682" x2="1028.7872" y2="255.2682" gradientTransform="matrix(-1 0 0 1 1324.7034 0)">
		<stop  offset="1.501342e-03" style="stop-color:#B27149;stop-opacity:0.5"/>
		<stop  offset="1" style="stop-color:#F4F0EF"/>
	</linearGradient>
	<path class="st2" d="M449.1,101.1c86.3-0.1,155.7,68.6,155.8,154.1c0,85.3-69.1,154.1-155,154.2c-84.2,0.1-153.4-69.4-153.4-154
		C296.4,171.1,365.5,101.2,449.1,101.1z M460.9,292.7c18.3,0.7,36.1,1.5,54.5,2.2c4-23.4,4.1-46.7,1.3-70.6
		c-18.8,0.8-37.2,1.5-55.8,2.3C460.9,248.9,460.9,270.7,460.9,292.7z M385.5,224.3c-3.2,23.7-2.5,47,1.1,70.7
		c18.2-0.8,36-1.5,54.2-2.3c0-22.1,0-44,0-66.1C422.2,225.8,404.1,225.1,385.5,224.3z M322.1,214.3c-9.6,30.1-8.6,60.2,2.8,90
		c14.1-2.5,27.6-4.9,40.5-7.2c0-24.8,0-49.5,0-74.6C351.2,219.8,337.1,217.1,322.1,214.3z M536.5,222.5c0,24.5,0,49.1,0,74.4
		c12.1,1.9,25.8,4.1,40.3,6.4c11-29,11.8-58.3,2.9-88C564.8,217.8,550.7,220.1,536.5,222.5z M461,121.4c0,29.2,0,56.8,0,85.7
		c17.3-0.6,34.4-1.3,52.9-1.9C504.4,171.4,494.8,139.6,461,121.4z M417.3,138.9c-11.5,13.7-18.6,29.7-23.7,46.6
		c-1.9,6.1-3.4,12.4-5.3,19.7c18.1,0.7,35.1,1.3,52.6,2c0-28.8,0-56.6,0-85.2C430.8,125.3,423.6,131.4,417.3,138.9z M461,312
		c0,25.6,0,50.5,0,76.7c3.7-1.9,7.5-3,10-5.4c7.3-7.1,14.9-14.2,20.8-22.4c9.7-13.6,15.2-29.4,19.7-46.8
		C494.2,313.4,477.9,312.7,461,312z M440.9,312c-16.6,0.7-33.1,1.4-49.5,2c1.4,28.8,29.6,70.6,49.5,73.8
		C440.9,362.9,440.9,338,440.9,312z M531.5,199.6c0.3,1.3,2.6,3.2,3.8,3c12.1-1.6,24.1-3.5,37.2-5.4c-16.5-32.5-40.7-54.7-73.7-67.3
		C514.9,150.8,525.1,174.3,531.5,199.6z M329.3,196.2c13.4,2.4,25.9,4.7,39.3,7.1c5.4-25,12.7-48.7,26.4-70.2
		C365.8,146.2,344.4,167,329.3,196.2z M568.3,321.4c-13-2-25.1-3.8-37.9-5.8c-7,23.4-16.3,45.4-31.4,64.8
		C528.8,369.4,551.4,349.9,568.3,321.4z M368.6,316.4c-10.1,1.6-22,3.5-35.3,5.6c15.2,25.6,35.2,43.6,60,55.4
		C385.3,357.6,377.3,337.7,368.6,316.4z"/>
	
		<linearGradient id="SVGID_5_" gradientUnits="userSpaceOnUse" x1="1145.8617" y1="555.1786" x2="990.5297" y2="286.1356" gradientTransform="matrix(-1 0 0 1 1324.7034 0)">
		<stop  offset="1.501339e-03" style="stop-color:#B27149;stop-opacity:0.5"/>
		<stop  offset="1" style="stop-color:#F4F0EF"/>
	</linearGradient>
	
		<linearGradient id="SVGID_6_" gradientUnits="userSpaceOnUse" x1="1146.1117" y1="555.6116" x2="990.2797" y2="285.7026" gradientTransform="matrix(-1 0 0 1 1324.7034 0)">
		<stop  offset="1.501342e-03" style="stop-color:#B27149;stop-opacity:0.5"/>
		<stop  offset="1" style="stop-color:#F4F0EF"/>
	</linearGradient>
	<path class="st3" d="M131.6,203.8h53.1l0.4,0c9-1,17.2,5.5,18.2,14.5c8.5,84.6,17.1,169.3,25.6,253.9c0,0.1,0,0.3,0,0.4
		c0,0.1,0,0.3,0,0.4l6.2,55.3c61.4,0.1,122.7,0.3,184.1,0.4c1.3,0,8.1,0.2,13.7,5.7c3.5,3.5,5.7,8.3,5.7,13.7v1.6
		c0,10.6-8.7,19.4-19.4,19.4H266c-0.9,0.1-1.7,0.2-2.6,0.2h-53.1l-0.4,0c-9,1-17.2-5.5-18.2-14.5c-10.6-103.4-21.2-206.7-31.9-310.1
		h-28.2c-9,0-16.4-7.4-16.4-16.4v-8.2C115.1,211.2,122.5,203.8,131.6,203.8z"/>
	
		<linearGradient id="SVGID_7_" gradientUnits="userSpaceOnUse" x1="1090.0302" y1="502.9989" x2="983.1786" y2="317.9267" gradientTransform="matrix(-1 0 0 1 1324.7034 0)">
		<stop  offset="0" style="stop-color:#BC896F"/>
		<stop  offset="0.9985" style="stop-color:#B27149"/>
	</linearGradient>
	<path class="st4" d="M193.4,277h74c5.8,0,10.7,4.1,11.7,9.8c13.8,76.9,78.4,137,157.2,143.1c6.8,0.5,11.9,6.5,11.1,13.3l-1.8,14.8
		c-2.1,17.3-17.2,30.4-35.2,30.4H219.1c-18,0-33.1-13.1-35.2-30.4l-18.3-150.7C163.7,291.2,176.7,277,193.4,277z"/>
</g>
</svg>
