<?xml version="1.0" encoding="utf-8"?>
<!-- Generator: Adobe Illustrator 25.0.1, SVG Export Plug-In . SVG Version: 6.00 Build 0)  -->
<svg version="1.1" id="Layer_1" xmlns="http://www.w3.org/2000/svg" xmlns:xlink="http://www.w3.org/1999/xlink" x="0px" y="0px"
	 viewBox="0 0 720 720" style="enable-background:new 0 0 720 720;" xml:space="preserve">
<style type="text/css">
	.st0{fill:url(#SVGID_1_);}
	.st1{fill:url(#SVGID_2_);}
	.st2{fill:url(#SVGID_3_);stroke:url(#SVGID_4_);stroke-miterlimit:10;}
	.st3{fill:url(#SVGID_5_);stroke:url(#SVGID_6_);stroke-miterlimit:10;}
	.st4{fill:url(#SVGID_7_);}
</style>
<g>
	
		<linearGradient id="SVGID_1_" gradientUnits="userSpaceOnUse" x1="1088.5106" y1="618.3806" x2="1050.9037" y2="553.2435" gradientTransform="matrix(-1 0 0 1 1324.7034 0)">
		<stop  offset="0" style="stop-color:#F2D432"/>
		<stop  offset="1" style="stop-color:#DEB800"/>
	</linearGradient>
	<path class="st0" d="M217.3,585.8c0,20.7,16.8,37.5,37.6,37.5c49.9-2,49.9-73.1,0-75.1C234.2,548.3,217.3,565.1,217.3,585.8z"/>
	
		<linearGradient id="SVGID_2_" gradientUnits="userSpaceOnUse" x1="975.1001" y1="618.3806" x2="937.4931" y2="553.2435" gradientTransform="matrix(-1 0 0 1 1324.7034 0)">
		<stop  offset="0" style="stop-color:#F2D432"/>
		<stop  offset="1" style="stop-color:#DEB800"/>
	</linearGradient>
	<path class="st1" d="M330.7,585.8c0,20.7,16.8,37.5,37.6,37.5c49.9-2,49.9-73.1,0-75.1C347.6,548.3,330.7,565.1,330.7,585.8z"/>
	
		<linearGradient id="SVGID_3_" gradientUnits="userSpaceOnUse" x1="715.5723" y1="253.0365" x2="1029.3955" y2="253.0365" gradientTransform="matrix(-1 0 0 1 1324.7034 0)">
		<stop  offset="0" style="stop-color:#DEB800;stop-opacity:0.5"/>
		<stop  offset="1" style="stop-color:#F4F0EF;stop-opacity:0.5"/>
	</linearGradient>
	
		<linearGradient id="SVGID_4_" gradientUnits="userSpaceOnUse" x1="715.0723" y1="253.0365" x2="1029.8955" y2="253.0365" gradientTransform="matrix(-1 0 0 1 1324.7034 0)">
		<stop  offset="0" style="stop-color:#DEB800;stop-opacity:0.5"/>
		<stop  offset="1" style="stop-color:#F4F0EF;stop-opacity:0.3"/>
	</linearGradient>
	<path class="st2" d="M450.6,96.6c87.8-0.1,158.5,69.8,158.5,156.8c-8.2,207.4-304.8,208.7-313.8,0.2
		C295.3,167.8,365.6,96.7,450.6,96.6z M462.7,291.5c18.6,0.8,36.8,1.5,55.5,2.3c4.1-23.8,4.2-47.5,1.4-71.9
		c-19.1,0.8-37.9,1.5-56.8,2.3C462.7,247,462.7,269.2,462.7,291.5z M386,221.9c-3.2,24.1-2.6,47.8,1.1,71.9
		c18.5-0.8,36.7-1.6,55.2-2.3c0-22.5,0-44.8,0-67.3C423.3,223.5,404.9,222.7,386,221.9z M321.5,211.8c-9.8,30.7-8.7,61.2,2.8,91.5
		c14.3-2.5,28.1-5,41.2-7.3c0-25.2,0-50.4,0-75.9C351,217.3,336.7,214.6,321.5,211.8z M539.5,220.1c0,25,0,49.9,0,75.7
		c12.4,2,26.3,4.2,41,6.6c11.2-29.5,12-59.3,2.9-89.5C568.4,215.3,554,217.7,539.5,220.1z M462.8,117.2c0,29.7,0,57.8,0,87.2
		c17.6-0.6,35.1-1.3,53.8-2C506.9,168.1,497.1,135.8,462.8,117.2z M418.3,135c-16.4,19.6-23.4,42.8-29.5,67.4
		c18.4,0.7,35.8,1.4,53.5,2.1c0-29.3,0-57.6,0-86.7C432.1,121.2,424.7,127.4,418.3,135z M462.8,311.1c0,26,0,51.4,0,78
		c3.7-2,7.6-3,10.1-5.5c7.4-7.3,15.2-14.4,21.1-22.8c9.8-13.9,15.4-29.9,20-47.6C496.6,312.6,480,311.9,462.8,311.1z M442.3,311.2
		c-16.9,0.7-33.6,1.4-50.4,2.1c1.4,29.3,30.1,71.9,50.4,75.1C442.3,362.9,442.3,337.6,442.3,311.2z M534.5,196.8
		c0.3,1.3,2.7,3.2,3.8,3.1c12.3-1.6,24.6-3.5,37.8-5.5c-16.8-33.1-41.4-55.6-75-68.5C517.6,147.2,528,171.1,534.5,196.8z
		 M328.7,193.4c13.6,2.5,26.4,4.8,40,7.3c5.5-25.4,12.9-49.6,26.8-71.4C365.9,142.5,344.1,163.6,328.7,193.4z M572,320.8
		c-13.2-2-25.5-3.9-38.6-5.9c-7.1,23.9-16.6,46.2-31.9,66C531.7,369.5,554.7,349.7,572,320.8z M368.8,315.6
		c-10.3,1.6-22.4,3.6-35.9,5.7c15.5,26,35.8,44.3,61,56.4C385.7,357.5,377.6,337.3,368.8,315.6z"/>
	
		<linearGradient id="SVGID_5_" gradientUnits="userSpaceOnUse" x1="1149.0792" y1="558.5402" x2="991.0445" y2="284.8159" gradientTransform="matrix(-1 0 0 1 1324.7034 0)">
		<stop  offset="0" style="stop-color:#DEB800;stop-opacity:0.5"/>
		<stop  offset="1" style="stop-color:#F4F0EF;stop-opacity:0.5"/>
	</linearGradient>
	
		<linearGradient id="SVGID_6_" gradientUnits="userSpaceOnUse" x1="1149.3292" y1="558.9732" x2="990.7945" y2="284.3829" gradientTransform="matrix(-1 0 0 1 1324.7034 0)">
		<stop  offset="0" style="stop-color:#DEB800;stop-opacity:0.5"/>
		<stop  offset="1" style="stop-color:#F4F0EF;stop-opacity:0.3"/>
	</linearGradient>
	<path class="st3" d="M127.6,201.1h54.1c9.3-1.3,17.9,5.4,18.9,14.7c8.7,86.1,17.4,172.2,26.1,258.3c0,0.3,0,0.6,0,0.9l6.3,56.3
		c62.4,0.1,124.9,0.3,187.3,0.4c1.3,0,8.3,0.2,13.9,5.8c12.3,12.1,4.2,35.5-13.9,35.3c0,0-155.9,0-155.9,0c-0.9,0.1-1.7,0.2-2.6,0.2
		h-54.1c-9.3,1.3-17.9-5.4-18.9-14.7c-10.8-105.2-21.6-210.3-32.4-315.5h-28.7c-9.2,0-16.7-7.5-16.7-16.7v-8.3
		C110.9,208.6,118.4,201.1,127.6,201.1z"/>
	
		<linearGradient id="SVGID_7_" gradientUnits="userSpaceOnUse" x1="1092.2142" y1="505.4909" x2="983.5006" y2="317.1935" gradientTransform="matrix(-1 0 0 1 1324.7034 0)">
		<stop  offset="0" style="stop-color:#F2D432"/>
		<stop  offset="1" style="stop-color:#DEB800"/>
	</linearGradient>
	<path class="st4" d="M190.5,275.5h75.3c5.9,0,10.8,4.2,11.9,10c14,78.3,79.8,139.3,160,145.6c6.9,0.5,12.1,6.6,11.3,13.5l-1.8,15.1
		c-2.1,17.6-17.5,30.9-35.8,30.9H216.7c-18.3,0-33.6-13.3-35.8-30.9l-18.6-153.3C160.3,290,173.5,275.5,190.5,275.5z"/>
</g>
</svg>
