<?xml version="1.0" encoding="utf-8"?>
<!-- Generator: Adobe Illustrator 25.0.1, SVG Export Plug-In . SVG Version: 6.00 Build 0)  -->
<svg version="1.1" id="Layer_1" xmlns="http://www.w3.org/2000/svg" xmlns:xlink="http://www.w3.org/1999/xlink" x="0px" y="0px"
	 viewBox="0 0 720 720" style="enable-background:new 0 0 720 720;" xml:space="preserve">
<style type="text/css">
	.st0{fill:url(#SVGID_1_);}
	.st1{fill:url(#SVGID_2_);}
	.st2{opacity:0.38;fill:url(#SVGID_3_);stroke:url(#SVGID_4_);stroke-miterlimit:10;}
	.st3{opacity:0.38;fill:url(#SVGID_5_);stroke:url(#SVGID_6_);stroke-miterlimit:10;}
	.st4{fill:url(#SVGID_7_);}
</style>
<g>
	
		<linearGradient id="SVGID_1_" gradientUnits="userSpaceOnUse" x1="1088.3264" y1="617.9963" x2="1050.7754" y2="552.956" gradientTransform="matrix(-1 0 0 1 1324.7034 0)">
		<stop  offset="0" style="stop-color:#FFFFFF"/>
		<stop  offset="1" style="stop-color:#000000"/>
	</linearGradient>
	<path class="st0" d="M217.5,585.5c0,20.7,16.8,37.5,37.6,37.5c49.8-2,49.8-73,0-75C234.4,548,217.5,564.8,217.5,585.5z"/>
	
		<linearGradient id="SVGID_2_" gradientUnits="userSpaceOnUse" x1="975.0846" y1="617.9963" x2="937.5336" y2="552.956" gradientTransform="matrix(-1 0 0 1 1324.7034 0)">
		<stop  offset="0" style="stop-color:#FFFFFF"/>
		<stop  offset="1" style="stop-color:#000000"/>
	</linearGradient>
	<path class="st1" d="M330.8,585.5c0,20.7,16.8,37.5,37.6,37.5c49.8-2,49.8-73,0-75C347.6,548,330.8,564.8,330.8,585.5z"/>
	
		<linearGradient id="SVGID_3_" gradientUnits="userSpaceOnUse" x1="715.9429" y1="253.1956" x2="1029.2992" y2="253.1956" gradientTransform="matrix(-1 0 0 1 1324.7034 0)">
		<stop  offset="0" style="stop-color:#FFFFFF"/>
		<stop  offset="1" style="stop-color:#000000"/>
	</linearGradient>
	
		<linearGradient id="SVGID_4_" gradientUnits="userSpaceOnUse" x1="715.4428" y1="253.1956" x2="1029.7992" y2="253.1956" gradientTransform="matrix(-1 0 0 1 1324.7034 0)">
		<stop  offset="0" style="stop-color:#FFFFFF"/>
		<stop  offset="1" style="stop-color:#000000;stop-opacity:0.5"/>
	</linearGradient>
	<path class="st2" d="M450.5,97c87.7-0.1,158.2,69.7,158.3,156.5c-8.2,207.1-304.4,208.4-313.4,0.2C295.4,168.1,365.6,97.1,450.5,97
		z M462.5,291.6c18.6,0.8,36.7,1.5,55.4,2.3c4-23.8,4.2-47.4,1.4-71.7c-19.1,0.8-37.8,1.5-56.7,2.3
		C462.5,247.2,462.5,269.3,462.5,291.6z M385.9,222.2c-3.2,24.1-2.6,47.8,1.1,71.8c18.5-0.8,36.6-1.5,55.1-2.3c0-22.4,0-44.7,0-67.2
		C423.2,223.7,404.8,222.9,385.9,222.2z M321.5,212c-9.8,30.6-8.7,61.1,2.8,91.4c14.3-2.5,28-5,41.2-7.3c0-25.2,0-50.3,0-75.8
		C351,217.5,336.7,214.9,321.5,212z M539.3,220.3c0,24.9,0,49.8,0,75.6c12.3,2,26.2,4.2,40.9,6.5c11.2-29.5,12-59.3,2.9-89.4
		C568.1,215.5,553.7,217.9,539.3,220.3z M462.6,117.6c0,29.6,0,57.7,0,87.1c17.5-0.6,35-1.3,53.8-2
		C506.7,168.4,496.9,136.1,462.6,117.6z M418.2,135.4c-16.4,19.6-23.4,42.7-29.5,67.3c18.4,0.7,35.7,1.4,53.4,2
		c0-29.2,0-57.5,0-86.5C431.9,121.5,424.6,127.8,418.2,135.4z M462.6,311.2c0,26,0,51.3,0,77.9c3.7-2,7.6-3,10.1-5.5
		c7.4-7.2,15.2-14.4,21.1-22.8c9.8-13.8,15.4-29.8,20-47.5C496.4,312.6,479.8,311.9,462.6,311.2z M442.2,311.2
		c-16.9,0.7-33.6,1.4-50.3,2.1c1.4,29.3,30,71.8,50.3,75C442.2,362.9,442.2,337.6,442.2,311.2z M534.2,197.1
		c0.3,1.3,2.7,3.2,3.8,3.1c12.3-1.6,24.5-3.5,37.8-5.5c-16.8-33-41.3-55.6-74.9-68.4C517.3,147.5,527.7,171.3,534.2,197.1z
		 M328.8,193.6c13.6,2.5,26.3,4.8,39.9,7.3c5.5-25.4,12.9-49.5,26.8-71.3C365.9,142.8,344.1,163.9,328.8,193.6z M571.6,320.8
		c-13.2-2-25.4-3.9-38.5-5.9c-7.1,23.8-16.6,46.2-31.9,65.9C531.5,369.5,554.4,349.7,571.6,320.8z M368.7,315.7
		c-10.2,1.6-22.3,3.6-35.9,5.7c15.4,26,35.7,44.3,60.9,56.3C385.7,357.5,377.5,337.4,368.7,315.7z"/>
	
		<linearGradient id="SVGID_5_" gradientUnits="userSpaceOnUse" x1="1148.8051" y1="558.2449" x2="991.0053" y2="284.9277" gradientTransform="matrix(-1 0 0 1 1324.7034 0)">
		<stop  offset="0" style="stop-color:#FFFFFF"/>
		<stop  offset="1" style="stop-color:#000000"/>
	</linearGradient>
	
		<linearGradient id="SVGID_6_" gradientUnits="userSpaceOnUse" x1="1149.0551" y1="558.6779" x2="990.7553" y2="284.4947" gradientTransform="matrix(-1 0 0 1 1324.7034 0)">
		<stop  offset="0" style="stop-color:#FFFFFF"/>
		<stop  offset="1" style="stop-color:#000000;stop-opacity:0.5"/>
	</linearGradient>
	<path class="st3" d="M127.9,201.3h54c9.2-1.3,17.8,5.4,18.9,14.7c8.7,86,17.3,172,26,257.9c0,0.3,0,0.6,0,0.9l6.3,56.2
		c62.3,0.1,124.7,0.3,187,0.4c1.3,0,8.3,0.2,13.9,5.8c12.3,12.1,4.2,35.4-13.9,35.2c0,0-155.7,0-155.7,0c-0.9,0.1-1.7,0.2-2.6,0.2
		h-54c-9.2,1.3-17.8-5.4-18.9-14.7c-10.8-105-21.6-210-32.4-315h-28.7c-9.2,0-16.7-7.5-16.7-16.7V218
		C111.2,208.8,118.8,201.3,127.9,201.3z"/>
	
		<linearGradient id="SVGID_7_" gradientUnits="userSpaceOnUse" x1="1092.0245" y1="505.2745" x2="983.4727" y2="317.2571" gradientTransform="matrix(-1 0 0 1 1324.7034 0)">
		<stop  offset="0" style="stop-color:#FFFFFF"/>
		<stop  offset="1" style="stop-color:#000000"/>
	</linearGradient>
	<path class="st4" d="M190.8,275.7H266c5.9,0,10.8,4.2,11.9,10c14,78.2,79.7,139.1,159.7,145.4c6.9,0.5,12.1,6.6,11.3,13.5
		l-1.8,15.1c-2.1,17.6-17.5,30.9-35.7,30.9H216.9c-18.2,0-33.6-13.3-35.7-30.9l-18.6-153.1C160.6,290.1,173.8,275.7,190.8,275.7z"/>
</g>
</svg>
