<?xml version="1.0" encoding="utf-8"?>
<!-- Generator: Adobe Illustrator 25.0.1, SVG Export Plug-In . SVG Version: 6.00 Build 0)  -->
<svg version="1.1" id="Layer_1" xmlns="http://www.w3.org/2000/svg" xmlns:xlink="http://www.w3.org/1999/xlink" x="0px" y="0px"
	 viewBox="0 0 720 720" style="enable-background:new 0 0 720 720;" xml:space="preserve">
<style type="text/css">
	.st0{fill:url(#SVGID_1_);}
	.st1{fill:url(#SVGID_2_);}
	.st2{opacity:0.76;fill:url(#SVGID_3_);stroke:url(#SVGID_4_);stroke-width:0.5;stroke-miterlimit:10;}
	.st3{opacity:0.76;fill:url(#SVGID_5_);stroke:url(#SVGID_6_);stroke-width:0.5;stroke-miterlimit:10;}
	.st4{fill:url(#SVGID_7_);}
</style>
<g>
	
		<linearGradient id="SVGID_1_" gradientUnits="userSpaceOnUse" x1="1086.3892" y1="613.8729" x2="1049.476" y2="549.9373" gradientTransform="matrix(-1 0 0 1 1324.7034 0)">
		<stop  offset="0" style="stop-color:#ADBA3E"/>
		<stop  offset="1" style="stop-color:#718200"/>
	</linearGradient>
	<ellipse class="st0" cx="256.8" cy="581.9" rx="37" ry="36.9"/>
	
		<linearGradient id="SVGID_2_" gradientUnits="userSpaceOnUse" x1="974.9496" y1="613.8729" x2="938.0364" y2="549.9373" gradientTransform="matrix(-1 0 0 1 1324.7034 0)">
		<stop  offset="0" style="stop-color:#ADBA3E"/>
		<stop  offset="1" style="stop-color:#718200"/>
	</linearGradient>
	<ellipse class="st1" cx="368.2" cy="581.9" rx="37" ry="36.9"/>
	
		<linearGradient id="SVGID_3_" gradientUnits="userSpaceOnUse" x1="719.9018" y1="255.2948" x2="1028.271" y2="255.2948" gradientTransform="matrix(-1 0 0 1 1324.7034 0)">
		<stop  offset="3.534978e-03" style="stop-color:#FFFFFF;stop-opacity:0.7"/>
		<stop  offset="1" style="stop-color:#A0AE32"/>
	</linearGradient>
	
		<linearGradient id="SVGID_4_" gradientUnits="userSpaceOnUse" x1="719.6518" y1="255.2948" x2="1028.521" y2="255.2948" gradientTransform="matrix(-1 0 0 1 1324.7034 0)">
		<stop  offset="0" style="stop-color:#FFFFFF"/>
		<stop  offset="1" style="stop-color:#718416;stop-opacity:0.8"/>
	</linearGradient>
	<path class="st2" d="M449,101.2c86.3-0.1,155.7,68.6,155.8,154c0,85.3-69.1,154.1-155,154.1c-84.1,0.1-153.3-69.4-153.4-154
		C296.4,171.1,365.5,101.3,449,101.2z M460.9,292.7c18.3,0.7,36.1,1.5,54.5,2.2c4-23.4,4.1-46.7,1.3-70.6
		c-18.8,0.8-37.2,1.5-55.8,2.3C460.9,249,460.9,270.8,460.9,292.7z M385.5,224.3c-3.2,23.7-2.5,47,1.1,70.7
		c18.2-0.8,36-1.5,54.2-2.3c0-22.1,0-44,0-66.1C422.2,225.9,404.1,225.1,385.5,224.3z M322.1,214.4c-9.6,30.1-8.6,60.2,2.8,89.9
		c14.1-2.5,27.6-4.9,40.5-7.2c0-24.8,0-49.5,0-74.6C351.2,219.8,337.1,217.2,322.1,214.4z M536.4,222.5c0,24.5,0,49,0,74.4
		c12.1,1.9,25.8,4.1,40.2,6.4c11-29,11.8-58.3,2.9-88C564.8,217.8,550.7,220.2,536.4,222.5z M461,121.4c0,29.2,0,56.8,0,85.7
		c17.3-0.6,34.4-1.3,52.9-1.9C504.4,171.4,494.8,139.7,461,121.4z M417.3,138.9c-11.4,13.7-18.5,29.7-23.7,46.6
		c-1.9,6.1-3.4,12.4-5.3,19.7c18.1,0.7,35.1,1.3,52.6,2c0-28.8,0-56.6,0-85.2C430.8,125.3,423.5,131.5,417.3,138.9z M461,312
		c0,25.6,0,50.5,0,76.7c3.7-1.9,7.5-3,10-5.4c7.3-7.1,14.9-14.2,20.8-22.4c9.7-13.6,15.2-29.3,19.7-46.8
		C494.2,313.4,477.9,312.7,461,312z M440.9,312c-16.6,0.7-33.1,1.4-49.5,2c1.4,28.8,29.6,70.6,49.5,73.8
		C440.9,362.9,440.9,338,440.9,312z M531.5,199.7c0.3,1.3,2.6,3.2,3.8,3c12.1-1.6,24.1-3.5,37.2-5.4c-16.5-32.5-40.7-54.7-73.7-67.3
		C514.8,150.9,525,174.3,531.5,199.7z M329.3,196.3c13.4,2.4,25.9,4.7,39.3,7.1c5.4-25,12.7-48.7,26.4-70.2
		C365.8,146.3,344.4,167,329.3,196.3z M568.3,321.4c-13-2-25-3.8-37.9-5.8c-7,23.4-16.3,45.4-31.3,64.8
		C528.8,369.4,551.3,349.9,568.3,321.4z M368.6,316.4c-10.1,1.6-22,3.5-35.3,5.6c15.2,25.5,35.1,43.6,60,55.4
		C385.3,357.6,377.2,337.7,368.6,316.4z"/>
	
		<linearGradient id="SVGID_5_" gradientUnits="userSpaceOnUse" x1="1145.8157" y1="555.129" x2="990.5231" y2="286.1544" gradientTransform="matrix(-1 0 0 1 1324.7034 0)">
		<stop  offset="3.534978e-03" style="stop-color:#FFFFFF;stop-opacity:0.7"/>
		<stop  offset="1" style="stop-color:#A0AE32"/>
	</linearGradient>
	
		<linearGradient id="SVGID_6_" gradientUnits="userSpaceOnUse" x1="1145.9407" y1="555.3455" x2="990.3981" y2="285.9379" gradientTransform="matrix(-1 0 0 1 1324.7034 0)">
		<stop  offset="0" style="stop-color:#FFFFFF"/>
		<stop  offset="1" style="stop-color:#718416;stop-opacity:0.8"/>
	</linearGradient>
	<path class="st3" d="M131.6,203.9h53.1l0.4,0c9-1,17.2,5.5,18.2,14.5c8.5,84.6,17.1,169.2,25.6,253.8c0,0.1,0,0.3,0,0.4
		c0,0.1,0,0.3,0,0.4l6.2,55.3c61.4,0.1,122.7,0.3,184.1,0.4c1.3,0,8.1,0.2,13.7,5.7c3.5,3.5,5.7,8.3,5.7,13.7v1.6
		c0,10.6-8.7,19.4-19.4,19.4H266c-0.9,0.1-1.7,0.2-2.6,0.2h-53.1l-0.4,0c-9,1-17.2-5.5-18.2-14.5c-10.6-103.3-21.2-206.7-31.9-310
		h-28.2c-9,0-16.4-7.4-16.4-16.4v-8.2C115.2,211.2,122.6,203.9,131.6,203.9z"/>
	
		<linearGradient id="SVGID_7_" gradientUnits="userSpaceOnUse" x1="1089.9983" y1="502.9625" x2="983.174" y2="317.9374" gradientTransform="matrix(-1 0 0 1 1324.7034 0)">
		<stop  offset="0" style="stop-color:#ADBA3E"/>
		<stop  offset="1" style="stop-color:#718200"/>
	</linearGradient>
	<path class="st4" d="M193.5,277h74c5.8,0,10.7,4.1,11.7,9.8c13.8,76.9,78.4,136.9,157.2,143.1c6.8,0.5,11.9,6.5,11.1,13.3
		l-1.8,14.8c-2.1,17.3-17.2,30.4-35.2,30.4H219.2c-18,0-33.1-13.1-35.2-30.4l-18.3-150.6C163.8,291.2,176.8,277,193.5,277z"/>
</g>
</svg>
