<?xml version="1.0" encoding="utf-8"?>
<!-- Generator: Adobe Illustrator 25.0.1, SVG Export Plug-In . SVG Version: 6.00 Build 0)  -->
<svg version="1.1" id="Layer_1" xmlns="http://www.w3.org/2000/svg" xmlns:xlink="http://www.w3.org/1999/xlink" x="0px" y="0px"
	 viewBox="0 0 720 720" style="enable-background:new 0 0 720 720;" xml:space="preserve">
<style type="text/css">
	.st0{fill:url(#SVGID_1_);}
	.st1{fill:url(#SVGID_2_);stroke:url(#SVGID_3_);stroke-miterlimit:10;}
	.st2{fill:url(#SVGID_4_);stroke:url(#SVGID_5_);stroke-miterlimit:10;}
</style>
<g>
	
		<linearGradient id="SVGID_1_" gradientUnits="userSpaceOnUse" x1="193.0018" y1="519.3755" x2="540.9982" y2="519.3755" gradientTransform="matrix(1 0 0 1 -7 -55)">
		<stop  offset="0" style="stop-color:#F2D432"/>
		<stop  offset="1" style="stop-color:#DEB800"/>
	</linearGradient>
	<path class="st0" d="M508.6,619H211.4c-13.9,0-25.4-11.4-25.4-25.4V335.1c0-13.9,11.4-25.4,25.4-25.4h297.3
		c13.9,0,25.4,11.4,25.4,25.4v258.6C534,607.6,522.6,619,508.6,619z"/>
	<linearGradient id="SVGID_2_" gradientUnits="userSpaceOnUse" x1="360" y1="532.9563" x2="360" y2="344.1122">
		<stop  offset="0" style="stop-color:#DEB800;stop-opacity:0.5"/>
		<stop  offset="1" style="stop-color:#F4F0EF;stop-opacity:0.5"/>
	</linearGradient>
	
		<linearGradient id="SVGID_3_" gradientUnits="userSpaceOnUse" x1="446.6417" y1="-189" x2="587.3207" y2="-189" gradientTransform="matrix(-1.037167e-09 -1 1 -1.037167e-09 549 919)">
		<stop  offset="0" style="stop-color:#DEB800;stop-opacity:0.5"/>
		<stop  offset="1" style="stop-color:#F4F0EF;stop-opacity:0.3"/>
	</linearGradient>
	<path class="st1" d="M514.1,350.7v102.5c0,10.2-8.4,18.6-18.6,18.6h-271c-10.2,0-18.6-8.4-18.6-18.6V350.7
		c0-10.2,8.4-18.6,18.6-18.6h271C505.7,332.2,514.1,340.5,514.1,350.7z"/>
	<linearGradient id="SVGID_4_" gradientUnits="userSpaceOnUse" x1="230.0352" y1="246.6873" x2="486.8783" y2="246.6873">
		<stop  offset="0" style="stop-color:#DEB800;stop-opacity:0.5"/>
		<stop  offset="1" style="stop-color:#F4F0EF;stop-opacity:0.5"/>
	</linearGradient>
	<linearGradient id="SVGID_5_" gradientUnits="userSpaceOnUse" x1="229.5352" y1="246.6873" x2="487.3783" y2="246.6873">
		<stop  offset="0" style="stop-color:#DEB800;stop-opacity:0.5"/>
		<stop  offset="1" style="stop-color:#F4F0EF;stop-opacity:0.3"/>
	</linearGradient>
	<path class="st2" d="M477.9,261.8l-66.3,0V119c0-9.9-8.1-18-18-18h-70.4c-9.9,0-18,8.1-18,18v142.9l-66.1,0c-8,0-12,9.7-6.4,15.4
		c35.9,36,71.8,71.8,107.5,107.6c10.1,10.1,26.4,10.1,36.5,0c35.7-35.8,71.6-71.6,107.5-107.6C489.9,271.6,485.9,261.8,477.9,261.8z
		"/>
</g>
</svg>
