<?xml version="1.0" encoding="utf-8"?>
<!-- Generator: Adobe Illustrator 25.0.1, SVG Export Plug-In . SVG Version: 6.00 Build 0)  -->
<svg version="1.1" id="Layer_1" xmlns="http://www.w3.org/2000/svg" xmlns:xlink="http://www.w3.org/1999/xlink" x="0px" y="0px"
	 viewBox="0 0 720 720" style="enable-background:new 0 0 720 720;" xml:space="preserve">
<style type="text/css">
	.st0{fill:url(#SVGID_1_);}
	.st1{fill:url(#SVGID_2_);stroke:url(#SVGID_3_);stroke-linejoin:round;stroke-miterlimit:10;}
	.st2{fill:url(#SVGID_4_);stroke:url(#SVGID_5_);stroke-linejoin:round;stroke-miterlimit:10;}
</style>
<g>
	
		<linearGradient id="SVGID_1_" gradientUnits="userSpaceOnUse" x1="193.7135" y1="518.9485" x2="540.2865" y2="518.9485" gradientTransform="matrix(1 0 0 1 -7 -55)">
		<stop  offset="0" style="stop-color:#BC896F"/>
		<stop  offset="0.9985" style="stop-color:#B27149"/>
	</linearGradient>
	<path class="st0" d="M499.2,618H220.8c-18.8,0-34.1-15.4-34.1-34.1V344.1c0-18.8,15.4-34.1,34.1-34.1h278.3
		c18.8,0,34.1,15.4,34.1,34.1v239.8C533.3,602.6,517.9,618,499.2,618z"/>
	<linearGradient id="SVGID_2_" gradientUnits="userSpaceOnUse" x1="360" y1="532.2489" x2="360" y2="344.1772">
		<stop  offset="1.501339e-03" style="stop-color:#B27149;stop-opacity:0.5"/>
		<stop  offset="1" style="stop-color:#F4F0EF"/>
	</linearGradient>
	
		<linearGradient id="SVGID_3_" gradientUnits="userSpaceOnUse" x1="447.0992" y1="-189" x2="587.2068" y2="-189" gradientTransform="matrix(-1.037167e-09 -1 1 -1.037167e-09 549 919)">
		<stop  offset="1.501342e-03" style="stop-color:#B27149;stop-opacity:0.5"/>
		<stop  offset="1" style="stop-color:#F4F0EF"/>
	</linearGradient>
	<path class="st1" d="M513.4,355.6v92.6c0,12.8-10.5,23.3-23.3,23.3H229.8c-12.8,0-23.3-10.5-23.3-23.3v-92.6
		c0-12.8,10.5-23.3,23.3-23.3h260.3C503,332.3,513.4,342.8,513.4,355.6z"/>
	<linearGradient id="SVGID_4_" gradientUnits="userSpaceOnUse" x1="230.5668" y1="247.1508" x2="486.3593" y2="247.1508">
		<stop  offset="1.501339e-03" style="stop-color:#B27149;stop-opacity:0.5"/>
		<stop  offset="1" style="stop-color:#F4F0EF"/>
	</linearGradient>
	<linearGradient id="SVGID_5_" gradientUnits="userSpaceOnUse" x1="230.0668" y1="247.1508" x2="486.8593" y2="247.1508">
		<stop  offset="1.501342e-03" style="stop-color:#B27149;stop-opacity:0.5"/>
		<stop  offset="1" style="stop-color:#F4F0EF"/>
	</linearGradient>
	<path class="st2" d="M477.4,262.2l-66,0V120c0-9.9-8-17.9-17.9-17.9h-70.2c-9.9,0-17.9,8-17.9,17.9v142.3l-65.8,0
		c-8,0-12,9.7-6.3,15.3c35.8,35.8,71.5,71.5,107.1,107.1c10.1,10.1,26.3,10.1,36.4,0c35.6-35.6,71.3-71.3,107-107.1
		C489.4,271.9,485.4,262.2,477.4,262.2z"/>
</g>
</svg>
