<?xml version="1.0" encoding="utf-8"?>
<!-- Generator: Adobe Illustrator 25.0.1, SVG Export Plug-In . SVG Version: 6.00 Build 0)  -->
<svg version="1.1" id="Layer_1" xmlns="http://www.w3.org/2000/svg" xmlns:xlink="http://www.w3.org/1999/xlink" x="0px" y="0px"
	 viewBox="0 0 1080 1080" style="enable-background:new 0 0 1080 1080;" xml:space="preserve">
<style type="text/css">
	.st0{fill:#718416;}
</style>
<g>
	<path class="st0" d="M524.1,267.8c-1,0-1.9,0-2.9,0c-24.1,0-46.9,9-64.3,25.4c-18.1,17.1-28.5,40.4-29.2,65.6
		c-0.7,25.2,8.3,49.1,25.4,67.2s40.4,28.5,65.6,29.2c25.2,0.7,49.1-8.3,67.2-25.4c18.1-17.1,28.5-40.4,29.2-65.6
		c0.7-25.2-8.3-49.1-25.4-67.2C572.6,278.9,549.3,268.5,524.1,267.8z M601.7,368.3h-22.5c-1.2,10.8-5.4,20.9-12,29.3l15.8,15.8
		l-9.7,9.7l-15.8-15.8c-8.5,6.7-18.6,10.8-29.3,12v22.5h-13.8v-22.5c-10.8-1.2-20.9-5.4-29.3-12l-15.8,15.8l-9.7-9.7l15.8-15.8
		c-6.7-8.5-10.8-18.5-12.1-29.3h-22.4v-13.8h22.5c1.2-10.8,5.4-20.9,12-29.3l-15.8-15.8l9.7-9.7l15.8,15.8
		c8.5-6.7,18.5-10.8,29.3-12.1V281h13.8v22.5c10.8,1.2,20.9,5.4,29.3,12l15.8-15.8l9.7,9.7l-15.8,15.8c6.7,8.5,10.8,18.5,12.1,29.3
		h22.4L601.7,368.3L601.7,368.3z"/>
	<path class="st0" d="M534,187.9c-6.6-6.6-17.3-6.6-23.9,0L348.5,349.4c-6.6,6.6-6.6,17.3,0,23.9L510,534.8c3.2,3.2,7.4,4.9,12,4.9
		c4.5,0,8.8-1.8,12-4.9l161.5-161.5c6.6-6.6,6.6-17.3,0-23.9L534,187.9z M630.2,364.6c-0.8,29.3-12.9,56.3-34,76.2
		c-20.3,19.1-46.7,29.5-74.8,29.5c-1.1,0-2.2,0-3.3,0c-29.3-0.9-56.3-12.9-76.2-34c-19.9-21.1-30.4-48.8-29.5-78.1
		c0.9-29.3,12.9-56.3,34-76.2c21.1-19.9,48.8-30.4,78.1-29.5c29.3,0.9,56.3,12.9,76.2,34C620.6,307.6,631.1,335.4,630.2,364.6z"/>
	<path class="st0" d="M522.6,316.9c-0.5,0-0.9,0-1.4,0c-11.5,0-22.3,4.3-30.6,12.1c-8.6,8.1-13.6,19.2-13.9,31.2s3.9,23.4,12.1,32
		c8.1,8.6,19.2,13.6,31.2,13.9c12,0.3,23.3-3.9,32-12.1s13.6-19.2,13.9-31.2s-3.9-23.4-12.1-32C545.7,322.1,534.6,317.2,522.6,316.9
		z"/>
	<path class="st0" d="M679.2,196.2c19.4,17.8,31.8,41.6,35.9,68.8c1.5,10,1.8,20.2,1,30.4c28-39.4,27.3-91.4-4.3-123.4
		c-16.2-16.4-38.4-25.4-62.7-25.4c-21.1,0-42.3,6.9-60.5,19.4c3.1-0.2,6.2-0.3,9.4-0.3C628.9,165.6,657.7,176.5,679.2,196.2z"/>
	<path class="st0" d="M668.9,207.4c-19.1-17.5-44.3-26.6-70.8-26.6c-13.9,0-28.2,2.5-42.1,7.5l137.8,137.8
		C709.6,282.7,700.2,236.1,668.9,207.4z"/>
	<path class="st0" d="M763.4,38.1H316.6c-44.9,0-81.6,36.7-81.6,81.6v446.8c0,44.9,36.7,81.6,81.6,81.6h446.8
		c44.9,0,81.6-36.7,81.6-81.6V119.8C845,74.9,808.3,38.1,763.4,38.1z M706.2,338.6c12.5,12.5,12.5,32.9,0,45.5L544.7,545.6
		c-6,6-14.1,9.4-22.7,9.4c-8.6,0-16.7-3.3-22.7-9.4L337.8,384.1c-12.5-12.5-12.5-32.9,0-45.5l161.5-161.5
		c12.5-12.5,32.9-12.5,45.5,0l5.2,5.2c3.8-5,7.9-9.8,12.5-14.3c24.6-24.3,56.2-36.7,86.8-36.7c27.3,0,53.7,9.9,73.5,29.9
		c41.8,42.3,37.9,114.1-8.8,160.2c-4.3,4.2-8.7,8-13.4,11.5L706.2,338.6z"/>
</g>
<g>
	<path id="SVGID_61_" class="st0" d="M225.6,764.7h38.1c9.1,0,17.6,1.5,25.6,4.6c8,3.1,15,7.4,21,13.1c6,5.6,10.7,12.4,14.2,20.3
		s5.2,16.7,5.2,26.4c0,9-1.7,17.6-5,25.7c-3.3,8.1-7.9,15.1-13.8,21.2c-5.9,6.1-12.9,10.9-21.1,14.4c-8.1,3.6-17.1,5.3-26.7,5.3
		h-37.5L225.6,764.7L225.6,764.7z M208.3,742c-3.6,0-5.5,1.9-5.5,5.7v165.6c0,2,0.5,3.3,1.7,4c1.1,0.7,2.4,1,3.8,1h55.5
		c8.2,0,16.1-1,23.7-3.1c7.6-2.1,14.7-5,21.3-8.8c6.6-3.8,12.5-8.4,17.9-13.7c5.4-5.3,10-11.3,13.8-17.8c3.8-6.5,6.8-13.5,8.9-21
		c2.1-7.5,3.1-15.3,3.1-23.5c0-8.2-1-16.1-3.1-23.7c-2.1-7.6-5-14.6-8.7-21.1c-3.8-6.5-8.3-12.5-13.6-17.9
		c-5.3-5.4-11.2-10-17.8-13.8c-6.6-3.8-13.7-6.7-21.4-8.8c-7.7-2.1-15.7-3.1-24.2-3.1L208.3,742L208.3,742z"/>
</g>
<g>
	<path id="SVGID_64_" class="st0" d="M467.3,777l32.1,81.2h-64.7L467.3,777z M463.4,742c-1.3,0-2.3,0.2-3,0.5
		c-0.8,0.3-1.3,0.7-1.7,1.1c-0.4,0.4-0.7,0.9-0.9,1.4c-0.2,0.5-0.4,1-0.6,1.4L388.6,911c-0.1,0.2-0.2,0.5-0.2,0.8
		c-0.1,0.3-0.1,0.7-0.2,1c0,0.4-0.1,0.8-0.1,1.4c0,2.8,1.8,4.2,5.5,4.2h12.6c1.6,0,2.9-0.4,3.9-1.2c1-0.8,1.8-1.9,2.4-3.2
		c1.1-3.3,2.8-7.8,5.1-13.5c2.3-5.7,4.8-12.1,7.6-19.1h83.4l13.1,32.7c0.5,1.3,1.3,2.4,2.4,3.2c1,0.8,2.3,1.2,3.9,1.2h12.6
		c3.6,0,5.5-1.4,5.5-4.2c0-0.2,0-0.5-0.1-0.9c-0.1-0.4-0.2-0.7-0.2-1.1c-0.1-0.4-0.2-0.8-0.2-1.2l-67.9-164.6
		c-0.2-0.4-0.4-0.9-0.6-1.4c-0.2-0.5-0.5-1-0.9-1.4c-0.4-0.4-1-0.8-1.7-1.1c-0.8-0.3-1.7-0.5-2.9-0.5L463.4,742L463.4,742z"/>
</g>
<g>
	<path id="SVGID_67_" class="st0" d="M590.3,742c-1.7,0-3.1,0.5-4,1.5c-0.9,1-1.4,2.3-1.4,3.7v165.9c0,3.5,1.7,5.2,5.2,5.2H691
		c1.6,0,2.8-0.5,3.8-1.5s1.4-2.3,1.4-3.7v-12.2c0-1.7-0.5-3.1-1.5-4.1c-1-1-2.3-1.5-3.7-1.5h-83.2V747.2c0-1.7-0.5-3.1-1.5-3.9
		c-1-0.9-2.2-1.3-3.7-1.3H590.3z"/>
</g>
<g>
	<path id="SVGID_70_" class="st0" d="M796.6,777l32.1,81.2h-64.7L796.6,777z M792.6,742c-1.3,0-2.3,0.2-3,0.5
		c-0.8,0.3-1.3,0.7-1.7,1.1c-0.4,0.4-0.7,0.9-0.9,1.4c-0.2,0.5-0.4,1-0.6,1.4L717.8,911c-0.1,0.2-0.2,0.5-0.2,0.8
		c-0.1,0.3-0.1,0.7-0.2,1c0,0.4-0.1,0.8-0.1,1.4c0,2.8,1.8,4.2,5.5,4.2h12.6c1.6,0,2.9-0.4,3.9-1.2c1-0.8,1.8-1.9,2.4-3.2
		c1.1-3.3,2.8-7.8,5.1-13.5s4.8-12.1,7.6-19.1h83.4l13.1,32.7c0.5,1.3,1.3,2.4,2.4,3.2c1,0.8,2.3,1.2,3.9,1.2h12.6
		c3.6,0,5.5-1.4,5.5-4.2c0-0.2,0-0.5-0.1-0.9c-0.1-0.4-0.2-0.7-0.2-1.1c-0.1-0.4-0.2-0.8-0.2-1.2l-67.9-164.6
		c-0.2-0.4-0.4-0.9-0.6-1.4c-0.2-0.5-0.5-1-0.9-1.4c-0.4-0.4-1-0.8-1.7-1.1c-0.8-0.3-1.7-0.5-2.9-0.5L792.6,742L792.6,742z"/>
</g>
<g>
	<path id="SVGID_73_" class="st0" d="M257.5,990.4c-1.9,0.6-3.5,1.5-4.9,2.7c-1.4,1.2-2.4,2.5-3.2,4.1c-0.8,1.6-1.1,3.4-1.1,5.3
		c0,1.8,0.3,3.4,0.9,4.8c0.6,1.4,1.6,2.7,2.8,3.8c1.2,1.1,2.7,2.1,4.4,2.9c1.7,0.8,3.7,1.6,5.9,2.1c1.2,0.3,2.5,0.7,3.8,1
		c1.3,0.3,2.4,0.7,3.4,1.3c1,0.5,1.8,1.2,2.5,2c0.6,0.8,0.9,1.9,0.9,3.2c0,1.2-0.3,2.3-1,3.2c-0.7,0.9-1.5,1.6-2.5,2.2
		c-1,0.6-2,1-3.2,1.2c-1.1,0.3-2.1,0.4-3.1,0.4c-0.7,0-1.5-0.1-2.4-0.3c-0.9-0.2-1.9-0.6-2.8-1c-0.9-0.5-1.8-1.1-2.6-1.8
		c-0.8-0.7-1.4-1.6-1.7-2.5c-0.2-0.4-0.5-0.8-0.8-1.1c-0.3-0.3-0.8-0.3-1.4-0.1l-3.5,1.6c-0.2,0.1-0.4,0.2-0.6,0.4s-0.2,0.3-0.3,0.4
		c-0.1,0.2-0.1,0.4,0,0.6c0.1,0.2,0.1,0.5,0.3,0.9c0.6,1.7,1.5,3.1,2.7,4.3c1.2,1.2,2.5,2.2,3.9,3c1.4,0.8,3,1.4,4.6,1.8
		c1.6,0.4,3.2,0.6,4.7,0.6c2.4,0,4.7-0.3,6.8-0.9c2.1-0.6,3.9-1.5,5.4-2.7c1.5-1.2,2.7-2.6,3.5-4.3c0.8-1.7,1.3-3.6,1.3-5.7
		c0-1.9-0.4-3.7-1.1-5.2c-0.8-1.5-1.8-2.9-3.2-4c-1.4-1.2-3-2.1-4.9-3c-1.9-0.8-4-1.5-6.4-2c-1-0.2-2-0.6-3.1-1
		c-1.1-0.4-2.1-0.9-3-1.5c-0.9-0.6-1.6-1.2-2.2-2c-0.6-0.7-0.9-1.5-0.9-2.4c0-1.1,0.2-2.1,0.7-2.9c0.5-0.8,1.1-1.5,1.9-2
		c0.8-0.5,1.7-0.9,2.7-1.2c1-0.2,2-0.4,3.1-0.4c1.2,0,2.2,0.1,3.1,0.4c0.9,0.3,1.6,0.7,2.3,1.1c0.7,0.5,1.3,1,1.8,1.6
		c0.5,0.6,1.1,1.2,1.6,1.9c0.3,0.4,0.7,0.7,0.9,0.8s0.7,0.1,1.3-0.3l2.9-2.2c0.5-0.3,0.7-0.7,0.7-1c0-0.4-0.2-0.8-0.5-1.3
		c-0.9-1.3-1.9-2.4-2.7-3.4c-0.9-1-1.8-1.8-2.9-2.5c-1-0.7-2.3-1.2-3.6-1.5c-1.4-0.3-3-0.5-4.9-0.5
		C261.4,989.5,259.4,989.8,257.5,990.4"/>
</g>
<g>
	<path id="SVGID_76_" class="st0" d="M334.9,990c-1.6,0.3-3,0.8-4.4,1.4c-1.4,0.7-2.6,1.5-3.7,2.6c-1.1,1.1-2,2.4-2.7,3.9
		c-1.5-2.7-3.4-4.8-5.9-6.3c-2.4-1.4-5.6-2.1-9.4-2.1c-1.6,0-3,0.2-4.2,0.5c-1.2,0.3-2.3,0.8-3.3,1.3c-1,0.6-1.8,1.2-2.6,2
		c-0.8,0.7-1.5,1.5-2.2,2.4v-3.8c0-0.4-0.2-0.8-0.5-1.1c-0.3-0.3-0.7-0.5-1.2-0.5h-3.8c-0.4,0-0.8,0.1-1.1,0.4
		c-0.3,0.3-0.5,0.7-0.5,1.2v43.3c0,1.1,0.6,1.6,1.7,1.6h3.8c1.1,0,1.6-0.5,1.6-1.6v-27.1c0-1.9,0.4-3.5,1.1-4.9
		c0.7-1.4,1.6-2.7,2.8-3.6c1.1-1,2.4-1.7,3.8-2.2c1.4-0.5,2.8-0.8,4.2-0.8c2.2,0,4.1,0.4,5.6,1.2c1.5,0.8,2.7,1.8,3.6,3
		c0.9,1.3,1.6,2.6,2,4.2c0.4,1.5,0.6,3,0.6,4.5v25c0,0.9,0.1,1.5,0.4,1.8c0.3,0.4,0.8,0.5,1.7,0.5h2.7c0.7,0,1.2-0.2,1.6-0.6
		c0.4-0.4,0.6-1,0.6-1.9v-24.9c0-2,0.3-3.8,0.8-5.4c0.5-1.6,1.3-3,2.3-4.1c1-1.1,2.3-2,3.7-2.5c1.5-0.6,3.1-0.9,5-0.9
		c2.2,0,4.1,0.4,5.6,1.2c1.5,0.8,2.7,1.8,3.6,3c0.9,1.3,1.6,2.6,2,4.2s0.6,3,0.6,4.5v25c0,0.9,0.1,1.5,0.4,1.8s0.8,0.5,1.7,0.5h2.7
		c0.7,0,1.2-0.2,1.6-0.6c0.4-0.4,0.6-1,0.6-1.9v-24.9c0-2.8-0.4-5.3-1.2-7.8c-0.8-2.4-2-4.5-3.5-6.3s-3.5-3.2-5.8-4.2
		c-2.3-1-4.9-1.6-8-1.6C338,989.5,336.4,989.7,334.9,990"/>
</g>
<g>
	<path id="SVGID_79_" class="st0" d="M384.6,1029.4c-2-0.9-3.8-2.2-5.3-3.8c-1.5-1.6-2.7-3.4-3.5-5.6c-0.9-2.1-1.3-4.3-1.3-6.6
		c0-2.3,0.4-4.5,1.3-6.6c0.9-2.1,2-3.9,3.5-5.5c1.5-1.6,3.3-2.8,5.3-3.7c2-0.9,4.2-1.4,6.5-1.4c2.3,0,4.5,0.5,6.5,1.4
		c2,0.9,3.8,2.2,5.3,3.7c1.5,1.6,2.7,3.4,3.6,5.5c0.9,2.1,1.3,4.3,1.3,6.6c0,2.3-0.4,4.5-1.3,6.6c-0.9,2.1-2.1,3.9-3.6,5.6
		c-1.5,1.6-3.3,2.9-5.3,3.8c-2,0.9-4.2,1.4-6.5,1.4C388.7,1030.8,386.6,1030.3,384.6,1029.4 M384.7,990.3c-2,0.6-3.9,1.4-5.7,2.4
		c-1.8,1-3.4,2.3-4.9,3.8c-1.5,1.5-2.7,3.1-3.8,4.9s-1.9,3.7-2.5,5.7c-0.6,2-0.9,4.2-0.9,6.3c0,2.2,0.3,4.3,0.9,6.4
		c0.6,2,1.4,4,2.5,5.7c1.1,1.8,2.3,3.4,3.8,4.9c1.5,1.5,3.1,2.7,4.9,3.8c1.8,1.1,3.7,1.9,5.7,2.4c2,0.6,4.2,0.9,6.3,0.9
		c3.2,0,6.3-0.6,9-1.9c2.8-1.2,5.2-2.9,7.3-5.1v4.6c0,0.4,0.2,0.8,0.5,1.1c0.3,0.3,0.7,0.5,1.2,0.5h3.8c0.4,0,0.8-0.2,1.1-0.4
		c0.3-0.3,0.5-0.7,0.5-1.2v-43.3c0-1.1-0.6-1.6-1.7-1.6H409c-1.1,0-1.6,0.5-1.6,1.6v4.5c-2.1-2.1-4.5-3.8-7.3-5.1
		c-2.8-1.2-5.8-1.8-9-1.8C388.8,989.4,386.7,989.7,384.7,990.3"/>
</g>
<g>
	<path id="SVGID_82_" class="st0" d="M438.5,990.1c-1,0.4-1.9,0.9-2.7,1.4c-0.8,0.6-1.4,1.2-2,1.8c-0.5,0.7-1,1.3-1.3,1.8v-3.3
		c0-0.4-0.2-0.8-0.5-1.1c-0.3-0.3-0.7-0.5-1.2-0.5h-3.8c-0.4,0-0.8,0.1-1.1,0.4c-0.3,0.3-0.5,0.7-0.5,1.2v43.3
		c0,1.1,0.6,1.6,1.7,1.6h3.8c1.1,0,1.6-0.5,1.6-1.6v-28.7c0-1.6,0.3-3,0.8-4.3c0.5-1.3,1.2-2.3,2.1-3.2s1.9-1.5,3-2
		c1.1-0.5,2.3-0.7,3.5-0.7c1.6,0,3.1,0.2,4.6,0.7c1.4,0.5,2.9,1.2,4.4,2.3c0.2,0.2,0.5,0.3,0.6,0.5c0.2,0.1,0.3,0.2,0.5,0.2
		c0.3,0,0.7-0.2,1-0.6l2.2-3.3c0.1-0.2,0.2-0.5,0.2-0.7c0-0.5-0.2-0.9-0.5-1.2c-0.4-0.3-0.7-0.6-1-0.8c-1-0.7-1.9-1.3-2.8-1.8
		c-0.9-0.5-1.8-0.9-2.8-1.1c-1-0.3-2-0.5-3-0.6c-1.1-0.1-2.3-0.2-3.6-0.2C440.6,989.6,439.5,989.7,438.5,990.1"/>
</g>
<g>
	<path id="SVGID_85_" class="st0" d="M472,980.3c-0.7,0.1-1.3,0.2-1.9,0.3c-0.5,0.1-1,0.2-1.4,0.2c-0.5,0.1-0.8,0.1-0.9,0.2
		c-0.4,0.1-0.7,0.3-0.9,0.5c-0.2,0.2-0.3,0.5-0.3,0.9v7.8h-4.2c-0.6,0-1.1,0.1-1.3,0.2c-0.3,0.2-0.4,0.6-0.4,1.2v3.4
		c0,0.6,0.2,1,0.4,1.2c0.3,0.2,0.7,0.3,1.3,0.3h4.2v31.8c0,1.8,0.3,3.3,0.9,4.5s1.3,2.1,2.2,2.7c0.9,0.7,1.9,1.1,3.1,1.4
		c1.1,0.3,2.3,0.4,3.4,0.4c0.6,0,1-0.2,1.3-0.5c0.3-0.3,0.5-0.8,0.5-1.3v-3c0-0.6-0.2-1.1-0.5-1.4c-0.4-0.3-0.8-0.5-1.4-0.5
		c-0.7,0-1.3-0.2-1.7-0.5s-0.6-0.9-0.6-1.8v-31.7h5.1c0.6,0,1-0.1,1.2-0.4c0.3-0.3,0.4-0.7,0.4-1.4v-2.9c0-0.6-0.1-1.1-0.4-1.3
		c-0.3-0.2-0.7-0.4-1.2-0.4h-5.1v-7.9c0-0.3,0-0.6,0-0.8c0-0.3-0.1-0.5-0.2-0.7c-0.1-0.2-0.3-0.3-0.5-0.4c-0.2-0.1-0.4-0.1-0.6-0.1
		C472.2,980.3,472.1,980.3,472,980.3"/>
</g>
<g>
	<path id="SVGID_88_" class="st0" d="M514.1,976.5c-0.4,0-0.8,0.1-1.1,0.4c-0.3,0.3-0.5,0.7-0.5,1.2v57.1c0,1.1,0.6,1.6,1.7,1.6h3.8
		c1.1,0,1.6-0.5,1.6-1.6v-57.1c0-0.4-0.2-0.8-0.5-1.1c-0.3-0.3-0.7-0.5-1.2-0.5L514.1,976.5L514.1,976.5z"/>
</g>
<g>
	<path id="SVGID_91_" class="st0" d="M547.7,1029.4c-2-0.9-3.8-2.2-5.3-3.7c-1.5-1.6-2.7-3.4-3.6-5.5c-0.9-2.1-1.3-4.3-1.3-6.6
		c0-2.3,0.4-4.5,1.3-6.6c0.9-2.1,2.1-3.9,3.6-5.6c1.5-1.6,3.3-2.9,5.3-3.8s4.2-1.4,6.5-1.4c2.3,0,4.5,0.5,6.5,1.4
		c2,1,3.8,2.2,5.3,3.8c1.5,1.6,2.7,3.4,3.6,5.6c0.9,2.1,1.3,4.3,1.3,6.6c0,2.3-0.4,4.5-1.3,6.6c-0.9,2.1-2,3.9-3.6,5.5
		c-1.5,1.6-3.3,2.8-5.3,3.7c-2,0.9-4.2,1.4-6.5,1.4C551.8,1030.8,549.7,1030.3,547.7,1029.4 M544.9,991.4c-2.9,1.3-5.5,3-7.6,5.2
		c-2.2,2.2-3.9,4.8-5.2,7.7c-1.3,2.9-1.9,6-1.9,9.3c0,2.2,0.3,4.3,0.9,6.4c0.6,2,1.4,3.9,2.5,5.7c1,1.8,2.3,3.4,3.8,4.9
		s3.1,2.7,4.9,3.8c1.8,1,3.7,1.9,5.7,2.4c2,0.6,4.2,0.9,6.3,0.9c2.2,0,4.3-0.3,6.3-0.9c2-0.6,4-1.4,5.7-2.4s3.4-2.3,4.9-3.8
		c1.5-1.5,2.7-3.1,3.8-4.9c1.1-1.8,1.9-3.7,2.5-5.7c0.6-2,0.9-4.2,0.9-6.4s-0.3-4.3-0.9-6.3c-0.6-2-1.4-4-2.5-5.7
		c-1.1-1.8-2.3-3.4-3.8-4.9c-1.5-1.5-3.1-2.7-4.9-3.8c-1.8-1.1-3.7-1.9-5.7-2.5c-2-0.6-4.2-0.9-6.3-0.9
		C550.9,989.5,547.8,990.2,544.9,991.4"/>
</g>
<g>
	<path id="SVGID_94_" class="st0" d="M603.2,990.4c-2,0.6-3.9,1.4-5.7,2.5c-1.8,1.1-3.4,2.3-4.9,3.8c-1.5,1.5-2.8,3.1-3.8,4.9
		c-1.1,1.8-1.9,3.7-2.5,5.7c-0.6,2-0.9,4.2-0.9,6.4c0,2.2,0.3,4.3,0.9,6.3c0.6,2,1.4,3.9,2.5,5.7c1.1,1.8,2.3,3.4,3.8,4.9
		c1.5,1.5,3.1,2.7,4.9,3.8c1.8,1.1,3.7,1.9,5.7,2.4s4.1,0.9,6.3,0.9c1.5,0,3-0.1,4.4-0.4c1.4-0.3,2.7-0.6,3.9-1.1
		c1.3-0.5,2.4-1.1,3.6-1.7s2.2-1.4,3.3-2.3c0.4-0.3,0.8-0.7,1-0.9c0.2-0.3,0.3-0.5,0.4-0.8c0.1-0.2,0-0.4-0.1-0.6
		c-0.1-0.2-0.2-0.4-0.3-0.6c-0.1-0.1-0.2-0.3-0.4-0.6c-0.2-0.2-0.5-0.6-0.8-1c-0.3-0.4-0.7-0.9-1.2-1.6c-0.2-0.3-0.5-0.5-0.7-0.6
		c-0.2-0.1-0.5-0.1-0.7,0c-0.2,0.1-0.5,0.2-0.7,0.3c-0.2,0.2-0.4,0.3-0.6,0.5c-0.7,0.6-1.4,1.2-2.2,1.7c-0.8,0.5-1.6,1-2.5,1.5
		c-0.9,0.4-1.9,0.8-3,1c-1.1,0.3-2.3,0.4-3.6,0.4c-2.2,0-4.3-0.5-6.3-1.4c-2-0.9-3.8-2.2-5.3-3.7c-1.5-1.6-2.8-3.4-3.7-5.5
		c-0.9-2.1-1.4-4.3-1.4-6.6c0-2.3,0.5-4.5,1.4-6.6c0.9-2.1,2.2-3.9,3.7-5.5c1.5-1.6,3.3-2.8,5.3-3.8c2-0.9,4.1-1.4,6.2-1.4
		c1,0,2.1,0.1,3.1,0.3c1,0.2,2.1,0.5,3,0.9c1,0.4,1.9,0.9,2.7,1.4c0.9,0.5,1.6,1.2,2.3,1.9c0.8,0.9,1.6,0.9,2.2,0l2.7-3.5
		c0.2-0.3,0.2-0.6,0.2-0.9c0-0.3-0.2-0.5-0.3-0.8c-0.2-0.2-0.4-0.4-0.6-0.6c-0.2-0.2-0.4-0.3-0.6-0.5c-0.9-0.7-1.9-1.4-3-2
		c-1.1-0.6-2.3-1.1-3.5-1.6c-1.3-0.5-2.6-0.8-3.9-1.1c-1.4-0.3-2.7-0.4-4.1-0.4C607.3,989.5,605.2,989.8,603.2,990.4"/>
</g>
<g>
	<path id="SVGID_97_" class="st0" d="M637,976.4c-0.5,0-0.9,0.2-1.2,0.5c-0.3,0.3-0.4,0.7-0.4,1.1v57.1c0,1.1,0.5,1.6,1.6,1.6h3.8
		c1.1,0,1.7-0.5,1.7-1.6v-14.5l4.8-4.9l16.4,19.8c0.2,0.4,0.4,0.7,0.7,0.9c0.3,0.2,0.6,0.3,0.9,0.3h6.3c0.4,0,0.7,0,0.9-0.1
		c0.2-0.1,0.2-0.3,0.2-0.5c0-0.2,0-0.4-0.1-0.6c-0.1-0.3-0.2-0.5-0.5-0.8h0.1l-20.1-23.9l17.8-18.5c0.3-0.3,0.4-0.7,0.4-1.2
		c0-0.2-0.1-0.5-0.3-0.6c-0.2-0.2-0.5-0.3-0.9-0.3h-5.6c-0.4,0-0.8,0.1-1.1,0.3c-0.3,0.2-0.6,0.4-0.9,0.7l-19,20.2V978
		c0-0.5-0.2-0.9-0.5-1.2c-0.3-0.3-0.7-0.4-1.2-0.4L637,976.4L637,976.4z"/>
</g>
<g>
	<path id="SVGID_100_" class="st0" d="M698.7,1029.4c-2-0.9-3.8-2.2-5.3-3.7c-1.5-1.6-2.7-3.4-3.6-5.5c-0.9-2.1-1.3-4.3-1.3-6.6
		c0-2.3,0.4-4.5,1.3-6.6c0.9-2.1,2.1-3.9,3.6-5.6c1.5-1.6,3.3-2.9,5.3-3.8s4.2-1.4,6.5-1.4c2.3,0,4.5,0.5,6.5,1.4
		c2,1,3.8,2.2,5.3,3.8s2.7,3.4,3.5,5.6c0.9,2.1,1.3,4.3,1.3,6.6c0,2.3-0.4,4.5-1.3,6.6c-0.9,2.1-2,3.9-3.5,5.5
		c-1.5,1.6-3.3,2.8-5.3,3.7c-2,0.9-4.2,1.4-6.5,1.4C702.9,1030.8,700.7,1030.3,698.7,1029.4 M683.4,976.5c-0.4,0-0.8,0.1-1.1,0.4
		c-0.3,0.3-0.5,0.7-0.5,1.2v57.1c0,1.1,0.6,1.6,1.7,1.6h3.8c1.1,0,1.6-0.5,1.6-1.6v-4.4c2.1,2.1,4.5,3.8,7.3,5.1s5.8,1.8,9.1,1.8
		c2.2,0,4.3-0.3,6.3-0.9c2-0.6,4-1.4,5.7-2.4c1.8-1,3.4-2.3,4.9-3.8c1.5-1.5,2.7-3.1,3.8-4.9c1.1-1.8,1.9-3.7,2.5-5.7
		c0.6-2,0.9-4.2,0.9-6.4c0-2.2-0.3-4.3-0.9-6.3c-0.6-2-1.4-4-2.5-5.7c-1.1-1.8-2.3-3.4-3.8-4.9c-1.5-1.5-3.1-2.7-4.9-3.8
		c-1.8-1.1-3.7-1.9-5.7-2.5c-2-0.6-4.2-0.9-6.3-0.9c-3.3,0-6.3,0.6-9.1,1.8c-2.8,1.2-5.2,2.9-7.3,5.1v-18.3c0-0.4-0.2-0.8-0.5-1.1
		c-0.3-0.3-0.7-0.5-1.2-0.5L683.4,976.5L683.4,976.5z"/>
</g>
<g>
	<path id="SVGID_103_" class="st0" d="M754.8,1029.4c-2-0.9-3.8-2.2-5.3-3.7c-1.5-1.6-2.7-3.4-3.6-5.5c-0.9-2.1-1.3-4.3-1.3-6.6
		c0-2.3,0.4-4.5,1.3-6.6c0.9-2.1,2.1-3.9,3.6-5.6c1.5-1.6,3.3-2.9,5.3-3.8c2-0.9,4.2-1.4,6.5-1.4c2.3,0,4.5,0.5,6.5,1.4
		c2,1,3.8,2.2,5.3,3.8c1.5,1.6,2.7,3.4,3.5,5.6c0.9,2.1,1.3,4.3,1.3,6.6c0,2.3-0.4,4.5-1.3,6.6c-0.9,2.1-2,3.9-3.5,5.5
		c-1.5,1.6-3.3,2.8-5.3,3.7c-2,0.9-4.2,1.4-6.5,1.4C759,1030.8,756.8,1030.3,754.8,1029.4 M752.1,991.4c-2.9,1.3-5.5,3-7.6,5.2
		c-2.2,2.2-3.9,4.8-5.2,7.7c-1.3,2.9-1.9,6-1.9,9.3c0,2.2,0.3,4.3,0.9,6.4c0.6,2,1.4,3.9,2.5,5.7c1.1,1.8,2.3,3.4,3.8,4.9
		c1.5,1.5,3.1,2.7,4.9,3.8c1.8,1,3.7,1.9,5.7,2.4c2,0.6,4.2,0.9,6.3,0.9c2.2,0,4.3-0.3,6.3-0.9c2-0.6,4-1.4,5.7-2.4
		c1.8-1,3.4-2.3,4.9-3.8c1.5-1.5,2.7-3.1,3.8-4.9c1.1-1.8,1.9-3.7,2.5-5.7c0.6-2,0.9-4.2,0.9-6.4s-0.3-4.3-0.9-6.3
		c-0.6-2-1.4-4-2.5-5.7c-1.1-1.8-2.3-3.4-3.8-4.9c-1.5-1.5-3.1-2.7-4.9-3.8c-1.8-1.1-3.7-1.9-5.7-2.5c-2-0.6-4.2-0.9-6.3-0.9
		C758.1,989.5,755,990.2,752.1,991.4"/>
</g>
<g>
	<path id="SVGID_106_" class="st0" d="M823.3,990.3c-0.3,0-0.5,0-0.8,0.1c-0.2,0.1-0.4,0.1-0.6,0.3c-0.2,0.1-0.4,0.3-0.5,0.5
		c-0.2,0.2-0.4,0.5-0.6,0.8l-9.9,15.2l-9.9-15.2c-0.2-0.3-0.5-0.5-0.6-0.8c-0.2-0.2-0.3-0.4-0.5-0.5s-0.4-0.2-0.6-0.3
		c-0.2-0.1-0.5-0.1-0.7-0.1h-4.8c-0.8,0-1.2,0.1-1.4,0.4c-0.2,0.3,0,0.8,0.5,1.5c1.2,1.7,2.3,3.3,3.3,4.8c1,1.5,2.1,3,3.1,4.5
		c1.1,1.5,2.2,3.2,3.4,4.9c1.2,1.8,2.6,3.8,4.1,6l-15.7,22.8c-0.3,0.5-0.4,0.9-0.4,1.2c0.1,0.3,0.4,0.4,1,0.4h5.4
		c0.5,0,0.9-0.1,1.2-0.3c0.3-0.2,0.7-0.6,1-1l11.6-17.8l11.6,17.8c0.3,0.4,0.7,0.8,1,1c0.3,0.2,0.7,0.3,1.2,0.3h5.4
		c0.6,0,0.9-0.2,1-0.4c0.1-0.3,0-0.7-0.4-1.2l-15.7-22.8c1.5-2.3,2.9-4.2,4.1-6c1.2-1.8,2.3-3.4,3.4-4.9c1.1-1.5,2.1-3.1,3.1-4.5
		c1-1.5,2.1-3.1,3.3-4.8c0.5-0.7,0.6-1.2,0.5-1.5c-0.2-0.3-0.7-0.4-1.4-0.4L823.3,990.3L823.3,990.3z"/>
</g>
</svg>
