<?xml version="1.0" encoding="utf-8"?>
<!-- Generator: Adobe Illustrator 25.0.1, SVG Export Plug-In . SVG Version: 6.00 Build 0)  -->
<svg version="1.1" id="Layer_1" xmlns="http://www.w3.org/2000/svg" xmlns:xlink="http://www.w3.org/1999/xlink" x="0px" y="0px"
	 viewBox="0 0 1080 1080" style="enable-background:new 0 0 1080 1080;" xml:space="preserve">
<style type="text/css">
	.st0{fill:#718216;}
	.st1{fill:#FBFCF5;}
</style>
<path class="st0" d="M957.96,1080.43H125.72c-68.37,0-124.31-55.94-124.31-124.31V123.88C1.4,55.51,57.34-0.43,125.72-0.43h832.24
	c68.37,0,124.31,55.94,124.31,124.31v832.24C1082.27,1024.49,1026.33,1080.43,957.96,1080.43z"/>
<g>
	<path class="st1" d="M748.05,169.07c45.74,0,87.72,16.92,117.8,47.62c59.52,60.15,60.78,158.52,8.15,232.46
		c1.88-19.42,1.25-38.22-1.88-57.02c-7.52-51.38-31.33-95.87-67.67-129.7c-40.73-36.97-94.61-57.64-152.88-57.64
		c-5.64,0-11.9,0-17.54,0.63C667.85,182.23,707.95,169.07,748.05,169.07 M748.05,140.87c-57.64,0-117.17,23.18-163.54,68.92
		c-15.04,15.04-27.57,31.33-38.22,48.25c0.63,0,2.51-0.63,4.39-1.25c32.58-15.66,67.67-23.18,100.88-23.18
		c50.13,0,97.75,16.92,133.46,50.13c64.54,59.52,79.57,159.15,36.97,247.5c-0.63,2.51-1.25,4.39-1.25,5.01
		c17.54-10.03,33.83-22.56,48.87-37.59c87.72-87.09,95.24-221.81,16.29-302.01C848.93,159.04,799.43,140.87,748.05,140.87"/>
	<path class="st1" d="M508.08,939.13c-16.29,0-31.33-6.27-42.61-17.54L160.96,617.07c-23.81-23.81-23.81-62.03,0-85.84
		l304.51-304.51c23.81-23.81,62.03-23.81,85.84,0l304.51,304.51c23.81,23.81,23.81,62.03,0,85.84L551.31,921.58
		C539.41,932.86,524.37,939.13,508.08,939.13 M485.52,900.91c6.27,6.27,13.78,9.4,22.56,9.4c8.77,0,16.29-3.13,22.56-9.4
		l304.51-304.51c12.53-12.53,12.53-32.58,0-45.11L530.63,246.76c-12.53-12.53-32.58-12.53-45.11,0L181.01,551.28
		c-12.53,12.53-12.53,32.58,0,45.11L485.52,900.91z"/>
	<path class="st1" d="M506.82,779.35c-1.88,0-4.39,0-6.27,0c-55.14-1.88-105.89-24.44-143.49-63.91s-57.02-92.11-55.76-147.24
		c1.88-55.14,24.44-105.89,63.91-143.49c39.47-37.59,92.11-57.02,147.24-55.77c55.14,1.88,105.89,24.44,143.49,63.91
		s57.02,92.11,55.76,147.24c-1.88,55.14-24.44,105.89-63.91,143.49C609.58,759.93,560.08,779.35,506.82,779.35 M506.82,397.77
		c-45.74,0-88.35,16.92-120.93,47.62c-33.83,31.96-53.89,75.82-55.14,123.43c-1.25,47.62,15.66,92.73,47.62,126.57
		s75.82,53.89,123.43,55.14s92.73-15.66,126.57-47.62c33.84-31.96,53.89-75.82,55.14-123.43c1.25-47.62-15.66-92.73-47.62-126.57
		c-31.96-33.84-75.82-53.89-123.43-55.14C509.96,397.77,508.7,397.77,506.82,397.77"/>
	<path class="st1" d="M663.47,587.62v-26.94h-43.86c-2.51-20.68-10.65-40.73-23.18-57.02l30.7-30.7l-18.8-18.8l-30.7,30.7
		c-16.29-13.16-36.34-21.3-57.02-23.18v-43.86h-26.94v43.86c-20.68,2.51-40.73,10.65-57.02,23.81l-30.7-30.7l-18.8,18.8l30.7,30.7
		c-13.16,16.29-21.3,36.34-23.18,57.02h-43.86v26.94h43.86c2.51,20.68,10.65,40.73,23.81,57.02l-30.7,30.7l18.8,18.8l30.7-30.7
		c16.29,13.16,36.34,21.3,57.02,23.18v43.86h26.94v-43.86c20.68-2.51,40.73-10.65,57.02-23.18l30.7,30.7l18.8-18.8l-30.7-30.7
		c13.16-16.29,21.3-36.34,23.18-57.02L663.47,587.62z M566.35,637.75c-16.92,15.66-38.85,24.44-62.03,23.81
		c-23.18-0.63-45.11-10.03-60.78-26.94c-15.66-16.92-24.44-38.85-23.18-62.03c0.63-23.18,10.03-45.11,26.94-60.78
		c16.29-15.04,36.97-23.81,59.52-23.81c0.63,0,1.88,0,2.51,0c23.18,0.63,45.11,10.03,60.78,26.94
		c15.66,16.92,24.44,38.85,23.18,62.03C593.29,600.15,583.27,621.45,566.35,637.75"/>
</g>
</svg>
