<?xml version="1.0" encoding="utf-8"?>
<!-- Generator: Adobe Illustrator 25.0.1, SVG Export Plug-In . SVG Version: 6.00 Build 0)  -->
<svg version="1.1" id="Layer_1" xmlns="http://www.w3.org/2000/svg" xmlns:xlink="http://www.w3.org/1999/xlink" x="0px" y="0px"
	 viewBox="0 0 1080 1080" style="enable-background:new 0 0 1080 1080;" xml:space="preserve">
<style type="text/css">
	.st0{fill:#718416;}
	.st1{clip-path:url(#SVGID_2_);fill:#718416;}
	.st2{clip-path:url(#SVGID_4_);fill:#718416;}
	.st3{clip-path:url(#SVGID_6_);fill:#718416;}
	.st4{clip-path:url(#SVGID_8_);fill:#718416;}
</style>
<g>
	<path id="SVGID_61_" class="st0" d="M223.4,805.3h35.4c8.4,0,16.4,1.4,23.8,4.3s13.9,6.9,19.4,12.1c5.5,5.2,9.9,11.5,13.2,18.8
		c3.2,7.3,4.9,15.5,4.9,24.5c0,8.4-1.5,16.3-4.6,23.8c-3.1,7.5-7.4,14-12.8,19.7s-12,10.1-19.5,13.4s-15.8,5-24.8,5h-34.8
		L223.4,805.3L223.4,805.3z M207.4,784.2c-3.4,0-5.1,1.8-5.1,5.3v153.7c0,1.8,0.5,3.1,1.5,3.7c1,0.6,2.2,0.9,3.5,0.9h51.5
		c7.6,0,15-1,22-2.9c7-1.9,13.6-4.7,19.7-8.2c6.1-3.5,11.6-7.8,16.6-12.7c5-5,9.3-10.5,12.8-16.5c3.6-6.1,6.3-12.6,8.3-19.5
		s2.9-14.2,2.9-21.8c0-7.6-1-15-2.9-22c-1.9-7-4.6-13.5-8.1-19.6c-3.5-6.1-7.7-11.6-12.6-16.6c-4.9-5-10.4-9.3-16.5-12.8
		c-6.1-3.5-12.7-6.2-19.8-8.2c-7.1-1.9-14.6-2.9-22.5-2.9L207.4,784.2L207.4,784.2z"/>
</g>
<g>
	<path id="SVGID_64_" class="st0" d="M447.6,816.7l29.7,75.3h-60L447.6,816.7z M444,784.2c-1.2,0-2.1,0.2-2.8,0.4
		c-0.7,0.3-1.2,0.6-1.6,1c-0.4,0.4-0.7,0.8-0.9,1.3c-0.2,0.5-0.4,0.9-0.5,1.3L374.6,941c-0.1,0.2-0.1,0.5-0.2,0.8
		c-0.1,0.3-0.1,0.6-0.2,0.9c0,0.3-0.1,0.8-0.1,1.3c0,2.6,1.7,3.9,5.1,3.9h11.7c1.5,0,2.7-0.4,3.6-1.1s1.7-1.7,2.2-3
		c1-3.1,2.6-7.3,4.7-12.6s4.5-11.2,7-17.7h77.3l12.1,30.3c0.5,1.2,1.2,2.2,2.2,3c1,0.7,2.2,1.1,3.6,1.1h11.7c3.4,0,5.1-1.3,5.1-3.9
		c0-0.2,0-0.5-0.1-0.8s-0.2-0.7-0.2-1c-0.1-0.4-0.1-0.7-0.2-1.1l-63-152.7c-0.1-0.4-0.3-0.8-0.5-1.3c-0.2-0.5-0.5-0.9-0.9-1.3
		s-0.9-0.8-1.6-1c-0.7-0.3-1.6-0.4-2.7-0.4L444,784.2L444,784.2z"/>
</g>
<g>
	<path id="SVGID_67_" class="st0" d="M561.7,784.2c-1.6,0-2.9,0.5-3.7,1.4c-0.9,1-1.3,2.1-1.3,3.4V943c0,3.2,1.6,4.8,4.8,4.8h93.6
		c1.5,0,2.6-0.5,3.5-1.4s1.3-2.1,1.3-3.4v-11.3c0-1.6-0.5-2.9-1.4-3.8c-1-0.9-2.1-1.4-3.4-1.4h-77.2V789.1c0-1.6-0.5-2.8-1.4-3.6
		s-2.1-1.2-3.5-1.2H561.7z"/>
</g>
<g>
	<path id="SVGID_70_" class="st0" d="M753.1,816.7l29.7,75.3h-60L753.1,816.7z M749.4,784.2c-1.2,0-2.1,0.2-2.8,0.4
		c-0.7,0.3-1.2,0.6-1.6,1c-0.4,0.4-0.7,0.8-0.9,1.3c-0.2,0.5-0.4,0.9-0.5,1.3L680,941c-0.1,0.2-0.2,0.5-0.2,0.8
		c-0.1,0.3-0.1,0.6-0.2,0.9s-0.1,0.8-0.1,1.3c0,2.6,1.7,3.9,5.1,3.9h11.7c1.5,0,2.7-0.4,3.6-1.1c1-0.7,1.7-1.7,2.2-3
		c1-3.1,2.6-7.3,4.7-12.6s4.5-11.2,7-17.7h77.3l12.1,30.3c0.5,1.2,1.2,2.2,2.2,3c1,0.7,2.2,1.1,3.6,1.1h11.7c3.4,0,5.1-1.3,5.1-3.9
		c0-0.2,0-0.5-0.1-0.8s-0.2-0.7-0.2-1c-0.1-0.4-0.2-0.7-0.2-1.1l-63-152.7c-0.2-0.4-0.3-0.8-0.5-1.3c-0.2-0.5-0.5-0.9-0.9-1.3
		s-0.9-0.8-1.6-1c-0.7-0.3-1.6-0.4-2.7-0.4L749.4,784.2L749.4,784.2z"/>
</g>
<g>
	<path id="SVGID_73_" class="st0" d="M253,1014.7c-1.8,0.6-3.3,1.4-4.5,2.5c-1.3,1.1-2.2,2.3-2.9,3.8c-0.7,1.5-1.1,3.2-1.1,5
		c0,1.7,0.3,3.1,0.9,4.5c0.6,1.3,1.4,2.5,2.6,3.5c1.1,1,2.5,1.9,4.1,2.7s3.4,1.4,5.5,2c1.1,0.3,2.3,0.6,3.5,0.9
		c1.2,0.3,2.2,0.7,3.2,1.2c0.9,0.5,1.7,1.1,2.3,1.8c0.6,0.8,0.9,1.7,0.9,2.9c0,1.1-0.3,2.1-0.9,2.9c-0.6,0.8-1.4,1.5-2.3,2
		c-0.9,0.5-1.9,0.9-2.9,1.2s-2,0.4-2.9,0.4c-0.6,0-1.4-0.1-2.3-0.3c-0.9-0.2-1.8-0.5-2.6-1c-0.9-0.4-1.7-1-2.4-1.7
		c-0.7-0.7-1.3-1.4-1.6-2.3c-0.2-0.4-0.4-0.8-0.8-1s-0.8-0.3-1.3-0.1l-3.2,1.5c-0.2,0.1-0.4,0.2-0.5,0.3s-0.2,0.2-0.3,0.4
		c-0.1,0.2-0.1,0.3,0,0.5c0.1,0.2,0.1,0.5,0.2,0.8c0.6,1.5,1.4,2.9,2.5,4s2.3,2.1,3.6,2.8c1.3,0.8,2.8,1.3,4.3,1.7
		c1.5,0.4,3,0.5,4.4,0.5c2.3,0,4.4-0.3,6.3-0.9c1.9-0.6,3.6-1.4,5-2.5c1.4-1.1,2.5-2.4,3.3-4c0.8-1.6,1.2-3.3,1.2-5.3
		c0-1.8-0.4-3.4-1.1-4.8c-0.7-1.4-1.7-2.7-3-3.7s-2.8-2-4.6-2.8s-3.7-1.4-5.9-1.9c-0.9-0.2-1.9-0.5-2.9-0.9c-1-0.4-1.9-0.8-2.8-1.4
		s-1.5-1.2-2.1-1.8c-0.5-0.7-0.8-1.4-0.8-2.2c0-1,0.2-1.9,0.7-2.7c0.4-0.8,1-1.4,1.8-1.9c0.7-0.5,1.6-0.9,2.5-1.1
		c0.9-0.2,1.9-0.3,2.9-0.3c1.1,0,2.1,0.1,2.9,0.4c0.8,0.3,1.5,0.6,2.2,1s1.2,1,1.7,1.5c0.5,0.6,1,1.2,1.5,1.8
		c0.3,0.4,0.6,0.7,0.9,0.8c0.3,0.1,0.7,0.1,1.2-0.2l2.6-2c0.4-0.3,0.6-0.6,0.6-1c0-0.3-0.2-0.7-0.4-1.2c-0.9-1.2-1.7-2.3-2.5-3.2
		c-0.8-0.9-1.7-1.7-2.7-2.3c-1-0.6-2.1-1.1-3.3-1.4c-1.3-0.3-2.8-0.5-4.5-0.5C256.7,1013.8,254.7,1014.1,253,1014.7"/>
</g>
<g>
	<path id="SVGID_76_" class="st0" d="M324.8,1014.3c-1.4,0.3-2.8,0.7-4,1.3c-1.3,0.6-2.4,1.4-3.4,2.4c-1,1-1.8,2.2-2.5,3.6
		c-1.4-2.5-3.2-4.5-5.4-5.8c-2.3-1.3-5.2-2-8.8-2c-1.5,0-2.8,0.2-3.9,0.4c-1.1,0.3-2.1,0.7-3,1.2c-0.9,0.5-1.7,1.1-2.4,1.8
		c-0.7,0.7-1.4,1.4-2,2.2v-3.5c0-0.4-0.1-0.8-0.4-1c-0.3-0.3-0.7-0.4-1.1-0.4h-3.5c-0.4,0-0.8,0.1-1,0.4c-0.3,0.3-0.4,0.6-0.4,1.1
		v40.2c0,1,0.5,1.5,1.6,1.5h3.5c1,0,1.5-0.5,1.5-1.5v-25.1c0-1.7,0.3-3.2,1-4.6c0.7-1.3,1.5-2.5,2.6-3.4c1.1-0.9,2.2-1.6,3.5-2.1
		c1.3-0.5,2.6-0.7,3.9-0.7c2,0,3.8,0.4,5.2,1.1c1.4,0.7,2.5,1.7,3.4,2.8c0.9,1.2,1.5,2.4,1.8,3.9c0.4,1.4,0.6,2.8,0.6,4.2v23.2
		c0,0.8,0.1,1.4,0.4,1.7s0.8,0.5,1.6,0.5h2.5c0.6,0,1.1-0.2,1.5-0.6c0.4-0.4,0.6-1,0.6-1.7v-23.1c0-1.9,0.2-3.5,0.8-5
		c0.5-1.5,1.2-2.7,2.2-3.8s2.1-1.8,3.5-2.4c1.4-0.5,2.9-0.8,4.6-0.8c2,0,3.8,0.4,5.2,1.1c1.4,0.7,2.5,1.7,3.4,2.8
		c0.9,1.2,1.5,2.4,1.8,3.9s0.6,2.8,0.6,4.2v23.2c0,0.8,0.1,1.4,0.4,1.7s0.8,0.5,1.6,0.5h2.5c0.6,0,1.1-0.2,1.5-0.6
		c0.4-0.4,0.6-1,0.6-1.7v-23.1c0-2.6-0.4-5-1.1-7.2c-0.7-2.2-1.8-4.2-3.3-5.9s-3.2-3-5.4-3.9s-4.6-1.4-7.4-1.4
		C327.7,1013.8,326.2,1014,324.8,1014.3"/>
</g>
<g>
	<path id="SVGID_79_" class="st0" d="M370.9,1050.8c-1.9-0.9-3.5-2.1-4.9-3.6c-1.4-1.5-2.5-3.2-3.3-5.2c-0.8-1.9-1.2-4-1.2-6.1
		c0-2.1,0.4-4.2,1.2-6.1c0.8-1.9,1.9-3.6,3.3-5.1c1.4-1.5,3-2.6,4.9-3.5c1.9-0.9,3.9-1.3,6-1.3s4.1,0.4,6,1.3c1.9,0.9,3.5,2,4.9,3.5
		c1.4,1.4,2.5,3.1,3.3,5.1c0.8,1.9,1.2,4,1.2,6.1c0,2.1-0.4,4.1-1.2,6.1c-0.8,1.9-1.9,3.7-3.3,5.2c-1.4,1.5-3,2.7-4.9,3.6
		s-3.9,1.3-6,1.3S372.8,1051.7,370.9,1050.8 M371,1014.5c-1.9,0.5-3.6,1.3-5.3,2.3c-1.6,1-3.2,2.1-4.5,3.5s-2.5,2.9-3.5,4.5
		c-1,1.7-1.8,3.4-2.3,5.3c-0.5,1.9-0.8,3.9-0.8,5.9c0,2,0.3,4,0.8,5.9c0.5,1.9,1.3,3.7,2.3,5.3c1,1.7,2.2,3.2,3.5,4.5
		c1.4,1.4,2.9,2.5,4.5,3.5s3.4,1.8,5.3,2.3c1.9,0.5,3.9,0.8,5.9,0.8c3,0,5.8-0.6,8.4-1.7c2.6-1.1,4.9-2.7,6.8-4.7v4.2
		c0,0.4,0.1,0.8,0.4,1.1c0.3,0.3,0.7,0.4,1.1,0.4h3.5c0.4,0,0.8-0.1,1-0.4c0.3-0.3,0.4-0.6,0.4-1.1V1016c0-1-0.5-1.5-1.6-1.5h-3.5
		c-1,0-1.5,0.5-1.5,1.5v4.2c-2-2-4.2-3.6-6.8-4.7c-2.6-1.2-5.4-1.7-8.4-1.7C374.8,1013.8,372.9,1014,371,1014.5"/>
</g>
<g>
	<path id="SVGID_82_" class="st0" d="M421,1014.4c-0.9,0.3-1.8,0.8-2.5,1.3s-1.3,1.1-1.9,1.7c-0.5,0.6-0.9,1.2-1.2,1.7v-3.1
		c0-0.4-0.1-0.8-0.4-1c-0.3-0.3-0.7-0.4-1.1-0.4h-3.5c-0.4,0-0.8,0.1-1,0.4c-0.3,0.3-0.4,0.6-0.4,1.1v40.2c0,1,0.5,1.5,1.6,1.5h3.5
		c1,0,1.5-0.5,1.5-1.5v-26.6c0-1.5,0.2-2.8,0.7-4c0.5-1.2,1.1-2.2,1.9-3s1.7-1.4,2.8-1.8c1-0.4,2.1-0.7,3.3-0.7
		c1.5,0,2.9,0.2,4.2,0.7c1.3,0.4,2.7,1.1,4.1,2.1c0.2,0.2,0.4,0.3,0.6,0.4c0.2,0.1,0.3,0.2,0.5,0.2c0.3,0,0.6-0.2,1-0.6l2-3.1
		c0.1-0.2,0.2-0.4,0.2-0.7c0-0.4-0.2-0.8-0.5-1.1s-0.6-0.6-0.9-0.8c-0.9-0.7-1.8-1.2-2.6-1.7c-0.8-0.4-1.7-0.8-2.6-1
		c-0.9-0.3-1.8-0.4-2.8-0.5c-1-0.1-2.1-0.2-3.3-0.2C422.9,1013.9,421.9,1014.1,421,1014.4"/>
</g>
<g>
	<path id="SVGID_85_" class="st0" d="M452,1005.3c-0.6,0.1-1.2,0.2-1.8,0.3c-0.5,0.1-0.9,0.2-1.3,0.2c-0.4,0.1-0.7,0.1-0.8,0.2
		c-0.4,0.1-0.7,0.2-0.8,0.4c-0.2,0.2-0.2,0.5-0.2,0.8v7.2h-3.9c-0.6,0-1,0.1-1.2,0.2c-0.3,0.2-0.4,0.5-0.4,1.1v3.2
		c0,0.6,0.1,1,0.4,1.1c0.3,0.2,0.7,0.2,1.2,0.2h3.9v29.5c0,1.7,0.3,3.1,0.8,4.1s1.2,1.9,2,2.6c0.8,0.6,1.8,1.1,2.8,1.3
		c1,0.2,2.1,0.4,3.1,0.4c0.5,0,0.9-0.2,1.2-0.5c0.3-0.3,0.5-0.7,0.5-1.2v-2.8c0-0.6-0.2-1-0.5-1.3s-0.8-0.5-1.3-0.5
		c-0.7,0-1.2-0.2-1.6-0.5s-0.6-0.9-0.6-1.7v-29.4h4.7c0.5,0,0.9-0.1,1.1-0.4c0.2-0.2,0.4-0.7,0.4-1.3v-2.7c0-0.6-0.1-1-0.4-1.2
		c-0.2-0.2-0.6-0.3-1.1-0.3h-4.7v-7.3c0-0.3,0-0.5,0-0.8c0-0.2-0.1-0.5-0.2-0.6s-0.3-0.3-0.5-0.4c-0.1-0.1-0.3-0.1-0.6-0.1
		C452.2,1005.3,452.1,1005.3,452,1005.3"/>
</g>
<g>
	<path id="SVGID_88_" class="st0" d="M491,1001.8c-0.4,0-0.8,0.1-1,0.4c-0.3,0.3-0.4,0.6-0.4,1.1v53c0,1,0.5,1.5,1.6,1.5h3.5
		c1,0,1.5-0.5,1.5-1.5v-53c0-0.4-0.1-0.8-0.4-1c-0.3-0.3-0.7-0.4-1.1-0.4L491,1001.8L491,1001.8z"/>
</g>
<g>
	<path id="SVGID_91_" class="st0" d="M522.2,1050.8c-1.9-0.9-3.5-2-4.9-3.5c-1.4-1.4-2.5-3.1-3.3-5.1c-0.8-1.9-1.2-4-1.2-6.1
		c0-2.1,0.4-4.1,1.2-6.1c0.8-1.9,1.9-3.7,3.3-5.2c1.4-1.5,3-2.7,4.9-3.5s3.9-1.3,6-1.3c2.1,0,4.1,0.4,6,1.3s3.5,2.1,4.9,3.5
		c1.4,1.5,2.5,3.2,3.3,5.2c0.8,1.9,1.2,4,1.2,6.1c0,2.2-0.4,4.2-1.2,6.1c-0.8,1.9-1.9,3.6-3.3,5.1c-1.4,1.4-3,2.6-4.9,3.5
		c-1.9,0.9-3.9,1.3-6,1.3C526.1,1052.1,524.1,1051.7,522.2,1050.8 M519.6,1015.6c-2.7,1.2-5.1,2.8-7.1,4.8c-2,2-3.6,4.4-4.8,7.1
		c-1.2,2.7-1.8,5.6-1.8,8.7c0,2,0.3,4,0.8,5.9c0.5,1.9,1.3,3.7,2.3,5.3c1,1.7,2.1,3.2,3.5,4.5c1.4,1.4,2.9,2.5,4.5,3.5
		c1.7,1,3.4,1.7,5.3,2.3s3.8,0.8,5.9,0.8c2,0,4-0.3,5.9-0.8c1.9-0.5,3.7-1.3,5.3-2.3s3.2-2.1,4.5-3.5c1.4-1.4,2.5-2.9,3.5-4.5
		c1-1.7,1.7-3.4,2.3-5.3c0.5-1.9,0.8-3.9,0.8-5.9s-0.3-4-0.8-5.9c-0.5-1.9-1.3-3.7-2.3-5.3c-1-1.7-2.2-3.2-3.5-4.5
		c-1.4-1.4-2.9-2.5-4.5-3.5s-3.4-1.7-5.3-2.3c-1.9-0.5-3.8-0.8-5.9-0.8C525.2,1013.8,522.3,1014.4,519.6,1015.6"/>
</g>
<g>
	<path id="SVGID_94_" class="st0" d="M573.7,1014.7c-1.9,0.5-3.7,1.3-5.3,2.3c-1.7,1-3.2,2.2-4.6,3.5c-1.4,1.4-2.6,2.9-3.5,4.5
		c-1,1.7-1.8,3.4-2.3,5.3c-0.5,1.9-0.8,3.8-0.8,5.9c0,2,0.3,4,0.8,5.9c0.5,1.9,1.3,3.7,2.3,5.3c1,1.7,2.2,3.2,3.5,4.5
		s2.9,2.5,4.6,3.5c1.7,1,3.4,1.7,5.3,2.3s3.8,0.8,5.8,0.8c1.4,0,2.8-0.1,4.1-0.4c1.3-0.2,2.5-0.6,3.7-1.1c1.2-0.4,2.3-1,3.3-1.6
		s2.1-1.3,3-2.1c0.4-0.3,0.7-0.6,0.9-0.9c0.2-0.3,0.3-0.5,0.4-0.7c0-0.2,0-0.4,0-0.6c-0.1-0.2-0.2-0.4-0.3-0.5
		c-0.1-0.1-0.2-0.3-0.4-0.5c-0.2-0.2-0.4-0.5-0.7-0.9c-0.3-0.4-0.7-0.9-1.1-1.5c-0.2-0.3-0.5-0.5-0.7-0.6c-0.2-0.1-0.4-0.1-0.6,0
		c-0.2,0.1-0.4,0.2-0.6,0.3c-0.2,0.2-0.4,0.3-0.5,0.4c-0.7,0.5-1.3,1.1-2,1.6c-0.7,0.5-1.5,1-2.3,1.4c-0.8,0.4-1.8,0.7-2.8,0.9
		s-2.1,0.4-3.4,0.4c-2,0-4-0.4-5.8-1.3s-3.5-2-4.9-3.4c-1.4-1.4-2.6-3.1-3.4-5.1c-0.8-1.9-1.3-4-1.3-6.2c0-2.2,0.4-4.2,1.3-6.2
		c0.9-1.9,2-3.7,3.4-5.1c1.4-1.5,3.1-2.6,4.9-3.5c1.9-0.9,3.8-1.3,5.8-1.3c1,0,1.9,0.1,2.9,0.3c1,0.2,1.9,0.5,2.8,0.9
		c0.9,0.4,1.8,0.8,2.5,1.3c0.8,0.5,1.5,1.1,2.1,1.7c0.8,0.8,1.5,0.8,2,0l2.5-3.3c0.2-0.3,0.2-0.6,0.2-0.8c0-0.3-0.1-0.5-0.3-0.7
		c-0.2-0.2-0.3-0.4-0.5-0.6c-0.2-0.2-0.4-0.3-0.6-0.5c-0.8-0.7-1.7-1.3-2.8-1.8c-1-0.6-2.1-1.1-3.3-1.5c-1.2-0.4-2.4-0.8-3.6-1
		c-1.3-0.2-2.5-0.4-3.8-0.4C577.5,1013.8,575.6,1014.1,573.7,1014.7"/>
</g>
<g>
	<path id="SVGID_97_" class="st0" d="M605.1,1001.7c-0.5,0-0.8,0.2-1.1,0.4s-0.4,0.7-0.4,1.1v53c0,1,0.5,1.5,1.5,1.5h3.5
		c1,0,1.6-0.5,1.6-1.5v-13.5l4.4-4.6l15.2,18.4c0.2,0.4,0.4,0.7,0.7,0.8c0.3,0.2,0.6,0.3,0.9,0.3h5.8c0.4,0,0.7,0,0.8-0.1
		c0.2-0.1,0.2-0.2,0.2-0.5c0-0.1,0-0.3-0.1-0.6c0-0.3-0.2-0.5-0.4-0.7h0.1l-18.7-22.2l16.5-17.2c0.2-0.3,0.4-0.7,0.4-1.1
		c0-0.2-0.1-0.4-0.3-0.6c-0.2-0.2-0.5-0.2-0.8-0.2h-5.2c-0.4,0-0.8,0.1-1,0.2c-0.3,0.2-0.6,0.4-0.8,0.6l-17.7,18.7v-30.9
		c0-0.5-0.2-0.8-0.5-1.1c-0.3-0.3-0.7-0.4-1.1-0.4L605.1,1001.7L605.1,1001.7z"/>
</g>
<g>
	<path id="SVGID_100_" class="st0" d="M662.3,1050.8c-1.9-0.9-3.5-2-4.9-3.5s-2.5-3.1-3.3-5.1c-0.8-1.9-1.2-4-1.2-6.1
		c0-2.1,0.4-4.1,1.2-6.1c0.8-1.9,1.9-3.7,3.3-5.2c1.4-1.5,3-2.7,4.9-3.5s3.9-1.3,6-1.3c2.1,0,4.1,0.4,6,1.3s3.5,2.1,4.9,3.5
		s2.5,3.2,3.3,5.2c0.8,1.9,1.2,4,1.2,6.1c0,2.2-0.4,4.2-1.2,6.1c-0.8,1.9-1.9,3.6-3.3,5.1c-1.4,1.4-3,2.6-4.9,3.5
		c-1.9,0.9-3.9,1.3-6,1.3C666.2,1052.1,664.2,1051.7,662.3,1050.8 M648.1,1001.8c-0.4,0-0.8,0.1-1,0.4c-0.3,0.3-0.5,0.6-0.5,1.1v53
		c0,1,0.5,1.5,1.6,1.5h3.5c1,0,1.5-0.5,1.5-1.5v-4.1c2,2,4.2,3.6,6.8,4.7c2.6,1.1,5.4,1.7,8.4,1.7c2,0,4-0.3,5.9-0.8
		s3.7-1.3,5.3-2.3c1.7-1,3.2-2.1,4.5-3.5c1.4-1.4,2.5-2.9,3.5-4.5s1.8-3.4,2.3-5.3c0.5-1.9,0.8-3.9,0.8-5.9s-0.3-4-0.8-5.9
		c-0.5-1.9-1.3-3.7-2.3-5.3c-1-1.7-2.2-3.2-3.5-4.5c-1.4-1.4-2.9-2.5-4.5-3.5c-1.7-1-3.4-1.7-5.3-2.3c-1.9-0.5-3.8-0.8-5.9-0.8
		c-3,0-5.8,0.6-8.4,1.7c-2.6,1.2-4.8,2.7-6.8,4.7v-17c0-0.4-0.1-0.8-0.4-1c-0.3-0.3-0.7-0.4-1.1-0.4L648.1,1001.8L648.1,1001.8z"/>
</g>
<g>
	<path id="SVGID_103_" class="st0" d="M714.3,1050.8c-1.9-0.9-3.5-2-4.9-3.5c-1.4-1.4-2.5-3.1-3.3-5.1c-0.8-1.9-1.2-4-1.2-6.1
		c0-2.1,0.4-4.1,1.2-6.1c0.8-1.9,1.9-3.7,3.3-5.2c1.4-1.5,3-2.7,4.9-3.5c1.9-0.9,3.9-1.3,6-1.3c2.1,0,4.1,0.4,6,1.3s3.5,2.1,4.9,3.5
		c1.4,1.5,2.5,3.2,3.3,5.2c0.8,1.9,1.2,4,1.2,6.1c0,2.2-0.4,4.2-1.2,6.1c-0.8,1.9-1.9,3.6-3.3,5.1c-1.4,1.4-3,2.6-4.9,3.5
		c-1.9,0.9-3.9,1.3-6,1.3C718.2,1052.1,716.2,1051.7,714.3,1050.8 M711.8,1015.6c-2.7,1.2-5.1,2.8-7.1,4.8c-2,2-3.6,4.4-4.8,7.1
		c-1.2,2.7-1.8,5.6-1.8,8.7c0,2,0.3,4,0.8,5.9c0.5,1.9,1.3,3.7,2.3,5.3c1,1.7,2.1,3.2,3.5,4.5c1.4,1.4,2.9,2.5,4.5,3.5
		c1.7,1,3.4,1.7,5.3,2.3s3.8,0.8,5.9,0.8c2,0,4-0.3,5.9-0.8s3.7-1.3,5.3-2.3c1.7-1,3.2-2.1,4.5-3.5c1.4-1.4,2.5-2.9,3.5-4.5
		s1.8-3.4,2.3-5.3c0.5-1.9,0.8-3.9,0.8-5.9s-0.3-4-0.8-5.9c-0.5-1.9-1.3-3.7-2.3-5.3c-1-1.7-2.2-3.2-3.5-4.5
		c-1.4-1.4-2.9-2.5-4.5-3.5c-1.7-1-3.4-1.7-5.3-2.3c-1.9-0.5-3.8-0.8-5.9-0.8C717.4,1013.8,714.5,1014.4,711.8,1015.6"/>
</g>
<g>
	<path id="SVGID_106_" class="st0" d="M777.9,1014.6c-0.3,0-0.5,0-0.7,0.1s-0.4,0.1-0.5,0.2c-0.2,0.1-0.3,0.3-0.5,0.5
		c-0.2,0.2-0.3,0.4-0.6,0.7l-9.2,14.1l-9.2-14.1c-0.2-0.3-0.4-0.5-0.6-0.7c-0.2-0.2-0.3-0.3-0.5-0.5s-0.3-0.2-0.5-0.2
		c-0.2,0-0.4-0.1-0.7-0.1h-4.4c-0.7,0-1.1,0.1-1.3,0.4s0,0.7,0.4,1.4c1.1,1.6,2.1,3.1,3.1,4.4s1.9,2.8,2.9,4.2c1,1.4,2,2.9,3.2,4.6
		s2.4,3.5,3.8,5.6l-14.6,21.1c-0.3,0.4-0.4,0.8-0.3,1.1c0.1,0.3,0.4,0.4,1,0.4h5c0.4,0,0.8-0.1,1.1-0.3c0.3-0.2,0.6-0.5,0.9-0.9
		l10.7-16.5l10.7,16.5c0.3,0.4,0.6,0.7,0.9,0.9c0.3,0.2,0.7,0.3,1.1,0.3h5c0.6,0,0.9-0.1,1-0.4s0-0.6-0.3-1.1l-14.6-21.1
		c1.4-2.1,2.7-3.9,3.8-5.6s2.2-3.2,3.2-4.6c1-1.4,2-2.8,2.9-4.2s2-2.8,3.1-4.4c0.5-0.7,0.6-1.1,0.4-1.4c-0.2-0.2-0.6-0.4-1.3-0.4
		L777.9,1014.6L777.9,1014.6z"/>
</g>
<g>
	<g>
		<path id="SVGID_109_" class="st0" d="M710,45c37.5,0,71.9,13.9,96.8,39.2c48.8,49.4,50,129.8,6.7,190.7c1.3-15.7,0.8-31.4-1.5-47
			c-6.3-42-25.5-78.7-55.5-106.3c-33.2-30.5-77.7-47.2-125.3-47.2c-4.8,0-9.6,0.2-14.5,0.5C644.6,55.7,677.4,45,710,45 M576,78.2
			c-12.3,12.2-22.7,25.6-31.2,39.7c0.6-0.2,1.9-0.5,3.6-0.9c27-12.8,55.2-19,82.6-19c41,0,80,14,109.4,41
			c52.9,48.6,65.4,130.4,30.5,202.7c-0.5,2.1-0.9,3.5-1,4.1c14.2-8.3,27.7-18.5,40-30.7c72.1-71.2,78.2-182,13.6-247.4
			C793,36.8,752.2,21.5,710,21.5C662.9,21.5,614,40.6,576,78.2"/>
	</g>
	<g>
		<defs>
			<path id="SVGID_1_" d="M710,45c37.5,0,71.9,13.9,96.8,39.2c48.8,49.4,50,129.8,6.7,190.7c1.3-15.7,0.8-31.4-1.5-47
				c-6.3-42-25.5-78.7-55.5-106.3c-33.2-30.5-77.7-47.2-125.3-47.2c-4.8,0-9.6,0.2-14.5,0.5C644.6,55.7,677.4,45,710,45 M576,78.2
				c-12.3,12.2-22.7,25.6-31.2,39.7c0.6-0.2,1.9-0.5,3.6-0.9c27-12.8,55.2-19,82.6-19c41,0,80,14,109.4,41
				c52.9,48.6,65.4,130.4,30.5,202.7c-0.5,2.1-0.9,3.5-1,4.1c14.2-8.3,27.7-18.5,40-30.7c72.1-71.2,78.2-182,13.6-247.4
				C793,36.8,752.2,21.5,710,21.5C662.9,21.5,614,40.6,576,78.2"/>
		</defs>
		<use xlink:href="#SVGID_1_"  style="overflow:visible;fill:#718416;"/>
		<clipPath id="SVGID_2_">
			<use xlink:href="#SVGID_1_"  style="overflow:visible;"/>
		</clipPath>
		<rect x="544.8" y="21.5" class="st1" width="343.4" height="324.3"/>
	</g>
</g>
<g>
	<g>
		<path id="SVGID_112_" class="st0" d="M495,644.8L245.5,395.3c-10.2-10.2-10.2-26.8,0-37L495,108.8c10.2-10.2,26.8-10.2,37,0
			l249.5,249.5c10.2,10.2,10.2,26.8,0,37L532,644.8c-4.9,4.9-11.5,7.6-18.5,7.6S500,649.7,495,644.8 M478.4,92.2L228.9,341.7
			c-19.4,19.4-19.4,50.9,0,70.2l249.5,249.5c9.4,9.3,21.8,14.5,35.1,14.5s25.8-5.2,35.1-14.5l249.5-249.5
			c19.4-19.4,19.4-50.9,0-70.2L548.6,92.2c-9.7-9.7-22.4-14.5-35.1-14.5C500.8,77.7,488.1,82.5,478.4,92.2"/>
	</g>
	<g>
		<defs>
			<path id="SVGID_3_" d="M495,644.8L245.5,395.3c-10.2-10.2-10.2-26.8,0-37L495,108.8c10.2-10.2,26.8-10.2,37,0l249.5,249.5
				c10.2,10.2,10.2,26.8,0,37L532,644.8c-4.9,4.9-11.5,7.6-18.5,7.6S500,649.7,495,644.8 M478.4,92.2L228.9,341.7
				c-19.4,19.4-19.4,50.9,0,70.2l249.5,249.5c9.4,9.3,21.8,14.5,35.1,14.5s25.8-5.2,35.1-14.5l249.5-249.5
				c19.4-19.4,19.4-50.9,0-70.2L548.6,92.2c-9.7-9.7-22.4-14.5-35.1-14.5C500.8,77.7,488.1,82.5,478.4,92.2"/>
		</defs>
		<use xlink:href="#SVGID_3_"  style="overflow:visible;fill:#718416;"/>
		<clipPath id="SVGID_4_">
			<use xlink:href="#SVGID_3_"  style="overflow:visible;"/>
		</clipPath>
		<rect x="209.5" y="77.7" class="st2" width="608" height="598.3"/>
	</g>
</g>
<g>
	<g>
		<path id="SVGID_115_" class="st0" d="M508.3,521.7c-39-1.1-74.9-17.2-101.3-45.2c-26.4-28-40.3-64.9-39.2-103.8
			c1.1-38.9,17.2-74.9,45.2-101.3c26.9-25.4,62.1-39.2,99.4-39.2c1.5,0,3,0,4.4,0.1c38.9,1.1,74.9,17.2,101.3,45.2
			c26.4,28,40.3,64.9,39.2,103.8c-1.1,38.9-17.2,74.9-45.2,101.3c-26.9,25.4-62.1,39.2-99.4,39.2
			C511.2,521.8,509.7,521.8,508.3,521.7 M396.8,254.3c-32.6,30.7-51.2,72.5-52.5,117.8c-1.3,45.2,14.9,88.1,45.6,120.6
			c30.7,32.6,72.5,51.2,117.8,52.5c1.7,0,3.4,0.1,5.1,0.1c43.3,0,84.2-16.1,115.5-45.6l0,0c32.6-30.7,51.2-72.5,52.5-117.8
			c1.3-45.2-14.9-88.1-45.6-120.6c-30.7-32.6-72.5-51.2-117.8-52.6c-1.7-0.1-3.4-0.1-5.1-0.1C468.9,208.6,428.1,224.7,396.8,254.3"
			/>
	</g>
	<g>
		<defs>
			<path id="SVGID_5_" d="M508.3,521.7c-39-1.1-74.9-17.2-101.3-45.2c-26.4-28-40.3-64.9-39.2-103.8c1.1-38.9,17.2-74.9,45.2-101.3
				c26.9-25.4,62.1-39.2,99.4-39.2c1.5,0,3,0,4.4,0.1c38.9,1.1,74.9,17.2,101.3,45.2c26.4,28,40.3,64.9,39.2,103.8
				c-1.1,38.9-17.2,74.9-45.2,101.3c-26.9,25.4-62.1,39.2-99.4,39.2C511.2,521.8,509.7,521.8,508.3,521.7 M396.8,254.3
				c-32.6,30.7-51.2,72.5-52.5,117.8c-1.3,45.2,14.9,88.1,45.6,120.6c30.7,32.6,72.5,51.2,117.8,52.5c1.7,0,3.4,0.1,5.1,0.1
				c43.3,0,84.2-16.1,115.5-45.6l0,0c32.6-30.7,51.2-72.5,52.5-117.8c1.3-45.2-14.9-88.1-45.6-120.6
				c-30.7-32.6-72.5-51.2-117.8-52.6c-1.7-0.1-3.4-0.1-5.1-0.1C468.9,208.6,428.1,224.7,396.8,254.3"/>
		</defs>
		<use xlink:href="#SVGID_5_"  style="overflow:visible;fill:#718416;"/>
		<clipPath id="SVGID_6_">
			<use xlink:href="#SVGID_5_"  style="overflow:visible;"/>
		</clipPath>
		<rect x="342.9" y="208.6" class="st3" width="339.2" height="336.7"/>
	</g>
</g>
<g>
	<g>
		<path id="SVGID_118_" class="st0" d="M510.4,448.1c-19.2-0.6-36.9-8.5-49.9-22.2c-13-13.8-19.8-31.9-19.3-51.1
			c0.6-19.2,8.5-36.9,22.2-49.9c13.2-12.5,30.5-19.3,48.9-19.3c0.7,0,1.5,0,2.2,0c19.2,0.6,36.9,8.5,49.8,22.2
			c13,13.8,19.8,31.9,19.3,51.1s-8.5,36.9-22.2,49.9l0,0c-13.2,12.5-30.6,19.3-48.9,19.3C511.8,448.2,511.1,448.2,510.4,448.1
			 M501.5,248.6v35.8c-17.2,2-33.3,8.6-46.8,19.3l-25.2-25.2l-15.5,15.5l25.2,25.2C428.6,332.6,422,348.7,420,366h-35.9v22h35.8
			c2,17.1,8.6,33.2,19.3,46.8L413.9,460l15.5,15.5l25.2-25.2c13.5,10.6,29.5,17.2,46.8,19.2v35.9h22v-35.8
			c17.2-2,33.3-8.6,46.8-19.2l25.2,25.2L611,460l-25.2-25.2c10.6-13.5,17.2-29.5,19.2-46.8h35.9v-22h-35.8
			c-2-17.1-8.6-33.2-19.3-46.8l25.2-25.2l-15.5-15.5l-25.2,25.2c-13.5-10.6-29.5-17.2-46.8-19.2v-35.9L501.5,248.6L501.5,248.6z"/>
	</g>
	<g>
		<defs>
			<path id="SVGID_7_" d="M510.4,448.1c-19.2-0.6-36.9-8.5-49.9-22.2c-13-13.8-19.8-31.9-19.3-51.1c0.6-19.2,8.5-36.9,22.2-49.9
				c13.2-12.5,30.5-19.3,48.9-19.3c0.7,0,1.5,0,2.2,0c19.2,0.6,36.9,8.5,49.8,22.2c13,13.8,19.8,31.9,19.3,51.1s-8.5,36.9-22.2,49.9
				l0,0c-13.2,12.5-30.6,19.3-48.9,19.3C511.8,448.2,511.1,448.2,510.4,448.1 M501.5,248.6v35.8c-17.2,2-33.3,8.6-46.8,19.3
				l-25.2-25.2l-15.5,15.5l25.2,25.2C428.6,332.6,422,348.7,420,366h-35.9v22h35.8c2,17.1,8.6,33.2,19.3,46.8L413.9,460l15.5,15.5
				l25.2-25.2c13.5,10.6,29.5,17.2,46.8,19.2v35.9h22v-35.8c17.2-2,33.3-8.6,46.8-19.2l25.2,25.2L611,460l-25.2-25.2
				c10.6-13.5,17.2-29.5,19.2-46.8h35.9v-22h-35.8c-2-17.1-8.6-33.2-19.3-46.8l25.2-25.2l-15.5-15.5l-25.2,25.2
				c-13.5-10.6-29.5-17.2-46.8-19.2v-35.9L501.5,248.6L501.5,248.6z"/>
		</defs>
		<use xlink:href="#SVGID_7_"  style="overflow:visible;fill:#718416;"/>
		<clipPath id="SVGID_8_">
			<use xlink:href="#SVGID_7_"  style="overflow:visible;"/>
		</clipPath>
		<rect x="384.1" y="248.6" class="st4" width="256.8" height="256.8"/>
	</g>
</g>
</svg>
