<?xml version="1.0" encoding="utf-8"?>
<!-- Generator: Adobe Illustrator 25.0.1, SVG Export Plug-In . SVG Version: 6.00 Build 0)  -->
<svg version="1.1" id="Layer_1" xmlns="http://www.w3.org/2000/svg" xmlns:xlink="http://www.w3.org/1999/xlink" x="0px" y="0px"
	 viewBox="0 0 1080 1080" style="enable-background:new 0 0 1080 1080;" xml:space="preserve">
<style type="text/css">
	.st0{clip-path:url(#SVGID_2_);fill:url(#SVGID_3_);}
	.st1{clip-path:url(#SVGID_5_);fill:url(#SVGID_6_);}
	.st2{clip-path:url(#SVGID_8_);fill:url(#SVGID_9_);}
	.st3{clip-path:url(#SVGID_11_);fill:url(#SVGID_12_);}
	.st4{clip-path:url(#SVGID_14_);fill:url(#SVGID_15_);}
	.st5{clip-path:url(#SVGID_17_);fill:url(#SVGID_18_);}
	.st6{clip-path:url(#SVGID_20_);fill:url(#SVGID_21_);}
	.st7{clip-path:url(#SVGID_23_);fill:url(#SVGID_24_);}
	.st8{clip-path:url(#SVGID_26_);fill:url(#SVGID_27_);}
	.st9{clip-path:url(#SVGID_29_);fill:url(#SVGID_30_);}
	.st10{clip-path:url(#SVGID_32_);fill:url(#SVGID_33_);}
	.st11{clip-path:url(#SVGID_35_);fill:url(#SVGID_36_);}
	.st12{clip-path:url(#SVGID_38_);fill:url(#SVGID_39_);}
	.st13{clip-path:url(#SVGID_41_);fill:url(#SVGID_42_);}
	.st14{clip-path:url(#SVGID_44_);fill:url(#SVGID_45_);}
	.st15{clip-path:url(#SVGID_47_);fill:url(#SVGID_48_);}
	.st16{clip-path:url(#SVGID_50_);fill:url(#SVGID_51_);}
	.st17{clip-path:url(#SVGID_53_);fill:url(#SVGID_54_);}
	.st18{clip-path:url(#SVGID_56_);fill:url(#SVGID_57_);}
	.st19{clip-path:url(#SVGID_59_);fill:url(#SVGID_60_);}
</style>
<g>
	<g>
		<g>
			<defs>
				<path id="SVGID_1_" d="M232.5,805.3h35.4c8.4,0,16.4,1.4,23.8,4.3s13.9,6.9,19.4,12.1c5.5,5.2,9.9,11.5,13.2,18.8
					c3.2,7.3,4.9,15.5,4.9,24.5c0,8.4-1.5,16.3-4.6,23.8c-3.1,7.5-7.4,14-12.8,19.7s-12,10.1-19.5,13.4s-15.8,5-24.8,5h-34.8
					L232.5,805.3L232.5,805.3z M216.4,784.2c-3.4,0-5.1,1.8-5.1,5.3v153.7c0,1.8,0.5,3.1,1.5,3.7c1,0.6,2.2,0.9,3.5,0.9h51.4
					c7.6,0,15-1,22-2.9c7-1.9,13.6-4.7,19.7-8.2c6.1-3.5,11.6-7.8,16.6-12.7c5-5,9.3-10.5,12.8-16.5c3.6-6.1,6.3-12.6,8.3-19.5
					s2.9-14.2,2.9-21.8c0-7.6-1-15-2.9-22c-1.9-7-4.6-13.5-8.1-19.6c-3.5-6.1-7.7-11.6-12.6-16.6c-4.9-5-10.4-9.3-16.5-12.8
					c-6.1-3.5-12.7-6.2-19.8-8.2c-7.1-1.9-14.6-2.9-22.5-2.9L216.4,784.2L216.4,784.2z"/>
			</defs>
			<clipPath id="SVGID_2_">
				<use xlink:href="#SVGID_1_"  style="overflow:visible;"/>
			</clipPath>
			
				<linearGradient id="SVGID_3_" gradientUnits="userSpaceOnUse" x1="105.5729" y1="434.1346" x2="107.4718" y2="434.1346" gradientTransform="matrix(293.5583 -31.1055 31.1055 293.5583 -44190.2227 -123296.5156)">
				<stop  offset="0" style="stop-color:#718416"/>
				<stop  offset="1" style="stop-color:#B0BC47"/>
			</linearGradient>
			<polygon class="st0" points="194.2,786 348.7,769.7 367.4,946 212.9,962.4 			"/>
		</g>
	</g>
	<g>
		<g>
			<defs>
				<path id="SVGID_4_" d="M456.7,816.7l29.7,75.3h-60L456.7,816.7z M453,784.2c-1.2,0-2.1,0.2-2.8,0.4c-0.7,0.3-1.2,0.6-1.6,1
					c-0.4,0.4-0.7,0.8-0.9,1.3c-0.2,0.5-0.4,0.9-0.5,1.3L383.6,941c-0.1,0.2-0.1,0.5-0.2,0.8c-0.1,0.3-0.1,0.6-0.2,0.9
					c0,0.3-0.1,0.8-0.1,1.3c0,2.6,1.7,3.9,5.1,3.9H400c1.5,0,2.7-0.4,3.6-1.1s1.7-1.7,2.2-3c1-3.1,2.6-7.3,4.7-12.6s4.5-11.2,7-17.7
					h77.3l12.1,30.3c0.5,1.2,1.2,2.2,2.2,3c1,0.7,2.2,1.1,3.6,1.1h11.7c3.4,0,5.1-1.3,5.1-3.9c0-0.2,0-0.5-0.1-0.8s-0.2-0.7-0.2-1
					c-0.1-0.4-0.1-0.7-0.2-1.1l-63-152.7c-0.1-0.4-0.3-0.8-0.5-1.3c-0.2-0.5-0.5-0.9-0.9-1.3s-0.9-0.8-1.6-1
					c-0.7-0.3-1.6-0.4-2.7-0.4L453,784.2L453,784.2z"/>
			</defs>
			<clipPath id="SVGID_5_">
				<use xlink:href="#SVGID_4_"  style="overflow:visible;"/>
			</clipPath>
			
				<linearGradient id="SVGID_6_" gradientUnits="userSpaceOnUse" x1="105.5729" y1="434.1514" x2="107.4718" y2="434.1514" gradientTransform="matrix(293.5583 -31.1055 31.1055 293.5583 -44188.793 -123283.0312)">
				<stop  offset="0" style="stop-color:#718416"/>
				<stop  offset="1" style="stop-color:#B0BC47"/>
			</linearGradient>
			<polygon class="st1" points="366.1,786 528,768.9 546.7,946 384.8,963.2 			"/>
		</g>
	</g>
	<g>
		<g>
			<defs>
				<path id="SVGID_7_" d="M570.8,784.2c-1.6,0-2.9,0.5-3.7,1.4c-0.9,1-1.3,2.1-1.3,3.4V943c0,3.2,1.6,4.8,4.8,4.8h93.6
					c1.5,0,2.6-0.5,3.5-1.4s1.3-2.1,1.3-3.4v-11.3c0-1.6-0.5-2.9-1.4-3.8c-1-0.9-2.1-1.4-3.4-1.4H587V789.1c0-1.6-0.5-2.8-1.4-3.6
					s-2.1-1.2-3.5-1.2H570.8z"/>
			</defs>
			<clipPath id="SVGID_8_">
				<use xlink:href="#SVGID_7_"  style="overflow:visible;"/>
			</clipPath>
			
				<linearGradient id="SVGID_9_" gradientUnits="userSpaceOnUse" x1="105.5729" y1="434.1846" x2="107.4718" y2="434.1846" gradientTransform="matrix(293.5583 -31.1055 31.1055 293.5583 -44188.0391 -123275.9219)">
				<stop  offset="0" style="stop-color:#718416"/>
				<stop  offset="1" style="stop-color:#B0BC47"/>
			</linearGradient>
			<polygon class="st2" points="548.6,786 667.9,773.4 686.2,946 566.9,958.6 			"/>
		</g>
	</g>
	<g>
		<g>
			<defs>
				<path id="SVGID_10_" d="M762.1,816.7l29.7,75.3h-60L762.1,816.7z M758.5,784.2c-1.2,0-2.1,0.2-2.8,0.4c-0.7,0.3-1.2,0.6-1.6,1
					c-0.4,0.4-0.7,0.8-0.9,1.3c-0.2,0.5-0.4,0.9-0.5,1.3L689.1,941c-0.1,0.2-0.2,0.5-0.2,0.8c-0.1,0.3-0.1,0.6-0.2,0.9
					s-0.1,0.8-0.1,1.3c0,2.6,1.7,3.9,5.1,3.9h11.7c1.5,0,2.7-0.4,3.6-1.1c1-0.7,1.7-1.7,2.2-3c1-3.1,2.6-7.3,4.7-12.6
					s4.5-11.2,7-17.7h77.3l12.1,30.3c0.5,1.2,1.2,2.2,2.2,3c1,0.7,2.2,1.1,3.6,1.1H830c3.4,0,5.1-1.3,5.1-3.9c0-0.2,0-0.5-0.1-0.8
					s-0.2-0.7-0.2-1c-0.1-0.4-0.2-0.7-0.2-1.1l-63-152.7c-0.2-0.4-0.3-0.8-0.5-1.3c-0.2-0.5-0.5-0.9-0.9-1.3s-0.9-0.8-1.6-1
					c-0.7-0.3-1.6-0.4-2.7-0.4L758.5,784.2L758.5,784.2z"/>
			</defs>
			<clipPath id="SVGID_11_">
				<use xlink:href="#SVGID_10_"  style="overflow:visible;"/>
			</clipPath>
			
				<linearGradient id="SVGID_12_" gradientUnits="userSpaceOnUse" x1="105.5729" y1="434.203" x2="107.4718" y2="434.203" gradientTransform="matrix(293.5583 -31.1055 31.1055 293.5583 -44187.0039 -123266.1719)">
				<stop  offset="0" style="stop-color:#718416"/>
				<stop  offset="1" style="stop-color:#B0BC47"/>
			</linearGradient>
			<polygon class="st3" points="671.5,786 833.4,768.9 852.2,946 690.3,963.2 			"/>
		</g>
	</g>
</g>
<g>
	<g>
		<g>
			<defs>
				<path id="SVGID_13_" d="M262,1014.7c-1.8,0.6-3.3,1.4-4.5,2.5c-1.3,1.1-2.2,2.3-2.9,3.8c-0.7,1.5-1.1,3.2-1.1,5
					c0,1.7,0.3,3.1,0.9,4.5c0.6,1.3,1.4,2.5,2.6,3.5c1.1,1,2.5,1.9,4.1,2.7s3.4,1.4,5.5,2c1.1,0.3,2.3,0.6,3.5,0.9
					c1.2,0.3,2.2,0.7,3.2,1.2c0.9,0.5,1.7,1.1,2.3,1.8c0.6,0.8,0.9,1.7,0.9,2.9c0,1.1-0.3,2.1-0.9,2.9c-0.6,0.8-1.4,1.5-2.3,2
					c-0.9,0.5-1.9,0.9-2.9,1.2s-2,0.4-2.9,0.4c-0.6,0-1.4-0.1-2.3-0.3c-0.9-0.2-1.8-0.5-2.6-1c-0.9-0.4-1.7-1-2.4-1.7
					c-0.7-0.7-1.3-1.4-1.6-2.3c-0.2-0.4-0.4-0.8-0.8-1s-0.8-0.3-1.3-0.1l-3.2,1.5c-0.2,0.1-0.4,0.2-0.5,0.3s-0.2,0.2-0.3,0.4
					c-0.1,0.2-0.1,0.3,0,0.5c0.1,0.2,0.1,0.5,0.2,0.8c0.6,1.5,1.4,2.9,2.5,4s2.3,2.1,3.6,2.8c1.3,0.8,2.8,1.3,4.3,1.7
					c1.5,0.4,3,0.5,4.4,0.5c2.3,0,4.4-0.3,6.3-0.9c1.9-0.6,3.6-1.4,5-2.5c1.4-1.1,2.5-2.4,3.3-4c0.8-1.6,1.2-3.3,1.2-5.3
					c0-1.8-0.4-3.4-1.1-4.8c-0.7-1.4-1.7-2.7-3-3.7s-2.8-2-4.6-2.8s-3.7-1.4-5.9-1.9c-0.9-0.2-1.9-0.5-2.9-0.9
					c-1-0.4-1.9-0.8-2.8-1.4s-1.5-1.2-2.1-1.8c-0.5-0.7-0.8-1.4-0.8-2.2c0-1,0.2-1.9,0.7-2.7c0.4-0.8,1-1.4,1.8-1.9
					c0.7-0.5,1.6-0.9,2.5-1.1c0.9-0.2,1.9-0.3,2.9-0.3c1.1,0,2.1,0.1,2.9,0.4c0.8,0.3,1.5,0.6,2.2,1s1.2,1,1.7,1.5
					c0.5,0.6,1,1.2,1.5,1.8c0.3,0.4,0.6,0.7,0.9,0.8c0.3,0.1,0.7,0.1,1.2-0.2l2.6-2c0.4-0.3,0.6-0.6,0.6-1c0-0.3-0.2-0.7-0.4-1.2
					c-0.9-1.2-1.7-2.3-2.5-3.2c-0.8-0.9-1.7-1.7-2.7-2.3c-1-0.6-2.1-1.1-3.3-1.4c-1.3-0.3-2.8-0.5-4.5-0.5
					C265.7,1013.8,263.8,1014.1,262,1014.7"/>
			</defs>
			<clipPath id="SVGID_14_">
				<use xlink:href="#SVGID_13_"  style="overflow:visible;"/>
			</clipPath>
			
				<linearGradient id="SVGID_15_" gradientUnits="userSpaceOnUse" x1="105.5729" y1="434.3967" x2="107.4718" y2="434.3967" gradientTransform="matrix(293.5583 -31.1055 31.1055 293.5583 -44180.6992 -123206.6719)">
				<stop  offset="0" style="stop-color:#718416"/>
				<stop  offset="1" style="stop-color:#B0BC47"/>
			</linearGradient>
			<polygon class="st4" points="247.6,1014.3 282.6,1010.6 287.6,1057.8 252.6,1061.6 			"/>
		</g>
	</g>
	<g>
		<g>
			<defs>
				<path id="SVGID_16_" d="M333.9,1014.3c-1.4,0.3-2.8,0.7-4,1.3c-1.3,0.6-2.4,1.4-3.4,2.4c-1,1-1.8,2.2-2.5,3.6
					c-1.4-2.5-3.2-4.5-5.4-5.8c-2.3-1.3-5.2-2-8.8-2c-1.5,0-2.8,0.2-3.9,0.4c-1.1,0.3-2.1,0.7-3,1.2c-0.9,0.5-1.7,1.1-2.4,1.8
					c-0.7,0.7-1.4,1.4-2,2.2v-3.5c0-0.4-0.1-0.8-0.4-1c-0.3-0.3-0.7-0.4-1.1-0.4h-3.5c-0.4,0-0.8,0.1-1,0.4
					c-0.3,0.3-0.4,0.6-0.4,1.1v40.2c0,1,0.5,1.5,1.6,1.5h3.5c1,0,1.5-0.5,1.5-1.5v-25.1c0-1.7,0.3-3.2,1-4.6
					c0.7-1.3,1.5-2.5,2.6-3.4c1.1-0.9,2.2-1.6,3.5-2.1c1.3-0.5,2.6-0.7,3.9-0.7c2,0,3.8,0.4,5.2,1.1c1.4,0.7,2.5,1.7,3.4,2.8
					c0.9,1.2,1.5,2.4,1.8,3.9c0.4,1.4,0.6,2.8,0.6,4.2v23.2c0,0.8,0.1,1.4,0.4,1.7s0.8,0.5,1.6,0.5h2.5c0.6,0,1.1-0.2,1.5-0.6
					c0.4-0.4,0.6-1,0.6-1.7v-23.1c0-1.9,0.2-3.5,0.8-5c0.5-1.5,1.2-2.7,2.2-3.8s2.1-1.8,3.5-2.4c1.4-0.5,2.9-0.8,4.6-0.8
					c2,0,3.8,0.4,5.2,1.1c1.4,0.7,2.5,1.7,3.4,2.8c0.9,1.2,1.5,2.4,1.8,3.9s0.6,2.8,0.6,4.2v23.2c0,0.8,0.1,1.4,0.4,1.7
					s0.8,0.5,1.6,0.5h2.5c0.6,0,1.1-0.2,1.5-0.6c0.4-0.4,0.6-1,0.6-1.7v-23.1c0-2.6-0.4-5-1.1-7.2c-0.7-2.2-1.8-4.2-3.3-5.9
					s-3.2-3-5.4-3.9s-4.6-1.4-7.4-1.4C336.8,1013.8,335.3,1014,333.9,1014.3"/>
			</defs>
			<clipPath id="SVGID_17_">
				<use xlink:href="#SVGID_16_"  style="overflow:visible;"/>
			</clipPath>
			
				<linearGradient id="SVGID_18_" gradientUnits="userSpaceOnUse" x1="105.5729" y1="434.4051" x2="107.4718" y2="434.4051" gradientTransform="matrix(293.5583 -31.1055 31.1055 293.5583 -44180.375 -123203.5781)">
				<stop  offset="0" style="stop-color:#718416"/>
				<stop  offset="1" style="stop-color:#B0BC47"/>
			</linearGradient>
			<polygon class="st5" points="287.1,1014.3 354.6,1007.2 359.9,1057.2 292.4,1064.4 			"/>
		</g>
	</g>
	<g>
		<g>
			<defs>
				<path id="SVGID_19_" d="M380,1050.8c-1.9-0.9-3.5-2.1-4.9-3.6c-1.4-1.5-2.5-3.2-3.3-5.2c-0.8-1.9-1.2-4-1.2-6.1
					c0-2.1,0.4-4.2,1.2-6.1c0.8-1.9,1.9-3.6,3.3-5.1c1.4-1.5,3-2.6,4.9-3.5c1.9-0.9,3.9-1.3,6-1.3s4.1,0.4,6,1.3
					c1.9,0.9,3.5,2,4.9,3.5c1.4,1.4,2.5,3.1,3.3,5.1c0.8,1.9,1.2,4,1.2,6.1c0,2.1-0.4,4.1-1.2,6.1c-0.8,1.9-1.9,3.7-3.3,5.2
					c-1.4,1.5-3,2.7-4.9,3.6s-3.9,1.3-6,1.3S381.8,1051.7,380,1050.8 M380.1,1014.5c-1.9,0.5-3.6,1.3-5.3,2.3
					c-1.6,1-3.2,2.1-4.5,3.5s-2.5,2.9-3.5,4.5c-1,1.7-1.8,3.4-2.3,5.3c-0.5,1.9-0.8,3.9-0.8,5.9c0,2,0.3,4,0.8,5.9
					c0.5,1.9,1.3,3.7,2.3,5.3c1,1.7,2.2,3.2,3.5,4.5c1.4,1.4,2.9,2.5,4.5,3.5s3.4,1.8,5.3,2.3c1.9,0.5,3.9,0.8,5.9,0.8
					c3,0,5.8-0.6,8.4-1.7c2.6-1.1,4.9-2.7,6.8-4.7v4.2c0,0.4,0.1,0.8,0.4,1.1c0.3,0.3,0.7,0.4,1.1,0.4h3.5c0.4,0,0.8-0.1,1-0.4
					c0.3-0.3,0.4-0.6,0.4-1.1V1016c0-1-0.5-1.5-1.6-1.5h-3.5c-1,0-1.5,0.5-1.5,1.5v4.2c-2-2-4.2-3.6-6.8-4.7
					c-2.6-1.2-5.4-1.7-8.4-1.7C383.9,1013.8,381.9,1014,380.1,1014.5"/>
			</defs>
			<clipPath id="SVGID_20_">
				<use xlink:href="#SVGID_19_"  style="overflow:visible;"/>
			</clipPath>
			
				<linearGradient id="SVGID_21_" gradientUnits="userSpaceOnUse" x1="105.5729" y1="434.4154" x2="107.4718" y2="434.4154" gradientTransform="matrix(293.5583 -31.1055 31.1055 293.5583 -44179.9727 -123199.7969)">
				<stop  offset="0" style="stop-color:#718416"/>
				<stop  offset="1" style="stop-color:#B0BC47"/>
			</linearGradient>
			<polygon class="st6" points="359,1014.2 407.2,1009.1 412.4,1057.9 364.1,1063 			"/>
		</g>
	</g>
	<g>
		<g>
			<defs>
				<path id="SVGID_22_" d="M430,1014.4c-0.9,0.3-1.8,0.8-2.5,1.3s-1.3,1.1-1.9,1.7c-0.5,0.6-0.9,1.2-1.2,1.7v-3.1
					c0-0.4-0.1-0.8-0.4-1c-0.3-0.3-0.7-0.4-1.1-0.4h-3.5c-0.4,0-0.8,0.1-1,0.4c-0.3,0.3-0.4,0.6-0.4,1.1v40.2c0,1,0.5,1.5,1.6,1.5
					h3.5c1,0,1.5-0.5,1.5-1.5v-26.6c0-1.5,0.2-2.8,0.7-4c0.5-1.2,1.1-2.2,1.9-3s1.7-1.4,2.8-1.8c1-0.4,2.1-0.7,3.3-0.7
					c1.5,0,2.9,0.2,4.2,0.7c1.3,0.4,2.7,1.1,4.1,2.1c0.2,0.2,0.4,0.3,0.6,0.4c0.2,0.1,0.3,0.2,0.5,0.2c0.3,0,0.6-0.2,1-0.6l2-3.1
					c0.1-0.2,0.2-0.4,0.2-0.7c0-0.4-0.2-0.8-0.5-1.1s-0.6-0.6-0.9-0.8c-0.9-0.7-1.8-1.2-2.6-1.7c-0.8-0.4-1.7-0.8-2.6-1
					c-0.9-0.3-1.8-0.4-2.8-0.5c-1-0.1-2.1-0.2-3.3-0.2C432,1013.9,431,1014.1,430,1014.4"/>
			</defs>
			<clipPath id="SVGID_23_">
				<use xlink:href="#SVGID_22_"  style="overflow:visible;"/>
			</clipPath>
			
				<linearGradient id="SVGID_24_" gradientUnits="userSpaceOnUse" x1="105.5729" y1="434.4254" x2="107.4718" y2="434.4254" gradientTransform="matrix(293.5583 -31.1055 31.1055 293.5583 -44179.8008 -123198.1719)">
				<stop  offset="0" style="stop-color:#718416"/>
				<stop  offset="1" style="stop-color:#B0BC47"/>
			</linearGradient>
			<polygon class="st7" points="413.3,1014.4 445.4,1011 450.4,1057.2 418.2,1060.6 			"/>
		</g>
	</g>
	<g>
		<g>
			<defs>
				<path id="SVGID_25_" d="M461,1005.3c-0.6,0.1-1.2,0.2-1.8,0.3c-0.5,0.1-0.9,0.2-1.3,0.2c-0.4,0.1-0.7,0.1-0.8,0.2
					c-0.4,0.1-0.7,0.2-0.8,0.4c-0.2,0.2-0.2,0.5-0.2,0.8v7.2h-3.9c-0.6,0-1,0.1-1.2,0.2c-0.3,0.2-0.4,0.5-0.4,1.1v3.2
					c0,0.6,0.1,1,0.4,1.1c0.3,0.2,0.7,0.2,1.2,0.2h3.9v29.5c0,1.7,0.3,3.1,0.8,4.1s1.2,1.9,2,2.6c0.8,0.6,1.8,1.1,2.8,1.3
					c1,0.2,2.1,0.4,3.1,0.4c0.5,0,0.9-0.2,1.2-0.5c0.3-0.3,0.5-0.7,0.5-1.2v-2.8c0-0.6-0.2-1-0.5-1.3s-0.8-0.5-1.3-0.5
					c-0.7,0-1.2-0.2-1.6-0.5s-0.6-0.9-0.6-1.7v-29.4h4.7c0.5,0,0.9-0.1,1.1-0.4c0.2-0.2,0.4-0.7,0.4-1.3v-2.7c0-0.6-0.1-1-0.4-1.2
					c-0.2-0.2-0.6-0.3-1.1-0.3h-4.7v-7.3c0-0.3,0-0.5,0-0.8c0-0.2-0.1-0.5-0.2-0.6s-0.3-0.3-0.5-0.4c-0.1-0.1-0.3-0.1-0.6-0.1
					C461.3,1005.3,461.1,1005.3,461,1005.3"/>
			</defs>
			<clipPath id="SVGID_26_">
				<use xlink:href="#SVGID_25_"  style="overflow:visible;"/>
			</clipPath>
			
				<linearGradient id="SVGID_27_" gradientUnits="userSpaceOnUse" x1="105.5729" y1="434.4216" x2="107.4718" y2="434.4216" gradientTransform="matrix(293.5583 -31.1055 31.1055 293.5583 -44179.7969 -123198.1406)">
				<stop  offset="0" style="stop-color:#718416"/>
				<stop  offset="1" style="stop-color:#B0BC47"/>
			</linearGradient>
			<polygon class="st8" points="444.9,1005.9 468.7,1003.4 474.4,1057.6 450.7,1060.1 			"/>
		</g>
	</g>
	<g>
		<g>
			<defs>
				<path id="SVGID_28_" d="M500.1,1001.8c-0.4,0-0.8,0.1-1,0.4c-0.3,0.3-0.4,0.6-0.4,1.1v53c0,1,0.5,1.5,1.6,1.5h3.5
					c1,0,1.5-0.5,1.5-1.5v-53c0-0.4-0.1-0.8-0.4-1c-0.3-0.3-0.7-0.4-1.1-0.4L500.1,1001.8L500.1,1001.8z"/>
			</defs>
			<clipPath id="SVGID_29_">
				<use xlink:href="#SVGID_28_"  style="overflow:visible;"/>
			</clipPath>
			
				<linearGradient id="SVGID_30_" gradientUnits="userSpaceOnUse" x1="105.5729" y1="434.4261" x2="107.4718" y2="434.4261" gradientTransform="matrix(293.5583 -31.1055 31.1055 293.5583 -44179.6797 -123197.0469)">
				<stop  offset="0" style="stop-color:#718416"/>
				<stop  offset="1" style="stop-color:#B0BC47"/>
			</linearGradient>
			<polygon class="st9" points="492.7,1002.4 505.1,1001.1 511,1057.1 498.7,1058.4 			"/>
		</g>
	</g>
	<g>
		<g>
			<defs>
				<path id="SVGID_31_" d="M531.2,1050.8c-1.9-0.9-3.5-2-4.9-3.5c-1.4-1.4-2.5-3.1-3.3-5.1c-0.8-1.9-1.2-4-1.2-6.1
					c0-2.1,0.4-4.1,1.2-6.1c0.8-1.9,1.9-3.7,3.3-5.2c1.4-1.5,3-2.7,4.9-3.5s3.9-1.3,6-1.3c2.1,0,4.1,0.4,6,1.3s3.5,2.1,4.9,3.5
					c1.4,1.5,2.5,3.2,3.3,5.2c0.8,1.9,1.2,4,1.2,6.1c0,2.2-0.4,4.2-1.2,6.1c-0.8,1.9-1.9,3.6-3.3,5.1c-1.4,1.4-3,2.6-4.9,3.5
					c-1.9,0.9-3.9,1.3-6,1.3C535.1,1052.1,533.1,1051.7,531.2,1050.8 M528.7,1015.6c-2.7,1.2-5.1,2.8-7.1,4.8c-2,2-3.6,4.4-4.8,7.1
					c-1.2,2.7-1.8,5.6-1.8,8.7c0,2,0.3,4,0.8,5.9c0.5,1.9,1.3,3.7,2.3,5.3c1,1.7,2.1,3.2,3.5,4.5s2.9,2.5,4.5,3.5
					c1.7,1,3.4,1.7,5.3,2.3s3.8,0.8,5.9,0.8c2,0,4-0.3,5.9-0.8c1.9-0.5,3.7-1.3,5.3-2.3s3.2-2.1,4.5-3.5c1.4-1.4,2.5-2.9,3.5-4.5
					c1-1.7,1.7-3.4,2.3-5.3c0.5-1.9,0.8-3.9,0.8-5.9s-0.3-4-0.8-5.9c-0.5-1.9-1.3-3.7-2.3-5.3c-1-1.7-2.2-3.2-3.5-4.5
					c-1.4-1.4-2.9-2.5-4.5-3.5s-3.4-1.7-5.3-2.3c-1.9-0.5-3.8-0.8-5.9-0.8C534.3,1013.8,531.4,1014.4,528.7,1015.6"/>
			</defs>
			<clipPath id="SVGID_32_">
				<use xlink:href="#SVGID_31_"  style="overflow:visible;"/>
			</clipPath>
			
				<linearGradient id="SVGID_33_" gradientUnits="userSpaceOnUse" x1="105.5729" y1="434.4425" x2="107.4718" y2="434.4425" gradientTransform="matrix(293.5583 -31.1055 31.1055 293.5583 -44179.1172 -123191.75)">
				<stop  offset="0" style="stop-color:#718416"/>
				<stop  offset="1" style="stop-color:#B0BC47"/>
			</linearGradient>
			<polygon class="st10" points="510.3,1014.3 559.1,1009.2 564.3,1058 515.5,1063.2 			"/>
		</g>
	</g>
	<g>
		<g>
			<defs>
				<path id="SVGID_34_" d="M582.7,1014.7c-1.9,0.5-3.7,1.3-5.3,2.3c-1.7,1-3.2,2.2-4.6,3.5c-1.4,1.4-2.6,2.9-3.5,4.5
					c-1,1.7-1.8,3.4-2.3,5.3c-0.5,1.9-0.8,3.8-0.8,5.9c0,2,0.3,4,0.8,5.9c0.5,1.9,1.3,3.7,2.3,5.3c1,1.7,2.2,3.2,3.5,4.5
					s2.9,2.5,4.6,3.5c1.7,1,3.4,1.7,5.3,2.3s3.8,0.8,5.8,0.8c1.4,0,2.8-0.1,4.1-0.4c1.3-0.2,2.5-0.6,3.7-1.1c1.2-0.4,2.3-1,3.3-1.6
					s2.1-1.3,3-2.1c0.4-0.3,0.7-0.6,0.9-0.9c0.2-0.3,0.3-0.5,0.4-0.7c0-0.2,0-0.4,0-0.6c-0.1-0.2-0.2-0.4-0.3-0.5
					c-0.1-0.1-0.2-0.3-0.4-0.5c-0.2-0.2-0.4-0.5-0.7-0.9c-0.3-0.4-0.7-0.9-1.1-1.5c-0.2-0.3-0.5-0.5-0.7-0.6c-0.2-0.1-0.4-0.1-0.6,0
					c-0.2,0.1-0.4,0.2-0.6,0.3c-0.2,0.2-0.4,0.3-0.5,0.4c-0.7,0.5-1.3,1.1-2,1.6c-0.7,0.5-1.5,1-2.3,1.4c-0.8,0.4-1.8,0.7-2.8,0.9
					s-2.1,0.4-3.4,0.4c-2,0-4-0.4-5.8-1.3s-3.5-2-4.9-3.4c-1.4-1.4-2.6-3.1-3.4-5.1c-0.8-1.9-1.3-4-1.3-6.2c0-2.2,0.4-4.2,1.3-6.2
					c0.9-1.9,2-3.7,3.4-5.1c1.4-1.5,3.1-2.6,4.9-3.5c1.9-0.9,3.8-1.3,5.8-1.3c1,0,1.9,0.1,2.9,0.3c1,0.2,1.9,0.5,2.8,0.9
					c0.9,0.4,1.8,0.8,2.5,1.3c0.8,0.5,1.5,1.1,2.1,1.7c0.8,0.8,1.5,0.8,2,0l2.5-3.3c0.2-0.3,0.2-0.6,0.2-0.8c0-0.3-0.1-0.5-0.3-0.7
					c-0.2-0.2-0.3-0.4-0.5-0.6c-0.2-0.2-0.4-0.3-0.6-0.5c-0.8-0.7-1.7-1.3-2.8-1.8c-1-0.6-2.1-1.1-3.3-1.5c-1.2-0.4-2.4-0.8-3.6-1
					c-1.3-0.2-2.5-0.4-3.8-0.4C586.6,1013.8,584.6,1014.1,582.7,1014.7"/>
			</defs>
			<clipPath id="SVGID_35_">
				<use xlink:href="#SVGID_34_"  style="overflow:visible;"/>
			</clipPath>
			
				<linearGradient id="SVGID_36_" gradientUnits="userSpaceOnUse" x1="105.5729" y1="434.4498" x2="107.4718" y2="434.4498" gradientTransform="matrix(293.5583 -31.1055 31.1055 293.5583 -44178.8203 -123188.9062)">
				<stop  offset="0" style="stop-color:#718416"/>
				<stop  offset="1" style="stop-color:#B0BC47"/>
			</linearGradient>
			<polygon class="st11" points="561.5,1014.3 603.5,1009.9 608.6,1058 566.6,1062.4 			"/>
		</g>
	</g>
	<g>
		<g>
			<defs>
				<path id="SVGID_37_" d="M614.1,1001.7c-0.5,0-0.8,0.2-1.1,0.4s-0.4,0.7-0.4,1.1v53c0,1,0.5,1.5,1.5,1.5h3.5c1,0,1.6-0.5,1.6-1.5
					v-13.5l4.4-4.6l15.2,18.4c0.2,0.4,0.4,0.7,0.7,0.8c0.3,0.2,0.6,0.3,0.9,0.3h5.8c0.4,0,0.7,0,0.8-0.1c0.2-0.1,0.2-0.2,0.2-0.5
					c0-0.1,0-0.3-0.1-0.6c0-0.3-0.2-0.5-0.4-0.7h0.1l-18.7-22.2l16.5-17.2c0.2-0.3,0.4-0.7,0.4-1.1c0-0.2-0.1-0.4-0.3-0.6
					c-0.2-0.2-0.5-0.2-0.8-0.2h-5.2c-0.4,0-0.8,0.1-1,0.2c-0.3,0.2-0.6,0.4-0.8,0.6l-17.7,18.7v-30.9c0-0.5-0.2-0.8-0.5-1.1
					c-0.3-0.3-0.7-0.4-1.1-0.4L614.1,1001.7L614.1,1001.7z"/>
			</defs>
			<clipPath id="SVGID_38_">
				<use xlink:href="#SVGID_37_"  style="overflow:visible;"/>
			</clipPath>
			
				<linearGradient id="SVGID_39_" gradientUnits="userSpaceOnUse" x1="105.5729" y1="434.4477" x2="107.4718" y2="434.4477" gradientTransform="matrix(293.5583 -31.1055 31.1055 293.5583 -44178.9297 -123189.9688)">
				<stop  offset="0" style="stop-color:#718416"/>
				<stop  offset="1" style="stop-color:#B0BC47"/>
			</linearGradient>
			<polygon class="st12" points="606.8,1002.3 646.9,998.1 653.1,1057.1 613,1061.3 			"/>
		</g>
	</g>
	<g>
		<g>
			<defs>
				<path id="SVGID_40_" d="M671.4,1050.8c-1.9-0.9-3.5-2-4.9-3.5s-2.5-3.1-3.3-5.1c-0.8-1.9-1.2-4-1.2-6.1c0-2.1,0.4-4.1,1.2-6.1
					c0.8-1.9,1.9-3.7,3.3-5.2c1.4-1.5,3-2.7,4.9-3.5s3.9-1.3,6-1.3c2.1,0,4.1,0.4,6,1.3s3.5,2.1,4.9,3.5s2.5,3.2,3.3,5.2
					c0.8,1.9,1.2,4,1.2,6.1c0,2.2-0.4,4.2-1.2,6.1c-0.8,1.9-1.9,3.6-3.3,5.1c-1.4,1.4-3,2.6-4.9,3.5c-1.9,0.9-3.9,1.3-6,1.3
					C675.3,1052.1,673.3,1051.7,671.4,1050.8 M657.2,1001.8c-0.4,0-0.8,0.1-1,0.4c-0.3,0.3-0.5,0.6-0.5,1.1v53c0,1,0.5,1.5,1.6,1.5
					h3.5c1,0,1.5-0.5,1.5-1.5v-4.1c2,2,4.2,3.6,6.8,4.7c2.6,1.1,5.4,1.7,8.4,1.7c2,0,4-0.3,5.9-0.8s3.7-1.3,5.3-2.3
					c1.7-1,3.2-2.1,4.5-3.5c1.4-1.4,2.5-2.9,3.5-4.5s1.8-3.4,2.3-5.3c0.5-1.9,0.8-3.9,0.8-5.9s-0.3-4-0.8-5.9
					c-0.5-1.9-1.3-3.7-2.3-5.3c-1-1.7-2.2-3.2-3.5-4.5c-1.4-1.4-2.9-2.5-4.5-3.5c-1.7-1-3.4-1.7-5.3-2.3c-1.9-0.5-3.8-0.8-5.9-0.8
					c-3,0-5.8,0.6-8.4,1.7c-2.6,1.2-4.8,2.7-6.8,4.7v-17c0-0.4-0.1-0.8-0.4-1c-0.3-0.3-0.7-0.4-1.1-0.4L657.2,1001.8L657.2,1001.8z"
					/>
			</defs>
			<clipPath id="SVGID_41_">
				<use xlink:href="#SVGID_40_"  style="overflow:visible;"/>
			</clipPath>
			
				<linearGradient id="SVGID_42_" gradientUnits="userSpaceOnUse" x1="105.5729" y1="434.4583" x2="107.4718" y2="434.4583" gradientTransform="matrix(293.5583 -31.1055 31.1055 293.5583 -44178.6875 -123187.6875)">
				<stop  offset="0" style="stop-color:#718416"/>
				<stop  offset="1" style="stop-color:#B0BC47"/>
			</linearGradient>
			<polygon class="st13" points="649.7,1002.4 699.3,997.1 705.7,1057.9 656.1,1063.1 			"/>
		</g>
	</g>
	<g>
		<g>
			<defs>
				<path id="SVGID_43_" d="M723.4,1050.8c-1.9-0.9-3.5-2-4.9-3.5c-1.4-1.4-2.5-3.1-3.3-5.1c-0.8-1.9-1.2-4-1.2-6.1
					c0-2.1,0.4-4.1,1.2-6.1c0.8-1.9,1.9-3.7,3.3-5.2c1.4-1.5,3-2.7,4.9-3.5c1.9-0.9,3.9-1.3,6-1.3c2.1,0,4.1,0.4,6,1.3
					s3.5,2.1,4.9,3.5c1.4,1.5,2.5,3.2,3.3,5.2c0.8,1.9,1.2,4,1.2,6.1c0,2.2-0.4,4.2-1.2,6.1c-0.8,1.9-1.9,3.6-3.3,5.1
					c-1.4,1.4-3,2.6-4.9,3.5c-1.9,0.9-3.9,1.3-6,1.3C727.3,1052.1,725.3,1051.7,723.4,1050.8 M720.9,1015.6
					c-2.7,1.2-5.1,2.8-7.1,4.8c-2,2-3.6,4.4-4.8,7.1c-1.2,2.7-1.8,5.6-1.8,8.7c0,2,0.3,4,0.8,5.9c0.5,1.9,1.3,3.7,2.3,5.3
					c1,1.7,2.1,3.2,3.5,4.5c1.4,1.4,2.9,2.5,4.5,3.5c1.7,1,3.4,1.7,5.3,2.3s3.8,0.8,5.9,0.8c2,0,4-0.3,5.9-0.8s3.7-1.3,5.3-2.3
					c1.7-1,3.2-2.1,4.5-3.5c1.4-1.4,2.5-2.9,3.5-4.5s1.8-3.4,2.3-5.3c0.5-1.9,0.8-3.9,0.8-5.9s-0.3-4-0.8-5.9
					c-0.5-1.9-1.3-3.7-2.3-5.3c-1-1.7-2.2-3.2-3.5-4.5c-1.4-1.4-2.9-2.5-4.5-3.5c-1.7-1-3.4-1.7-5.3-2.3c-1.9-0.5-3.8-0.8-5.9-0.8
					C726.4,1013.8,723.6,1014.4,720.9,1015.6"/>
			</defs>
			<clipPath id="SVGID_44_">
				<use xlink:href="#SVGID_43_"  style="overflow:visible;"/>
			</clipPath>
			
				<linearGradient id="SVGID_45_" gradientUnits="userSpaceOnUse" x1="105.5729" y1="434.4749" x2="107.4718" y2="434.4749" gradientTransform="matrix(293.5583 -31.1055 31.1055 293.5583 -44177.9961 -123181.1406)">
				<stop  offset="0" style="stop-color:#718416"/>
				<stop  offset="1" style="stop-color:#B0BC47"/>
			</linearGradient>
			<polygon class="st14" points="702.5,1014.3 751.3,1009.2 756.4,1058 707.7,1063.2 			"/>
		</g>
	</g>
	<g>
		<g>
			<defs>
				<path id="SVGID_46_" d="M786.9,1014.6c-0.3,0-0.5,0-0.7,0.1s-0.4,0.1-0.5,0.2c-0.2,0.1-0.3,0.3-0.5,0.5
					c-0.2,0.2-0.3,0.4-0.6,0.7l-9.2,14.1l-9.2-14.1c-0.2-0.3-0.4-0.5-0.6-0.7c-0.2-0.2-0.3-0.3-0.5-0.5s-0.3-0.2-0.5-0.2
					c-0.2,0-0.4-0.1-0.7-0.1h-4.4c-0.7,0-1.1,0.1-1.3,0.4s0,0.7,0.4,1.4c1.1,1.6,2.1,3.1,3.1,4.4s1.9,2.8,2.9,4.2
					c1,1.4,2,2.9,3.2,4.6s2.4,3.5,3.8,5.6l-14.6,21.1c-0.3,0.4-0.4,0.8-0.3,1.1c0.1,0.3,0.4,0.4,1,0.4h5c0.4,0,0.8-0.1,1.1-0.3
					c0.3-0.2,0.6-0.5,0.9-0.9l10.7-16.5l10.7,16.5c0.3,0.4,0.6,0.7,0.9,0.9c0.3,0.2,0.7,0.3,1.1,0.3h5c0.6,0,0.9-0.1,1-0.4
					s0-0.6-0.3-1.1l-14.6-21.1c1.4-2.1,2.7-3.9,3.8-5.6s2.2-3.2,3.2-4.6c1-1.4,2-2.8,2.9-4.2s2-2.8,3.1-4.4c0.5-0.7,0.6-1.1,0.4-1.4
					c-0.2-0.2-0.6-0.4-1.3-0.4L786.9,1014.6L786.9,1014.6z"/>
			</defs>
			<clipPath id="SVGID_47_">
				<use xlink:href="#SVGID_46_"  style="overflow:visible;"/>
			</clipPath>
			
				<linearGradient id="SVGID_48_" gradientUnits="userSpaceOnUse" x1="105.5729" y1="434.4825" x2="107.4718" y2="434.4825" gradientTransform="matrix(293.5583 -31.1055 31.1055 293.5583 -44177.7227 -123178.5781)">
				<stop  offset="0" style="stop-color:#718416"/>
				<stop  offset="1" style="stop-color:#B0BC47"/>
			</linearGradient>
			<polygon class="st15" points="752.1,1015 793.8,1010.6 798.8,1057.2 757.1,1061.7 			"/>
		</g>
	</g>
</g>
<g>
	<g>
		<g>
			<defs>
				<path id="SVGID_49_" d="M691.9,45c37.5,0,71.9,13.9,96.8,39.2c48.8,49.4,50,129.8,6.7,190.7c1.3-15.7,0.8-31.4-1.5-47
					c-6.3-42-25.5-78.7-55.5-106.3c-33.2-30.5-77.7-47.2-125.3-47.2c-4.8,0-9.6,0.2-14.5,0.5C626.5,55.7,659.2,45,691.9,45
					 M557.8,78.2c-12.3,12.2-22.7,25.6-31.2,39.7c0.6-0.2,1.9-0.5,3.6-0.9c27-12.8,55.2-19,82.6-19c41,0,80,14,109.4,41
					c52.9,48.6,65.4,130.4,30.5,202.7c-0.5,2.1-0.9,3.5-1,4.1c14.2-8.3,27.7-18.5,40-30.7c72.1-71.2,78.2-182,13.6-247.4
					c-30.5-30.9-71.4-46.2-113.5-46.2C644.7,21.5,595.9,40.6,557.8,78.2"/>
			</defs>
			<clipPath id="SVGID_50_">
				<use xlink:href="#SVGID_49_"  style="overflow:visible;"/>
			</clipPath>
			
				<linearGradient id="SVGID_51_" gradientUnits="userSpaceOnUse" x1="104.7369" y1="434.2208" x2="106.6358" y2="434.2208" gradientTransform="matrix(170.3766 0 0 170.3766 -17318.0469 -73797.4062)">
				<stop  offset="0" style="stop-color:#718416"/>
				<stop  offset="1" style="stop-color:#B0BC47"/>
			</linearGradient>
			<rect x="526.7" y="21.5" class="st16" width="343.4" height="324.3"/>
		</g>
	</g>
	<g>
		<g>
			<defs>
				<path id="SVGID_52_" d="M476.9,644.8L227.4,395.3c-10.2-10.2-10.2-26.8,0-37l249.5-249.5c10.2-10.2,26.8-10.2,37,0l249.5,249.5
					c10.2,10.2,10.2,26.8,0,37L513.9,644.8c-4.9,4.9-11.5,7.6-18.5,7.6S481.8,649.7,476.9,644.8 M460.3,92.2L210.8,341.7
					c-19.4,19.4-19.4,50.9,0,70.2l249.5,249.5c9.4,9.3,21.8,14.5,35.1,14.5s25.8-5.2,35.1-14.5L780,411.9
					c19.4-19.4,19.4-50.9,0-70.2L530.5,92.2c-9.7-9.7-22.4-14.5-35.1-14.5C482.7,77.7,470,82.5,460.3,92.2"/>
			</defs>
			<clipPath id="SVGID_53_">
				<use xlink:href="#SVGID_52_"  style="overflow:visible;"/>
			</clipPath>
			
				<linearGradient id="SVGID_54_" gradientUnits="userSpaceOnUse" x1="105.739" y1="433.491" x2="107.6379" y2="433.491" gradientTransform="matrix(315.0728 0 0 315.0728 -33119.2539 -136204.4219)">
				<stop  offset="0" style="stop-color:#718416"/>
				<stop  offset="1" style="stop-color:#B0BC47"/>
			</linearGradient>
			<rect x="191.4" y="77.7" class="st17" width="608" height="598.3"/>
		</g>
	</g>
	<g>
		<g>
			<defs>
				<path id="SVGID_55_" d="M490.1,521.7c-39-1.1-74.9-17.2-101.3-45.2c-26.4-28-40.3-64.9-39.2-103.8
					c1.1-38.9,17.2-74.9,45.2-101.3c26.9-25.4,62.1-39.2,99.4-39.2c1.5,0,3,0,4.4,0.1c38.9,1.1,74.9,17.2,101.3,45.2
					c26.4,28,40.3,64.9,39.2,103.8c-1.1,38.9-17.2,74.9-45.2,101.3c-26.9,25.4-62.1,39.2-99.4,39.2
					C493.1,521.8,491.6,521.8,490.1,521.7 M378.6,254.3c-32.6,30.7-51.2,72.5-52.5,117.8c-1.3,45.2,14.9,88.1,45.6,120.6
					c30.7,32.6,72.5,51.2,117.8,52.5c1.7,0,3.4,0.1,5.1,0.1c43.3,0,84.2-16.1,115.5-45.6l0,0c32.6-30.7,51.2-72.5,52.5-117.8
					c1.3-45.2-14.9-88.1-45.6-120.6c-30.7-32.6-72.5-51.2-117.8-52.6c-1.7-0.1-3.4-0.1-5.1-0.1C450.7,208.6,410,224.7,378.6,254.3"
					/>
			</defs>
			<clipPath id="SVGID_56_">
				<use xlink:href="#SVGID_55_"  style="overflow:visible;"/>
			</clipPath>
			
				<linearGradient id="SVGID_57_" gradientUnits="userSpaceOnUse" x1="104.3287" y1="434.6501" x2="106.2276" y2="434.6501" gradientTransform="matrix(177.3046 0 0 177.3046 -18171.9355 -76688.5156)">
				<stop  offset="0" style="stop-color:#718416"/>
				<stop  offset="1" style="stop-color:#B0BC47"/>
			</linearGradient>
			<rect x="324.8" y="208.6" class="st18" width="339.2" height="336.7"/>
		</g>
	</g>
	<g>
		<g>
			<defs>
				<path id="SVGID_58_" d="M492.3,448.1c-19.2-0.6-36.9-8.5-49.9-22.2c-13-13.8-19.8-31.9-19.3-51.1c0.6-19.2,8.5-36.9,22.2-49.9
					c13.2-12.5,30.5-19.3,48.9-19.3c0.7,0,1.5,0,2.2,0c19.2,0.6,36.9,8.5,49.9,22.2c13,13.8,19.8,31.9,19.3,51.1
					s-8.5,36.9-22.2,49.9l0,0c-13.2,12.5-30.6,19.3-48.9,19.3C493.7,448.2,493,448.2,492.3,448.1 M483.4,248.6v35.8
					c-17.2,2-33.3,8.6-46.8,19.3l-25.2-25.2l-15.5,15.5l25.2,25.2c-10.6,13.5-17.2,29.5-19.2,46.8H366v22h35.8
					c2,17.1,8.6,33.2,19.3,46.8L395.8,460l15.5,15.5l25.2-25.2c13.5,10.6,29.5,17.2,46.8,19.2v35.9h22v-35.8
					c17.2-2,33.3-8.6,46.8-19.2l25.2,25.2l15.5-15.5l-25.2-25.2c10.6-13.5,17.2-29.5,19.2-46.8h35.9v-22h-35.8
					c-2-17.1-8.6-33.2-19.3-46.8l25.2-25.2l-15.5-15.5l-25.2,25.2c-13.5-10.6-29.5-17.2-46.8-19.2v-35.9L483.4,248.6L483.4,248.6z"
					/>
			</defs>
			<clipPath id="SVGID_59_">
				<use xlink:href="#SVGID_58_"  style="overflow:visible;"/>
			</clipPath>
			
				<linearGradient id="SVGID_60_" gradientUnits="userSpaceOnUse" x1="103.3264" y1="435.4744" x2="105.2253" y2="435.4744" gradientTransform="matrix(135.2333 0 0 135.2333 -13607.2031 -58513.6992)">
				<stop  offset="0" style="stop-color:#718416"/>
				<stop  offset="1" style="stop-color:#B0BC47"/>
			</linearGradient>
			<rect x="366" y="248.6" class="st19" width="256.8" height="256.8"/>
		</g>
	</g>
</g>
</svg>
