<?xml version="1.0" encoding="utf-8"?>
<!-- Generator: Adobe Illustrator 25.0.1, SVG Export Plug-In . SVG Version: 6.00 Build 0)  -->
<svg version="1.1" id="Layer_1" xmlns="http://www.w3.org/2000/svg" xmlns:xlink="http://www.w3.org/1999/xlink" x="0px" y="0px"
	 viewBox="0 0 1080 1080" style="enable-background:new 0 0 1080 1080;" xml:space="preserve">
<style type="text/css">
	.st0{clip-path:url(#SVGID_1_);fill:url(#SVGID_2_);}
	.st1{clip-path:url(#SVGID_3_);fill:url(#SVGID_4_);}
	.st2{clip-path:url(#SVGID_5_);fill:url(#SVGID_6_);}
	.st3{clip-path:url(#SVGID_7_);fill:url(#SVGID_8_);}
	.st4{clip-path:url(#SVGID_9_);fill:url(#SVGID_10_);}
	.st5{clip-path:url(#SVGID_11_);fill:url(#SVGID_12_);}
	.st6{clip-path:url(#SVGID_13_);fill:url(#SVGID_14_);}
	.st7{clip-path:url(#SVGID_15_);fill:url(#SVGID_16_);}
	.st8{clip-path:url(#SVGID_17_);fill:url(#SVGID_18_);}
	.st9{clip-path:url(#SVGID_19_);fill:url(#SVGID_20_);}
	.st10{clip-path:url(#SVGID_21_);fill:url(#SVGID_22_);}
	.st11{clip-path:url(#SVGID_23_);fill:url(#SVGID_24_);}
	.st12{clip-path:url(#SVGID_25_);fill:url(#SVGID_26_);}
	.st13{clip-path:url(#SVGID_27_);fill:url(#SVGID_28_);}
	.st14{clip-path:url(#SVGID_29_);fill:url(#SVGID_30_);}
	.st15{clip-path:url(#SVGID_31_);fill:url(#SVGID_32_);}
	.st16{clip-path:url(#SVGID_33_);fill:url(#SVGID_34_);}
	.st17{fill:#FFFFFF;}
</style>
<g>
	<g>
		<g>
			<defs>
				<path id="SVGID_55_" d="M228.16,770.23h37.93c9.06,0,17.57,1.54,25.53,4.61c7.96,3.07,14.9,7.4,20.86,13
					c5.95,5.59,10.66,12.33,14.12,20.2c3.46,7.88,5.2,16.62,5.2,26.23c0,8.98-1.65,17.49-4.96,25.53
					c-3.31,8.03-7.9,15.07-13.77,21.09c-5.87,6.03-12.86,10.81-20.97,14.36c-8.11,3.55-16.98,5.32-26.59,5.32h-37.34V770.23z
					 M210.91,747.66c-3.62,0-5.43,1.89-5.43,5.67v164.84c0,1.97,0.55,3.29,1.65,3.96c1.11,0.67,2.36,1.01,3.78,1.01h55.19
					c8.19,0,16.07-1.04,23.63-3.13c7.56-2.09,14.61-5.02,21.15-8.8c6.54-3.78,12.48-8.33,17.84-13.65
					c5.35-5.32,9.94-11.23,13.77-17.73c3.82-6.5,6.77-13.47,8.86-20.92c2.09-7.45,3.13-15.22,3.13-23.34
					c0-8.19-1.02-16.05-3.07-23.57c-2.05-7.52-4.94-14.54-8.68-21.04c-3.74-6.5-8.26-12.43-13.53-17.78
					c-5.28-5.35-11.19-9.92-17.73-13.71c-6.54-3.78-13.63-6.7-21.27-8.75c-7.64-2.05-15.68-3.07-24.11-3.07H210.91z"/>
			</defs>
			<clipPath id="SVGID_1_">
				<use xlink:href="#SVGID_55_"  style="overflow:visible;"/>
			</clipPath>
			
				<linearGradient id="SVGID_2_" gradientUnits="userSpaceOnUse" x1="101.0749" y1="644.5566" x2="103.8479" y2="644.5566" gradientTransform="matrix(176.1696 -11.6338 -11.6338 -176.1696 -10042.3848 115563.5234)">
				<stop  offset="0" style="stop-color:#718416"/>
				<stop  offset="1" style="stop-color:#B0BC47"/>
			</linearGradient>
			<polygon class="st0" points="193.94,748.42 353.83,737.86 366.02,922.38 206.12,932.94 			"/>
		</g>
		<g>
			<defs>
				<path id="SVGID_58_" d="M468.63,782.52l31.9,80.82h-64.4L468.63,782.52z M464.73,747.66c-1.26,0-2.27,0.16-3.01,0.48
					c-0.75,0.31-1.32,0.68-1.72,1.12c-0.39,0.43-0.7,0.9-0.94,1.41c-0.24,0.52-0.43,0.97-0.59,1.36l-68.18,163.78
					c-0.08,0.24-0.16,0.51-0.24,0.83c-0.07,0.32-0.14,0.65-0.17,1.01c-0.04,0.35-0.06,0.81-0.06,1.36c0,2.76,1.81,4.14,5.43,4.14
					h12.53c1.58,0,2.88-0.4,3.9-1.18c1.02-0.79,1.81-1.85,2.36-3.19c1.1-3.31,2.8-7.8,5.08-13.47c2.28-5.67,4.8-12.01,7.56-19.03
					h82.95l13,32.5c0.55,1.34,1.34,2.4,2.36,3.19c1.03,0.79,2.32,1.18,3.9,1.18h12.52c3.62,0,5.43-1.38,5.43-4.14
					c0-0.23-0.04-0.53-0.12-0.88c-0.07-0.35-0.16-0.73-0.23-1.12c-0.07-0.39-0.16-0.79-0.24-1.18l-67.59-163.78
					c-0.16-0.39-0.35-0.85-0.59-1.36c-0.24-0.51-0.55-0.98-0.95-1.41c-0.39-0.44-0.97-0.81-1.71-1.12
					c-0.75-0.32-1.72-0.48-2.89-0.48H464.73z"/>
			</defs>
			<clipPath id="SVGID_3_">
				<use xlink:href="#SVGID_58_"  style="overflow:visible;"/>
			</clipPath>
			
				<linearGradient id="SVGID_4_" gradientUnits="userSpaceOnUse" x1="101.0749" y1="644.5217" x2="103.8479" y2="644.5217" gradientTransform="matrix(176.1696 -11.6338 -11.6338 -176.1696 -10041.9727 115569.7656)">
				<stop  offset="0" style="stop-color:#718416"/>
				<stop  offset="1" style="stop-color:#B0BC47"/>
			</linearGradient>
			<polygon class="st1" points="378.27,748.42 546.17,737.33 558.39,922.38 390.49,933.46 			"/>
		</g>
		<g>
			<defs>
				<path id="SVGID_61_" d="M591.05,747.66c-1.73,0-3.07,0.51-4.02,1.54c-0.95,1.02-1.42,2.25-1.42,3.66v165.08
					c0,3.47,1.73,5.2,5.2,5.2h100.44c1.58,0,2.84-0.51,3.79-1.54c0.95-1.02,1.42-2.25,1.42-3.67v-12.17c0-1.74-0.51-3.09-1.54-4.08
					c-1.02-0.98-2.24-1.48-3.67-1.48h-82.83V752.86c0-1.73-0.49-3.03-1.48-3.9c-0.99-0.87-2.23-1.3-3.72-1.3H591.05z"/>
			</defs>
			<clipPath id="SVGID_5_">
				<use xlink:href="#SVGID_61_"  style="overflow:visible;"/>
			</clipPath>
			
				<linearGradient id="SVGID_6_" gradientUnits="userSpaceOnUse" x1="101.0749" y1="644.4759" x2="103.8479" y2="644.4759" gradientTransform="matrix(176.1696 -11.6338 -11.6338 -176.1696 -10041.7559 115573.0391)">
				<stop  offset="0" style="stop-color:#718416"/>
				<stop  offset="1" style="stop-color:#B0BC47"/>
			</linearGradient>
			<polygon class="st2" points="574.07,748.42 695.97,740.37 707.99,922.38 586.09,930.43 			"/>
		</g>
		<g>
			<defs>
				<path id="SVGID_64_" d="M796.3,782.52l31.91,80.82h-64.4L796.3,782.52z M792.4,747.66c-1.26,0-2.27,0.16-3.01,0.48
					c-0.75,0.31-1.32,0.68-1.71,1.12c-0.39,0.43-0.71,0.9-0.94,1.41c-0.24,0.52-0.44,0.97-0.59,1.36l-68.18,163.78
					c-0.07,0.24-0.16,0.51-0.23,0.83c-0.08,0.32-0.14,0.65-0.18,1.01c-0.04,0.35-0.06,0.81-0.06,1.36c0,2.76,1.81,4.14,5.44,4.14
					h12.53c1.57,0,2.87-0.4,3.9-1.18c1.02-0.79,1.81-1.85,2.36-3.19c1.1-3.31,2.8-7.8,5.08-13.47c2.28-5.67,4.81-12.01,7.56-19.03
					h82.95l13,32.5c0.55,1.34,1.34,2.4,2.37,3.19c1.02,0.79,2.32,1.18,3.9,1.18h12.53c3.62,0,5.43-1.38,5.43-4.14
					c0-0.23-0.04-0.53-0.12-0.88c-0.07-0.35-0.16-0.73-0.23-1.12c-0.08-0.39-0.16-0.79-0.24-1.18l-67.59-163.78
					c-0.16-0.39-0.36-0.85-0.6-1.36c-0.23-0.51-0.55-0.98-0.94-1.41c-0.39-0.44-0.97-0.81-1.71-1.12c-0.75-0.32-1.72-0.48-2.9-0.48
					H792.4z"/>
			</defs>
			<clipPath id="SVGID_7_">
				<use xlink:href="#SVGID_64_"  style="overflow:visible;"/>
			</clipPath>
			
				<linearGradient id="SVGID_8_" gradientUnits="userSpaceOnUse" x1="101.0749" y1="644.4435" x2="103.8479" y2="644.4435" gradientTransform="matrix(176.1696 -11.6338 -11.6338 -176.1696 -10041.459 115577.5312)">
				<stop  offset="0" style="stop-color:#718416"/>
				<stop  offset="1" style="stop-color:#B0BC47"/>
			</linearGradient>
			<polygon class="st3" points="705.94,748.42 873.84,737.33 886.06,922.38 718.16,933.46 			"/>
		</g>
		<g>
			<defs>
				<path id="SVGID_67_" d="M259.83,994.88c-1.89,0.63-3.5,1.52-4.85,2.66c-1.35,1.14-2.4,2.52-3.15,4.12
					c-0.75,1.6-1.13,3.38-1.13,5.32c0,1.77,0.32,3.37,0.95,4.79c0.63,1.42,1.55,2.68,2.75,3.79c1.2,1.11,2.66,2.07,4.38,2.91
					c1.71,0.84,3.66,1.55,5.85,2.14c1.24,0.34,2.49,0.67,3.73,0.98c1.26,0.32,2.38,0.73,3.39,1.26c1.01,0.52,1.82,1.18,2.46,1.99
					c0.63,0.8,0.95,1.86,0.95,3.17c0,1.22-0.34,2.27-1,3.15c-0.67,0.88-1.49,1.61-2.48,2.17c-0.98,0.56-2.03,0.97-3.15,1.24
					c-1.12,0.27-2.14,0.4-3.06,0.4c-0.68,0-1.49-0.11-2.44-0.34c-0.95-0.23-1.88-0.58-2.81-1.04c-0.92-0.46-1.78-1.05-2.57-1.77
					c-0.8-0.72-1.37-1.55-1.74-2.5c-0.19-0.44-0.46-0.81-0.8-1.11c-0.34-0.3-0.81-0.33-1.42-0.09l-3.47,1.61
					c-0.24,0.12-0.43,0.24-0.56,0.36c-0.14,0.12-0.23,0.26-0.29,0.42c-0.06,0.16-0.07,0.35-0.02,0.59c0.05,0.23,0.14,0.53,0.26,0.89
					c0.6,1.65,1.49,3.08,2.66,4.3c1.17,1.21,2.47,2.22,3.9,3.03c1.44,0.8,2.96,1.4,4.58,1.78c1.61,0.39,3.19,0.59,4.72,0.59
					c2.43,0,4.68-0.32,6.74-0.95c2.07-0.63,3.85-1.54,5.34-2.72c1.5-1.18,2.67-2.61,3.5-4.3c0.84-1.69,1.26-3.59,1.26-5.7
					c0-1.92-0.38-3.64-1.13-5.16c-0.75-1.52-1.81-2.85-3.17-3.99c-1.36-1.15-3-2.13-4.9-2.96c-1.91-0.83-4.02-1.51-6.32-2.04
					c-1-0.24-2.03-0.57-3.1-0.99c-1.06-0.41-2.05-0.91-2.95-1.49c-0.9-0.59-1.64-1.23-2.22-1.95c-0.58-0.71-0.88-1.5-0.88-2.35
					c0-1.12,0.24-2.09,0.71-2.9c0.47-0.82,1.1-1.49,1.89-2.02c0.79-0.54,1.68-0.92,2.68-1.17c1-0.24,2.03-0.36,3.1-0.36
					c1.19,0,2.21,0.14,3.08,0.42c0.86,0.28,1.64,0.66,2.32,1.13c0.68,0.47,1.29,1.01,1.82,1.62c0.54,0.61,1.08,1.24,1.64,1.89
					c0.34,0.41,0.65,0.69,0.95,0.84c0.29,0.15,0.72,0.06,1.28-0.26l2.85-2.15c0.46-0.34,0.68-0.69,0.65-1.04
					c-0.03-0.35-0.18-0.77-0.47-1.26c-0.95-1.29-1.86-2.42-2.73-3.41c-0.88-0.98-1.84-1.81-2.89-2.48
					c-1.05-0.67-2.24-1.17-3.58-1.52c-1.35-0.34-2.96-0.51-4.83-0.51C263.8,993.94,261.71,994.25,259.83,994.88"/>
			</defs>
			<clipPath id="SVGID_9_">
				<use xlink:href="#SVGID_67_"  style="overflow:visible;"/>
			</clipPath>
			
				<linearGradient id="SVGID_10_" gradientUnits="userSpaceOnUse" x1="101.0749" y1="643.9062" x2="103.8479" y2="643.9062" gradientTransform="matrix(176.1696 -11.6338 -11.6338 -176.1696 -10038.0186 115629.6328)">
				<stop  offset="0" style="stop-color:#718416"/>
				<stop  offset="1" style="stop-color:#B0BC47"/>
			</linearGradient>
			<polygon class="st4" points="246.16,994.14 282.16,991.77 285.44,1041.47 249.45,1043.85 			"/>
		</g>
		<g>
			<defs>
				<path id="SVGID_70_" d="M336.88,994.41c-1.54,0.29-2.99,0.77-4.33,1.44c-1.35,0.67-2.57,1.54-3.65,2.61
					c-1.08,1.07-1.96,2.37-2.64,3.9c-1.46-2.72-3.41-4.79-5.83-6.21c-2.43-1.42-5.56-2.13-9.4-2.13c-1.61,0-3.01,0.16-4.23,0.47
					c-1.21,0.32-2.3,0.76-3.26,1.31c-0.96,0.56-1.83,1.21-2.61,1.95c-0.78,0.74-1.51,1.54-2.19,2.39v-3.79
					c0-0.44-0.15-0.82-0.46-1.13c-0.3-0.32-0.71-0.47-1.22-0.47h-3.79c-0.44,0-0.82,0.14-1.13,0.44c-0.32,0.29-0.47,0.68-0.47,1.17
					v43.08c0,1.07,0.57,1.61,1.72,1.61h3.75c1.07,0,1.61-0.54,1.61-1.61v-26.93c0-1.84,0.35-3.48,1.06-4.92
					c0.71-1.43,1.62-2.64,2.75-3.61c1.13-0.97,2.4-1.71,3.81-2.2c1.41-0.5,2.81-0.75,4.19-0.75c2.18,0,4.03,0.39,5.54,1.17
					c1.51,0.77,2.71,1.78,3.63,3.02c0.91,1.24,1.56,2.62,1.97,4.14c0.4,1.52,0.6,3,0.6,4.46v24.86c0,0.85,0.13,1.46,0.38,1.82
					c0.26,0.36,0.84,0.55,1.73,0.55h2.7c0.65,0,1.2-0.21,1.62-0.62c0.43-0.42,0.64-1.03,0.64-1.86v-24.75c0-1.99,0.27-3.79,0.8-5.38
					c0.54-1.59,1.31-2.94,2.32-4.04c1.01-1.1,2.24-1.95,3.7-2.53c1.46-0.59,3.11-0.88,4.96-0.88c2.18,0,4.03,0.39,5.54,1.17
					c1.51,0.78,2.72,1.79,3.63,3.03c0.91,1.24,1.57,2.62,1.97,4.13c0.4,1.52,0.6,3.01,0.6,4.46v24.86c0,0.85,0.13,1.46,0.38,1.82
					c0.25,0.37,0.83,0.55,1.73,0.55h2.7c0.66,0,1.2-0.2,1.63-0.62c0.42-0.41,0.64-1.03,0.64-1.86v-24.75c0-2.74-0.4-5.32-1.18-7.73
					c-0.79-2.4-1.96-4.5-3.5-6.29c-1.54-1.79-3.46-3.19-5.74-4.23c-2.29-1.03-4.92-1.55-7.91-1.55
					C339.99,993.97,338.42,994.12,336.88,994.41"/>
			</defs>
			<clipPath id="SVGID_11_">
				<use xlink:href="#SVGID_70_"  style="overflow:visible;"/>
			</clipPath>
			
				<linearGradient id="SVGID_12_" gradientUnits="userSpaceOnUse" x1="101.0749" y1="643.8937" x2="103.8479" y2="643.8937" gradientTransform="matrix(176.1696 -11.6338 -11.6338 -176.1696 -10037.9238 115631.0703)">
				<stop  offset="0" style="stop-color:#718416"/>
				<stop  offset="1" style="stop-color:#B0BC47"/>
			</linearGradient>
			<polygon class="st5" points="288.57,994.17 359.63,989.48 363.02,1040.82 291.96,1045.51 			"/>
		</g>
		<g>
			<defs>
				<path id="SVGID_73_" d="M386.32,1033.62c-2-0.95-3.75-2.22-5.24-3.8c-1.49-1.59-2.67-3.43-3.53-5.52
					c-0.87-2.09-1.29-4.26-1.29-6.52c0-2.29,0.43-4.46,1.29-6.54c0.86-2.08,2.04-3.9,3.53-5.45c1.49-1.56,3.24-2.79,5.24-3.72
					c2-0.92,4.15-1.39,6.43-1.39c2.28,0,4.43,0.46,6.46,1.39c2.03,0.92,3.79,2.16,5.3,3.72c1.51,1.56,2.7,3.37,3.57,5.45
					c0.87,2.08,1.31,4.25,1.31,6.54c0,2.26-0.44,4.43-1.31,6.52c-0.87,2.09-2.06,3.93-3.57,5.52c-1.51,1.59-3.27,2.86-5.3,3.8
					c-2.03,0.95-4.18,1.42-6.46,1.42C390.47,1035.05,388.33,1034.57,386.32,1033.62 M386.43,994.72c-2.02,0.57-3.91,1.38-5.69,2.42
					c-1.77,1.05-3.39,2.3-4.84,3.75c-1.46,1.46-2.72,3.08-3.77,4.85c-1.05,1.77-1.87,3.67-2.44,5.7c-0.57,2.03-0.86,4.14-0.86,6.33
					c0,2.19,0.29,4.3,0.86,6.32c0.57,2.03,1.39,3.93,2.44,5.72c1.06,1.78,2.32,3.41,3.77,4.86c1.46,1.46,3.07,2.72,4.84,3.78
					c1.77,1.05,3.67,1.87,5.71,2.44c2.03,0.57,4.12,0.85,6.29,0.85c3.23,0,6.23-0.61,9-1.84c2.77-1.23,5.2-2.91,7.29-5.05v4.55
					c0,0.44,0.16,0.82,0.46,1.13c0.3,0.32,0.71,0.47,1.22,0.47h3.79c0.44,0,0.81-0.15,1.13-0.44c0.31-0.29,0.47-0.68,0.47-1.17
					V996.3c0-1.07-0.57-1.61-1.71-1.61h-3.75c-1.07,0-1.61,0.54-1.61,1.61v4.45c-2.09-2.14-4.52-3.82-7.29-5.05
					c-2.77-1.23-5.77-1.84-9-1.84C390.54,993.86,388.44,994.15,386.43,994.72"/>
			</defs>
			<clipPath id="SVGID_13_">
				<use xlink:href="#SVGID_73_"  style="overflow:visible;"/>
			</clipPath>
			
				<linearGradient id="SVGID_14_" gradientUnits="userSpaceOnUse" x1="101.0749" y1="643.8767" x2="103.8479" y2="643.8767" gradientTransform="matrix(176.1696 -11.6338 -11.6338 -176.1696 -10037.8125 115632.7578)">
				<stop  offset="0" style="stop-color:#718416"/>
				<stop  offset="1" style="stop-color:#B0BC47"/>
			</linearGradient>
			<polygon class="st6" points="365.67,994.07 415.89,990.76 419.24,1041.54 369.03,1044.86 			"/>
		</g>
		<g>
			<defs>
				<path id="SVGID_76_" d="M440.04,994.57c-1,0.38-1.88,0.85-2.66,1.41s-1.44,1.16-1.99,1.82c-0.55,0.66-0.97,1.26-1.26,1.82v-3.28
					c0-0.44-0.15-0.82-0.45-1.13c-0.3-0.32-0.71-0.47-1.22-0.47h-3.8c-0.43,0-0.81,0.14-1.13,0.44c-0.32,0.29-0.47,0.68-0.47,1.17
					v43.08c0,1.07,0.56,1.61,1.68,1.61h3.79c1.07,0,1.61-0.54,1.61-1.61v-28.53c0-1.58,0.26-2.99,0.79-4.25
					c0.52-1.25,1.21-2.31,2.07-3.17c0.86-0.86,1.85-1.53,2.97-1.99c1.12-0.46,2.29-0.69,3.5-0.69c1.61,0,3.11,0.24,4.54,0.71
					c1.43,0.47,2.89,1.22,4.39,2.24c0.24,0.17,0.45,0.32,0.62,0.46c0.17,0.13,0.35,0.2,0.55,0.2c0.34,0,0.68-0.21,1.02-0.62
					l2.15-3.32c0.12-0.22,0.18-0.46,0.18-0.73c0-0.46-0.18-0.87-0.53-1.2c-0.35-0.34-0.67-0.62-0.97-0.84
					c-0.97-0.73-1.9-1.33-2.79-1.8c-0.88-0.47-1.8-0.85-2.75-1.13c-0.95-0.28-1.95-0.47-3.01-0.58c-1.06-0.11-2.24-0.16-3.55-0.16
					C442.13,994.01,441.03,994.2,440.04,994.57"/>
			</defs>
			<clipPath id="SVGID_15_">
				<use xlink:href="#SVGID_76_"  style="overflow:visible;"/>
			</clipPath>
			
				<linearGradient id="SVGID_16_" gradientUnits="userSpaceOnUse" x1="101.0749" y1="643.8645" x2="103.8479" y2="643.8645" gradientTransform="matrix(176.1696 -11.6338 -11.6338 -176.1696 -10037.7588 115633.5625)">
				<stop  offset="0" style="stop-color:#718416"/>
				<stop  offset="1" style="stop-color:#B0BC47"/>
			</linearGradient>
			<polygon class="st7" points="423.97,994.21 456.78,992.04 460,1040.82 427.19,1042.99 			"/>
		</g>
		<g>
			<defs>
				<path id="SVGID_79_" d="M473.28,984.82c-0.68,0.12-1.31,0.23-1.9,0.33c-0.48,0.1-0.95,0.18-1.4,0.24
					c-0.45,0.06-0.75,0.12-0.9,0.17c-0.41,0.12-0.7,0.27-0.87,0.45c-0.17,0.19-0.26,0.48-0.26,0.9v7.76h-4.23
					c-0.6,0-1.06,0.08-1.35,0.24c-0.29,0.16-0.44,0.55-0.44,1.18v3.39c0,0.63,0.14,1.04,0.44,1.22c0.29,0.18,0.74,0.27,1.35,0.27
					h4.23v31.6c0,1.8,0.29,3.27,0.86,4.43c0.57,1.15,1.31,2.07,2.2,2.73c0.9,0.67,1.92,1.14,3.04,1.41c1.13,0.26,2.25,0.4,3.37,0.4
					c0.56,0,1.01-0.17,1.35-0.49c0.34-0.33,0.51-0.77,0.51-1.33v-2.99c0-0.6-0.18-1.08-0.55-1.42c-0.37-0.34-0.83-0.51-1.39-0.51
					c-0.73,0-1.3-0.17-1.71-0.51c-0.42-0.34-0.62-0.94-0.62-1.79v-31.53h5.06c0.56,0,0.97-0.13,1.22-0.4
					c0.26-0.27,0.38-0.72,0.38-1.35v-2.88c0-0.63-0.13-1.07-0.38-1.31c-0.25-0.24-0.66-0.37-1.22-0.37h-5.06v-7.83
					c0-0.29-0.01-0.57-0.03-0.82c-0.03-0.25-0.09-0.48-0.21-0.67c-0.11-0.19-0.29-0.34-0.53-0.44c-0.16-0.06-0.36-0.1-0.6-0.1
					C473.54,984.8,473.41,984.81,473.28,984.82"/>
			</defs>
			<clipPath id="SVGID_17_">
				<use xlink:href="#SVGID_79_"  style="overflow:visible;"/>
			</clipPath>
			
				<linearGradient id="SVGID_18_" gradientUnits="userSpaceOnUse" x1="101.0749" y1="643.8744" x2="103.8479" y2="643.8744" gradientTransform="matrix(176.1696 -11.6338 -11.6338 -176.1696 -10037.8008 115632.9375)">
				<stop  offset="0" style="stop-color:#718416"/>
				<stop  offset="1" style="stop-color:#B0BC47"/>
			</linearGradient>
			<polygon class="st8" points="458.21,985.05 481.61,983.5 485.42,1041.29 462.03,1042.83 			"/>
		</g>
		<g>
			<defs>
				<path id="SVGID_82_" d="M515.19,981c-0.44,0-0.82,0.14-1.13,0.44c-0.32,0.29-0.47,0.68-0.47,1.16v56.82
					c0,1.07,0.57,1.61,1.71,1.61h3.75c1.07,0,1.6-0.54,1.6-1.61V982.6c0-0.44-0.15-0.81-0.45-1.13c-0.3-0.32-0.71-0.47-1.22-0.47
					H515.19z"/>
			</defs>
			<clipPath id="SVGID_19_">
				<use xlink:href="#SVGID_82_"  style="overflow:visible;"/>
			</clipPath>
			
				<linearGradient id="SVGID_20_" gradientUnits="userSpaceOnUse" x1="101.0749" y1="643.8708" x2="103.8479" y2="643.8708" gradientTransform="matrix(176.1696 -11.6338 -11.6338 -176.1696 -10037.7861 115633.1484)">
				<stop  offset="0" style="stop-color:#718416"/>
				<stop  offset="1" style="stop-color:#B0BC47"/>
			</linearGradient>
			<polygon class="st9" points="509.64,981.26 520.62,980.53 524.6,1040.76 513.61,1041.49 			"/>
		</g>
		<g>
			<defs>
				<path id="SVGID_85_" d="M548.61,1033.66c-2.02-0.92-3.78-2.16-5.29-3.71c-1.51-1.56-2.69-3.37-3.57-5.43
					c-0.88-2.07-1.31-4.25-1.31-6.56c0-2.26,0.44-4.43,1.31-6.52c0.87-2.09,2.06-3.93,3.57-5.52c1.51-1.59,3.27-2.86,5.29-3.81
					c2.02-0.95,4.18-1.42,6.49-1.42c2.28,0,4.43,0.48,6.43,1.42c2,0.95,3.75,2.22,5.25,3.81c1.49,1.59,2.67,3.43,3.54,5.52
					c0.86,2.09,1.29,4.26,1.29,6.52c0,2.31-0.43,4.49-1.29,6.56c-0.86,2.07-2.04,3.88-3.54,5.43c-1.49,1.55-3.24,2.79-5.25,3.71
					c-2,0.93-4.15,1.39-6.43,1.39C552.79,1035.05,550.63,1034.58,548.61,1033.66 M545.89,995.87c-2.89,1.26-5.43,2.99-7.61,5.18
					c-2.17,2.19-3.9,4.73-5.18,7.63c-1.28,2.91-1.92,6-1.92,9.28c0,2.19,0.29,4.3,0.88,6.32c0.58,2.03,1.4,3.93,2.44,5.71
					c1.05,1.77,2.3,3.39,3.76,4.84c1.46,1.46,3.07,2.71,4.85,3.76c1.78,1.04,3.68,1.85,5.71,2.42c2.03,0.57,4.13,0.86,6.29,0.86
					c2.17,0,4.26-0.29,6.29-0.86c2.03-0.57,3.93-1.38,5.71-2.42c1.77-1.05,3.39-2.3,4.85-3.76c1.46-1.46,2.71-3.07,3.78-4.84
					c1.05-1.77,1.87-3.67,2.45-5.71c0.57-2.03,0.85-4.14,0.85-6.32c0-2.19-0.29-4.3-0.85-6.32c-0.58-2.03-1.39-3.94-2.45-5.72
					c-1.06-1.79-2.32-3.41-3.78-4.86c-1.46-1.46-3.08-2.72-4.85-3.77c-1.77-1.06-3.68-1.87-5.71-2.44
					c-2.03-0.57-4.13-0.86-6.29-0.86C551.86,993.97,548.78,994.6,545.89,995.87"/>
			</defs>
			<clipPath id="SVGID_21_">
				<use xlink:href="#SVGID_85_"  style="overflow:visible;"/>
			</clipPath>
			
				<linearGradient id="SVGID_22_" gradientUnits="userSpaceOnUse" x1="101.0749" y1="643.8369" x2="103.8479" y2="643.8369" gradientTransform="matrix(176.1696 -11.6338 -11.6338 -176.1696 -10037.5635 115636.5312)">
				<stop  offset="0" style="stop-color:#718416"/>
				<stop  offset="1" style="stop-color:#B0BC47"/>
			</linearGradient>
			<polygon class="st10" points="528.04,994.18 578.83,990.82 582.19,1041.65 531.39,1045.01 			"/>
		</g>
		<g>
			<defs>
				<path id="SVGID_88_" d="M603.86,994.83c-2.02,0.57-3.92,1.38-5.7,2.44c-1.79,1.06-3.42,2.32-4.89,3.77
					c-1.47,1.46-2.74,3.07-3.8,4.85c-1.07,1.77-1.9,3.67-2.48,5.7c-0.58,2.03-0.88,4.14-0.88,6.33c0,2.18,0.3,4.3,0.88,6.32
					c0.58,2.03,1.41,3.93,2.48,5.71c1.06,1.77,2.33,3.39,3.8,4.85c1.47,1.46,3.1,2.71,4.89,3.77c1.78,1.05,3.69,1.87,5.7,2.44
					c2.02,0.57,4.11,0.86,6.27,0.86c1.53,0,2.98-0.13,4.36-0.4c1.37-0.27,2.68-0.64,3.92-1.13c1.24-0.49,2.42-1.07,3.55-1.74
					c1.13-0.67,2.22-1.41,3.27-2.24c0.44-0.34,0.76-0.65,0.97-0.93c0.21-0.28,0.33-0.54,0.38-0.77c0.05-0.24,0.03-0.44-0.05-0.64
					c-0.09-0.19-0.19-0.39-0.31-0.58c-0.1-0.12-0.25-0.31-0.44-0.58c-0.19-0.24-0.45-0.57-0.75-0.99c-0.3-0.41-0.7-0.95-1.19-1.6
					c-0.24-0.32-0.48-0.51-0.71-0.58c-0.23-0.07-0.46-0.07-0.69,0c-0.23,0.07-0.45,0.19-0.66,0.34c-0.2,0.16-0.39,0.31-0.56,0.46
					c-0.71,0.58-1.44,1.15-2.19,1.69c-0.75,0.55-1.58,1.03-2.46,1.46c-0.89,0.42-1.87,0.77-2.96,1.02
					c-1.08,0.26-2.29,0.38-3.62,0.38c-2.17,0-4.24-0.45-6.25-1.37c-2-0.91-3.77-2.14-5.3-3.7c-1.53-1.56-2.75-3.37-3.66-5.45
					c-0.91-2.08-1.37-4.28-1.37-6.61c0-2.31,0.47-4.51,1.39-6.6c0.92-2.09,2.15-3.92,3.68-5.5c1.53-1.58,3.29-2.83,5.29-3.75
					c1.99-0.92,4.05-1.39,6.19-1.39c1.02,0,2.06,0.11,3.1,0.33c1.04,0.22,2.05,0.53,3.03,0.93c0.97,0.4,1.88,0.87,2.73,1.42
					c0.85,0.55,1.61,1.16,2.27,1.84c0.82,0.85,1.55,0.86,2.18,0.04l2.66-3.5c0.17-0.32,0.23-0.61,0.18-0.89
					c-0.05-0.28-0.15-0.53-0.31-0.77c-0.16-0.23-0.35-0.44-0.58-0.62s-0.44-0.35-0.6-0.49c-0.88-0.7-1.87-1.36-2.97-1.97
					c-1.11-0.61-2.28-1.13-3.53-1.58c-1.25-0.45-2.55-0.81-3.9-1.06c-1.35-0.26-2.71-0.38-4.07-0.38
					C607.97,993.97,605.88,994.26,603.86,994.83"/>
			</defs>
			<clipPath id="SVGID_23_">
				<use xlink:href="#SVGID_88_"  style="overflow:visible;"/>
			</clipPath>
			
				<linearGradient id="SVGID_24_" gradientUnits="userSpaceOnUse" x1="101.0749" y1="643.8251" x2="103.8479" y2="643.8251" gradientTransform="matrix(176.1696 -11.6338 -11.6338 -176.1696 -10037.4775 115637.8359)">
				<stop  offset="0" style="stop-color:#718416"/>
				<stop  offset="1" style="stop-color:#B0BC47"/>
			</linearGradient>
			<polygon class="st11" points="582.96,994.18 626.44,991.31 629.76,1041.65 586.28,1044.52 			"/>
		</g>
		<g>
			<defs>
				<path id="SVGID_91_" d="M637.54,980.96c-0.51,0-0.91,0.16-1.18,0.47c-0.28,0.32-0.42,0.69-0.42,1.13v56.85
					c0,1.07,0.53,1.61,1.61,1.61h3.79c1.12,0,1.68-0.54,1.68-1.61v-14.47l4.74-4.88l16.29,19.75c0.19,0.42,0.44,0.72,0.73,0.91
					c0.29,0.2,0.61,0.29,0.95,0.29h6.27c0.41,0,0.7-0.04,0.85-0.13c0.16-0.09,0.24-0.26,0.24-0.53c0-0.15-0.03-0.35-0.09-0.64
					c-0.06-0.28-0.21-0.54-0.45-0.78h0.07l-20.05-23.76l17.75-18.4c0.27-0.34,0.4-0.74,0.4-1.2c0-0.24-0.1-0.45-0.29-0.62
					c-0.19-0.17-0.5-0.26-0.91-0.26h-5.54c-0.44,0-0.81,0.09-1.11,0.27c-0.3,0.18-0.6,0.41-0.9,0.67L643,1015.73v-33.16
					c0-0.49-0.17-0.88-0.51-1.17c-0.34-0.29-0.73-0.44-1.17-0.44H637.54z"/>
			</defs>
			<clipPath id="SVGID_25_">
				<use xlink:href="#SVGID_91_"  style="overflow:visible;"/>
			</clipPath>
			
				<linearGradient id="SVGID_26_" gradientUnits="userSpaceOnUse" x1="101.0749" y1="643.8381" x2="103.8479" y2="643.8381" gradientTransform="matrix(176.1696 -11.6338 -11.6338 -176.1696 -10037.5713 115636.4062)">
				<stop  offset="0" style="stop-color:#718416"/>
				<stop  offset="1" style="stop-color:#B0BC47"/>
			</linearGradient>
			<polygon class="st12" points="631.98,981.22 672.91,978.52 677.02,1040.76 636.09,1043.47 			"/>
		</g>
		<g>
			<defs>
				<path id="SVGID_94_" d="M698.95,1033.66c-2.01-0.92-3.78-2.16-5.28-3.71c-1.51-1.56-2.7-3.37-3.57-5.43
					c-0.88-2.07-1.31-4.25-1.31-6.56c0-2.26,0.44-4.43,1.31-6.52c0.88-2.09,2.07-3.93,3.57-5.52c1.5-1.59,3.27-2.86,5.28-3.81
					c2.02-0.95,4.18-1.42,6.49-1.42c2.29,0,4.43,0.48,6.43,1.42c2,0.95,3.75,2.22,5.25,3.81c1.49,1.59,2.67,3.43,3.53,5.52
					c0.87,2.09,1.3,4.26,1.3,6.52c0,2.31-0.43,4.49-1.3,6.56c-0.86,2.07-2.04,3.88-3.53,5.43c-1.49,1.55-3.24,2.79-5.25,3.71
					c-2,0.93-4.15,1.39-6.43,1.39C703.13,1035.05,700.96,1034.58,698.95,1033.66 M683.68,981c-0.44,0-0.81,0.14-1.13,0.44
					c-0.32,0.29-0.48,0.68-0.48,1.16v56.82c0,1.07,0.57,1.61,1.71,1.61h3.75c1.07,0,1.61-0.54,1.61-1.61v-4.41
					c2.09,2.14,4.52,3.82,7.29,5.03c2.77,1.21,5.78,1.82,9.01,1.82c2.17,0,4.26-0.29,6.29-0.86c2.03-0.57,3.94-1.38,5.71-2.42
					c1.77-1.05,3.39-2.3,4.85-3.76c1.46-1.46,2.71-3.07,3.77-4.84c1.06-1.77,1.87-3.67,2.45-5.71c0.57-2.03,0.86-4.14,0.86-6.32
					c0-2.19-0.29-4.3-0.86-6.32c-0.57-2.03-1.38-3.94-2.45-5.72c-1.06-1.79-2.31-3.41-3.77-4.86c-1.46-1.46-3.08-2.72-4.85-3.77
					c-1.77-1.06-3.68-1.87-5.71-2.44c-2.03-0.57-4.13-0.86-6.29-0.86c-3.23,0-6.24,0.62-9.01,1.84c-2.77,1.23-5.2,2.91-7.29,5.05
					V982.6c0-0.44-0.16-0.81-0.45-1.13c-0.31-0.32-0.72-0.47-1.23-0.47H683.68z"/>
			</defs>
			<clipPath id="SVGID_27_">
				<use xlink:href="#SVGID_94_"  style="overflow:visible;"/>
			</clipPath>
			
				<linearGradient id="SVGID_28_" gradientUnits="userSpaceOnUse" x1="101.0749" y1="643.8229" x2="103.8479" y2="643.8229" gradientTransform="matrix(176.1696 -11.6338 -11.6338 -176.1696 -10037.498 115637.5156)">
				<stop  offset="0" style="stop-color:#718416"/>
				<stop  offset="1" style="stop-color:#B0BC47"/>
			</linearGradient>
			<polygon class="st13" points="678.07,981.26 729.18,977.89 733.38,1041.6 682.28,1044.97 			"/>
		</g>
		<g>
			<defs>
				<path id="SVGID_97_" d="M754.74,1033.66c-2.01-0.92-3.78-2.16-5.28-3.71c-1.51-1.56-2.7-3.37-3.57-5.43
					c-0.87-2.07-1.31-4.25-1.31-6.56c0-2.26,0.43-4.43,1.31-6.52c0.88-2.09,2.07-3.93,3.57-5.52c1.51-1.59,3.27-2.86,5.28-3.81
					c2.02-0.95,4.18-1.42,6.49-1.42c2.28,0,4.43,0.48,6.43,1.42c2,0.95,3.75,2.22,5.25,3.81c1.49,1.59,2.67,3.43,3.54,5.52
					c0.86,2.09,1.29,4.26,1.29,6.52c0,2.31-0.43,4.49-1.29,6.56c-0.87,2.07-2.04,3.88-3.54,5.43c-1.49,1.55-3.25,2.79-5.25,3.71
					c-2,0.93-4.15,1.39-6.43,1.39C758.93,1035.05,756.76,1034.58,754.74,1033.66 M752.02,995.87c-2.89,1.26-5.42,2.99-7.6,5.18
					c-2.18,2.19-3.9,4.73-5.18,7.63c-1.28,2.91-1.92,6-1.92,9.28c0,2.19,0.29,4.3,0.87,6.32c0.59,2.03,1.4,3.93,2.44,5.71
					c1.05,1.77,2.3,3.39,3.76,4.84c1.46,1.46,3.08,2.71,4.85,3.76c1.77,1.04,3.68,1.85,5.71,2.42c2.03,0.57,4.12,0.86,6.29,0.86
					c2.16,0,4.26-0.29,6.29-0.86c2.03-0.57,3.93-1.38,5.71-2.42c1.78-1.05,3.39-2.3,4.85-3.76c1.46-1.46,2.71-3.07,3.77-4.84
					c1.06-1.77,1.88-3.67,2.44-5.71c0.57-2.03,0.86-4.14,0.86-6.32c0-2.19-0.29-4.3-0.86-6.32c-0.57-2.03-1.38-3.94-2.44-5.72
					c-1.06-1.79-2.31-3.41-3.77-4.86c-1.46-1.46-3.08-2.72-4.85-3.77c-1.77-1.06-3.68-1.87-5.71-2.44
					c-2.03-0.57-4.13-0.86-6.29-0.86C757.99,993.97,754.92,994.6,752.02,995.87"/>
			</defs>
			<clipPath id="SVGID_29_">
				<use xlink:href="#SVGID_97_"  style="overflow:visible;"/>
			</clipPath>
			
				<linearGradient id="SVGID_30_" gradientUnits="userSpaceOnUse" x1="101.0749" y1="643.7877" x2="103.8479" y2="643.7877" gradientTransform="matrix(176.1696 -11.6338 -11.6338 -176.1696 -10037.2402 115641.4219)">
				<stop  offset="0" style="stop-color:#718416"/>
				<stop  offset="1" style="stop-color:#B0BC47"/>
			</linearGradient>
			<polygon class="st14" points="734.17,994.18 784.97,990.82 788.33,1041.65 737.53,1045.01 			"/>
		</g>
		<g>
			<defs>
				<path id="SVGID_100_" d="M822.9,994.74c-0.29,0-0.54,0.02-0.75,0.07c-0.2,0.05-0.4,0.14-0.58,0.27
					c-0.19,0.13-0.36,0.3-0.53,0.51c-0.17,0.21-0.38,0.46-0.62,0.75l-9.84,15.12l-9.84-15.12c-0.24-0.29-0.45-0.54-0.62-0.75
					c-0.17-0.2-0.35-0.37-0.53-0.51c-0.18-0.13-0.37-0.22-0.59-0.27c-0.2-0.05-0.45-0.07-0.74-0.07h-4.74
					c-0.75,0-1.22,0.13-1.4,0.38c-0.19,0.26-0.03,0.75,0.45,1.48c1.19,1.7,2.3,3.29,3.32,4.76c1.02,1.47,2.06,2.97,3.13,4.5
					c1.07,1.53,2.2,3.17,3.39,4.92c1.19,1.75,2.55,3.74,4.08,5.98l-15.63,22.67c-0.32,0.49-0.44,0.88-0.37,1.17
					c0.08,0.29,0.41,0.44,1.02,0.44h5.36c0.46,0,0.85-0.12,1.18-0.34c0.33-0.24,0.66-0.57,1-1.01l11.52-17.71l11.51,17.71
					c0.34,0.44,0.68,0.77,1,1.01c0.33,0.23,0.72,0.34,1.18,0.34h5.36c0.61,0,0.95-0.15,1.02-0.44c0.07-0.29-0.05-0.68-0.36-1.17
					l-15.64-22.67c1.53-2.24,2.9-4.23,4.08-5.98c1.19-1.75,2.32-3.39,3.39-4.92c1.07-1.53,2.11-3.03,3.14-4.5
					c1.02-1.47,2.12-3.06,3.31-4.76c0.49-0.73,0.64-1.22,0.46-1.48c-0.18-0.26-0.66-0.38-1.4-0.38H822.9z"/>
			</defs>
			<clipPath id="SVGID_31_">
				<use xlink:href="#SVGID_100_"  style="overflow:visible;"/>
			</clipPath>
			
				<linearGradient id="SVGID_32_" gradientUnits="userSpaceOnUse" x1="101.0749" y1="643.7761" x2="103.8479" y2="643.7761" gradientTransform="matrix(176.1696 -11.6338 -11.6338 -176.1696 -10037.1621 115642.6016)">
				<stop  offset="0" style="stop-color:#718416"/>
				<stop  offset="1" style="stop-color:#B0BC47"/>
			</linearGradient>
			<polygon class="st15" points="787.38,994.94 830.56,992.09 833.78,1040.82 790.6,1043.67 			"/>
		</g>
	</g>
	<g>
		<g>
			<defs>
				<path id="SVGID_52_" d="M316.6,38.14c-44.89,0-81.63,36.73-81.63,81.63v446.79c0,44.9,36.73,81.63,81.63,81.63h446.8
					c44.89,0,81.63-36.73,81.63-81.63V119.77c0-44.9-36.74-81.63-81.63-81.63H316.6z"/>
			</defs>
			<clipPath id="SVGID_33_">
				<use xlink:href="#SVGID_52_"  style="overflow:visible;"/>
			</clipPath>
			
				<linearGradient id="SVGID_34_" gradientUnits="userSpaceOnUse" x1="102.5658" y1="646.1964" x2="105.3387" y2="646.1964" gradientTransform="matrix(220 0 0 -220 -22329.4961 142506.375)">
				<stop  offset="0" style="stop-color:#718416"/>
				<stop  offset="1" style="stop-color:#B0BC47"/>
			</linearGradient>
			<rect x="234.97" y="38.14" class="st16" width="610.05" height="610.05"/>
		</g>
		<path class="st17" d="M649.17,146.61c24.26,0,46.51,9,62.66,25.36c31.58,31.98,32.34,84.03,4.31,123.4
			c0.85-10.17,0.52-20.36-1-30.41c-4.11-27.18-16.53-50.96-35.94-68.77c-21.47-19.7-50.28-30.56-81.13-30.56
			c-3.11,0-6.23,0.11-9.36,0.34C606.82,153.51,628.04,146.61,649.17,146.61 M649.17,131.39c-30.52,0-62.13,12.33-86.76,36.66
			c-7.99,7.89-14.71,16.55-20.17,25.67c0.4-0.11,1.2-0.31,2.35-0.57c17.44-8.25,35.76-12.29,53.49-12.29
			c26.53,0,51.76,9.04,70.84,26.55c34.24,31.43,42.34,84.38,19.7,131.2c-0.32,1.37-0.56,2.28-0.67,2.66
			c9.19-5.35,17.93-11.95,25.92-19.85c46.68-46.1,50.61-117.8,8.79-160.16C702.91,141.27,676.47,131.39,649.17,131.39"/>
		<path class="st17" d="M521.98,554.95c-8.6,0-16.67-3.33-22.73-9.39L337.77,384.07c-12.53-12.53-12.53-32.92,0-45.45l161.49-161.49
			c12.53-12.53,32.92-12.53,45.46,0L706.2,338.62c12.53,12.53,12.53,32.92,0,45.45L544.71,545.56
			C538.66,551.61,530.59,554.95,521.98,554.95 M510.02,534.79c3.18,3.18,7.43,4.92,11.96,4.92c4.54,0,8.78-1.75,11.96-4.92
			l161.49-161.49c6.6-6.6,6.6-17.33,0-23.92L533.95,187.9c-6.59-6.6-17.33-6.6-23.92,0L348.54,349.39c-6.6,6.59-6.6,17.33,0,23.92
			L510.02,534.79z"/>
		<path class="st17" d="M521.46,470.39c-1.11,0-2.21-0.02-3.32-0.05c-29.27-0.86-56.34-12.94-76.22-34.01
			c-19.88-21.08-30.36-48.8-29.5-78.08c0.85-29.27,12.94-56.34,34.01-76.22c21.08-19.88,48.75-30.36,78.08-29.5
			c29.27,0.85,56.34,12.94,76.22,34.01c19.88,21.08,30.36,48.81,29.5,78.08c-0.85,29.27-12.94,56.34-34.01,76.22
			C575.93,459.97,549.5,470.39,521.46,470.39 M521.2,267.71c-24.15,0-46.89,8.96-64.32,25.4c-18.12,17.09-28.51,40.38-29.24,65.59
			c-0.74,25.2,8.27,49.06,25.36,67.18c17.09,18.12,40.38,28.5,65.59,29.24c25.19,0.74,49.06-8.27,67.18-25.36
			c18.12-17.09,28.5-40.39,29.24-65.59c0.74-25.21-8.27-49.07-25.36-67.19c-17.09-18.12-40.38-28.5-65.59-29.24
			C523.11,267.72,522.15,267.71,521.2,267.71"/>
		<path class="st17" d="M601.71,368.31v-13.75h-22.43c-1.23-10.74-5.38-20.82-12.06-29.29l15.81-15.81l-9.72-9.72l-15.8,15.8
			c-8.42-6.64-18.5-10.78-29.3-12.03v-22.45h-13.75v22.43c-10.74,1.23-20.82,5.38-29.3,12.07l-15.81-15.81l-9.72,9.72l15.8,15.8
			c-6.64,8.42-10.78,18.5-12.03,29.3h-22.46v13.75h22.43c1.23,10.74,5.37,20.82,12.06,29.29l-15.81,15.81l9.72,9.72l15.81-15.8
			c8.42,6.64,18.5,10.78,29.3,12.03v22.46h13.75v-22.45c10.74-1.23,20.83-5.36,29.3-12.05l15.81,15.81l9.72-9.72l-15.8-15.8
			c6.64-8.42,10.78-18.5,12.03-29.3H601.71z M551.99,393.95c-8.62,8.13-20,12.4-31.97,12.06c-12-0.35-23.08-5.29-31.21-13.91
			c-8.13-8.62-12.41-19.97-12.06-31.97c0.35-12,5.29-23.08,13.91-31.21c8.29-7.82,19.11-12.08,30.61-12.08
			c0.45,0,0.91,0.01,1.36,0.02c12,0.35,23.08,5.29,31.21,13.91c8.13,8.62,12.41,19.97,12.06,31.97
			C565.54,374.74,560.6,385.82,551.99,393.95"/>
	</g>
</g>
</svg>
