<?xml version="1.0" encoding="utf-8"?>
<!-- Generator: Adobe Illustrator 25.0.1, SVG Export Plug-In . SVG Version: 6.00 Build 0)  -->
<svg version="1.1" id="Layer_1" xmlns="http://www.w3.org/2000/svg" xmlns:xlink="http://www.w3.org/1999/xlink" x="0px" y="0px"
	 viewBox="0 0 720 720" style="enable-background:new 0 0 720 720;" xml:space="preserve">
<style type="text/css">
	.st0{fill:url(#SVGID_1_);}
	.st1{fill:url(#SVGID_2_);}
	.st2{opacity:0.38;fill:url(#SVGID_3_);stroke:url(#SVGID_4_);stroke-miterlimit:10;}
	.st3{opacity:0.38;fill:url(#SVGID_5_);stroke:url(#SVGID_6_);stroke-miterlimit:10;}
	.st4{opacity:0.38;fill:url(#SVGID_7_);stroke:url(#SVGID_8_);stroke-miterlimit:10;}
	.st5{opacity:0.38;fill:url(#SVGID_9_);stroke:url(#SVGID_10_);stroke-miterlimit:10;}
	.st6{opacity:0.38;fill:url(#SVGID_11_);stroke:url(#SVGID_12_);stroke-miterlimit:10;}
</style>
<g>
	
		<linearGradient id="SVGID_1_" gradientUnits="userSpaceOnUse" x1="555.6042" y1="-1293.3451" x2="1102.3921" y2="-1293.3451" gradientTransform="matrix(0.8261 -0.5636 0.5636 0.8261 377.5634 1903.0876)">
		<stop  offset="0" style="stop-color:#FFFFFF"/>
		<stop  offset="1" style="stop-color:#000000"/>
	</linearGradient>
	<path class="st0" d="M369.3,240c156.4,74.6,270,130.7,296.6,144.6c5.1,2.7,19.6,11.9,29.5,28.5c12.5,20.9,3.3,41.6-20,48
		c-63.3,17.2-127.9,17.2-192.8,12c-58.5-4.7-113.6-23.9-169.3-39.9c-71.7-20.5-145.1-25.3-219-26.3c-12.2-0.2-24.6,3.5-36.6,6.8
		c-20.4,5.7-29.1,2.4-28.1-19c4.1-94,8.1-103.7,12.3-118.2c14.7-50.9,25.8-59.1,34-62.3c1.8-0.7,13.5-5.3,22.7,0
		c10.5,6.1,6.7,18.7,14.2,31.2c13.9,23.4,55.4,28,84,20.9c7.3-1.8,19.9-6.5,33.1-15.6c17.9-12.3,31.3-29.4,41.9-50.4
		c3.2-6.3,5.3-13.9,11.4-15.5c6.4-1.6,13.4,4.1,18.5,9.5C327.6,199.9,355.9,220,369.3,240z"/>
	
		<linearGradient id="SVGID_2_" gradientUnits="userSpaceOnUse" x1="507.8344" y1="-1193.7676" x2="1068.151" y2="-1193.7676" gradientTransform="matrix(0.8261 -0.5636 0.5636 0.8261 377.5634 1903.0876)">
		<stop  offset="0" style="stop-color:#FFFFFF"/>
		<stop  offset="1" style="stop-color:#000000"/>
	</linearGradient>
	<path class="st1" d="M24.5,468.7c17.5,17.4,39,24.1,62.2,25.8c109.1,7.8,218.2,15.3,327.3,23.3c60.6,4.5,120.9,7.9,180.7-8.2
		c34.4-9.3,68.2-19,94.4-45.3C648.9,535,509,539.5,436.4,533.4c-116.3-8.9-232.9-15.2-349.2-23.8c-17.2-1.3-34.3-8.3-50.7-14.6
		C25.9,491,21.2,481.5,24.5,468.7z"/>
	
		<linearGradient id="SVGID_3_" gradientUnits="userSpaceOnUse" x1="512.0244" y1="-1220.0194" x2="1093.4781" y2="-1220.0194" gradientTransform="matrix(0.8261 -0.5636 0.5636 0.8261 377.5634 1903.0876)">
		<stop  offset="0" style="stop-color:#FFFFFF"/>
		<stop  offset="1" style="stop-color:#000000"/>
	</linearGradient>
	
		<linearGradient id="SVGID_4_" gradientUnits="userSpaceOnUse" x1="511.5244" y1="-1220.0194" x2="1094.7571" y2="-1220.0194" gradientTransform="matrix(0.8261 -0.5636 0.5636 0.8261 377.5634 1903.0876)">
		<stop  offset="0" style="stop-color:#FFFFFF"/>
		<stop  offset="1" style="stop-color:#000000;stop-opacity:0.5"/>
	</linearGradient>
	<path class="st2" d="M19.7,447.8c-4.2,27.3,9.4,40,32.3,44.6c63.4,14.3,92.6,13,92.6,13c42.4-1.9,84.6,7.5,127,10.4
		c76.9,5.2,116.4,14.5,203.3,13.5c47.7,2.9,152.8,4.7,213.4-63.7c4.1-9.8,8.2-19.6,12.3-29.3C544.8,499,386.7,430,196.6,397.6
		c-31.7-6.2-138.3-26.4-162.1,7.8C22,423.4,19.7,447.8,19.7,447.8z"/>
	
		<linearGradient id="SVGID_5_" gradientUnits="userSpaceOnUse" x1="-662.8723" y1="2762.6819" x2="-644.0118" y2="2762.6819" gradientTransform="matrix(-1.4305 -1.1587 0.7476 -0.9229 -2619.2451 2078.0457)">
		<stop  offset="0" style="stop-color:#FFFFFF"/>
		<stop  offset="1" style="stop-color:#000000"/>
	</linearGradient>
	
		<linearGradient id="SVGID_6_" gradientUnits="userSpaceOnUse" x1="-663.3723" y1="2762.6819" x2="-643.5118" y2="2762.6819" gradientTransform="matrix(-1.4305 -1.1587 0.7476 -0.9229 -2619.2451 2078.0457)">
		<stop  offset="0" style="stop-color:#FFFFFF"/>
		<stop  offset="1" style="stop-color:#000000;stop-opacity:0.5"/>
	</linearGradient>
	<path class="st3" d="M410.2,249.3c7.4,6,8.6,17,2.6,24.4l-36.9,45.5c-15,17.3-40.8-3.5-27-21.9c0,0,36.9-45.5,36.9-45.5
		C391.8,244.4,402.7,243.3,410.2,249.3z"/>
	
		<linearGradient id="SVGID_7_" gradientUnits="userSpaceOnUse" x1="-695.5806" y1="3095.6792" x2="-676.7202" y2="3095.6792" gradientTransform="matrix(-1.4305 -1.1587 0.6497 -0.8021 -2549.1538 1991.516)">
		<stop  offset="0" style="stop-color:#FFFFFF"/>
		<stop  offset="1" style="stop-color:#000000"/>
	</linearGradient>
	
		<linearGradient id="SVGID_8_" gradientUnits="userSpaceOnUse" x1="-696.0806" y1="3095.6792" x2="-676.2202" y2="3095.6792" gradientTransform="matrix(-1.4305 -1.1587 0.6497 -0.8021 -2549.1538 1991.516)">
		<stop  offset="0" style="stop-color:#FFFFFF"/>
		<stop  offset="1" style="stop-color:#000000;stop-opacity:0.5"/>
	</linearGradient>
	<path class="st4" d="M469.1,272.2c7.4,6,8.6,17,2.6,24.4l-29.2,36c-15,17.3-40.8-3.5-27-21.9c0,0,29.2-36,29.2-36
		C450.7,267.4,461.7,266.2,469.1,272.2z"/>
	
		<linearGradient id="SVGID_9_" gradientUnits="userSpaceOnUse" x1="-726.6534" y1="3597.5198" x2="-707.793" y2="3597.5198" gradientTransform="matrix(-1.4305 -1.1587 0.5416 -0.6686 -2471.7534 1895.9629)">
		<stop  offset="0" style="stop-color:#FFFFFF"/>
		<stop  offset="1" style="stop-color:#000000"/>
	</linearGradient>
	
		<linearGradient id="SVGID_10_" gradientUnits="userSpaceOnUse" x1="-727.1534" y1="3597.5198" x2="-707.293" y2="3597.5198" gradientTransform="matrix(-1.4305 -1.1587 0.5416 -0.6686 -2471.7534 1895.9629)">
		<stop  offset="0" style="stop-color:#FFFFFF"/>
		<stop  offset="1" style="stop-color:#000000;stop-opacity:0.5"/>
	</linearGradient>
	<path class="st5" d="M523.8,295.6c7.4,6,8.6,17,2.6,24.4l-20.7,25.6c-15,17.3-40.8-3.6-27-21.9c0,0,20.7-25.6,20.7-25.6
		C505.4,290.7,516.4,289.6,523.8,295.6z"/>
	
		<linearGradient id="SVGID_11_" gradientUnits="userSpaceOnUse" x1="-758.2166" y1="4499.7988" x2="-739.3561" y2="4499.7988" gradientTransform="matrix(-1.4305 -1.1587 0.416 -0.5136 -2381.8386 1784.9608)">
		<stop  offset="0" style="stop-color:#FFFFFF"/>
		<stop  offset="1" style="stop-color:#000000"/>
	</linearGradient>
	
		<linearGradient id="SVGID_12_" gradientUnits="userSpaceOnUse" x1="-758.7166" y1="4499.7988" x2="-738.8561" y2="4499.7988" gradientTransform="matrix(-1.4305 -1.1587 0.416 -0.5136 -2381.8386 1784.9608)">
		<stop  offset="0" style="stop-color:#FFFFFF"/>
		<stop  offset="1" style="stop-color:#000000;stop-opacity:0.5"/>
	</linearGradient>
	<path class="st6" d="M577.5,321.6c7.4,6,8.6,17,2.6,24.4l-10.8,13.4c-15,17.3-40.8-3.6-27-21.9c0,0,10.8-13.4,10.8-13.4
		C559.1,316.8,570,315.6,577.5,321.6z"/>
</g>
</svg>
