<?xml version="1.0" encoding="utf-8"?>
<!-- Generator: Adobe Illustrator 25.0.1, SVG Export Plug-In . SVG Version: 6.00 Build 0)  -->
<svg version="1.1" id="Layer_1" xmlns="http://www.w3.org/2000/svg" xmlns:xlink="http://www.w3.org/1999/xlink" x="0px" y="0px"
	 viewBox="0 0 720 720" style="enable-background:new 0 0 720 720;" xml:space="preserve">
<style type="text/css">
	.st0{opacity:0.38;fill:url(#SVGID_1_);stroke:url(#SVGID_2_);stroke-miterlimit:10;}
	.st1{fill:url(#SVGID_3_);}
	.st2{fill:url(#SVGID_4_);}
	.st3{fill:url(#SVGID_5_);}
	.st4{fill:url(#SVGID_6_);}
	.st5{fill:url(#SVGID_7_);}
	.st6{opacity:0.76;fill:url(#SVGID_8_);stroke:url(#SVGID_9_);stroke-width:0.5;stroke-miterlimit:10;}
	.st7{opacity:0.76;fill:url(#SVGID_10_);stroke:url(#SVGID_11_);stroke-width:0.5;stroke-miterlimit:10;}
	.st8{opacity:0.76;fill:url(#SVGID_12_);stroke:url(#SVGID_13_);stroke-width:0.5;stroke-miterlimit:10;}
	.st9{opacity:0.76;fill:url(#SVGID_14_);stroke:url(#SVGID_15_);stroke-width:0.5;stroke-miterlimit:10;}
	.st10{opacity:0.76;fill:url(#SVGID_16_);stroke:url(#SVGID_17_);stroke-width:0.5;stroke-miterlimit:10;}
</style>
<g>
	<linearGradient id="SVGID_1_" gradientUnits="userSpaceOnUse" x1="2033.8567" y1="-995.4394" x2="1919.7034" y2="-1193.1588">
		<stop  offset="0" style="stop-color:#FFFFFF"/>
		<stop  offset="1" style="stop-color:#000000"/>
	</linearGradient>
	<linearGradient id="SVGID_2_" gradientUnits="userSpaceOnUse" x1="2034.1067" y1="-995.0063" x2="1919.4534" y2="-1193.5918">
		<stop  offset="0" style="stop-color:#FFFFFF"/>
		<stop  offset="1" style="stop-color:#000000;stop-opacity:0.5"/>
	</linearGradient>
	<path class="st0" d="M2090.9-1094.2c0,63-51,114-114,114c-151.2-6-151.2-222,0-228C2039.9-1208.3,2090.9-1157.2,2090.9-1094.2z"/>
	<g>
		
			<image style="overflow:visible;" width="434" height="427" xlink:href="B2A1E037.png"  transform="matrix(0.24 0 0 0.24 1924.8 -1142.64)">
		</image>
	</g>
	<g>
		<linearGradient id="SVGID_3_" gradientUnits="userSpaceOnUse" x1="1916.3401" y1="-1158.4834" x2="1877.0735" y2="-1226.4951">
			<stop  offset="0" style="stop-color:#FFFFFF"/>
			<stop  offset="1" style="stop-color:#000000"/>
		</linearGradient>
		<path class="st1" d="M1935.2-1200.4c-3.6-17.9-19.5-31.3-38.4-31.3c-42.8,0.6-54,58.3-15.4,75.2
			C1894.2-1176.1,1913-1191.6,1935.2-1200.4z"/>
		<g>
			
				<image style="overflow:visible;" width="528" height="497" xlink:href="B2A1E035.png"  transform="matrix(0.24 0 0 0.24 1845.36 -1236.48)">
			</image>
		</g>
	</g>
	<g>
		<linearGradient id="SVGID_4_" gradientUnits="userSpaceOnUse" x1="2080.8076" y1="-1161.4272" x2="2041.6166" y2="-1229.3081">
			<stop  offset="0" style="stop-color:#FFFFFF"/>
			<stop  offset="1" style="stop-color:#000000"/>
		</linearGradient>
		<path class="st2" d="M2072.2-1156.8c38.9-16.8,27.8-74.7-15.1-75.3c-19.1,0-35,13.7-38.5,31.8
			C2040.7-1191.7,2059.4-1176.4,2072.2-1156.8z"/>
		<g>
			
				<image style="overflow:visible;" width="528" height="495" xlink:href="B2A1E03B.png"  transform="matrix(0.24 0 0 0.24 1981.6801 -1236.48)">
			</image>
		</g>
	</g>
</g>
<g>
	
		<image style="overflow:visible;" width="1001" height="454" xlink:href="B2A1E03D.png"  transform="matrix(0.24 0 0 0.24 1856.88 -1053.36)">
	</image>
</g>
<linearGradient id="SVGID_5_" gradientUnits="userSpaceOnUse" x1="1793.033" y1="-882.003" x2="2160.8367" y2="-882.003">
	<stop  offset="0" style="stop-color:#FFFFFF"/>
	<stop  offset="1" style="stop-color:#000000"/>
</linearGradient>
<path class="st3" d="M2113.6-927.1c60.7,1.6,63.7-87.6,3.3-90.1c0,0-55.9,0-55.9,0c-43.2,48.9-124.9,48.9-168.1,0H1837
	c-25-0.1-45.1,21.3-43.9,46.3c0,24.1,19.7,43.9,43.9,43.9c25.2-1.6,47.2,18.4,47.2,43.9c1.2,24.9-18.8,46.3-43.9,46.3
	c-26.2-1.8-48.6,20-47.2,46.3c0,24.1,19.7,43.9,43.9,43.9c0,0,279.9,0,279.9,0c24.1,0,43.9-19.7,43.9-43.9c1.4-26.3-21-48-47.2-46.3
	c-24.1,0-43.9-19.7-43.9-43.9C2068.5-905.7,2088.6-927.1,2113.6-927.1z"/>
<g>
	
		<linearGradient id="SVGID_6_" gradientUnits="userSpaceOnUse" x1="552.0796" y1="-1293.448" x2="1105.3021" y2="-1293.448" gradientTransform="matrix(0.8261 -0.5636 0.5636 0.8261 377.5634 1903.0876)">
		<stop  offset="0" style="stop-color:#ADBA3E"/>
		<stop  offset="1" style="stop-color:#718200"/>
	</linearGradient>
	<path class="st4" d="M369.4,238.6c158.2,75.5,273.2,132.2,300.1,146.3c5.1,2.7,19.9,12,29.9,28.8c12.6,21.2,3.4,42.1-20.3,48.6
		C615,479.8,549.7,479.7,484,474.4c-59.2-4.8-114.9-24.2-171.3-40.3c-72.5-20.8-146.8-25.6-221.6-26.7c-12.3-0.2-24.9,3.5-37,6.9
		c-20.7,5.8-29.4,2.4-28.5-19.2c4.1-95.1,8.2-104.9,12.5-119.6c14.9-51.5,26.1-59.8,34.4-63c1.8-0.7,13.7-5.4,23,0
		c10.6,6.1,6.8,18.9,14.4,31.6c14,23.7,56,28.3,85,21.1c7.3-1.8,20.1-6.6,33.5-15.8c18.1-12.4,31.7-29.7,42.4-50.9
		c3.2-6.3,5.3-14.1,11.5-15.7c6.4-1.6,13.5,4.2,18.7,9.7C327.3,198,355.8,218.3,369.4,238.6z"/>
	
		<linearGradient id="SVGID_7_" gradientUnits="userSpaceOnUse" x1="503.7477" y1="-1192.6985" x2="1070.6581" y2="-1192.6985" gradientTransform="matrix(0.8261 -0.5636 0.5636 0.8261 377.5634 1903.0876)">
		<stop  offset="0" style="stop-color:#ADBA3E"/>
		<stop  offset="1" style="stop-color:#718200"/>
	</linearGradient>
	<path class="st5" d="M20.6,469.9c17.7,17.6,39.4,24.4,63,26.1c110.4,7.9,220.8,15.4,331.1,23.6c61.3,4.5,122.4,8,182.8-8.3
		c34.8-9.4,69-19.2,95.5-45.8c-40.7,71.5-182.2,76-255.7,69.9c-117.7-9-235.6-15.4-353.3-24.1c-17.4-1.3-34.7-8.4-51.3-14.7
		C22,492.6,17.2,482.9,20.6,469.9z"/>
	
		<linearGradient id="SVGID_8_" gradientUnits="userSpaceOnUse" x1="507.9869" y1="-1219.2593" x2="1096.2833" y2="-1219.2593" gradientTransform="matrix(0.8261 -0.5636 0.5636 0.8261 377.5634 1903.0876)">
		<stop  offset="3.534978e-03" style="stop-color:#FFFFFF;stop-opacity:0.7"/>
		<stop  offset="1" style="stop-color:#A0AE32"/>
	</linearGradient>
	
		<linearGradient id="SVGID_9_" gradientUnits="userSpaceOnUse" x1="507.7369" y1="-1219.2593" x2="1096.9229" y2="-1219.2593" gradientTransform="matrix(0.8261 -0.5636 0.5636 0.8261 377.5634 1903.0876)">
		<stop  offset="0" style="stop-color:#FFFFFF"/>
		<stop  offset="1" style="stop-color:#718416;stop-opacity:0.8"/>
	</linearGradient>
	<path class="st6" d="M15.7,448.9c-4.2,27.7,9.5,40.5,32.7,45.1c64.2,14.4,93.6,13.1,93.6,13.1c42.9-1.9,85.6,7.6,128.5,10.5
		c77.8,5.3,117.7,14.6,205.7,13.7c48.3,2.9,154.6,4.8,215.9-64.5c4.2-9.9,8.3-19.8,12.5-29.7C547,500.6,387,430.8,194.7,398
		c-32.1-6.3-139.9-26.8-164,7.9C18,424.2,15.7,448.9,15.7,448.9z"/>
	
		<linearGradient id="SVGID_10_" gradientUnits="userSpaceOnUse" x1="-662.787" y1="2763.3853" x2="-643.7047" y2="2763.3853" gradientTransform="matrix(-1.4305 -1.1587 0.7476 -0.9229 -2619.2451 2078.0457)">
		<stop  offset="3.534978e-03" style="stop-color:#FFFFFF;stop-opacity:0.7"/>
		<stop  offset="1" style="stop-color:#A0AE32"/>
	</linearGradient>
	
		<linearGradient id="SVGID_11_" gradientUnits="userSpaceOnUse" x1="-663.037" y1="2763.3853" x2="-643.4547" y2="2763.3853" gradientTransform="matrix(-1.4305 -1.1587 0.7476 -0.9229 -2619.2451 2078.0457)">
		<stop  offset="0" style="stop-color:#FFFFFF"/>
		<stop  offset="1" style="stop-color:#718416;stop-opacity:0.8"/>
	</linearGradient>
	<path class="st7" d="M410.8,248c7.5,6.1,8.7,17.2,2.6,24.7L376,318.8c-15.2,17.5-41.3-3.6-27.3-22.1c0,0,37.3-46.1,37.3-46.1
		C392.1,243.1,403.3,241.9,410.8,248z"/>
	
		<linearGradient id="SVGID_12_" gradientUnits="userSpaceOnUse" x1="-695.8803" y1="3096.7781" x2="-676.798" y2="3096.7781" gradientTransform="matrix(-1.4305 -1.1587 0.6497 -0.8021 -2549.1538 1991.516)">
		<stop  offset="3.534978e-03" style="stop-color:#FFFFFF;stop-opacity:0.7"/>
		<stop  offset="1" style="stop-color:#A0AE32"/>
	</linearGradient>
	
		<linearGradient id="SVGID_13_" gradientUnits="userSpaceOnUse" x1="-696.1303" y1="3096.7781" x2="-676.548" y2="3096.7781" gradientTransform="matrix(-1.4305 -1.1587 0.6497 -0.8021 -2549.1538 1991.516)">
		<stop  offset="0" style="stop-color:#FFFFFF"/>
		<stop  offset="1" style="stop-color:#718416;stop-opacity:0.8"/>
	</linearGradient>
	<path class="st8" d="M470.4,271.2c7.5,6.1,8.7,17.2,2.6,24.7l-29.5,36.5c-15.2,17.5-41.3-3.6-27.3-22.1c0,0,29.5-36.5,29.5-36.5
		C451.7,266.3,462.9,265.1,470.4,271.2z"/>
	
		<linearGradient id="SVGID_14_" gradientUnits="userSpaceOnUse" x1="-727.3187" y1="3599.1536" x2="-708.2364" y2="3599.1536" gradientTransform="matrix(-1.4305 -1.1587 0.5416 -0.6686 -2471.7534 1895.9629)">
		<stop  offset="3.534978e-03" style="stop-color:#FFFFFF;stop-opacity:0.7"/>
		<stop  offset="1" style="stop-color:#A0AE32"/>
	</linearGradient>
	
		<linearGradient id="SVGID_15_" gradientUnits="userSpaceOnUse" x1="-727.5687" y1="3599.1536" x2="-707.9864" y2="3599.1536" gradientTransform="matrix(-1.4305 -1.1587 0.5416 -0.6686 -2471.7534 1895.9629)">
		<stop  offset="0" style="stop-color:#FFFFFF"/>
		<stop  offset="1" style="stop-color:#718416;stop-opacity:0.8"/>
	</linearGradient>
	<path class="st9" d="M525.7,294.8c7.5,6.1,8.7,17.2,2.6,24.7l-20.9,25.9c-15.2,17.5-41.3-3.6-27.3-22.1c0,0,20.9-25.9,20.9-25.9
		C507.1,289.9,518.2,288.7,525.7,294.8z"/>
	
		<linearGradient id="SVGID_16_" gradientUnits="userSpaceOnUse" x1="-759.2534" y1="4502.3062" x2="-740.171" y2="4502.3062" gradientTransform="matrix(-1.4305 -1.1587 0.416 -0.5136 -2381.8386 1784.9608)">
		<stop  offset="3.534978e-03" style="stop-color:#FFFFFF;stop-opacity:0.7"/>
		<stop  offset="1" style="stop-color:#A0AE32"/>
	</linearGradient>
	
		<linearGradient id="SVGID_17_" gradientUnits="userSpaceOnUse" x1="-759.5034" y1="4502.3062" x2="-739.921" y2="4502.3062" gradientTransform="matrix(-1.4305 -1.1587 0.416 -0.5136 -2381.8386 1784.9608)">
		<stop  offset="0" style="stop-color:#FFFFFF"/>
		<stop  offset="1" style="stop-color:#718416;stop-opacity:0.8"/>
	</linearGradient>
	<path class="st10" d="M580,321.2c7.5,6.1,8.7,17.2,2.6,24.7l-11,13.5c-15.2,17.5-41.3-3.6-27.3-22.1c0,0,11-13.5,11-13.5
		C561.4,316.3,572.5,315.1,580,321.2z"/>
</g>
</svg>
