<?xml version="1.0" encoding="utf-8"?>
<!-- Generator: Adobe Illustrator 25.0.1, SVG Export Plug-In . SVG Version: 6.00 Build 0)  -->
<svg version="1.1" id="Layer_1" xmlns="http://www.w3.org/2000/svg" xmlns:xlink="http://www.w3.org/1999/xlink" x="0px" y="0px"
	 viewBox="0 0 720 720" style="enable-background:new 0 0 720 720;" xml:space="preserve">
<style type="text/css">
	.st0{opacity:0.38;fill:url(#SVGID_1_);stroke:url(#SVGID_2_);stroke-miterlimit:10;}
	.st1{fill:url(#SVGID_3_);}
	.st2{fill:url(#SVGID_4_);}
	.st3{fill:url(#SVGID_5_);}
	.st4{fill:url(#SVGID_6_);}
	.st5{fill:url(#SVGID_7_);}
	.st6{fill:url(#SVGID_8_);stroke:url(#SVGID_9_);stroke-linejoin:round;stroke-miterlimit:10;}
	.st7{fill:url(#SVGID_10_);stroke:url(#SVGID_11_);stroke-linejoin:round;stroke-miterlimit:10;}
	.st8{fill:url(#SVGID_12_);stroke:url(#SVGID_13_);stroke-linejoin:round;stroke-miterlimit:10;}
	.st9{fill:url(#SVGID_14_);stroke:url(#SVGID_15_);stroke-linejoin:round;stroke-miterlimit:10;}
	.st10{fill:url(#SVGID_16_);stroke:url(#SVGID_17_);stroke-linejoin:round;stroke-miterlimit:10;}
</style>
<g>
	<linearGradient id="SVGID_1_" gradientUnits="userSpaceOnUse" x1="2033.8567" y1="-995.4394" x2="1919.7034" y2="-1193.1588">
		<stop  offset="0" style="stop-color:#FFFFFF"/>
		<stop  offset="1" style="stop-color:#000000"/>
	</linearGradient>
	<linearGradient id="SVGID_2_" gradientUnits="userSpaceOnUse" x1="2034.1067" y1="-995.0063" x2="1919.4534" y2="-1193.5918">
		<stop  offset="0" style="stop-color:#FFFFFF"/>
		<stop  offset="1" style="stop-color:#000000;stop-opacity:0.5"/>
	</linearGradient>
	<path class="st0" d="M2090.9-1094.2c0,63-51,114-114,114c-151.2-6-151.2-222,0-228C2039.9-1208.3,2090.9-1157.2,2090.9-1094.2z"/>
	<g>
		
			<image style="overflow:visible;" width="434" height="427" xlink:href="59D86CC0.png"  transform="matrix(0.24 0 0 0.24 1924.8 -1142.64)">
		</image>
	</g>
	<g>
		<linearGradient id="SVGID_3_" gradientUnits="userSpaceOnUse" x1="1916.3401" y1="-1158.4834" x2="1877.0735" y2="-1226.4951">
			<stop  offset="0" style="stop-color:#FFFFFF"/>
			<stop  offset="1" style="stop-color:#000000"/>
		</linearGradient>
		<path class="st1" d="M1935.2-1200.4c-3.6-17.9-19.5-31.3-38.4-31.3c-42.8,0.6-54,58.3-15.4,75.2
			C1894.2-1176.1,1913-1191.6,1935.2-1200.4z"/>
		<g>
			
				<image style="overflow:visible;" width="528" height="497" xlink:href="59D86CC1.png"  transform="matrix(0.24 0 0 0.24 1845.36 -1236.48)">
			</image>
		</g>
	</g>
	<g>
		<linearGradient id="SVGID_4_" gradientUnits="userSpaceOnUse" x1="2080.8076" y1="-1161.4272" x2="2041.6166" y2="-1229.3081">
			<stop  offset="0" style="stop-color:#FFFFFF"/>
			<stop  offset="1" style="stop-color:#000000"/>
		</linearGradient>
		<path class="st2" d="M2072.2-1156.8c38.9-16.8,27.8-74.7-15.1-75.3c-19.1,0-35,13.7-38.5,31.8
			C2040.7-1191.7,2059.4-1176.4,2072.2-1156.8z"/>
		<g>
			
				<image style="overflow:visible;" width="528" height="495" xlink:href="59D86CC7.png"  transform="matrix(0.24 0 0 0.24 1981.6801 -1236.48)">
			</image>
		</g>
	</g>
</g>
<g>
	
		<image style="overflow:visible;" width="1001" height="454" xlink:href="59D86CC2.png"  transform="matrix(0.24 0 0 0.24 1856.88 -1053.36)">
	</image>
</g>
<linearGradient id="SVGID_5_" gradientUnits="userSpaceOnUse" x1="1793.033" y1="-882.003" x2="2160.8367" y2="-882.003">
	<stop  offset="0" style="stop-color:#FFFFFF"/>
	<stop  offset="1" style="stop-color:#000000"/>
</linearGradient>
<path class="st3" d="M2113.6-927.1c60.7,1.6,63.7-87.6,3.3-90.1c0,0-55.9,0-55.9,0c-43.2,48.9-124.9,48.9-168.1,0H1837
	c-25-0.1-45.1,21.3-43.9,46.3c0,24.1,19.7,43.9,43.9,43.9c25.2-1.6,47.2,18.4,47.2,43.9c1.2,24.9-18.8,46.3-43.9,46.3
	c-26.2-1.8-48.6,20-47.2,46.3c0,24.1,19.7,43.9,43.9,43.9c0,0,279.9,0,279.9,0c24.1,0,43.9-19.7,43.9-43.9c1.4-26.3-21-48-47.2-46.3
	c-24.1,0-43.9-19.7-43.9-43.9C2068.5-905.7,2088.6-927.1,2113.6-927.1z"/>
<g>
	
		<linearGradient id="SVGID_6_" gradientUnits="userSpaceOnUse" x1="555.955" y1="-1293.335" x2="1102.1024" y2="-1293.335" gradientTransform="matrix(0.8261 -0.5636 0.5636 0.8261 377.5634 1903.0876)">
		<stop  offset="0" style="stop-color:#BC896F"/>
		<stop  offset="0.9985" style="stop-color:#B27149"/>
	</linearGradient>
	<path class="st4" d="M369.3,240.2C525.5,314.6,639,370.7,665.5,384.6c5.1,2.6,19.6,11.9,29.5,28.5c12.4,20.9,3.3,41.6-20,48
		c-63.3,17.2-127.8,17.2-192.6,12c-58.4-4.7-113.4-23.9-169.1-39.8c-71.6-20.5-145-25.3-218.8-26.3c-12.2-0.2-24.6,3.5-36.5,6.8
		c-20.4,5.7-29,2.4-28.1-19c4.1-93.9,8.1-103.6,12.3-118c14.7-50.8,25.8-59,33.9-62.2c1.8-0.7,13.5-5.3,22.7,0
		c10.5,6.1,6.7,18.6,14.2,31.2c13.8,23.4,55.3,27.9,83.9,20.8c7.3-1.8,19.8-6.5,33-15.6c17.8-12.3,31.3-29.3,41.9-50.3
		c3.2-6.3,5.3-13.9,11.4-15.5c6.4-1.6,13.4,4.1,18.5,9.5C327.7,200.1,355.9,220.2,369.3,240.2z"/>
	
		<linearGradient id="SVGID_7_" gradientUnits="userSpaceOnUse" x1="508.2412" y1="-1193.8739" x2="1067.9015" y2="-1193.8739" gradientTransform="matrix(0.8261 -0.5636 0.5636 0.8261 377.5634 1903.0876)">
		<stop  offset="0" style="stop-color:#BC896F"/>
		<stop  offset="0.9985" style="stop-color:#B27149"/>
	</linearGradient>
	<path class="st5" d="M24.9,468.5c17.5,17.4,38.9,24.1,62.2,25.8c109,7.8,217.9,15.2,326.9,23.3c60.5,4.5,120.8,7.9,180.5-8.2
		c34.4-9.3,68.1-18.9,94.2-45.2c-40.2,70.6-179.9,75.1-252.4,69c-116.2-8.9-232.6-15.2-348.8-23.8c-17.2-1.3-34.2-8.3-50.6-14.6
		C26.3,490.9,21.5,481.3,24.9,468.5z"/>
	
		<linearGradient id="SVGID_8_" gradientUnits="userSpaceOnUse" x1="512.4261" y1="-1220.095" x2="1093.199" y2="-1220.095" gradientTransform="matrix(0.8261 -0.5636 0.5636 0.8261 377.5634 1903.0876)">
		<stop  offset="0" style="stop-color:#F4F0EF"/>
		<stop  offset="0.9985" style="stop-color:#B27149;stop-opacity:0.5"/>
	</linearGradient>
	
		<linearGradient id="SVGID_9_" gradientUnits="userSpaceOnUse" x1="511.9262" y1="-1220.095" x2="1093.699" y2="-1220.095" gradientTransform="matrix(0.8261 -0.5636 0.5636 0.8261 377.5634 1903.0876)">
		<stop  offset="0" style="stop-color:#F4F0EF"/>
		<stop  offset="0.9985" style="stop-color:#B27149;stop-opacity:0.5"/>
	</linearGradient>
	<path class="st6" d="M20.1,447.7c-4.2,27.3,9.4,39.9,32.3,44.5c63.3,14.2,92.4,12.9,92.4,12.9c42.4-1.9,84.5,7.5,126.8,10.4
		c76.8,5.2,116.2,14.4,203.1,13.5c47.7,2.9,152.6,4.7,213.1-63.7c4.1-9.8,8.2-19.5,12.3-29.3c-155.5,62.7-313.5-6.2-503.3-38.6
		c-31.7-6.2-138.1-26.4-161.9,7.8C22.4,423.4,20.1,447.7,20.1,447.7z"/>
	
		<linearGradient id="SVGID_10_" gradientUnits="userSpaceOnUse" x1="-662.8807" y1="2762.6118" x2="-644.0424" y2="2762.6118" gradientTransform="matrix(-1.4305 -1.1587 0.7476 -0.9229 -2619.2451 2078.0457)">
		<stop  offset="0" style="stop-color:#F4F0EF"/>
		<stop  offset="0.9985" style="stop-color:#B27149;stop-opacity:0.5"/>
	</linearGradient>
	
		<linearGradient id="SVGID_11_" gradientUnits="userSpaceOnUse" x1="-663.3807" y1="2762.6118" x2="-643.5424" y2="2762.6118" gradientTransform="matrix(-1.4305 -1.1587 0.7476 -0.9229 -2619.2451 2078.0457)">
		<stop  offset="0" style="stop-color:#F4F0EF"/>
		<stop  offset="0.9985" style="stop-color:#B27149;stop-opacity:0.5"/>
	</linearGradient>
	<path class="st7" d="M410.1,249.4c7.4,6,8.6,17,2.6,24.4l-36.9,45.5c-15,17.3-40.8-3.5-26.9-21.8c0,0,36.9-45.5,36.9-45.5
		C391.7,244.6,402.7,243.4,410.1,249.4z"/>
	
		<linearGradient id="SVGID_12_" gradientUnits="userSpaceOnUse" x1="-695.5508" y1="3095.5698" x2="-676.7125" y2="3095.5698" gradientTransform="matrix(-1.4305 -1.1587 0.6497 -0.8021 -2549.1538 1991.516)">
		<stop  offset="0" style="stop-color:#F4F0EF"/>
		<stop  offset="0.9985" style="stop-color:#B27149;stop-opacity:0.5"/>
	</linearGradient>
	
		<linearGradient id="SVGID_13_" gradientUnits="userSpaceOnUse" x1="-696.0508" y1="3095.5698" x2="-676.2125" y2="3095.5698" gradientTransform="matrix(-1.4305 -1.1587 0.6497 -0.8021 -2549.1538 1991.516)">
		<stop  offset="0" style="stop-color:#F4F0EF"/>
		<stop  offset="0.9985" style="stop-color:#B27149;stop-opacity:0.5"/>
	</linearGradient>
	<path class="st8" d="M469,272.3c7.4,6,8.6,17,2.6,24.4l-29.2,36c-15,17.3-40.8-3.5-26.9-21.8c0,0,29.2-36,29.2-36
		C450.6,267.5,461.5,266.3,469,272.3z"/>
	
		<linearGradient id="SVGID_14_" gradientUnits="userSpaceOnUse" x1="-726.5872" y1="3597.3572" x2="-707.7488" y2="3597.3572" gradientTransform="matrix(-1.4305 -1.1587 0.5416 -0.6686 -2471.7534 1895.9629)">
		<stop  offset="0" style="stop-color:#F4F0EF"/>
		<stop  offset="0.9985" style="stop-color:#B27149;stop-opacity:0.5"/>
	</linearGradient>
	
		<linearGradient id="SVGID_15_" gradientUnits="userSpaceOnUse" x1="-727.0872" y1="3597.3572" x2="-707.2488" y2="3597.3572" gradientTransform="matrix(-1.4305 -1.1587 0.5416 -0.6686 -2471.7534 1895.9629)">
		<stop  offset="0" style="stop-color:#F4F0EF"/>
		<stop  offset="0.9985" style="stop-color:#B27149;stop-opacity:0.5"/>
	</linearGradient>
	<path class="st9" d="M523.6,295.6c7.4,6,8.6,17,2.6,24.4l-20.7,25.5c-15,17.3-40.8-3.5-26.9-21.8c0,0,20.7-25.5,20.7-25.5
		C505.2,290.8,516.2,289.6,523.6,295.6z"/>
	
		<linearGradient id="SVGID_16_" gradientUnits="userSpaceOnUse" x1="-758.1133" y1="4499.5493" x2="-739.2751" y2="4499.5493" gradientTransform="matrix(-1.4305 -1.1587 0.416 -0.5136 -2381.8386 1784.9608)">
		<stop  offset="0" style="stop-color:#F4F0EF"/>
		<stop  offset="0.9985" style="stop-color:#B27149;stop-opacity:0.5"/>
	</linearGradient>
	
		<linearGradient id="SVGID_17_" gradientUnits="userSpaceOnUse" x1="-758.6133" y1="4499.5493" x2="-738.7751" y2="4499.5493" gradientTransform="matrix(-1.4305 -1.1587 0.416 -0.5136 -2381.8386 1784.9608)">
		<stop  offset="0" style="stop-color:#F4F0EF"/>
		<stop  offset="0.9985" style="stop-color:#B27149;stop-opacity:0.5"/>
	</linearGradient>
	<path class="st10" d="M577.2,321.7c7.4,6,8.6,17,2.6,24.4L569,359.4c-15,17.3-40.8-3.6-26.9-21.8c0,0,10.8-13.4,10.8-13.4
		C558.8,316.8,569.8,315.7,577.2,321.7z"/>
</g>
</svg>
