<?xml version="1.0" encoding="utf-8"?>
<!-- Generator: Adobe Illustrator 25.0.1, SVG Export Plug-In . SVG Version: 6.00 Build 0)  -->
<svg version="1.1" id="Layer_1" xmlns="http://www.w3.org/2000/svg" xmlns:xlink="http://www.w3.org/1999/xlink" x="0px" y="0px"
	 viewBox="0 0 720 720" style="enable-background:new 0 0 720 720;" xml:space="preserve">
<style type="text/css">
	.st0{fill:url(#SVGID_1_);}
	.st1{fill:url(#SVGID_2_);}
	.st2{fill:url(#SVGID_3_);stroke:url(#SVGID_4_);stroke-miterlimit:10;}
	.st3{fill:url(#SVGID_5_);stroke:url(#SVGID_6_);stroke-miterlimit:10;}
	.st4{fill:url(#SVGID_7_);stroke:url(#SVGID_8_);stroke-miterlimit:10;}
	.st5{fill:url(#SVGID_9_);stroke:url(#SVGID_10_);stroke-miterlimit:10;}
	.st6{fill:url(#SVGID_11_);stroke:url(#SVGID_12_);stroke-miterlimit:10;}
</style>
<g>
	
		<linearGradient id="SVGID_1_" gradientUnits="userSpaceOnUse" x1="550.5157" y1="-1293.4935" x2="1106.5934" y2="-1293.4935" gradientTransform="matrix(0.8261 -0.5636 0.5636 0.8261 377.5634 1903.0876)">
		<stop  offset="0" style="stop-color:#F2D432"/>
		<stop  offset="1" style="stop-color:#DEB800"/>
	</linearGradient>
	<path class="st0" d="M369.4,238C528.5,313.8,644,370.9,671.1,385c5.1,2.7,20,12.1,30,29c12.7,21.3,3.4,42.3-20.4,48.8
		c-64.4,17.5-130.1,17.5-196.1,12.2c-59.5-4.8-115.5-24.3-172.2-40.5c-72.9-20.9-147.6-25.8-222.7-26.8c-12.4-0.2-25,3.5-37.2,6.9
		c-20.8,5.8-29.6,2.4-28.6-19.3c4.2-95.6,8.3-105.5,12.5-120.2c15-51.7,26.3-60.1,34.5-63.4c1.8-0.7,13.7-5.4,23.1,0
		c10.7,6.2,6.9,19,14.4,31.8c14.1,23.8,56.3,28.4,85.4,21.2c7.4-1.8,20.2-6.6,33.6-15.8c18.2-12.5,31.9-29.9,42.6-51.2
		c3.2-6.4,5.4-14.2,11.6-15.7c6.5-1.6,13.6,4.2,18.8,9.7C327.1,197.2,355.8,217.6,369.4,238z"/>
	
		<linearGradient id="SVGID_2_" gradientUnits="userSpaceOnUse" x1="501.9344" y1="-1192.2241" x2="1071.7705" y2="-1192.2241" gradientTransform="matrix(0.8261 -0.5636 0.5636 0.8261 377.5634 1903.0876)">
		<stop  offset="0" style="stop-color:#F2D432"/>
		<stop  offset="1" style="stop-color:#DEB800"/>
	</linearGradient>
	<path class="st1" d="M18.8,470.5c17.8,17.7,39.6,24.5,63.3,26.2c110.9,8,221.9,15.5,332.8,23.7c61.6,4.6,123,8.1,183.8-8.3
		c35-9.4,69.3-19.3,96-46c-40.9,71.8-183.2,76.4-257,70.3c-118.3-9.1-236.8-15.4-355.2-24.2c-17.5-1.3-34.8-8.4-51.5-14.8
		C20.2,493.2,15.4,483.5,18.8,470.5z"/>
	
		<linearGradient id="SVGID_3_" gradientUnits="userSpaceOnUse" x1="506.1955" y1="-1218.922" x2="1097.5281" y2="-1218.922" gradientTransform="matrix(0.8261 -0.5636 0.5636 0.8261 377.5634 1903.0876)">
		<stop  offset="0" style="stop-color:#DEB800;stop-opacity:0.5"/>
		<stop  offset="1" style="stop-color:#F4F0EF;stop-opacity:0.5"/>
	</linearGradient>
	
		<linearGradient id="SVGID_4_" gradientUnits="userSpaceOnUse" x1="505.6955" y1="-1218.922" x2="1098.807" y2="-1218.922" gradientTransform="matrix(0.8261 -0.5636 0.5636 0.8261 377.5634 1903.0876)">
		<stop  offset="0" style="stop-color:#DEB800;stop-opacity:0.5"/>
		<stop  offset="1" style="stop-color:#F4F0EF;stop-opacity:0.3"/>
	</linearGradient>
	<path class="st2" d="M14,449.3c-4.3,27.8,9.6,40.7,32.8,45.3c64.5,14.5,94.1,13.2,94.1,13.2c43.1-1.9,86,7.7,129.1,10.6
		c78.2,5.3,118.3,14.7,206.7,13.8c48.6,2.9,155.4,4.8,217-64.8c4.2-9.9,8.4-19.9,12.5-29.8c-158.3,63.8-319.2-6.3-512.5-39.3
		c-32.2-6.4-140.7-26.9-164.8,8C16.3,424.5,14,449.3,14,449.3z"/>
	
		<linearGradient id="SVGID_5_" gradientUnits="userSpaceOnUse" x1="-662.7492" y1="2763.6975" x2="-643.5684" y2="2763.6975" gradientTransform="matrix(-1.4305 -1.1587 0.7476 -0.9229 -2619.2451 2078.0457)">
		<stop  offset="0" style="stop-color:#DEB800;stop-opacity:0.5"/>
		<stop  offset="1" style="stop-color:#F4F0EF;stop-opacity:0.5"/>
	</linearGradient>
	
		<linearGradient id="SVGID_6_" gradientUnits="userSpaceOnUse" x1="-663.2492" y1="2763.6975" x2="-643.0684" y2="2763.6975" gradientTransform="matrix(-1.4305 -1.1587 0.7476 -0.9229 -2619.2451 2078.0457)">
		<stop  offset="0" style="stop-color:#DEB800;stop-opacity:0.5"/>
		<stop  offset="1" style="stop-color:#F4F0EF;stop-opacity:0.3"/>
	</linearGradient>
	<path class="st3" d="M411,247.4c7.5,6.1,8.7,17.3,2.6,24.8l-37.5,46.3c-15.3,17.6-41.5-3.6-27.4-22.2c0,0,37.5-46.3,37.5-46.3
		C392.3,242.5,403.5,241.3,411,247.4z"/>
	
		<linearGradient id="SVGID_7_" gradientUnits="userSpaceOnUse" x1="-696.0132" y1="3097.2656" x2="-676.8325" y2="3097.2656" gradientTransform="matrix(-1.4305 -1.1587 0.6497 -0.8021 -2549.1538 1991.516)">
		<stop  offset="0" style="stop-color:#DEB800;stop-opacity:0.5"/>
		<stop  offset="1" style="stop-color:#F4F0EF;stop-opacity:0.5"/>
	</linearGradient>
	
		<linearGradient id="SVGID_8_" gradientUnits="userSpaceOnUse" x1="-696.5132" y1="3097.2656" x2="-676.3325" y2="3097.2656" gradientTransform="matrix(-1.4305 -1.1587 0.6497 -0.8021 -2549.1538 1991.516)">
		<stop  offset="0" style="stop-color:#DEB800;stop-opacity:0.5"/>
		<stop  offset="1" style="stop-color:#F4F0EF;stop-opacity:0.3"/>
	</linearGradient>
	<path class="st4" d="M470.9,270.7c7.5,6.1,8.7,17.3,2.6,24.8l-29.7,36.7c-15.3,17.6-41.5-3.6-27.4-22.2c0,0,29.7-36.7,29.7-36.7
		C452.2,265.8,463.4,264.6,470.9,270.7z"/>
	
		<linearGradient id="SVGID_9_" gradientUnits="userSpaceOnUse" x1="-727.614" y1="3599.8784" x2="-708.4331" y2="3599.8784" gradientTransform="matrix(-1.4305 -1.1587 0.5416 -0.6686 -2471.7534 1895.9629)">
		<stop  offset="0" style="stop-color:#DEB800;stop-opacity:0.5"/>
		<stop  offset="1" style="stop-color:#F4F0EF;stop-opacity:0.5"/>
	</linearGradient>
	
		<linearGradient id="SVGID_10_" gradientUnits="userSpaceOnUse" x1="-728.114" y1="3599.8784" x2="-707.9331" y2="3599.8784" gradientTransform="matrix(-1.4305 -1.1587 0.5416 -0.6686 -2471.7534 1895.9629)">
		<stop  offset="0" style="stop-color:#DEB800;stop-opacity:0.5"/>
		<stop  offset="1" style="stop-color:#F4F0EF;stop-opacity:0.3"/>
	</linearGradient>
	<path class="st5" d="M526.6,294.5c7.5,6.1,8.7,17.3,2.6,24.8l-21.1,26c-15.3,17.6-41.5-3.6-27.4-22.2c0,0,21.1-26,21.1-26
		C507.9,289.5,519,288.4,526.6,294.5z"/>
	
		<linearGradient id="SVGID_11_" gradientUnits="userSpaceOnUse" x1="-759.7134" y1="4503.4185" x2="-740.5325" y2="4503.4185" gradientTransform="matrix(-1.4305 -1.1587 0.416 -0.5136 -2381.8386 1784.9608)">
		<stop  offset="0" style="stop-color:#DEB800;stop-opacity:0.5"/>
		<stop  offset="1" style="stop-color:#F4F0EF;stop-opacity:0.5"/>
	</linearGradient>
	
		<linearGradient id="SVGID_12_" gradientUnits="userSpaceOnUse" x1="-760.2134" y1="4503.4185" x2="-740.0325" y2="4503.4185" gradientTransform="matrix(-1.4305 -1.1587 0.416 -0.5136 -2381.8386 1784.9608)">
		<stop  offset="0" style="stop-color:#DEB800;stop-opacity:0.5"/>
		<stop  offset="1" style="stop-color:#F4F0EF;stop-opacity:0.3"/>
	</linearGradient>
	<path class="st6" d="M581.2,321c7.5,6.1,8.7,17.3,2.6,24.8l-11,13.6c-15.3,17.6-41.5-3.6-27.4-22.2c0,0,11-13.6,11-13.6
		C562.4,316,573.6,314.9,581.2,321z"/>
</g>
</svg>
