<?xml version="1.0" encoding="utf-8"?>
<!-- Generator: Adobe Illustrator 25.0.1, SVG Export Plug-In . SVG Version: 6.00 Build 0)  -->
<svg version="1.1" id="Layer_1" xmlns="http://www.w3.org/2000/svg" xmlns:xlink="http://www.w3.org/1999/xlink" x="0px" y="0px"
	 viewBox="0 0 720 720" style="enable-background:new 0 0 720 720;" xml:space="preserve">
<style type="text/css">
	.st0{fill:url(#SVGID_1_);}
	.st1{fill:url(#SVGID_2_);stroke:url(#SVGID_3_);stroke-width:0.5;stroke-linejoin:round;stroke-miterlimit:10;}
	.st2{opacity:0.87;}
	.st3{fill:url(#SVGID_4_);stroke:url(#SVGID_5_);stroke-width:0.5;stroke-linejoin:round;stroke-miterlimit:10;}
</style>
<g>
	<g>
		<g>
			
				<image style="overflow:visible;" width="557" height="508" xlink:href="2DAC6D03.png"  transform="matrix(0.24 0 0 0.24 182.88 217.2)">
			</image>
		</g>
		<g>
			
				<image style="overflow:visible;" width="556" height="508" xlink:href="2DAC6D01.png"  transform="matrix(0.24 0 0 0.24 404.88 217.2)">
			</image>
		</g>
		<linearGradient id="SVGID_1_" gradientUnits="userSpaceOnUse" x1="418.2294" y1="284.2447" x2="327.7822" y2="521.6686">
			<stop  offset="0" style="stop-color:#BC896F"/>
			<stop  offset="0.9985" style="stop-color:#B27149"/>
		</linearGradient>
		<path class="st0" d="M502.3,254v18.4c0,16.9-13.7,30.6-30.6,30.6c-16.9,0-30.6-13.7-30.6-30.6v-19H280.3v19
			c0,16.9-13.7,30.6-30.6,30.6c-16.9,0-30.6-13.7-30.6-30.6v-18.6c-24.1,3.3-42.8,24-42.8,49v268.5c0,27.2,22.3,49.5,49.5,49.5
			h268.5c27.2,0,49.5-22.3,49.5-49.5V302.8C543.7,278.4,525.7,257.9,502.3,254z M397.1,524.8h-74.2l14.1-84.5
			c-15.1-8.2-25.4-24.2-25.4-42.5c0-26.7,21.6-48.3,48.3-48.3s48.3,21.6,48.3,48.3c0,18.4-10.3,34.4-25.4,42.5L397.1,524.8z"/>
		<linearGradient id="SVGID_2_" gradientUnits="userSpaceOnUse" x1="419.8788" y1="284.8731" x2="329.4316" y2="522.2969">
			<stop  offset="0" style="stop-color:#F4F0EF"/>
			<stop  offset="0.9985" style="stop-color:#B27149;stop-opacity:0.5"/>
		</linearGradient>
		<linearGradient id="SVGID_3_" gradientUnits="userSpaceOnUse" x1="311.404" y1="437.0949" x2="408.596" y2="437.0949">
			<stop  offset="1.501339e-03" style="stop-color:#B27149;stop-opacity:0.5"/>
			<stop  offset="1" style="stop-color:#F4F0EF;stop-opacity:0.7"/>
		</linearGradient>
		<path class="st1" d="M408.3,397.7c0-26.7-21.6-48.3-48.3-48.3s-48.3,21.6-48.3,48.3c0,18.4,10.3,34.4,25.4,42.5l-14.1,84.5h74.2
			L383,440.3C398.1,432.1,408.3,416.1,408.3,397.7z"/>
		<g class="st2">
			
				<image style="overflow:visible;" width="346" height="337" xlink:href="2DAC6D07.png"  transform="matrix(0.24 0 0 0.24 157.92 221.28)">
			</image>
		</g>
	</g>
	<linearGradient id="SVGID_4_" gradientUnits="userSpaceOnUse" x1="450.4868" y1="11.057" x2="329.4962" y2="328.6573">
		<stop  offset="0" style="stop-color:#F4F0EF"/>
		<stop  offset="0.9985" style="stop-color:#B27149;stop-opacity:0.5"/>
	</linearGradient>
	<linearGradient id="SVGID_5_" gradientUnits="userSpaceOnUse" x1="218.1251" y1="201.0047" x2="503.1829" y2="201.0047">
		<stop  offset="1.501339e-03" style="stop-color:#B27149;stop-opacity:0.5"/>
		<stop  offset="1" style="stop-color:#F4F0EF;stop-opacity:0.7"/>
	</linearGradient>
	<path class="st3" d="M356.7,99.2c-77.5,2.1-138.3,67-138.3,143.9v28.4c0,17.3,14.2,31.3,31.6,31.3h0c17.5,0,31.6-14,31.6-31.3
		v-29.1c0-42.2,32.7-78.5,75.2-80.4c45.4-2.1,82.9,33.7,82.9,78.2v31.3c0,17.3,14.2,31.3,31.6,31.3h0c17.5,0,31.6-14,31.6-31.3
		v-31.3C502.9,161,437.1,97.1,356.7,99.2z"/>
</g>
</svg>
