<?xml version="1.0" encoding="utf-8"?>
<!-- Generator: Adobe Illustrator 25.0.1, SVG Export Plug-In . SVG Version: 6.00 Build 0)  -->
<svg version="1.1" id="Layer_1" xmlns="http://www.w3.org/2000/svg" xmlns:xlink="http://www.w3.org/1999/xlink" x="0px" y="0px"
	 viewBox="0 0 720 720" style="enable-background:new 0 0 720 720;" xml:space="preserve">
<style type="text/css">
	.st0{fill:url(#SVGID_1_);}
	.st1{opacity:0.38;fill:url(#SVGID_2_);stroke:url(#SVGID_3_);stroke-miterlimit:10;}
</style>
<g>
	<linearGradient id="SVGID_1_" gradientUnits="userSpaceOnUse" x1="96.7585" y1="524.7175" x2="623.2415" y2="524.7175">
		<stop  offset="0" style="stop-color:#FFFFFF"/>
		<stop  offset="1" style="stop-color:#000000"/>
	</linearGradient>
	<path class="st0" d="M124.5,623c-15.3,0-27.6-12.4-27.6-27.6v-7.5c0-9.3,0.3-18.6-0.1-27.8c-0.7-18.4,5.9-34,17.2-47.9
		c44.7-51,122-69.5,186.5-81.3c85.8-14.1,199.3,6.6,273,53.1c21.8,14.3,42.9,34.3,48.3,60.9c2.9,20,0.5,27.2,1.3,50.5
		c0,15.3-12.4,27.6-27.6,27.6H124.5z"/>
	<linearGradient id="SVGID_2_" gradientUnits="userSpaceOnUse" x1="228.2136" y1="228.2351" x2="491.4375" y2="228.2351">
		<stop  offset="0" style="stop-color:#FFFFFF"/>
		<stop  offset="1" style="stop-color:#000000"/>
	</linearGradient>
	<linearGradient id="SVGID_3_" gradientUnits="userSpaceOnUse" x1="227.7135" y1="228.2351" x2="491.9376" y2="228.2351">
		<stop  offset="0" style="stop-color:#FFFFFF"/>
		<stop  offset="1" style="stop-color:#000000;stop-opacity:0.5"/>
	</linearGradient>
	<path class="st1" d="M359.8,97.1c71.6-0.9,130.9,57.6,131.6,130.3c-5.8,176.7-257.8,175.6-263.2-0.1
		C228.7,155.5,287.9,96.1,359.8,97.1z"/>
</g>
</svg>
