<?xml version="1.0" encoding="utf-8"?>
<!-- Generator: Adobe Illustrator 25.0.1, SVG Export Plug-In . SVG Version: 6.00 Build 0)  -->
<svg version="1.1" id="Layer_1" xmlns="http://www.w3.org/2000/svg" xmlns:xlink="http://www.w3.org/1999/xlink" x="0px" y="0px"
	 viewBox="0 0 720 720" style="enable-background:new 0 0 720 720;" xml:space="preserve">
<style type="text/css">
	.st0{fill:url(#SVGID_1_);}
	.st1{fill:url(#SVGID_2_);stroke:url(#SVGID_3_);stroke-miterlimit:10;}
</style>
<g>
	<linearGradient id="SVGID_1_" gradientUnits="userSpaceOnUse" x1="96.3663" y1="524.963" x2="623.6337" y2="524.963">
		<stop  offset="0" style="stop-color:#F2D432"/>
		<stop  offset="1" style="stop-color:#DEB800"/>
	</linearGradient>
	<path class="st0" d="M124.2,623.3c-15.3,0-27.7-12.4-27.7-27.7v-7.5c0-9.3,0.3-18.6-0.1-27.9c-0.7-18.4,5.9-34,17.2-48
		c44.8-51,122.2-69.6,186.8-81.4c85.9-14.1,199.6,6.6,273.4,53.2c21.9,14.3,43,34.4,48.3,61c2.9,20,0.5,27.3,1.3,50.6
		c0,15.3-12.4,27.7-27.7,27.7H124.2z"/>
	<linearGradient id="SVGID_2_" gradientUnits="userSpaceOnUse" x1="228.0172" y1="228.0388" x2="491.6333" y2="228.0388">
		<stop  offset="0" style="stop-color:#DEB800;stop-opacity:0.5"/>
		<stop  offset="1" style="stop-color:#F4F0EF;stop-opacity:0.5"/>
	</linearGradient>
	<linearGradient id="SVGID_3_" gradientUnits="userSpaceOnUse" x1="227.5172" y1="228.0388" x2="492.1334" y2="228.0388">
		<stop  offset="0" style="stop-color:#DEB800;stop-opacity:0.5"/>
		<stop  offset="1" style="stop-color:#F4F0EF;stop-opacity:0.3"/>
	</linearGradient>
	<path class="st1" d="M359.8,96.7c71.7-0.9,131.1,57.7,131.8,130.5c-5.8,177-258.2,175.8-263.6-0.1
		C228.5,155.2,287.8,95.7,359.8,96.7z"/>
</g>
</svg>
