<?xml version="1.0" encoding="utf-8"?>
<!-- Generator: Adobe Illustrator 25.0.1, SVG Export Plug-In . SVG Version: 6.00 Build 0)  -->
<svg version="1.1" id="Layer_1" xmlns="http://www.w3.org/2000/svg" xmlns:xlink="http://www.w3.org/1999/xlink" x="0px" y="0px"
	 viewBox="0 0 720 720" style="enable-background:new 0 0 720 720;" xml:space="preserve">
<style type="text/css">
	.st0{fill:url(#SVGID_1_);}
	.st1{fill:url(#SVGID_2_);stroke:url(#SVGID_3_);stroke-linejoin:round;stroke-miterlimit:10;}
</style>
<g>
	<linearGradient id="SVGID_1_" gradientUnits="userSpaceOnUse" x1="139.6843" y1="359.364" x2="580.067" y2="359.364">
		<stop  offset="0" style="stop-color:#BC896F"/>
		<stop  offset="0.9985" style="stop-color:#B27149"/>
	</linearGradient>
	<path class="st0" d="M549.5,202.9H292.3v-15.1c0-9.9-8.1-18-18-18H157.7c-9.9,0-18,8.1-18,18v65.8c0,1,0.1,1.9,0.2,2.8v261.9
		c0,16.8,13.7,30.5,30.5,30.5h379.1c16.8,0,30.5-13.7,30.5-30.5V233.4C580.1,216.6,566.3,202.9,549.5,202.9z"/>
	<linearGradient id="SVGID_2_" gradientUnits="userSpaceOnUse" x1="97.5444" y1="391.394" x2="622.4556" y2="391.394">
		<stop  offset="1.501339e-03" style="stop-color:#B27149;stop-opacity:0.5"/>
		<stop  offset="1" style="stop-color:#F4F0EF"/>
	</linearGradient>
	<linearGradient id="SVGID_3_" gradientUnits="userSpaceOnUse" x1="97.0444" y1="391.394" x2="622.9556" y2="391.394">
		<stop  offset="1.501342e-03" style="stop-color:#B27149;stop-opacity:0.5"/>
		<stop  offset="1" style="stop-color:#F4F0EF"/>
	</linearGradient>
	<path class="st1" d="M547.2,550.2H172.8c-15.6,0-29.3-10.3-33.7-25.2L99,282.3c-6.6-24.8,10.4-49.6,33.9-49.6h454.2
		c23.6,0,40.5,24.8,33.9,49.6l-40.2,242.7C576.5,539.9,562.8,550.2,547.2,550.2z"/>
</g>
</svg>
