<?xml version="1.0" encoding="utf-8"?>
<!-- Generator: Adobe Illustrator 25.0.1, SVG Export Plug-In . SVG Version: 6.00 Build 0)  -->
<svg version="1.1" id="Layer_1" xmlns="http://www.w3.org/2000/svg" xmlns:xlink="http://www.w3.org/1999/xlink" x="0px" y="0px"
	 viewBox="0 0 720 720" style="enable-background:new 0 0 720 720;" xml:space="preserve">
<style type="text/css">
	.st0{fill:url(#SVGID_1_);}
	.st1{fill:url(#SVGID_2_);stroke:url(#SVGID_3_);stroke-miterlimit:10;}
</style>
<g>
	<linearGradient id="SVGID_1_" gradientUnits="userSpaceOnUse" x1="135.6785" y1="359.3524" x2="584.0683" y2="359.3524">
		<stop  offset="0" style="stop-color:#F2D432"/>
		<stop  offset="1" style="stop-color:#DEB800"/>
	</linearGradient>
	<path class="st0" d="M553,200H291.1v-15.4c0-10.1-8.2-18.3-18.3-18.3H154c-10.1,0-18.3,8.2-18.3,18.3v67c0,1,0.1,1.9,0.3,2.9v266.7
		c0,17.1,14,31.1,31.1,31.1h386c17.1,0,31.1-14,31.1-31.1V231.1C584.1,214,570.1,200,553,200z"/>
	<linearGradient id="SVGID_2_" gradientUnits="userSpaceOnUse" x1="92.7724" y1="391.9648" x2="627.2276" y2="391.9648">
		<stop  offset="0" style="stop-color:#DEB800;stop-opacity:0.5"/>
		<stop  offset="1" style="stop-color:#F4F0EF;stop-opacity:0.5"/>
	</linearGradient>
	<linearGradient id="SVGID_3_" gradientUnits="userSpaceOnUse" x1="92.2724" y1="391.9648" x2="627.7276" y2="391.9648">
		<stop  offset="0" style="stop-color:#DEB800;stop-opacity:0.5"/>
		<stop  offset="1" style="stop-color:#F4F0EF;stop-opacity:0.3"/>
	</linearGradient>
	<path class="st1" d="M550.6,553.6H169.4c-15.9,0-29.8-10.5-34.3-25.7L94.2,280.8c-6.7-25.3,10.6-50.5,34.6-50.5h462.4
		c24,0,41.3,25.3,34.6,50.5l-40.9,247.1C580.4,543.2,566.5,553.6,550.6,553.6z"/>
</g>
</svg>
