<?xml version="1.0" encoding="utf-8"?>
<!-- Generator: Adobe Illustrator 25.0.1, SVG Export Plug-In . SVG Version: 6.00 Build 0)  -->
<svg version="1.1" id="Layer_1" xmlns="http://www.w3.org/2000/svg" xmlns:xlink="http://www.w3.org/1999/xlink" x="0px" y="0px"
	 viewBox="0 0 720 720" style="enable-background:new 0 0 720 720;" xml:space="preserve">
<style type="text/css">
	.st0{fill:url(#SVGID_1_);}
	.st1{opacity:0.38;fill:url(#SVGID_2_);stroke:url(#SVGID_3_);stroke-miterlimit:10;}
</style>
<g>
	<linearGradient id="SVGID_1_" gradientUnits="userSpaceOnUse" x1="139.426" y1="359.3632" x2="580.325" y2="359.3632">
		<stop  offset="0" style="stop-color:#FFFFFF"/>
		<stop  offset="1" style="stop-color:#000000"/>
	</linearGradient>
	<path class="st0" d="M549.8,202.7H292.3v-15.1c0-9.9-8.1-18-18-18H157.4c-9.9,0-18,8.1-18,18v65.9c0,1,0.1,1.9,0.2,2.8v262.2
		c0,16.8,13.8,30.6,30.6,30.6h379.5c16.8,0,30.6-13.8,30.6-30.6V233.3C580.3,216.5,566.6,202.7,549.8,202.7z"/>
	<linearGradient id="SVGID_2_" gradientUnits="userSpaceOnUse" x1="97.2367" y1="391.4308" x2="622.7633" y2="391.4308">
		<stop  offset="0" style="stop-color:#FFFFFF"/>
		<stop  offset="1" style="stop-color:#000000"/>
	</linearGradient>
	<linearGradient id="SVGID_3_" gradientUnits="userSpaceOnUse" x1="96.7367" y1="391.4308" x2="623.2633" y2="391.4308">
		<stop  offset="0" style="stop-color:#FFFFFF"/>
		<stop  offset="1" style="stop-color:#000000;stop-opacity:0.5"/>
	</linearGradient>
	<path class="st1" d="M547.4,550.4H172.6c-15.6,0-29.3-10.3-33.7-25.3l-40.2-243c-6.6-24.8,10.4-49.7,34-49.7h454.7
		c23.6,0,40.6,24.9,34,49.7l-40.2,243C576.8,540.1,563,550.4,547.4,550.4z"/>
</g>
</svg>
