<?xml version="1.0" encoding="utf-8"?>
<!-- Generator: Adobe Illustrator 25.0.1, SVG Export Plug-In . SVG Version: 6.00 Build 0)  -->
<svg version="1.1" id="Layer_1" xmlns="http://www.w3.org/2000/svg" xmlns:xlink="http://www.w3.org/1999/xlink" x="0px" y="0px"
	 viewBox="0 0 720 720" style="enable-background:new 0 0 720 720;" xml:space="preserve">
<style type="text/css">
	.st0{fill:url(#SVGID_1_);}
	.st1{opacity:0.38;fill:url(#SVGID_2_);stroke:url(#SVGID_3_);stroke-miterlimit:10;}
	.st2{opacity:0.87;}
	.st3{opacity:0.38;fill:url(#SVGID_4_);stroke:url(#SVGID_5_);stroke-miterlimit:10;}
</style>
<g>
	<g>
		<g>
			
				<image style="overflow:visible;" width="534" height="490" xlink:href="9B452E0F.png"  transform="matrix(0.24 0 0 0.24 195.36 253.44)">
			</image>
		</g>
		<linearGradient id="SVGID_1_" gradientUnits="userSpaceOnUse" x1="525.228" y1="258.668" x2="233.4247" y2="609.4877">
			<stop  offset="0" style="stop-color:#FFFFFF"/>
			<stop  offset="1" style="stop-color:#000000"/>
		</linearGradient>
		<path class="st0" d="M489.8,290.3c-67.5-0.2-135-0.4-202.5-0.6V307c0,15.4-12.5,27.9-27.9,27.9c-15.4,0-27.9-12.5-27.9-27.9v-17
			c-22,3-39.1,21.9-39.1,44.7v245c0,24.8,20.3,45.1,45.1,45.1h245c24.8,0,45.1-20.3,45.1-45.1v-245
			C527.7,312.5,511.2,293.8,489.8,290.3z M393.9,537.4h-67.7l12.9-77.1c-39.7-21.8-25-82.4,21-82.9c46,0.5,60.7,61.2,21,82.9
			L393.9,537.4z"/>
		<linearGradient id="SVGID_2_" gradientUnits="userSpaceOnUse" x1="529.1157" y1="261.9016" x2="237.3124" y2="612.7213">
			<stop  offset="0" style="stop-color:#FFFFFF"/>
			<stop  offset="1" style="stop-color:#000000"/>
		</linearGradient>
		<linearGradient id="SVGID_3_" gradientUnits="userSpaceOnUse" x1="315.5165" y1="457.3087" x2="404.6187" y2="457.3087">
			<stop  offset="0" style="stop-color:#FFFFFF"/>
			<stop  offset="1" style="stop-color:#000000;stop-opacity:0.5"/>
		</linearGradient>
		<path class="st1" d="M404.1,421.4c0-24.4-19.8-44.1-44.1-44.1c-46,0.5-60.7,61.2-21,82.9l-12.9,77.1h67.7L381,460.2
			C394.8,452.7,404.1,438.2,404.1,421.4z"/>
		<g class="st2">
			
				<image style="overflow:visible;" width="342" height="333" xlink:href="9B452E0A.png"  transform="matrix(0.24 0 0 0.24 172.56 257.28)">
			</image>
		</g>
	</g>
	<linearGradient id="SVGID_4_" gradientUnits="userSpaceOnUse" x1="437.9884" y1="-11.8013" x2="300.9865" y2="347.8287">
		<stop  offset="0" style="stop-color:#FFFFFF"/>
		<stop  offset="1" style="stop-color:#000000"/>
	</linearGradient>
	<linearGradient id="SVGID_5_" gradientUnits="userSpaceOnUse" x1="230.1439" y1="216.2327" x2="485.2339" y2="216.2327">
		<stop  offset="0" style="stop-color:#FFFFFF"/>
		<stop  offset="1" style="stop-color:#000000;stop-opacity:0.5"/>
	</linearGradient>
	<path class="st3" d="M356.9,95.1c-70.7,1.9-126.1,61.1-126.2,131.1h-0.1c0,0,0,82.6,0,82.6c1.3,38,56.2,38.2,57.6,0.1
		c0.1-27.7,0.2-55.5,0.2-83.2c0-38.5,29.8-71.6,68.6-73.4c32.7-1.5,60.8,18.6,71.2,47.1c4.3,11.7,15.1,19.8,27.5,19.7
		c19.7,0,33.8-19.4,27.2-38C465,129.9,415.1,93.5,356.9,95.1z"/>
</g>
</svg>
