<?xml version="1.0" encoding="utf-8"?>
<!-- Generator: Adobe Illustrator 25.0.1, SVG Export Plug-In . SVG Version: 6.00 Build 0)  -->
<svg version="1.1" id="Layer_1" xmlns="http://www.w3.org/2000/svg" xmlns:xlink="http://www.w3.org/1999/xlink" x="0px" y="0px"
	 viewBox="0 0 720 720" style="enable-background:new 0 0 720 720;" xml:space="preserve">
<style type="text/css">
	.st0{fill:url(#SVGID_1_);}
	.st1{fill:url(#SVGID_2_);stroke:url(#SVGID_3_);stroke-miterlimit:10;}
	.st2{opacity:0.87;}
	.st3{fill:url(#SVGID_4_);stroke:url(#SVGID_5_);stroke-miterlimit:10;}
</style>
<g>
	<g>
		<g>
			
				<image style="overflow:visible;" width="534" height="490" xlink:href="88E1F705.png"  transform="matrix(0.24 0 0 0.24 195.12 253.44)">
			</image>
		</g>
		<linearGradient id="SVGID_1_" gradientUnits="userSpaceOnUse" x1="413.2171" y1="317.7605" x2="330.5554" y2="534.7475">
			<stop  offset="0" style="stop-color:#F2D432"/>
			<stop  offset="1" style="stop-color:#DEB800"/>
		</linearGradient>
		<path class="st0" d="M490,290.2c-67.6-0.2-135.2-0.4-202.8-0.6V307c0,15.5-12.5,28-28,28c-15.5,0-28-12.5-28-28v-17
			c-22,3-39.1,22-39.1,44.8v245.4c0,24.9,20.3,45.2,45.2,45.2h245.4c24.9,0,45.2-20.3,45.2-45.2V334.7
			C527.9,312.4,511.4,293.7,490,290.2z M393.9,537.6h-67.8l12.9-77.3c-39.8-21.8-25-82.6,21-83.1c46.1,0.5,60.8,61.2,21,83.1
			L393.9,537.6z"/>
		<linearGradient id="SVGID_2_" gradientUnits="userSpaceOnUse" x1="414.8106" y1="318.3675" x2="332.1489" y2="535.3545">
			<stop  offset="0" style="stop-color:#DEB800;stop-opacity:0.5"/>
			<stop  offset="1" style="stop-color:#F4F0EF;stop-opacity:0.5"/>
		</linearGradient>
		<linearGradient id="SVGID_3_" gradientUnits="userSpaceOnUse" x1="315.451" y1="457.4537" x2="404.6845" y2="457.4537">
			<stop  offset="0" style="stop-color:#DEB800;stop-opacity:0.5"/>
			<stop  offset="1" style="stop-color:#F4F0EF;stop-opacity:0.3"/>
		</linearGradient>
		<path class="st1" d="M404.2,421.5c0-24.4-19.8-44.2-44.2-44.2c-46.1,0.5-60.8,61.2-21,83.1l-12.9,77.3h67.8L381,460.4
			C394.8,452.9,404.2,438.3,404.2,421.5z"/>
		<g class="st2">
			
				<image style="overflow:visible;" width="342" height="333" xlink:href="88E1F707.png"  transform="matrix(0.24 0 0 0.24 172.32 257.28)">
			</image>
		</g>
	</g>
	<linearGradient id="SVGID_4_" gradientUnits="userSpaceOnUse" x1="438.1046" y1="-12.3552" x2="300.8986" y2="347.8106">
		<stop  offset="0" style="stop-color:#DEB800;stop-opacity:0.5"/>
		<stop  offset="1" style="stop-color:#F4F0EF;stop-opacity:0.5"/>
	</linearGradient>
	<linearGradient id="SVGID_5_" gradientUnits="userSpaceOnUse" x1="229.9512" y1="216.0186" x2="485.4197" y2="216.0186">
		<stop  offset="0" style="stop-color:#DEB800;stop-opacity:0.5"/>
		<stop  offset="1" style="stop-color:#F4F0EF;stop-opacity:0.3"/>
	</linearGradient>
	<path class="st3" d="M356.9,94.7c-70.8,1.9-126.3,61.2-126.4,131.3h-0.1c0,0,0,82.7,0,82.7c1.3,38.1,56.2,38.2,57.7,0.1
		c0.1-27.8,0.2-55.6,0.2-83.3c0-38.5,29.9-71.7,68.7-73.5c32.8-1.5,60.9,18.6,71.4,47.1c4.3,11.7,15.1,19.8,27.6,19.7
		c19.7,0,33.9-19.4,27.3-38C465.1,129.6,415.2,93.1,356.9,94.7z"/>
</g>
</svg>
