<?xml version="1.0" encoding="utf-8"?>
<!-- Generator: Adobe Illustrator 25.0.1, SVG Export Plug-In . SVG Version: 6.00 Build 0)  -->
<svg version="1.1" id="Layer_1" xmlns="http://www.w3.org/2000/svg" xmlns:xlink="http://www.w3.org/1999/xlink" x="0px" y="0px"
	 viewBox="0 0 720 720" style="enable-background:new 0 0 720 720;" xml:space="preserve">
<style type="text/css">
	.st0{fill:url(#SVGID_1_);}
	.st1{fill:url(#SVGID_2_);stroke:url(#SVGID_3_);stroke-linejoin:round;stroke-miterlimit:10;}
	.st2{fill:url(#SVGID_4_);stroke:url(#SVGID_5_);stroke-linejoin:round;stroke-miterlimit:10;}
</style>
<g>
	<linearGradient id="SVGID_1_" gradientUnits="userSpaceOnUse" x1="477.2809" y1="615.2122" x2="242.7191" y2="208.9393">
		<stop  offset="0" style="stop-color:#BC896F"/>
		<stop  offset="0.9985" style="stop-color:#B27149"/>
	</linearGradient>
	<path class="st0" d="M529.3,579.1H190.7c-21.6,0-39.2-17.7-39.2-39.2V284.3c0-21.6,17.7-39.2,39.2-39.2h338.7
		c21.6,0,39.2,17.7,39.2,39.2v255.6C568.6,561.5,550.9,579.1,529.3,579.1z"/>
	<linearGradient id="SVGID_2_" gradientUnits="userSpaceOnUse" x1="433.8211" y1="367.0959" x2="286.1789" y2="111.3721">
		<stop  offset="1.501339e-03" style="stop-color:#B27149;stop-opacity:0.5"/>
		<stop  offset="1" style="stop-color:#F4F0EF"/>
	</linearGradient>
	<linearGradient id="SVGID_3_" gradientUnits="userSpaceOnUse" x1="121.9632" y1="239.234" x2="598.0367" y2="239.234">
		<stop  offset="1.501342e-03" style="stop-color:#B27149;stop-opacity:0.5"/>
		<stop  offset="1" style="stop-color:#F4F0EF"/>
	</linearGradient>
	<path class="st1" d="M571.4,283.7H148.6c-14.4,0-26.2-11.8-26.2-26.2V221c0-14.4,11.8-26.2,26.2-26.2h422.8
		c14.4,0,26.2,11.8,26.2,26.2v36.5C597.5,271.9,585.8,283.7,571.4,283.7z"/>
	<linearGradient id="SVGID_4_" gradientUnits="userSpaceOnUse" x1="488.5013" y1="538.5117" x2="259.4081" y2="141.7105">
		<stop  offset="1.501339e-03" style="stop-color:#B27149;stop-opacity:0.5"/>
		<stop  offset="1" style="stop-color:#F4F0EF"/>
	</linearGradient>
	<linearGradient id="SVGID_5_" gradientUnits="userSpaceOnUse" x1="263.6395" y1="360" x2="454.008" y2="360">
		<stop  offset="1.501342e-03" style="stop-color:#B27149;stop-opacity:0.5"/>
		<stop  offset="1" style="stop-color:#F4F0EF"/>
	</linearGradient>
	<path class="st2" d="M444.2,133.6l-13.9-10.4c-10.2-7.6-24.8-5.5-32.4,4.8l-35.3,47.5L316,128.9c-9-9-23.8-9-32.8,0l-12.3,12.3
		c-9,9-9,23.8,0,32.8l20.9,20.9H327c-2.4,3.6-3.7,7.9-3.7,12.6v370.8c0,12.7,10.4,23.2,23.2,23.2h27c12.7,0,23.2-10.4,23.2-23.2
		V207.4c0-4.6-1.4-8.9-3.7-12.6h34.6L449,166C456.6,155.8,454.4,141.2,444.2,133.6z"/>
</g>
</svg>
