<?xml version="1.0" encoding="utf-8"?>
<!-- Generator: Adobe Illustrator 25.0.1, SVG Export Plug-In . SVG Version: 6.00 Build 0)  -->
<svg version="1.1" id="Layer_1" xmlns="http://www.w3.org/2000/svg" xmlns:xlink="http://www.w3.org/1999/xlink" x="0px" y="0px"
	 viewBox="0 0 720 720" style="enable-background:new 0 0 720 720;" xml:space="preserve">
<style type="text/css">
	.st0{fill:url(#SVGID_1_);}
	.st1{fill:url(#SVGID_2_);stroke:url(#SVGID_3_);stroke-miterlimit:10;}
	.st2{fill:url(#SVGID_4_);stroke:url(#SVGID_5_);stroke-miterlimit:10;}
</style>
<g>
	<linearGradient id="SVGID_1_" gradientUnits="userSpaceOnUse" x1="479.3199" y1="619.7209" x2="240.6801" y2="206.3847">
		<stop  offset="0" style="stop-color:#F2D432"/>
		<stop  offset="1" style="stop-color:#DEB800"/>
	</linearGradient>
	<path class="st0" d="M531.6,583.2H188.4c-22.5,0-40.8-18.4-40.8-40.8V283.7c0-22.5,18.4-40.8,40.8-40.8h343.3
		c22.5,0,40.8,18.4,40.8,40.8v258.7C572.5,564.9,554.1,583.2,531.6,583.2z"/>
	<linearGradient id="SVGID_2_" gradientUnits="userSpaceOnUse" x1="432.6008" y1="362.7165" x2="287.3992" y2="111.2199">
		<stop  offset="0" style="stop-color:#DEB800;stop-opacity:0.5"/>
		<stop  offset="1" style="stop-color:#F4F0EF;stop-opacity:0.5"/>
	</linearGradient>
	<linearGradient id="SVGID_3_" gradientUnits="userSpaceOnUse" x1="117.5066" y1="236.9682" x2="602.4933" y2="236.9682">
		<stop  offset="0" style="stop-color:#DEB800;stop-opacity:0.5"/>
		<stop  offset="1" style="stop-color:#F4F0EF;stop-opacity:0.3"/>
	</linearGradient>
	<path class="st1" d="M561.1,282.2H158.9c-22.5,0-40.8-18.4-40.8-40.8v-8.8c0-22.5,18.4-40.8,40.8-40.8h402.3
		c22.5,0,40.8,18.4,40.8,40.8v8.8C602,263.8,583.6,282.2,561.1,282.2z"/>
	<linearGradient id="SVGID_4_" gradientUnits="userSpaceOnUse" x1="490.9122" y1="541.8608" x2="257.5208" y2="137.6151">
		<stop  offset="0" style="stop-color:#DEB800;stop-opacity:0.5"/>
		<stop  offset="1" style="stop-color:#F4F0EF;stop-opacity:0.5"/>
	</linearGradient>
	<linearGradient id="SVGID_5_" gradientUnits="userSpaceOnUse" x1="261.841" y1="360" x2="455.7623" y2="360">
		<stop  offset="0" style="stop-color:#DEB800;stop-opacity:0.5"/>
		<stop  offset="1" style="stop-color:#F4F0EF;stop-opacity:0.3"/>
	</linearGradient>
	<path class="st2" d="M445.8,129.3l-14.2-10.6c-10.4-7.7-25.3-5.6-33,4.9l-36,48.4l-47.4-47.4c-9.2-9.2-24.2-9.2-33.4,0l-12.5,12.5
		c-9.2,9.2-9.2,24.2,0,33.4l21.3,21.3h35.9c-2.4,3.7-3.8,8.1-3.8,12.8v377.7c0,13,10.6,23.6,23.6,23.6h27.5
		c13,0,23.6-10.6,23.6-23.6V204.5c0-4.7-1.4-9.1-3.8-12.8h35.2l21.8-29.3C458.4,152,456.2,137.1,445.8,129.3z"/>
</g>
</svg>
