<?xml version="1.0" encoding="utf-8"?>
<!-- Generator: Adobe Illustrator 25.0.1, SVG Export Plug-In . SVG Version: 6.00 Build 0)  -->
<svg version="1.1" id="Layer_1" xmlns="http://www.w3.org/2000/svg" xmlns:xlink="http://www.w3.org/1999/xlink" x="0px" y="0px"
	 viewBox="0 0 720 720" style="enable-background:new 0 0 720 720;" xml:space="preserve">
<style type="text/css">
	.st0{opacity:0.38;fill:url(#SVGID_1_);stroke:url(#SVGID_2_);stroke-miterlimit:10;}
	.st1{fill:url(#SVGID_3_);}
	.st2{fill:url(#SVGID_4_);}
	.st3{fill:url(#SVGID_5_);}
	.st4{fill:url(#SVGID_6_);}
	.st5{fill:url(#SVGID_7_);stroke:url(#SVGID_8_);stroke-linejoin:round;stroke-miterlimit:10;}
	.st6{fill:url(#SVGID_9_);}
	.st7{opacity:0.67;fill:#F4EDED;}
</style>
<g>
	<linearGradient id="SVGID_1_" gradientUnits="userSpaceOnUse" x1="2033.8567" y1="-995.4394" x2="1919.7034" y2="-1193.1588">
		<stop  offset="0" style="stop-color:#FFFFFF"/>
		<stop  offset="1" style="stop-color:#000000"/>
	</linearGradient>
	<linearGradient id="SVGID_2_" gradientUnits="userSpaceOnUse" x1="2034.1067" y1="-995.0063" x2="1919.4534" y2="-1193.5918">
		<stop  offset="0" style="stop-color:#FFFFFF"/>
		<stop  offset="1" style="stop-color:#000000;stop-opacity:0.5"/>
	</linearGradient>
	<path class="st0" d="M2090.9-1094.2c0,63-51,114-114,114c-151.2-6-151.2-222,0-228C2039.9-1208.3,2090.9-1157.2,2090.9-1094.2z"/>
	<g>
		
			<image style="overflow:visible;" width="434" height="427" xlink:href="DE098840.png"  transform="matrix(0.24 0 0 0.24 1924.8 -1142.64)">
		</image>
	</g>
	<g>
		<linearGradient id="SVGID_3_" gradientUnits="userSpaceOnUse" x1="1916.3401" y1="-1158.4834" x2="1877.0735" y2="-1226.4951">
			<stop  offset="0" style="stop-color:#FFFFFF"/>
			<stop  offset="1" style="stop-color:#000000"/>
		</linearGradient>
		<path class="st1" d="M1935.2-1200.4c-3.6-17.9-19.5-31.3-38.4-31.3c-42.8,0.6-54,58.3-15.4,75.2
			C1894.2-1176.1,1913-1191.6,1935.2-1200.4z"/>
		<g>
			
				<image style="overflow:visible;" width="528" height="497" xlink:href="DE098841.png"  transform="matrix(0.24 0 0 0.24 1845.36 -1236.48)">
			</image>
		</g>
	</g>
	<g>
		<linearGradient id="SVGID_4_" gradientUnits="userSpaceOnUse" x1="2080.8076" y1="-1161.4272" x2="2041.6166" y2="-1229.3081">
			<stop  offset="0" style="stop-color:#FFFFFF"/>
			<stop  offset="1" style="stop-color:#000000"/>
		</linearGradient>
		<path class="st2" d="M2072.2-1156.8c38.9-16.8,27.8-74.7-15.1-75.3c-19.1,0-35,13.7-38.5,31.8
			C2040.7-1191.7,2059.4-1176.4,2072.2-1156.8z"/>
		<g>
			
				<image style="overflow:visible;" width="528" height="495" xlink:href="DE098847.png"  transform="matrix(0.24 0 0 0.24 1981.6801 -1236.48)">
			</image>
		</g>
	</g>
</g>
<g>
	
		<image style="overflow:visible;" width="1001" height="454" xlink:href="DE098842.png"  transform="matrix(0.24 0 0 0.24 1856.88 -1053.36)">
	</image>
</g>
<linearGradient id="SVGID_5_" gradientUnits="userSpaceOnUse" x1="1793.033" y1="-882.003" x2="2160.8367" y2="-882.003">
	<stop  offset="0" style="stop-color:#FFFFFF"/>
	<stop  offset="1" style="stop-color:#000000"/>
</linearGradient>
<path class="st3" d="M2113.6-927.1c60.7,1.6,63.7-87.6,3.3-90.1c0,0-55.9,0-55.9,0c-43.2,48.9-124.9,48.9-168.1,0H1837
	c-25-0.1-45.1,21.3-43.9,46.3c0,24.1,19.7,43.9,43.9,43.9c25.2-1.6,47.2,18.4,47.2,43.9c1.2,24.9-18.8,46.3-43.9,46.3
	c-26.2-1.8-48.6,20-47.2,46.3c0,24.1,19.7,43.9,43.9,43.9c0,0,279.9,0,279.9,0c24.1,0,43.9-19.7,43.9-43.9c1.4-26.3-21-48-47.2-46.3
	c-24.1,0-43.9-19.7-43.9-43.9C2068.5-905.7,2088.6-927.1,2113.6-927.1z"/>
<g>
	<linearGradient id="SVGID_6_" gradientUnits="userSpaceOnUse" x1="372.8594" y1="169.7741" x2="345.6302" y2="429.8848">
		<stop  offset="0" style="stop-color:#BC896F"/>
		<stop  offset="0.9985" style="stop-color:#B27149"/>
	</linearGradient>
	<path class="st4" d="M393.7,439.4c52.5-49,105-98,157.6-147c-0.6-5.4-3-10.5-6.9-14.3L380.4,119c-8.9-8.6-23-8.8-32-0.4
		C291,171.8,233.5,224.9,176.1,278c-4.1,3.8-6.7,8.9-7.3,14.4c53.1,49,106.1,98.1,159.2,147.1C346.6,456.6,375.2,456.6,393.7,439.4z
		"/>
	<linearGradient id="SVGID_7_" gradientUnits="userSpaceOnUse" x1="261.0704" y1="606.1143" x2="532.8258" y2="-24.4977">
		<stop  offset="1.501339e-03" style="stop-color:#B27149;stop-opacity:0.5"/>
		<stop  offset="1" style="stop-color:#F4F0EF"/>
	</linearGradient>
	<linearGradient id="SVGID_8_" gradientUnits="userSpaceOnUse" x1="491.0927" y1="599.8955" x2="230.7385" y2="148.9489">
		<stop  offset="1.501342e-03" style="stop-color:#B27149;stop-opacity:0.5"/>
		<stop  offset="1" style="stop-color:#F4F0EF"/>
	</linearGradient>
	<path class="st5" d="M500,592.3H221.8c-6.6,0-12-5.4-12-12V168.5c0-6.6,5.4-12,12-12H500c6.6,0,12,5.4,12,12v411.8
		C512,586.9,506.6,592.3,500,592.3z"/>
	<linearGradient id="SVGID_9_" gradientUnits="userSpaceOnUse" x1="168.6391" y1="442.4929" x2="551.3609" y2="442.4929">
		<stop  offset="0" style="stop-color:#BC896F"/>
		<stop  offset="0.9985" style="stop-color:#B27149"/>
	</linearGradient>
	<path class="st6" d="M393.7,439.4c-18.5,17.2-47.1,17.3-65.6,0.2c-53.1-49-106.1-98.1-159.2-147.1c-0.1,0.9-0.2,1.8-0.2,2.7v274.2
		c0,12.9,10.4,23.3,23.3,23.3h336.1c12.9,0,23.3-10.4,23.3-23.3V294.8c0-0.8,0-1.6-0.1-2.4C498.7,341.4,446.2,390.4,393.7,439.4z"/>
	<path class="st7" d="M448.8,222.1H272.1c-4,0-7.3-3.3-7.3-7.3v0c0-4,3.3-7.3,7.3-7.3h176.7c4,0,7.3,3.3,7.3,7.3v0
		C456.1,218.8,452.8,222.1,448.8,222.1z"/>
	<path class="st7" d="M448.8,288H272.1c-4,0-7.3-3.3-7.3-7.3v0c0-4,3.3-7.3,7.3-7.3h176.7c4,0,7.3,3.3,7.3,7.3v0
		C456.1,284.7,452.8,288,448.8,288z"/>
	<path class="st7" d="M448.8,353.9H272.1c-4,0-7.3-3.3-7.3-7.3v0c0-4,3.3-7.3,7.3-7.3h176.7c4,0,7.3,3.3,7.3,7.3v0
		C456.1,350.6,452.8,353.9,448.8,353.9z"/>
</g>
</svg>
