<?xml version="1.0" encoding="utf-8"?>
<!-- Generator: Adobe Illustrator 25.0.1, SVG Export Plug-In . SVG Version: 6.00 Build 0)  -->
<svg version="1.1" id="Layer_1" xmlns="http://www.w3.org/2000/svg" xmlns:xlink="http://www.w3.org/1999/xlink" x="0px" y="0px"
	 viewBox="0 0 720 720" style="enable-background:new 0 0 720 720;" xml:space="preserve">
<style type="text/css">
	.st0{opacity:0.38;fill:url(#SVGID_1_);stroke:url(#SVGID_2_);stroke-miterlimit:10;}
	.st1{fill:url(#SVGID_3_);}
	.st2{fill:url(#SVGID_4_);}
	.st3{fill:url(#SVGID_5_);}
	.st4{fill:url(#SVGID_6_);}
	.st5{opacity:0.76;fill:url(#SVGID_7_);stroke:url(#SVGID_8_);stroke-width:0.5;stroke-miterlimit:10;}
	.st6{fill:url(#SVGID_9_);}
	.st7{opacity:0.67;fill:#F4EDED;}
</style>
<g>
	<linearGradient id="SVGID_1_" gradientUnits="userSpaceOnUse" x1="2033.8567" y1="-995.4394" x2="1919.7034" y2="-1193.1588">
		<stop  offset="0" style="stop-color:#FFFFFF"/>
		<stop  offset="1" style="stop-color:#000000"/>
	</linearGradient>
	<linearGradient id="SVGID_2_" gradientUnits="userSpaceOnUse" x1="2034.1067" y1="-995.0063" x2="1919.4534" y2="-1193.5918">
		<stop  offset="0" style="stop-color:#FFFFFF"/>
		<stop  offset="1" style="stop-color:#000000;stop-opacity:0.5"/>
	</linearGradient>
	<path class="st0" d="M2090.9-1094.2c0,63-51,114-114,114c-151.2-6-151.2-222,0-228C2039.9-1208.3,2090.9-1157.2,2090.9-1094.2z"/>
	<g>
		
			<image style="overflow:visible;" width="434" height="427" xlink:href="36D2FBB7.png"  transform="matrix(0.24 0 0 0.24 1924.8 -1142.64)">
		</image>
	</g>
	<g>
		<linearGradient id="SVGID_3_" gradientUnits="userSpaceOnUse" x1="1916.3401" y1="-1158.4834" x2="1877.0735" y2="-1226.4951">
			<stop  offset="0" style="stop-color:#FFFFFF"/>
			<stop  offset="1" style="stop-color:#000000"/>
		</linearGradient>
		<path class="st1" d="M1935.2-1200.4c-3.6-17.9-19.5-31.3-38.4-31.3c-42.8,0.6-54,58.3-15.4,75.2
			C1894.2-1176.1,1913-1191.6,1935.2-1200.4z"/>
		<g>
			
				<image style="overflow:visible;" width="528" height="497" xlink:href="36D2FBB5.png"  transform="matrix(0.24 0 0 0.24 1845.36 -1236.48)">
			</image>
		</g>
	</g>
	<g>
		<linearGradient id="SVGID_4_" gradientUnits="userSpaceOnUse" x1="2080.8076" y1="-1161.4272" x2="2041.6166" y2="-1229.3081">
			<stop  offset="0" style="stop-color:#FFFFFF"/>
			<stop  offset="1" style="stop-color:#000000"/>
		</linearGradient>
		<path class="st2" d="M2072.2-1156.8c38.9-16.8,27.8-74.7-15.1-75.3c-19.1,0-35,13.7-38.5,31.8
			C2040.7-1191.7,2059.4-1176.4,2072.2-1156.8z"/>
		<g>
			
				<image style="overflow:visible;" width="528" height="495" xlink:href="36D2FBBB.png"  transform="matrix(0.24 0 0 0.24 1981.6801 -1236.48)">
			</image>
		</g>
	</g>
</g>
<g>
	
		<image style="overflow:visible;" width="1001" height="454" xlink:href="36D2FBBD.png"  transform="matrix(0.24 0 0 0.24 1856.88 -1053.36)">
	</image>
</g>
<linearGradient id="SVGID_5_" gradientUnits="userSpaceOnUse" x1="1793.033" y1="-882.003" x2="2160.8367" y2="-882.003">
	<stop  offset="0" style="stop-color:#FFFFFF"/>
	<stop  offset="1" style="stop-color:#000000"/>
</linearGradient>
<path class="st3" d="M2113.6-927.1c60.7,1.6,63.7-87.6,3.3-90.1c0,0-55.9,0-55.9,0c-43.2,48.9-124.9,48.9-168.1,0H1837
	c-25-0.1-45.1,21.3-43.9,46.3c0,24.1,19.7,43.9,43.9,43.9c25.2-1.6,47.2,18.4,47.2,43.9c1.2,24.9-18.8,46.3-43.9,46.3
	c-26.2-1.8-48.6,20-47.2,46.3c0,24.1,19.7,43.9,43.9,43.9c0,0,279.9,0,279.9,0c24.1,0,43.9-19.7,43.9-43.9c1.4-26.3-21-48-47.2-46.3
	c-24.1,0-43.9-19.7-43.9-43.9C2068.5-905.7,2088.6-927.1,2113.6-927.1z"/>
<g>
	<linearGradient id="SVGID_6_" gradientUnits="userSpaceOnUse" x1="373.161" y1="174.8818" x2="345.579" y2="438.3622">
		<stop  offset="0" style="stop-color:#ADBA3E"/>
		<stop  offset="1" style="stop-color:#718200"/>
	</linearGradient>
	<path class="st4" d="M394.2,448c53.2-49.6,106.4-99.2,159.6-148.9c-0.6-5.5-3-10.6-7-14.5l-166-161.1c-9-8.7-23.3-8.9-32.5-0.4
		C290.2,176.9,232,230.7,173.9,284.5c-4.2,3.8-6.8,9-7.4,14.6c53.8,49.7,107.5,99.3,161.3,149C346.5,465.5,375.5,465.4,394.2,448z"
		/>
	<linearGradient id="SVGID_7_" gradientUnits="userSpaceOnUse" x1="263.4135" y1="608.7767" x2="529.1913" y2="-7.9641">
		<stop  offset="3.534978e-03" style="stop-color:#FFFFFF;stop-opacity:0.7"/>
		<stop  offset="1" style="stop-color:#A0AE32"/>
	</linearGradient>
	<linearGradient id="SVGID_8_" gradientUnits="userSpaceOnUse" x1="487.578" y1="601.3123" x2="234.5469" y2="163.0497">
		<stop  offset="0" style="stop-color:#FFFFFF"/>
		<stop  offset="1" style="stop-color:#718416;stop-opacity:0.8"/>
	</linearGradient>
	<path class="st5" d="M473.5,602.9H248.6c-22.3,0-40.6-18.3-40.6-40.6V202.1c0-22.3,18.3-40.6,40.6-40.6h224.8
		c22.3,0,40.6,18.3,40.6,40.6v360.2C514.1,584.6,495.8,602.9,473.5,602.9z"/>
	<linearGradient id="SVGID_9_" gradientUnits="userSpaceOnUse" x1="165.8264" y1="451.1335" x2="554.1736" y2="451.1335">
		<stop  offset="0" style="stop-color:#ADBA3E"/>
		<stop  offset="1" style="stop-color:#718200"/>
	</linearGradient>
	<path class="st6" d="M394.2,448c-18.7,17.4-47.7,17.5-66.5,0.2c-53.8-49.7-107.5-99.3-161.3-149c-1.8,3.8,1,276.8-0.2,280.4
		c0,13,10.6,23.6,23.6,23.6c0,0,340.5,0,340.5,0c13,0,23.6-10.6,23.6-23.6c-1.1-4.6,1-275.8-0.1-280.5
		C500.6,348.7,447.4,398.3,394.2,448z"/>
	<path class="st7" d="M452.3,227.9H268.9c-2.9,0-5.3-2.4-5.3-5.3v-4.3c0-2.9,2.4-5.3,5.3-5.3h183.3c2.9,0,5.3,2.4,5.3,5.3v4.3
		C457.5,225.5,455.2,227.9,452.3,227.9z"/>
	<path class="st7" d="M452.3,294.6H268.9c-2.9,0-5.3-2.4-5.3-5.3v-4.3c0-2.9,2.4-5.3,5.3-5.3h183.3c2.9,0,5.3,2.4,5.3,5.3v4.3
		C457.5,292.3,455.2,294.6,452.3,294.6z"/>
	<path class="st7" d="M452.3,361.4H268.9c-2.9,0-5.3-2.4-5.3-5.3v-4.3c0-2.9,2.4-5.3,5.3-5.3h183.3c2.9,0,5.3,2.4,5.3,5.3v4.3
		C457.5,359,455.2,361.4,452.3,361.4z"/>
</g>
</svg>
