<?xml version="1.0" encoding="utf-8"?>
<!-- Generator: Adobe Illustrator 25.0.1, SVG Export Plug-In . SVG Version: 6.00 Build 0)  -->
<svg version="1.1" id="Layer_1" xmlns="http://www.w3.org/2000/svg" xmlns:xlink="http://www.w3.org/1999/xlink" x="0px" y="0px"
	 viewBox="0 0 720 720" style="enable-background:new 0 0 720 720;" xml:space="preserve">
<style type="text/css">
	.st0{opacity:0.38;fill:url(#SVGID_1_);stroke:url(#SVGID_2_);stroke-miterlimit:10;}
	.st1{fill:url(#SVGID_3_);}
	.st2{fill:url(#SVGID_4_);}
	.st3{fill:url(#SVGID_5_);}
	.st4{fill:url(#SVGID_6_);}
	.st5{fill:url(#SVGID_7_);stroke:url(#SVGID_8_);stroke-miterlimit:10;}
	.st6{fill:url(#SVGID_9_);}
	.st7{opacity:0.67;fill:#F4EDED;}
</style>
<g>
	<linearGradient id="SVGID_1_" gradientUnits="userSpaceOnUse" x1="2033.8567" y1="-995.4394" x2="1919.7034" y2="-1193.1588">
		<stop  offset="0" style="stop-color:#FFFFFF"/>
		<stop  offset="1" style="stop-color:#000000"/>
	</linearGradient>
	<linearGradient id="SVGID_2_" gradientUnits="userSpaceOnUse" x1="2034.1067" y1="-995.0063" x2="1919.4534" y2="-1193.5918">
		<stop  offset="0" style="stop-color:#FFFFFF"/>
		<stop  offset="1" style="stop-color:#000000;stop-opacity:0.5"/>
	</linearGradient>
	<path class="st0" d="M2090.9-1094.2c0,63-51,114-114,114c-151.2-6-151.2-222,0-228C2039.9-1208.3,2090.9-1157.2,2090.9-1094.2z"/>
	<g>
		
			<image style="overflow:visible;" width="434" height="427" xlink:href="A04F8DC4.png"  transform="matrix(0.24 0 0 0.24 1924.8 -1142.64)">
		</image>
	</g>
	<g>
		<linearGradient id="SVGID_3_" gradientUnits="userSpaceOnUse" x1="1916.3401" y1="-1158.4834" x2="1877.0735" y2="-1226.4951">
			<stop  offset="0" style="stop-color:#FFFFFF"/>
			<stop  offset="1" style="stop-color:#000000"/>
		</linearGradient>
		<path class="st1" d="M1935.2-1200.4c-3.6-17.9-19.5-31.3-38.4-31.3c-42.8,0.6-54,58.3-15.4,75.2
			C1894.2-1176.1,1913-1191.6,1935.2-1200.4z"/>
		<g>
			
				<image style="overflow:visible;" width="528" height="497" xlink:href="A04F8DC5.png"  transform="matrix(0.24 0 0 0.24 1845.36 -1236.48)">
			</image>
		</g>
	</g>
	<g>
		<linearGradient id="SVGID_4_" gradientUnits="userSpaceOnUse" x1="2080.8076" y1="-1161.4272" x2="2041.6166" y2="-1229.3081">
			<stop  offset="0" style="stop-color:#FFFFFF"/>
			<stop  offset="1" style="stop-color:#000000"/>
		</linearGradient>
		<path class="st2" d="M2072.2-1156.8c38.9-16.8,27.8-74.7-15.1-75.3c-19.1,0-35,13.7-38.5,31.8
			C2040.7-1191.7,2059.4-1176.4,2072.2-1156.8z"/>
		<g>
			
				<image style="overflow:visible;" width="528" height="495" xlink:href="A04F8DC3.png"  transform="matrix(0.24 0 0 0.24 1981.6801 -1236.48)">
			</image>
		</g>
	</g>
</g>
<g>
	
		<image style="overflow:visible;" width="1001" height="454" xlink:href="A04F8DCC.png"  transform="matrix(0.24 0 0 0.24 1856.88 -1053.36)">
	</image>
</g>
<linearGradient id="SVGID_5_" gradientUnits="userSpaceOnUse" x1="1793.033" y1="-882.003" x2="2160.8367" y2="-882.003">
	<stop  offset="0" style="stop-color:#FFFFFF"/>
	<stop  offset="1" style="stop-color:#000000"/>
</linearGradient>
<path class="st3" d="M2113.6-927.1c60.7,1.6,63.7-87.6,3.3-90.1c0,0-55.9,0-55.9,0c-43.2,48.9-124.9,48.9-168.1,0H1837
	c-25-0.1-45.1,21.3-43.9,46.3c0,24.1,19.7,43.9,43.9,43.9c25.2-1.6,47.2,18.4,47.2,43.9c1.2,24.9-18.8,46.3-43.9,46.3
	c-26.2-1.8-48.6,20-47.2,46.3c0,24.1,19.7,43.9,43.9,43.9c0,0,279.9,0,279.9,0c24.1,0,43.9-19.7,43.9-43.9c1.4-26.3-21-48-47.2-46.3
	c-24.1,0-43.9-19.7-43.9-43.9C2068.5-905.7,2088.6-927.1,2113.6-927.1z"/>
<g>
	<linearGradient id="SVGID_6_" gradientUnits="userSpaceOnUse" x1="373.2289" y1="173.9265" x2="345.5046" y2="438.7666">
		<stop  offset="0" style="stop-color:#F2D432"/>
		<stop  offset="1" style="stop-color:#DEB800"/>
	</linearGradient>
	<path class="st4" d="M394.4,448.4c53.5-49.9,107-99.8,160.4-149.6c-0.6-5.5-3.1-10.7-7.1-14.6L380.9,122.3c-9-8.8-23.4-9-32.6-0.4
		C289.8,176,231.4,230.1,172.9,284.2c-4.2,3.9-6.8,9.1-7.4,14.7c54,49.9,108.1,99.8,162.1,149.8C346.5,466,375.6,465.9,394.4,448.4z
		"/>
	<linearGradient id="SVGID_7_" gradientUnits="userSpaceOnUse" x1="262.915" y1="610.0606" x2="530.0645" y2="-9.863">
		<stop  offset="0" style="stop-color:#DEB800;stop-opacity:0.5"/>
		<stop  offset="1" style="stop-color:#F4F0EF;stop-opacity:0.5"/>
	</linearGradient>
	<linearGradient id="SVGID_8_" gradientUnits="userSpaceOnUse" x1="488.3607" y1="602.7731" x2="233.7751" y2="161.8179">
		<stop  offset="0" style="stop-color:#DEB800;stop-opacity:0.5"/>
		<stop  offset="1" style="stop-color:#F4F0EF;stop-opacity:0.3"/>
	</linearGradient>
	<path class="st5" d="M474.1,604.2h-226c-22.5,0-40.8-18.4-40.8-40.8V201.2c0-22.5,18.4-40.8,40.8-40.8h226
		c22.5,0,40.8,18.4,40.8,40.8v362.1C514.9,585.8,496.5,604.2,474.1,604.2z"/>
	<linearGradient id="SVGID_9_" gradientUnits="userSpaceOnUse" x1="164.8243" y1="451.6039" x2="555.1757" y2="451.6039">
		<stop  offset="0" style="stop-color:#F2D432"/>
		<stop  offset="1" style="stop-color:#DEB800"/>
	</linearGradient>
	<path class="st6" d="M394.4,448.4c-18.8,17.5-48,17.6-66.8,0.2c-54-49.9-108.1-99.8-162.1-149.8c-1.8,3.8,1,278.2-0.2,281.9
		c0,13.1,10.6,23.7,23.7,23.7h342.2c13.1,0,23.7-10.6,23.7-23.7c-1.1-4.6,1-277.2-0.1-281.9C501.4,348.7,447.9,398.5,394.4,448.4z"
		/>
	<path class="st7" d="M452.7,227.2H268.5c-2.9,0-5.3-2.4-5.3-5.3v-4.3c0-2.9,2.4-5.3,5.3-5.3h184.3c2.9,0,5.3,2.4,5.3,5.3v4.3
		C458,224.8,455.6,227.2,452.7,227.2z"/>
	<path class="st7" d="M452.7,294.3H268.5c-2.9,0-5.3-2.4-5.3-5.3v-4.3c0-2.9,2.4-5.3,5.3-5.3h184.3c2.9,0,5.3,2.4,5.3,5.3v4.3
		C458,291.9,455.6,294.3,452.7,294.3z"/>
	<path class="st7" d="M452.7,361.4H268.5c-2.9,0-5.3-2.4-5.3-5.3v-4.3c0-2.9,2.4-5.3,5.3-5.3h184.3c2.9,0,5.3,2.4,5.3,5.3v4.3
		C458,359,455.6,361.4,452.7,361.4z"/>
</g>
</svg>
