<?xml version="1.0" encoding="utf-8"?>
<!-- Generator: Adobe Illustrator 25.0.1, SVG Export Plug-In . SVG Version: 6.00 Build 0)  -->
<svg version="1.1" id="Layer_1" xmlns="http://www.w3.org/2000/svg" xmlns:xlink="http://www.w3.org/1999/xlink" x="0px" y="0px"
	 viewBox="0 0 720 720" style="enable-background:new 0 0 720 720;" xml:space="preserve">
<style type="text/css">
	.st0{fill:url(#SVGID_1_);stroke:url(#SVGID_2_);stroke-miterlimit:10;}
	.st1{fill:url(#SVGID_3_);}
	.st2{fill:url(#SVGID_4_);}
	.st3{fill:url(#SVGID_5_);}
</style>
<g>
	<g>
		<linearGradient id="SVGID_1_" gradientUnits="userSpaceOnUse" x1="417.889" y1="353.949" x2="301.7962" y2="152.8704">
			<stop  offset="0" style="stop-color:#DEB800;stop-opacity:0.5"/>
			<stop  offset="1" style="stop-color:#F4F0EF;stop-opacity:0.5"/>
		</linearGradient>
		<linearGradient id="SVGID_2_" gradientUnits="userSpaceOnUse" x1="418.139" y1="354.382" x2="301.5462" y2="152.4374">
			<stop  offset="0" style="stop-color:#DEB800;stop-opacity:0.5"/>
			<stop  offset="1" style="stop-color:#F4F0EF;stop-opacity:0.3"/>
		</linearGradient>
		<path class="st0" d="M475.9,253.5c0,64-51.9,115.9-115.9,115.9c-153.8-6.1-153.8-225.8,0-231.9C424,137.5,475.9,189.4,475.9,253.5
			z"/>
		<g>
			
				<image style="overflow:visible;" width="436" height="429" xlink:href="14F21440.png"  transform="matrix(0.24 0 0 0.24 307.68 204.96)">
			</image>
		</g>
		<g>
			<linearGradient id="SVGID_3_" gradientUnits="userSpaceOnUse" x1="298.3758" y1="188.135" x2="258.442" y2="118.9677">
				<stop  offset="0" style="stop-color:#F2D432"/>
				<stop  offset="1" style="stop-color:#DEB800"/>
			</linearGradient>
			<path class="st1" d="M317.5,145.5c-3.7-18.2-19.8-31.8-39-31.8c-43.5,0.7-54.9,59.3-15.7,76.5C275.9,170.2,295,154.4,317.5,145.5
				z"/>
			<g>
				
					<image style="overflow:visible;" width="532" height="501" xlink:href="14F21441.png"  transform="matrix(0.24 0 0 0.24 226.8 109.44)">
				</image>
			</g>
		</g>
		<g>
			<linearGradient id="SVGID_4_" gradientUnits="userSpaceOnUse" x1="465.6376" y1="185.1411" x2="425.7807" y2="116.1069">
				<stop  offset="0" style="stop-color:#F2D432"/>
				<stop  offset="1" style="stop-color:#DEB800"/>
			</linearGradient>
			<path class="st2" d="M456.9,189.8c39.5-17.1,28.3-76-15.4-76.6c-19.4,0-35.6,13.9-39.1,32.3C424.8,154.3,443.8,169.9,456.9,189.8
				z"/>
			<g>
				
					<image style="overflow:visible;" width="531" height="498" xlink:href="14F21447.png"  transform="matrix(0.24 0 0 0.24 365.52 109.44)">
				</image>
			</g>
		</g>
	</g>
	<g>
		
			<image style="overflow:visible;" width="1014" height="457" xlink:href="14F21442.png"  transform="matrix(0.24 0 0 0.24 238.32 295.68)">
		</image>
	</g>
	<linearGradient id="SVGID_5_" gradientUnits="userSpaceOnUse" x1="172.9737" y1="469.3126" x2="547.0262" y2="469.3126">
		<stop  offset="0" style="stop-color:#F2D432"/>
		<stop  offset="1" style="stop-color:#DEB800"/>
	</linearGradient>
	<path class="st3" d="M499,423.5c61.8,1.6,64.8-89.1,3.3-91.7c0,0-56.9,0-56.9,0c-43.9,49.8-127,49.8-170.9,0h-56.9
		c-25.5-0.1-45.9,21.7-44.6,47c0,24.5,20.1,44.6,44.6,44.6c25.7-1.6,48,18.8,48,44.6c1.3,25.4-19.1,47.1-44.6,47
		c-26.6-1.8-49.4,20.3-48,47c0,24.5,20.1,44.6,44.6,44.6h284.7c24.5,0,44.6-20.1,44.6-44.6c1.4-26.7-21.3-48.8-48-47
		c-24.5,0-44.6-20.1-44.6-44.6C453.1,445.2,473.5,423.4,499,423.5z"/>
</g>
</svg>
