<?xml version="1.0" encoding="utf-8"?>
<!-- Generator: Adobe Illustrator 25.0.1, SVG Export Plug-In . SVG Version: 6.00 Build 0)  -->
<svg version="1.1" id="Layer_1" xmlns="http://www.w3.org/2000/svg" xmlns:xlink="http://www.w3.org/1999/xlink" x="0px" y="0px"
	 viewBox="0 0 720 720" style="enable-background:new 0 0 720 720;" xml:space="preserve">
<style type="text/css">
	.st0{opacity:0.38;fill:url(#SVGID_1_);stroke:url(#SVGID_2_);stroke-miterlimit:10;}
	.st1{fill:url(#SVGID_3_);}
	.st2{fill:url(#SVGID_4_);}
	.st3{fill:url(#SVGID_5_);}
	.st4{opacity:0.38;fill:url(#SVGID_6_);stroke:url(#SVGID_7_);stroke-miterlimit:10;}
	.st5{fill:url(#SVGID_8_);}
	.st6{fill:url(#SVGID_9_);}
	.st7{fill:url(#SVGID_10_);}
</style>
<g>
	<g>
		<linearGradient id="SVGID_1_" gradientUnits="userSpaceOnUse" x1="416.9219" y1="354.0501" x2="302.7686" y2="156.3307">
			<stop  offset="0" style="stop-color:#FFFFFF"/>
			<stop  offset="1" style="stop-color:#000000"/>
		</linearGradient>
		<linearGradient id="SVGID_2_" gradientUnits="userSpaceOnUse" x1="417.1719" y1="354.4831" x2="302.5186" y2="155.8977">
			<stop  offset="0" style="stop-color:#FFFFFF"/>
			<stop  offset="1" style="stop-color:#000000;stop-opacity:0.5"/>
		</linearGradient>
		<path class="st0" d="M474,255.2c0,63-51,114-114,114c-151.2-6-151.2-222,0-228C423,141.2,474,192.3,474,255.2z"/>
		<g>
			
				<image style="overflow:visible;" width="434" height="427" xlink:href="7DC771CB.png"  transform="matrix(0.24 0 0 0.24 307.92 206.88)">
			</image>
		</g>
		<g>
			<linearGradient id="SVGID_3_" gradientUnits="userSpaceOnUse" x1="299.4053" y1="191.0061" x2="260.1387" y2="122.9943">
				<stop  offset="0" style="stop-color:#FFFFFF"/>
				<stop  offset="1" style="stop-color:#000000"/>
			</linearGradient>
			<path class="st1" d="M318.2,149.1c-3.6-17.9-19.5-31.3-38.4-31.3c-42.8,0.6-54,58.3-15.4,75.2
				C277.3,173.4,296.1,157.9,318.2,149.1z"/>
			<g>
				
					<image style="overflow:visible;" width="529" height="497" xlink:href="7DC771C9.png"  transform="matrix(0.24 0 0 0.24 228.24 113.04)">
				</image>
			</g>
		</g>
		<g>
			<linearGradient id="SVGID_4_" gradientUnits="userSpaceOnUse" x1="463.8729" y1="188.0623" x2="424.6818" y2="120.1813">
				<stop  offset="0" style="stop-color:#FFFFFF"/>
				<stop  offset="1" style="stop-color:#000000"/>
			</linearGradient>
			<path class="st2" d="M455.3,192.7c38.9-16.8,27.8-74.7-15.1-75.3c-19.1,0-35,13.7-38.5,31.8C423.7,157.8,442.4,173.1,455.3,192.7
				z"/>
			<g>
				
					<image style="overflow:visible;" width="528" height="495" xlink:href="7DC771CF.png"  transform="matrix(0.24 0 0 0.24 364.8 113.04)">
				</image>
			</g>
		</g>
	</g>
	<g>
		
			<image style="overflow:visible;" width="1002" height="454" xlink:href="7DC771C8.png"  transform="matrix(0.24 0 0 0.24 239.76 296.16)">
		</image>
	</g>
	<linearGradient id="SVGID_5_" gradientUnits="userSpaceOnUse" x1="176.0982" y1="467.4865" x2="543.9019" y2="467.4865">
		<stop  offset="0" style="stop-color:#FFFFFF"/>
		<stop  offset="1" style="stop-color:#000000"/>
	</linearGradient>
	<path class="st3" d="M496.7,422.4c60.7,1.6,63.7-87.6,3.3-90.1c0,0-55.9,0-55.9,0c-43.2,48.9-124.9,48.9-168.1,0H220
		c-25-0.1-45.1,21.3-43.9,46.3c0,24.1,19.7,43.9,43.9,43.9c25.2-1.6,47.2,18.4,47.2,43.9c1.2,24.9-18.8,46.3-43.9,46.3
		c-26.2-1.8-48.6,20-47.2,46.3c0,24.1,19.7,43.9,43.9,43.9c0,0,279.9,0,279.9,0c24.1,0,43.9-19.7,43.9-43.9
		c1.4-26.3-21-48-47.2-46.3c-24.1,0-43.9-19.7-43.9-43.9C451.6,443.7,471.6,422.3,496.7,422.4z"/>
</g>
<g>
	<linearGradient id="SVGID_6_" gradientUnits="userSpaceOnUse" x1="2033.8567" y1="-995.4394" x2="1919.7034" y2="-1193.1588">
		<stop  offset="0" style="stop-color:#FFFFFF"/>
		<stop  offset="1" style="stop-color:#000000"/>
	</linearGradient>
	<linearGradient id="SVGID_7_" gradientUnits="userSpaceOnUse" x1="2034.1067" y1="-995.0063" x2="1919.4534" y2="-1193.5918">
		<stop  offset="0" style="stop-color:#FFFFFF"/>
		<stop  offset="1" style="stop-color:#000000;stop-opacity:0.5"/>
	</linearGradient>
	<path class="st4" d="M2090.9-1094.2c0,63-51,114-114,114c-151.2-6-151.2-222,0-228C2039.9-1208.3,2090.9-1157.2,2090.9-1094.2z"/>
	<g>
		
			<image style="overflow:visible;" width="434" height="427" xlink:href="7DC771C6.png"  transform="matrix(0.24 0 0 0.24 1924.8 -1142.64)">
		</image>
	</g>
	<g>
		<linearGradient id="SVGID_8_" gradientUnits="userSpaceOnUse" x1="1916.3401" y1="-1158.4834" x2="1877.0735" y2="-1226.4951">
			<stop  offset="0" style="stop-color:#FFFFFF"/>
			<stop  offset="1" style="stop-color:#000000"/>
		</linearGradient>
		<path class="st5" d="M1935.2-1200.4c-3.6-17.9-19.5-31.3-38.4-31.3c-42.8,0.6-54,58.3-15.4,75.2
			C1894.2-1176.1,1913-1191.6,1935.2-1200.4z"/>
		<g>
			
				<image style="overflow:visible;" width="528" height="497" xlink:href="7DC771C7.png"  transform="matrix(0.24 0 0 0.24 1845.36 -1236.48)">
			</image>
		</g>
	</g>
	<g>
		<linearGradient id="SVGID_9_" gradientUnits="userSpaceOnUse" x1="2080.8076" y1="-1161.4272" x2="2041.6166" y2="-1229.3081">
			<stop  offset="0" style="stop-color:#FFFFFF"/>
			<stop  offset="1" style="stop-color:#000000"/>
		</linearGradient>
		<path class="st6" d="M2072.2-1156.8c38.9-16.8,27.8-74.7-15.1-75.3c-19.1,0-35,13.7-38.5,31.8
			C2040.7-1191.7,2059.4-1176.4,2072.2-1156.8z"/>
		<g>
			
				<image style="overflow:visible;" width="528" height="495" xlink:href="7DC771D7.png"  transform="matrix(0.24 0 0 0.24 1981.6801 -1236.48)">
			</image>
		</g>
	</g>
</g>
<g>
	
		<image style="overflow:visible;" width="1001" height="454" xlink:href="7DC771D9.png"  transform="matrix(0.24 0 0 0.24 1856.88 -1053.36)">
	</image>
</g>
<linearGradient id="SVGID_10_" gradientUnits="userSpaceOnUse" x1="1793.033" y1="-882.003" x2="2160.8367" y2="-882.003">
	<stop  offset="0" style="stop-color:#FFFFFF"/>
	<stop  offset="1" style="stop-color:#000000"/>
</linearGradient>
<path class="st7" d="M2113.6-927.1c60.7,1.6,63.7-87.6,3.3-90.1c0,0-55.9,0-55.9,0c-43.2,48.9-124.9,48.9-168.1,0H1837
	c-25-0.1-45.1,21.3-43.9,46.3c0,24.1,19.7,43.9,43.9,43.9c25.2-1.6,47.2,18.4,47.2,43.9c1.2,24.9-18.8,46.3-43.9,46.3
	c-26.2-1.8-48.6,20-47.2,46.3c0,24.1,19.7,43.9,43.9,43.9c0,0,279.9,0,279.9,0c24.1,0,43.9-19.7,43.9-43.9c1.4-26.3-21-48-47.2-46.3
	c-24.1,0-43.9-19.7-43.9-43.9C2068.5-905.7,2088.6-927.1,2113.6-927.1z"/>
</svg>
