<?xml version="1.0" encoding="utf-8"?>
<!-- Generator: Adobe Illustrator 25.0.1, SVG Export Plug-In . SVG Version: 6.00 Build 0)  -->
<svg version="1.1" id="Layer_1" xmlns="http://www.w3.org/2000/svg" xmlns:xlink="http://www.w3.org/1999/xlink" x="0px" y="0px"
	 viewBox="0 0 720 720" style="enable-background:new 0 0 720 720;" xml:space="preserve">
<style type="text/css">
	.st0{fill:url(#SVGID_1_);stroke:url(#SVGID_2_);stroke-linejoin:round;stroke-miterlimit:10;}
	.st1{fill:url(#SVGID_3_);}
	.st2{fill:url(#SVGID_4_);}
	.st3{fill:url(#SVGID_5_);}
</style>
<g>
	<g>
		<linearGradient id="SVGID_1_" gradientUnits="userSpaceOnUse" x1="416.9481" y1="354.003" x2="303.0517" y2="156.7287">
			<stop  offset="0" style="stop-color:#F4F0EF"/>
			<stop  offset="0.9985" style="stop-color:#B27149;stop-opacity:0.5"/>
		</linearGradient>
		<linearGradient id="SVGID_2_" gradientUnits="userSpaceOnUse" x1="417.1981" y1="354.436" x2="302.8017" y2="156.2956">
			<stop  offset="0" style="stop-color:#F4F0EF"/>
			<stop  offset="0.9985" style="stop-color:#B27149;stop-opacity:0.5"/>
		</linearGradient>
		<circle class="st0" cx="360" cy="255.4" r="113.9"/>
		<g>
			
				<image style="overflow:visible;" width="434" height="426" xlink:href="A7FE4244.png"  transform="matrix(0.24 0 0 0.24 307.92 207.12)">
			</image>
		</g>
		<g>
			<linearGradient id="SVGID_3_" gradientUnits="userSpaceOnUse" x1="299.5063" y1="191.1545" x2="260.3544" y2="123.3415">
				<stop  offset="0" style="stop-color:#BC896F"/>
				<stop  offset="0.9985" style="stop-color:#B27149"/>
			</linearGradient>
			<path class="st1" d="M318.3,149.4c-3.6-17.8-19.4-31.3-38.4-31.3c-21.6,0-39.1,17.5-39.1,39.1c0,16.2,9.8,30,23.8,36
				C277.4,173.6,296.1,158.1,318.3,149.4z"/>
			<g>
				
					<image style="overflow:visible;" width="528" height="497" xlink:href="A7FE4245.png"  transform="matrix(0.24 0 0 0.24 228.48 113.28)">
				</image>
			</g>
		</g>
		<g>
			<linearGradient id="SVGID_4_" gradientUnits="userSpaceOnUse" x1="463.7857" y1="188.2531" x2="424.6364" y2="120.4443">
				<stop  offset="0" style="stop-color:#BC896F"/>
				<stop  offset="0.9985" style="stop-color:#B27149"/>
			</linearGradient>
			<path class="st2" d="M455.2,192.9c14.1-5.9,24-19.9,24-36.1c0-21.6-17.5-39.1-39.1-39.1c-19.1,0-35,13.7-38.4,31.7
				C423.7,158,442.3,173.3,455.2,192.9z"/>
			<g>
				
					<image style="overflow:visible;" width="527" height="495" xlink:href="A7FE4243.png"  transform="matrix(0.24 0 0 0.24 364.8 113.28)">
				</image>
			</g>
		</g>
	</g>
	<g>
		
			<image style="overflow:visible;" width="1000" height="455" xlink:href="A7FE424C.png"  transform="matrix(0.24 0 0 0.24 240 296.16)">
		</image>
	</g>
	<linearGradient id="SVGID_5_" gradientUnits="userSpaceOnUse" x1="176.3748" y1="467.3607" x2="543.6252" y2="467.3607">
		<stop  offset="0" style="stop-color:#BC896F"/>
		<stop  offset="0.9985" style="stop-color:#B27149"/>
	</linearGradient>
	<path class="st3" d="M496.5,422.3h3.3c24.1,0,43.8-19.7,43.8-43.8v-2.4c0-24.1-19.7-43.8-43.8-43.8h-55.9
		c-20.8,22.7-50.7,36.9-83.9,36.9s-63.1-14.2-83.9-36.9h-55.9c-24.1,0-43.8,19.7-43.8,43.8v2.4c0,24.1,19.7,43.8,43.8,43.8h3.3
		c24.1,0,43.8,19.7,43.8,43.8v2.4c0,24.1-19.7,43.8-43.8,43.8h-3.3c-24.1,0-43.8,19.7-43.8,43.8v2.4c0,24.1,19.7,43.8,43.8,43.8
		h279.6c24.1,0,43.8-19.7,43.8-43.8v-2.4c0-24.1-19.7-43.8-43.8-43.8h-3.3c-24.1,0-43.8-19.7-43.8-43.8v-2.4
		C452.7,442.1,472.4,422.3,496.5,422.3z"/>
</g>
</svg>
