<?xml version="1.0" encoding="utf-8"?>
<!-- Generator: Adobe Illustrator 25.0.1, SVG Export Plug-In . SVG Version: 6.00 Build 0)  -->
<svg version="1.1" id="Layer_1" xmlns="http://www.w3.org/2000/svg" xmlns:xlink="http://www.w3.org/1999/xlink" x="0px" y="0px"
	 viewBox="0 0 720 720" style="enable-background:new 0 0 720 720;" xml:space="preserve">
<style type="text/css">
	.st0{fill:url(#SVGID_1_);}
	.st1{fill:url(#SVGID_2_);stroke:url(#SVGID_3_);stroke-miterlimit:10;}
	.st2{fill:url(#SVGID_4_);stroke:url(#SVGID_5_);stroke-miterlimit:10;}
</style>
<g>
	
		<linearGradient id="SVGID_1_" gradientUnits="userSpaceOnUse" x1="996.5328" y1="-637.1129" x2="868.0054" y2="-859.7288" gradientTransform="matrix(0.7071 -0.7071 0.7071 0.7071 375.5672 1693.5099)">
		<stop  offset="0" style="stop-color:#F2D432"/>
		<stop  offset="1" style="stop-color:#DEB800"/>
	</linearGradient>
	<path class="st0" d="M603.7,603.2c-24.3,24.3-64.1,24.3-88.5,0L407.4,495.4c-24.3-24.3-24.3-64.1,0-88.5
		c24.3-24.3,64.1-24.3,88.5,0l107.8,107.8C628,539.1,628,578.9,603.7,603.2z"/>
	
		<linearGradient id="SVGID_2_" gradientUnits="userSpaceOnUse" x1="1035.015" y1="-853.9803" x2="828.9619" y2="-1210.8748" gradientTransform="matrix(0.7071 -0.7071 0.7071 0.7071 375.5672 1693.5099)">
		<stop  offset="0" style="stop-color:#DEB800;stop-opacity:0.5"/>
		<stop  offset="1" style="stop-color:#F4F0EF;stop-opacity:0.5"/>
	</linearGradient>
	
		<linearGradient id="SVGID_3_" gradientUnits="userSpaceOnUse" x1="727.0602" y1="-1032.3325" x2="1138.5651" y2="-1032.3325" gradientTransform="matrix(0.7071 -0.7071 0.7071 0.7071 375.5672 1693.5099)">
		<stop  offset="0" style="stop-color:#DEB800;stop-opacity:0.5"/>
		<stop  offset="1" style="stop-color:#F4F0EF;stop-opacity:0.3"/>
	</linearGradient>
	<path class="st1" d="M450.3,158.8c80.4,80.4,80.4,210.7,0,291c-200.7,185.4-476.4-90.4-291-291C239.7,78.4,370,78.4,450.3,158.8z"
		/>
	
		<linearGradient id="SVGID_4_" gradientUnits="userSpaceOnUse" x1="1004.8557" y1="-906.3326" x2="859.2859" y2="-1158.4666" gradientTransform="matrix(0.7071 -0.7071 0.7071 0.7071 375.5672 1693.5099)">
		<stop  offset="0" style="stop-color:#DEB800;stop-opacity:0.5"/>
		<stop  offset="1" style="stop-color:#F4F0EF;stop-opacity:0.5"/>
	</linearGradient>
	
		<linearGradient id="SVGID_5_" gradientUnits="userSpaceOnUse" x1="787.1491" y1="-1032.3324" x2="1078.1571" y2="-1032.3324" gradientTransform="matrix(0.7071 -0.7071 0.7071 0.7071 375.5672 1693.5099)">
		<stop  offset="0" style="stop-color:#DEB800;stop-opacity:0.5"/>
		<stop  offset="1" style="stop-color:#F4F0EF;stop-opacity:0.3"/>
	</linearGradient>
	<path class="st2" d="M407.6,201.5c56.8,56.8,56.8,148.8,0,205.6C265.8,538.1,71.1,343.2,202,201.5
		C258.8,144.7,350.8,144.7,407.6,201.5z"/>
</g>
</svg>
