<?xml version="1.0" encoding="utf-8"?>
<!-- Generator: Adobe Illustrator 25.0.1, SVG Export Plug-In . SVG Version: 6.00 Build 0)  -->
<svg version="1.1" id="Layer_1" xmlns="http://www.w3.org/2000/svg" xmlns:xlink="http://www.w3.org/1999/xlink" x="0px" y="0px"
	 viewBox="0 0 1080 1080" style="enable-background:new 0 0 1080 1080;" xml:space="preserve">
<style type="text/css">
	.st0{fill:#FFFFFF;}
</style>
<g>
	<path class="st0" d="M512.5,397.8c-2.5,0-3.8,0-5.6,0c-45.7,0-88.3,16.9-120.9,47.6c-33.8,32-53.9,75.8-55.1,123.4
		c-1.2,47.6,15.7,92.7,47.6,126.6c32,33.8,75.8,53.9,123.4,55.1s92.7-15.7,126.6-47.6s53.9-75.8,55.1-123.4
		c1.2-47.6-15.7-92.7-47.6-126.6C603.9,419.1,560.1,399,512.5,397.8z M663.5,587.6l-43.2,0.6c-1.9,20.7-10,40.7-23.2,57l30.7,30.7
		L609,694.8l-30.7-30.7c-16.3,12.5-36.3,20.7-57,23.2v43.9h-26.9v-43.9c-20.7-1.9-40.7-10-57-23.2l-30.7,30.7L387.8,676l30.7-30.7
		c-13.2-16.3-21.3-36.3-23.8-57h-43.9v-26.9h43.9c1.9-20.7,10-40.7,23.2-57l-30.7-30.7l18.8-18.8l30.7,30.7
		c16.3-13.2,36.3-21.3,57-23.8v-43.9h26.9v43.9c20.7,1.9,40.7,10,57,23.2l30.7-30.7l18.8,18.8l-30.7,30.7
		c12.5,16.3,20.7,36.3,23.2,57h43.9V587.6z"/>
	<path class="st0" d="M509.3,488c-0.6,0-1.9,0-2.5,0c-22.5,0-43.2,8.8-59.5,23.8c-16.9,15.7-26.3,37.6-26.9,60.8
		c-1.3,23.2,7.5,45.1,23.2,62c15.7,16.9,37.6,26.3,60.8,26.9s45.1-8.2,62-23.8c16.9-16.3,26.9-37.6,26.9-60.8
		c1.3-23.2-7.5-45.1-23.2-62C554.4,498,532.5,488.6,509.3,488z"/>
	<path class="st0" d="M804.5,262.4c36.3,33.8,60.1,78.3,67.7,129.7c3.1,18.8,3.8,37.6,1.9,57c52.6-73.9,51.4-172.3-8.2-232.5
		c-30.1-30.7-72.1-47.6-117.8-47.6c-40.1,0-80.2,13.2-114,36.4c5.6-0.6,11.9-0.6,17.5-0.6C709.8,204.8,763.7,225.5,804.5,262.4z"/>
	<path class="st0" d="M785,283.7c-35.7-33.2-83.3-50.1-133.5-50.1c-26,0-53.1,4.6-79.2,14.1L832,507.4
		C861.5,425.5,843.8,338,785,283.7z"/>
	<path class="st0" d="M530.6,246.8c-12.5-12.5-32.6-12.5-45.1,0L181,551.3c-12.5,12.5-12.5,32.6,0,45.1l304.5,304.5
		c6.3,6.3,13.8,9.4,22.6,9.4c8.8,0,16.3-3.1,22.6-9.4l304.5-304.5c12.5-12.5,12.5-32.6,0-45.1L530.6,246.8z M711.7,580.1
		c-1.9,55.1-24.4,105.9-63.9,143.5c-38.2,36.3-87.7,55.8-141,55.8c-1.9,0-4.4,0-6.3,0c-55.1-1.9-105.9-24.4-143.5-63.9
		s-57-92.1-55.8-147.2c1.9-55.1,24.4-105.9,63.9-143.5c39.5-37.6,92.1-57,147.2-55.8c55.1,1.9,105.9,24.4,143.5,63.9
		C693.5,472.3,713,525,711.7,580.1z"/>
	<path class="st0" d="M958-0.4H125.7C57.3-0.4,1.4,55.5,1.4,123.9v832.2c0,68.4,55.9,124.3,124.3,124.3H958
		c68.4,0,124.3-55.9,124.3-124.3V123.9C1082.3,55.5,1026.3-0.4,958-0.4z M855.8,531.2c23.8,23.8,23.8,62,0,85.8L551.3,921.6
		c-11.9,11.3-26.9,17.5-43.2,17.5c-16.3,0-31.3-6.3-42.6-17.5L161,617.1c-23.8-23.8-23.8-62,0-85.8l304.5-304.5
		c23.8-23.8,62-23.8,85.8,0l9.8,9.8c7-9.3,14.8-18.2,23.4-26.8c46.4-45.7,105.9-68.9,163.5-68.9c51.4,0,100.9,18.2,137.9,55.8
		c79,80.2,71.4,214.9-16.3,302c-7.9,7.9-16.2,15.1-24.7,21.6L855.8,531.2z"/>
</g>
</svg>
