<?xml version="1.0" encoding="utf-8"?>
<!-- Generator: Adobe Illustrator 25.0.1, SVG Export Plug-In . SVG Version: 6.00 Build 0)  -->
<svg version="1.1" id="Layer_1" xmlns="http://www.w3.org/2000/svg" xmlns:xlink="http://www.w3.org/1999/xlink" x="0px" y="0px"
	 viewBox="0 0 1080 1080" style="enable-background:new 0 0 1080 1080;" xml:space="preserve">
<style type="text/css">
	.st0{fill:#FFFFFF;}
</style>
<g>
	<path class="st0" d="M813.2,48.7c60.6,0,116.2,22.4,156,63.1c78.8,79.7,80.5,210,10.8,307.9c2.5-25.7,1.7-50.6-2.5-75.5
		c-10-68.1-41.5-127-89.6-171.8c-54-49-125.3-76.4-202.5-76.4c-7.5,0-15.8,0-23.2,0.8C706.9,66.1,760,48.7,813.2,48.7 M813.2,11.3
		c-76.4,0-155.2,30.7-216.6,91.3c-19.9,19.9-36.5,41.5-50.6,63.9c0.8,0,3.3-0.8,5.8-1.7c43.2-20.8,89.6-30.7,133.6-30.7
		c66.4,0,129.5,22.4,176.8,66.4c85.5,78.9,105.4,210.8,49,327.8c-0.8,3.3-1.7,5.8-1.7,6.6c23.2-13.3,44.8-29.9,64.7-49.8
		c116.2-115.4,126.2-293.8,21.6-400C946.8,35.4,881.2,11.3,813.2,11.3"/>
	<path class="st0" d="M495.3,1068.7c-21.6,0-41.5-8.3-56.4-23.2L35.5,642.1c-31.5-31.5-31.5-82.2,0-113.7L438.8,125
		c31.5-31.5,82.2-31.5,113.7,0l403.4,403.4c31.5,31.5,31.5,82.2,0,113.7l-403.4,403.4C536.8,1060.4,516.9,1068.7,495.3,1068.7
		 M465.4,1018.1c8.3,8.3,18.3,12.5,29.9,12.5s21.6-4.2,29.9-12.5l403.4-403.4c16.6-16.6,16.6-43.2,0-59.8L525.2,151.6
		c-16.6-16.6-43.2-16.6-59.8,0L62,554.9c-16.6,16.6-16.6,43.2,0,59.8L465.4,1018.1z"/>
	<path class="st0" d="M493.6,857c-2.5,0-5.8,0-8.3,0c-73-2.5-140.3-32.4-190.1-84.7c-49.8-52.3-75.5-122-73.9-195
		c2.5-73,32.4-140.3,84.7-190.1s122-75.5,195-73.9c73,2.5,140.3,32.4,190.1,84.7s75.5,122,73.9,195c-2.5,73-32.4,140.3-84.7,190.1
		C629.7,831.3,564.2,857,493.6,857 M493.6,351.6c-60.6,0-117,22.4-160.2,63.1c-44.8,42.3-71.4,100.4-73,163.5s20.8,122.8,63.1,167.7
		s100.4,71.4,163.5,73s122.8-20.8,167.7-63.1c44.8-42.3,71.4-100.4,73-163.5s-20.8-122.8-63.1-167.7s-100.4-71.4-163.5-73
		C497.8,351.6,496.1,351.6,493.6,351.6"/>
	<path class="st0" d="M701.1,603.1v-35.7H643c-3.3-27.4-14.1-54-30.7-75.5l40.7-40.7l-24.9-24.9L587.4,467
		c-21.6-17.4-48.1-28.2-75.5-30.7v-58.1h-35.7v58.1c-27.4,3.3-54,14.1-75.5,31.5L360,427.1L335.1,452l40.7,40.7
		c-17.4,21.6-28.2,48.1-30.7,75.5H287v35.7h58.1c3.3,27.4,14.1,54,31.5,75.5l-40.7,40.7l24.9,24.9l40.7-40.7
		c21.6,17.4,48.1,28.2,75.5,30.7v58.1h35.7V735c27.4-3.3,54-14.1,75.5-30.7l40.7,40.7l24.9-24.9l-40.7-40.7
		c17.4-21.6,28.2-48.1,30.7-75.5L701.1,603.1z M572.5,669.5c-22.4,20.8-51.5,32.4-82.2,31.5s-59.8-13.3-80.5-35.7
		s-32.4-51.5-30.7-82.2c0.8-30.7,13.3-59.8,35.7-80.5c21.6-19.9,49-31.5,78.9-31.5c0.8,0,2.5,0,3.3,0c30.7,0.8,59.8,13.3,80.5,35.7
		c20.8,22.4,32.4,51.5,30.7,82.2C608.2,619.7,594.9,647.9,572.5,669.5"/>
</g>
</svg>
