<?xml version="1.0" encoding="utf-8"?>
<!-- Generator: Adobe Illustrator 25.0.1, SVG Export Plug-In . SVG Version: 6.00 Build 0)  -->
<svg version="1.1" id="Layer_1" xmlns="http://www.w3.org/2000/svg" xmlns:xlink="http://www.w3.org/1999/xlink" x="0px" y="0px"
	 viewBox="0 0 1080 1080" style="enable-background:new 0 0 1080 1080;" xml:space="preserve">
<style type="text/css">
	.st0{fill:url(#SVGID_1_);}
	.st1{fill:url(#SVGID_2_);}
	.st2{fill:url(#SVGID_3_);}
	.st3{fill:url(#SVGID_4_);}
</style>
<g>
	<linearGradient id="SVGID_1_" gradientUnits="userSpaceOnUse" x1="545.9101" y1="273.1621" x2="1068.1802" y2="273.1621">
		<stop  offset="0" style="stop-color:#718216"/>
		<stop  offset="1" style="stop-color:#AEBA48"/>
	</linearGradient>
	<path class="st0" d="M813.16,48.65c60.59,0,116.2,22.41,156.04,63.08c78.85,79.68,80.51,209.98,10.79,307.92
		c2.49-25.73,1.66-50.63-2.49-75.53c-9.96-68.06-41.5-126.99-89.64-171.81c-53.95-48.97-125.33-76.36-202.51-76.36
		c-7.47,0-15.77,0-23.24,0.83C706.93,66.08,760.04,48.65,813.16,48.65 M813.16,11.3c-76.36,0-155.21,30.71-216.62,91.3
		c-19.92,19.92-36.52,41.5-50.63,63.91c0.83,0,3.32-0.83,5.81-1.66c43.16-20.75,89.64-30.71,133.63-30.71
		c66.4,0,129.48,22.41,176.79,66.4c85.49,78.85,105.41,210.81,48.97,327.84c-0.83,3.32-1.66,5.81-1.66,6.64
		c23.24-13.28,44.82-29.88,64.74-49.8c116.2-115.37,126.16-293.81,21.58-400.05C946.79,35.37,881.22,11.3,813.16,11.3"/>
	<linearGradient id="SVGID_2_" gradientUnits="userSpaceOnUse" x1="11.8198" y1="585.0266" x2="979.5734" y2="585.0266">
		<stop  offset="0" style="stop-color:#718216"/>
		<stop  offset="1" style="stop-color:#AEBA48"/>
	</linearGradient>
	<path class="st1" d="M495.28,1068.7c-21.58,0-41.5-8.3-56.44-23.24L35.47,642.09c-31.54-31.54-31.54-82.17,0-113.71l403.37-403.37
		c31.54-31.54,82.17-31.54,113.71,0l403.37,403.37c31.54,31.54,31.54,82.17,0,113.71l-403.37,403.37
		C536.78,1060.4,516.86,1068.7,495.28,1068.7 M465.4,1018.07c8.3,8.3,18.26,12.45,29.88,12.45s21.58-4.15,29.88-12.45L928.53,614.7
		c16.6-16.6,16.6-43.16,0-59.76L525.16,151.57c-16.6-16.6-43.16-16.6-59.76,0L62.03,554.94c-16.6,16.6-16.6,43.16,0,59.76
		L465.4,1018.07z"/>
	<linearGradient id="SVGID_3_" gradientUnits="userSpaceOnUse" x1="221.3136" y1="585.1959" x2="765.0999" y2="585.1959">
		<stop  offset="0" style="stop-color:#718216"/>
		<stop  offset="1" style="stop-color:#AEBA48"/>
	</linearGradient>
	<path class="st2" d="M493.62,857.05c-2.49,0-5.81,0-8.3,0c-73.04-2.49-140.27-32.37-190.06-84.66
		c-49.8-52.29-75.53-122.01-73.87-195.04c2.49-73.04,32.37-140.27,84.66-190.07c52.29-49.8,122.01-75.53,195.04-73.87
		c73.04,2.49,140.27,32.37,190.06,84.66s75.53,122.01,73.87,195.04c-2.49,73.04-32.37,140.27-84.66,190.07
		C629.74,831.32,564.17,857.05,493.62,857.05 M493.62,351.6c-60.59,0-117.03,22.41-160.19,63.08
		C288.62,457,262.06,515.1,260.4,578.18c-1.66,63.08,20.75,122.84,63.08,167.66s100.43,71.38,163.51,73.04
		c63.08,1.66,122.84-20.75,167.66-63.08c44.82-42.33,71.38-100.43,73.04-163.51c1.66-63.08-20.75-122.84-63.08-167.66
		c-42.33-44.82-100.43-71.38-163.51-73.04C497.77,351.6,496.11,351.6,493.62,351.6"/>
	<linearGradient id="SVGID_4_" gradientUnits="userSpaceOnUse" x1="286.9571" y1="585.6485" x2="701.116" y2="585.6485">
		<stop  offset="0" style="stop-color:#F2D445"/>
		<stop  offset="1" style="stop-color:#DEB81A"/>
	</linearGradient>
	<path class="st3" d="M701.12,603.08v-35.69h-58.1c-3.32-27.39-14.11-53.95-30.71-75.53l40.67-40.67l-24.9-24.9l-40.67,40.67
		c-21.58-17.43-48.14-28.22-75.53-30.71v-58.1h-35.69v58.1c-27.39,3.32-53.95,14.11-75.53,31.54L360,427.12l-24.9,24.9l40.67,40.67
		c-17.43,21.58-28.22,48.14-30.71,75.53h-58.1v35.69h58.1c3.32,27.39,14.11,53.95,31.54,75.53l-40.67,40.67l24.9,24.9l40.67-40.67
		c21.58,17.43,48.14,28.22,75.53,30.71v58.1h35.69v-58.1c27.39-3.32,53.95-14.11,75.53-30.71L628.91,745l24.9-24.9l-40.67-40.67
		c17.43-21.58,28.22-48.14,30.71-75.53L701.12,603.08z M572.47,669.48c-22.41,20.75-51.46,32.37-82.17,31.54
		c-30.71-0.83-59.76-13.28-80.51-35.69c-20.75-22.41-32.37-51.46-30.71-82.17c0.83-30.71,13.28-59.76,35.69-80.51
		c21.58-19.92,48.97-31.54,78.85-31.54c0.83,0,2.49,0,3.32,0c30.71,0.83,59.76,13.28,80.51,35.69s32.37,51.46,30.71,82.17
		C608.16,619.68,594.88,647.9,572.47,669.48"/>
</g>
</svg>
