<?xml version="1.0" encoding="utf-8"?>
<!-- Generator: Adobe Illustrator 25.0.1, SVG Export Plug-In . SVG Version: 6.00 Build 0)  -->
<svg version="1.1" id="Layer_1" xmlns="http://www.w3.org/2000/svg" xmlns:xlink="http://www.w3.org/1999/xlink" x="0px" y="0px"
	 viewBox="0 0 1080 1080" style="enable-background:new 0 0 1080 1080;" xml:space="preserve">
<style type="text/css">
	.st0{clip-path:url(#SVGID_1_);fill:url(#SVGID_2_);}
	.st1{clip-path:url(#SVGID_3_);fill:url(#SVGID_4_);}
	.st2{clip-path:url(#SVGID_5_);fill:url(#SVGID_6_);}
	.st3{clip-path:url(#SVGID_7_);fill:url(#SVGID_8_);}
	.st4{clip-path:url(#SVGID_10_);fill:url(#SVGID_11_);}
	.st5{clip-path:url(#SVGID_13_);fill:url(#SVGID_14_);}
	.st6{clip-path:url(#SVGID_16_);fill:url(#SVGID_17_);}
	.st7{clip-path:url(#SVGID_19_);fill:url(#SVGID_20_);}
	.st8{clip-path:url(#SVGID_22_);fill:url(#SVGID_23_);}
	.st9{clip-path:url(#SVGID_25_);fill:url(#SVGID_26_);}
	.st10{clip-path:url(#SVGID_28_);fill:url(#SVGID_29_);}
	.st11{clip-path:url(#SVGID_31_);fill:url(#SVGID_32_);}
	.st12{clip-path:url(#SVGID_34_);fill:url(#SVGID_35_);}
	.st13{clip-path:url(#SVGID_37_);fill:url(#SVGID_38_);}
	.st14{clip-path:url(#SVGID_40_);fill:url(#SVGID_41_);}
	.st15{clip-path:url(#SVGID_43_);fill:url(#SVGID_44_);}
	.st16{clip-path:url(#SVGID_45_);fill:url(#SVGID_46_);}
	.st17{clip-path:url(#SVGID_47_);fill:url(#SVGID_48_);}
	.st18{clip-path:url(#SVGID_49_);fill:url(#SVGID_50_);}
	.st19{clip-path:url(#SVGID_52_);fill:url(#SVGID_53_);}
</style>
<g>
	<defs>
		<path id="SVGID_61_" d="M223.45,805.27h35.36c8.44,0,16.37,1.43,23.79,4.3c7.42,2.87,13.9,6.9,19.44,12.12
			c5.54,5.21,9.93,11.49,13.16,18.84c3.23,7.35,4.85,15.5,4.85,24.45c0,8.37-1.54,16.3-4.63,23.8c-3.08,7.49-7.36,14.04-12.83,19.66
			c-5.47,5.62-11.99,10.08-19.55,13.38c-7.56,3.3-15.83,4.96-24.78,4.96h-34.81V805.27z M207.37,784.23c-3.38,0-5.07,1.76-5.07,5.29
			v153.67c0,1.83,0.51,3.07,1.54,3.69c1.03,0.63,2.2,0.94,3.52,0.94h51.45c7.63,0,14.98-0.97,22.03-2.92
			c7.05-1.94,13.62-4.68,19.72-8.2c6.09-3.53,11.64-7.77,16.63-12.72c4.99-4.96,9.27-10.47,12.83-16.52
			c3.56-6.06,6.31-12.56,8.26-19.5c1.95-6.94,2.92-14.19,2.92-21.76c0-7.64-0.95-14.96-2.87-21.97c-1.91-7.01-4.61-13.55-8.09-19.61
			c-3.49-6.06-7.7-11.58-12.61-16.58c-4.92-4.99-10.43-9.26-16.52-12.78c-6.09-3.53-12.71-6.24-19.83-8.15
			c-7.12-1.91-14.61-2.87-22.47-2.87H207.37z"/>
	</defs>
	<clipPath id="SVGID_1_">
		<use xlink:href="#SVGID_61_"  style="overflow:visible;"/>
	</clipPath>
	
		<linearGradient id="SVGID_2_" gradientUnits="userSpaceOnUse" x1="105.5424" y1="645.8685" x2="107.4413" y2="645.8685" gradientTransform="matrix(293.5583 -31.1055 -31.1055 -293.5583 -10596.2822 193746.4375)">
		<stop  offset="0" style="stop-color:#718416"/>
		<stop  offset="1" style="stop-color:#B0BC47"/>
	</linearGradient>
	<polygon class="st0" points="185.16,786.05 339.66,769.68 358.35,946 203.84,962.37 	"/>
</g>
<g>
	<defs>
		<path id="SVGID_64_" d="M447.62,816.73l29.74,75.35h-60.04L447.62,816.73z M443.98,784.23c-1.18,0-2.11,0.15-2.81,0.44
			c-0.7,0.3-1.23,0.64-1.6,1.05c-0.37,0.4-0.66,0.85-0.88,1.32c-0.22,0.48-0.4,0.9-0.55,1.27l-63.56,152.68
			c-0.07,0.22-0.15,0.48-0.22,0.77c-0.07,0.3-0.13,0.61-0.16,0.94c-0.04,0.33-0.06,0.76-0.06,1.27c0,2.57,1.69,3.86,5.07,3.86h11.68
			c1.47,0,2.68-0.37,3.63-1.1c0.95-0.73,1.69-1.73,2.2-2.98c1.03-3.08,2.61-7.27,4.74-12.56c2.13-5.29,4.48-11.2,7.05-17.73h77.33
			l12.12,30.29c0.51,1.25,1.25,2.24,2.2,2.98c0.95,0.73,2.16,1.1,3.64,1.1h11.68c3.38,0,5.06-1.28,5.06-3.86
			c0-0.22-0.04-0.49-0.11-0.82c-0.07-0.33-0.15-0.68-0.22-1.04c-0.07-0.37-0.14-0.73-0.22-1.1l-63.01-152.68
			c-0.15-0.37-0.33-0.79-0.55-1.27c-0.22-0.48-0.51-0.92-0.88-1.32c-0.37-0.4-0.9-0.75-1.6-1.05c-0.7-0.29-1.6-0.44-2.7-0.44H443.98
			z"/>
	</defs>
	<clipPath id="SVGID_3_">
		<use xlink:href="#SVGID_64_"  style="overflow:visible;"/>
	</clipPath>
	
		<linearGradient id="SVGID_4_" gradientUnits="userSpaceOnUse" x1="105.5424" y1="645.8518" x2="107.4413" y2="645.8518" gradientTransform="matrix(293.5583 -31.1055 -31.1055 -293.5583 -10594.8525 193759.9219)">
		<stop  offset="0" style="stop-color:#718416"/>
		<stop  offset="1" style="stop-color:#B0BC47"/>
	</linearGradient>
	<polygon class="st1" points="357,786.05 518.91,768.89 537.68,946 375.77,963.16 	"/>
</g>
<g>
	<defs>
		<path id="SVGID_67_" d="M561.74,784.23c-1.62,0-2.86,0.48-3.74,1.43c-0.88,0.96-1.32,2.09-1.32,3.42v153.89
			c0,3.23,1.61,4.85,4.84,4.85h93.64c1.47,0,2.64-0.48,3.52-1.43c0.88-0.95,1.32-2.09,1.32-3.42v-11.34c0-1.62-0.48-2.88-1.43-3.8
			c-0.96-0.92-2.09-1.37-3.41-1.37h-77.22V789.08c0-1.62-0.46-2.83-1.38-3.64c-0.92-0.81-2.08-1.21-3.47-1.21H561.74z"/>
	</defs>
	<clipPath id="SVGID_5_">
		<use xlink:href="#SVGID_67_"  style="overflow:visible;"/>
	</clipPath>
	
		<linearGradient id="SVGID_6_" gradientUnits="userSpaceOnUse" x1="105.5424" y1="645.8185" x2="107.4413" y2="645.8185" gradientTransform="matrix(293.5583 -31.1055 -31.1055 -293.5583 -10594.0996 193767.0312)">
		<stop  offset="0" style="stop-color:#718416"/>
		<stop  offset="1" style="stop-color:#B0BC47"/>
	</linearGradient>
	<polygon class="st2" points="539.53,786.05 658.85,773.41 677.14,946 557.82,958.64 	"/>
</g>
<g>
	<defs>
		<path id="SVGID_70_" d="M753.08,816.73l29.74,75.35h-60.03L753.08,816.73z M749.44,784.23c-1.18,0-2.11,0.15-2.81,0.44
			c-0.7,0.3-1.23,0.64-1.6,1.05c-0.37,0.4-0.66,0.85-0.88,1.32c-0.22,0.48-0.41,0.9-0.55,1.27l-63.56,152.68
			c-0.07,0.22-0.15,0.48-0.22,0.77c-0.07,0.3-0.13,0.61-0.17,0.94c-0.04,0.33-0.06,0.76-0.06,1.27c0,2.57,1.69,3.86,5.07,3.86h11.68
			c1.47,0,2.68-0.37,3.63-1.1c0.96-0.73,1.69-1.73,2.2-2.98c1.03-3.08,2.61-7.27,4.74-12.56c2.13-5.29,4.48-11.2,7.05-17.73h77.33
			l12.12,30.29c0.51,1.25,1.25,2.24,2.2,2.98c0.95,0.73,2.16,1.1,3.64,1.1h11.68c3.38,0,5.07-1.28,5.07-3.86
			c0-0.22-0.04-0.49-0.11-0.82c-0.07-0.33-0.15-0.68-0.22-1.04c-0.07-0.37-0.15-0.73-0.22-1.1l-63.01-152.68
			c-0.15-0.37-0.33-0.79-0.55-1.27c-0.22-0.48-0.51-0.92-0.88-1.32c-0.37-0.4-0.9-0.75-1.6-1.05c-0.7-0.29-1.6-0.44-2.7-0.44H749.44
			z"/>
	</defs>
	<clipPath id="SVGID_7_">
		<use xlink:href="#SVGID_70_"  style="overflow:visible;"/>
	</clipPath>
	
		<linearGradient id="SVGID_8_" gradientUnits="userSpaceOnUse" x1="105.5424" y1="645.8002" x2="107.4413" y2="645.8002" gradientTransform="matrix(293.5583 -31.1055 -31.1055 -293.5583 -10593.0664 193776.7812)">
		<stop  offset="0" style="stop-color:#718416"/>
		<stop  offset="1" style="stop-color:#B0BC47"/>
	</linearGradient>
	<polygon class="st3" points="662.46,786.05 824.37,768.89 843.14,946 681.23,963.16 	"/>
</g>
<g>
	<defs>
		<path id="SVGID_73_" d="M252.97,1014.7c-1.76,0.59-3.26,1.42-4.52,2.48c-1.26,1.07-2.24,2.35-2.94,3.84
			c-0.7,1.5-1.06,3.15-1.06,4.96c0,1.65,0.29,3.14,0.88,4.47c0.59,1.33,1.45,2.5,2.57,3.53c1.12,1.03,2.48,1.94,4.08,2.72
			c1.6,0.78,3.41,1.44,5.45,1.99c1.15,0.32,2.32,0.62,3.48,0.92c1.17,0.29,2.22,0.69,3.16,1.17c0.94,0.49,1.7,1.11,2.29,1.85
			c0.59,0.75,0.88,1.73,0.88,2.95c0,1.13-0.31,2.11-0.93,2.94c-0.63,0.83-1.4,1.5-2.31,2.02c-0.92,0.52-1.9,0.9-2.94,1.15
			c-1.04,0.25-1.99,0.37-2.85,0.37c-0.63,0-1.39-0.11-2.27-0.32c-0.88-0.21-1.75-0.54-2.62-0.97c-0.86-0.43-1.66-0.98-2.39-1.65
			c-0.74-0.67-1.28-1.45-1.61-2.33c-0.18-0.41-0.43-0.75-0.75-1.03c-0.32-0.28-0.76-0.31-1.32-0.08l-3.23,1.49
			c-0.23,0.11-0.4,0.23-0.53,0.34c-0.13,0.11-0.22,0.24-0.27,0.39c-0.06,0.15-0.07,0.33-0.02,0.54c0.05,0.21,0.13,0.49,0.24,0.83
			c0.57,1.54,1.39,2.88,2.48,4.01c1.09,1.13,2.3,2.07,3.63,2.82c1.34,0.75,2.76,1.3,4.27,1.67c1.5,0.36,2.97,0.54,4.4,0.54
			c2.27,0,4.36-0.29,6.29-0.88c1.92-0.59,3.58-1.43,4.98-2.53c1.39-1.1,2.48-2.43,3.26-4.01c0.78-1.57,1.18-3.35,1.18-5.32
			c0-1.79-0.36-3.39-1.06-4.81c-0.7-1.41-1.69-2.65-2.96-3.72c-1.27-1.07-2.79-1.98-4.57-2.75c-1.78-0.77-3.74-1.41-5.9-1.9
			c-0.93-0.23-1.89-0.53-2.89-0.92c-0.99-0.38-1.91-0.85-2.75-1.39s-1.53-1.15-2.07-1.82c-0.54-0.67-0.82-1.4-0.82-2.19
			c0-1.04,0.22-1.94,0.66-2.7c0.44-0.76,1.03-1.39,1.76-1.89c0.74-0.5,1.57-0.86,2.5-1.09c0.93-0.23,1.89-0.34,2.89-0.34
			c1.11,0,2.07,0.13,2.87,0.39c0.81,0.26,1.52,0.61,2.16,1.05c0.64,0.44,1.2,0.95,1.7,1.51c0.5,0.57,1.01,1.15,1.53,1.77
			c0.32,0.39,0.61,0.65,0.88,0.78c0.27,0.13,0.67,0.06,1.19-0.24l2.65-2.01c0.43-0.32,0.64-0.64,0.61-0.97
			c-0.02-0.33-0.17-0.72-0.44-1.17c-0.88-1.2-1.73-2.26-2.55-3.17c-0.82-0.92-1.71-1.69-2.69-2.31c-0.97-0.62-2.09-1.09-3.34-1.41
			c-1.26-0.32-2.76-0.48-4.5-0.48C256.67,1013.82,254.73,1014.11,252.97,1014.7"/>
	</defs>
	<linearGradient id="SVGID_9_" gradientUnits="userSpaceOnUse" x1="243.1723" y1="1036.0695" x2="273.9211" y2="1036.0695">
		<stop  offset="0" style="stop-color:#F2D445"/>
		<stop  offset="1" style="stop-color:#DEB81A"/>
	</linearGradient>
	<use xlink:href="#SVGID_73_"  style="overflow:visible;fill:url(#SVGID_9_);"/>
	<clipPath id="SVGID_10_">
		<use xlink:href="#SVGID_73_"  style="overflow:visible;"/>
	</clipPath>
	
		<linearGradient id="SVGID_11_" gradientUnits="userSpaceOnUse" x1="105.5424" y1="645.6064" x2="107.4413" y2="645.6064" gradientTransform="matrix(293.5583 -31.1055 -31.1055 -293.5583 -10586.7617 193836.2812)">
		<stop  offset="0" style="stop-color:#F2D445"/>
		<stop  offset="1" style="stop-color:#DEB81A"/>
	</linearGradient>
	<polygon class="st4" points="238.49,1014.31 273.58,1010.59 278.58,1057.83 243.5,1061.55 	"/>
</g>
<g>
	<defs>
		<path id="SVGID_76_" d="M324.8,1014.26c-1.44,0.27-2.79,0.72-4.04,1.34c-1.26,0.62-2.39,1.43-3.4,2.43
			c-1.01,1-1.83,2.21-2.46,3.64c-1.36-2.54-3.17-4.47-5.44-5.8c-2.26-1.32-5.18-1.99-8.76-1.99c-1.5,0-2.81,0.15-3.94,0.44
			c-1.13,0.3-2.15,0.7-3.04,1.22c-0.9,0.52-1.71,1.12-2.43,1.82c-0.73,0.69-1.41,1.43-2.04,2.23v-3.54c0-0.41-0.14-0.76-0.43-1.05
			c-0.28-0.29-0.66-0.44-1.14-0.44h-3.53c-0.41,0-0.76,0.13-1.05,0.41c-0.3,0.27-0.44,0.63-0.44,1.09v40.16c0,1,0.53,1.49,1.59,1.49
			h3.5c1,0,1.49-0.5,1.49-1.49v-25.11c0-1.72,0.33-3.25,0.99-4.59c0.66-1.33,1.51-2.46,2.57-3.36c1.06-0.91,2.24-1.59,3.55-2.06
			c1.32-0.46,2.62-0.7,3.91-0.7c2.04,0,3.76,0.36,5.17,1.09c1.4,0.73,2.53,1.67,3.38,2.82c0.85,1.16,1.46,2.44,1.83,3.86
			c0.38,1.41,0.56,2.8,0.56,4.16v23.17c0,0.79,0.12,1.36,0.36,1.7c0.24,0.34,0.78,0.51,1.61,0.51h2.51c0.61,0,1.11-0.19,1.51-0.58
			c0.4-0.38,0.59-0.96,0.59-1.73v-23.07c0-1.86,0.25-3.52,0.75-5.01c0.5-1.48,1.22-2.74,2.16-3.77c0.94-1.03,2.09-1.82,3.45-2.36
			c1.36-0.54,2.9-0.81,4.62-0.81c2.04,0,3.76,0.36,5.16,1.09c1.41,0.73,2.54,1.67,3.38,2.82c0.85,1.16,1.46,2.44,1.83,3.86
			c0.37,1.42,0.56,2.8,0.56,4.16v23.17c0,0.79,0.12,1.36,0.36,1.7c0.24,0.34,0.77,0.51,1.61,0.51h2.51c0.62,0,1.12-0.19,1.52-0.58
			c0.39-0.38,0.59-0.96,0.59-1.73v-23.07c0-2.56-0.37-4.96-1.1-7.2c-0.74-2.24-1.82-4.19-3.26-5.86c-1.44-1.67-3.22-2.98-5.35-3.94
			c-2.13-0.96-4.59-1.44-7.38-1.44C327.7,1013.85,326.23,1013.99,324.8,1014.26"/>
	</defs>
	<linearGradient id="SVGID_12_" gradientUnits="userSpaceOnUse" x1="282.6523" y1="1035.7809" x2="346.2868" y2="1035.7809">
		<stop  offset="0" style="stop-color:#F2D445"/>
		<stop  offset="1" style="stop-color:#DEB81A"/>
	</linearGradient>
	<use xlink:href="#SVGID_76_"  style="overflow:visible;fill:url(#SVGID_12_);"/>
	<clipPath id="SVGID_13_">
		<use xlink:href="#SVGID_76_"  style="overflow:visible;"/>
	</clipPath>
	
		<linearGradient id="SVGID_14_" gradientUnits="userSpaceOnUse" x1="105.5424" y1="645.598" x2="107.4413" y2="645.598" gradientTransform="matrix(293.5583 -31.1055 -31.1055 -293.5583 -10586.4346 193839.375)">
		<stop  offset="0" style="stop-color:#F2D445"/>
		<stop  offset="1" style="stop-color:#DEB81A"/>
	</linearGradient>
	<polygon class="st5" points="278.06,1014.34 345.58,1007.18 350.88,1057.22 283.36,1064.38 	"/>
</g>
<g>
	<defs>
		<path id="SVGID_79_" d="M370.89,1050.81c-1.86-0.88-3.49-2.07-4.89-3.55c-1.39-1.48-2.49-3.2-3.29-5.15
			c-0.8-1.95-1.2-3.98-1.2-6.08c0-2.13,0.4-4.16,1.2-6.1c0.81-1.93,1.9-3.63,3.29-5.08c1.39-1.45,3.02-2.61,4.89-3.47
			c1.86-0.86,3.86-1.29,5.99-1.29c2.13,0,4.14,0.43,6.03,1.29c1.89,0.86,3.53,2.01,4.94,3.47c1.4,1.45,2.51,3.14,3.33,5.08
			c0.81,1.94,1.22,3.97,1.22,6.1c0,2.11-0.41,4.14-1.22,6.08c-0.81,1.95-1.92,3.66-3.33,5.15c-1.4,1.48-3.05,2.67-4.94,3.55
			c-1.89,0.88-3.9,1.33-6.03,1.33C374.75,1052.14,372.76,1051.7,370.89,1050.81 M370.99,1014.55c-1.88,0.53-3.65,1.29-5.3,2.26
			c-1.65,0.97-3.16,2.14-4.52,3.5c-1.36,1.36-2.53,2.87-3.51,4.52c-0.98,1.65-1.75,3.43-2.28,5.32c-0.53,1.89-0.8,3.86-0.8,5.89
			c0,2.04,0.27,4,0.8,5.9c0.53,1.89,1.3,3.67,2.28,5.33c0.98,1.67,2.16,3.18,3.51,4.53c1.36,1.36,2.87,2.53,4.52,3.52
			c1.65,0.99,3.42,1.75,5.32,2.27c1.89,0.53,3.85,0.8,5.86,0.8c3.01,0,5.81-0.57,8.39-1.72c2.58-1.14,4.85-2.71,6.79-4.71v4.25
			c0,0.41,0.14,0.76,0.43,1.05c0.28,0.3,0.66,0.44,1.14,0.44h3.54c0.4,0,0.76-0.14,1.05-0.41c0.29-0.27,0.44-0.63,0.44-1.09v-40.19
			c0-0.99-0.53-1.49-1.6-1.49h-3.5c-1,0-1.5,0.5-1.5,1.49v4.15c-1.95-1.99-4.21-3.56-6.79-4.7c-2.58-1.15-5.38-1.71-8.39-1.71
			C374.83,1013.75,372.87,1014.01,370.99,1014.55"/>
	</defs>
	<linearGradient id="SVGID_15_" gradientUnits="userSpaceOnUse" x1="354.5755" y1="1036.0704" x2="398.6437" y2="1036.0704">
		<stop  offset="0" style="stop-color:#F2D445"/>
		<stop  offset="1" style="stop-color:#DEB81A"/>
	</linearGradient>
	<use xlink:href="#SVGID_79_"  style="overflow:visible;fill:url(#SVGID_15_);"/>
	<clipPath id="SVGID_16_">
		<use xlink:href="#SVGID_79_"  style="overflow:visible;"/>
	</clipPath>
	
		<linearGradient id="SVGID_17_" gradientUnits="userSpaceOnUse" x1="105.5424" y1="645.5878" x2="107.4413" y2="645.5878" gradientTransform="matrix(293.5583 -31.1055 -31.1055 -293.5583 -10586.0332 193843.1562)">
		<stop  offset="0" style="stop-color:#F2D445"/>
		<stop  offset="1" style="stop-color:#DEB81A"/>
	</linearGradient>
	<polygon class="st6" points="349.9,1014.25 398.15,1009.13 403.32,1057.9 355.06,1063.01 	"/>
</g>
<g>
	<defs>
		<path id="SVGID_82_" d="M420.96,1014.41c-0.93,0.35-1.75,0.79-2.48,1.31c-0.73,0.52-1.34,1.09-1.86,1.7
			c-0.51,0.61-0.9,1.18-1.17,1.7v-3.06c0-0.41-0.14-0.76-0.43-1.05c-0.28-0.29-0.66-0.44-1.14-0.44h-3.54
			c-0.4,0-0.76,0.13-1.05,0.41c-0.29,0.27-0.44,0.63-0.44,1.09v40.16c0,1,0.52,1.49,1.56,1.49h3.53c1,0,1.5-0.5,1.5-1.49v-26.6
			c0-1.47,0.24-2.79,0.73-3.96c0.48-1.17,1.13-2.15,1.93-2.95c0.8-0.8,1.73-1.42,2.77-1.85c1.04-0.43,2.13-0.65,3.26-0.65
			c1.49,0,2.9,0.22,4.23,0.66c1.33,0.44,2.69,1.14,4.09,2.09c0.22,0.16,0.42,0.3,0.58,0.43c0.16,0.12,0.32,0.18,0.51,0.18
			c0.32,0,0.63-0.19,0.95-0.58l2.01-3.09c0.11-0.2,0.17-0.43,0.17-0.68c0-0.43-0.16-0.8-0.49-1.12c-0.33-0.32-0.63-0.58-0.9-0.78
			c-0.91-0.68-1.77-1.24-2.6-1.68c-0.83-0.44-1.68-0.79-2.56-1.05c-0.89-0.26-1.82-0.44-2.8-0.54c-0.99-0.1-2.09-0.15-3.31-0.15
			C422.91,1013.88,421.89,1014.06,420.96,1014.41"/>
	</defs>
	<linearGradient id="SVGID_18_" gradientUnits="userSpaceOnUse" x1="408.8674" y1="1035.797" x2="436.6941" y2="1035.797">
		<stop  offset="0" style="stop-color:#F2D445"/>
		<stop  offset="1" style="stop-color:#DEB81A"/>
	</linearGradient>
	<use xlink:href="#SVGID_82_"  style="overflow:visible;fill:url(#SVGID_18_);"/>
	<clipPath id="SVGID_19_">
		<use xlink:href="#SVGID_82_"  style="overflow:visible;"/>
	</clipPath>
	
		<linearGradient id="SVGID_20_" gradientUnits="userSpaceOnUse" x1="105.5424" y1="645.5778" x2="107.4413" y2="645.5778" gradientTransform="matrix(293.5583 -31.1055 -31.1055 -293.5583 -10585.8604 193844.7812)">
		<stop  offset="0" style="stop-color:#F2D445"/>
		<stop  offset="1" style="stop-color:#DEB81A"/>
	</linearGradient>
	<polygon class="st7" points="404.27,1014.37 436.38,1010.97 441.29,1057.22 409.18,1060.63 	"/>
</g>
<g>
	<defs>
		<path id="SVGID_85_" d="M451.95,1005.32c-0.64,0.11-1.22,0.21-1.77,0.3c-0.45,0.09-0.89,0.17-1.31,0.22
			c-0.42,0.06-0.7,0.11-0.83,0.16c-0.38,0.11-0.66,0.25-0.81,0.42c-0.16,0.17-0.24,0.45-0.24,0.83v7.24h-3.94
			c-0.56,0-0.98,0.08-1.25,0.22c-0.27,0.15-0.41,0.52-0.41,1.1v3.16c0,0.59,0.14,0.97,0.41,1.14c0.27,0.17,0.69,0.25,1.25,0.25h3.94
			v29.46c0,1.68,0.27,3.05,0.8,4.13c0.53,1.08,1.22,1.93,2.05,2.55c0.84,0.62,1.78,1.06,2.84,1.31c1.05,0.25,2.1,0.37,3.14,0.37
			c0.52,0,0.94-0.16,1.25-0.46c0.32-0.31,0.48-0.72,0.48-1.24v-2.79c0-0.57-0.17-1.01-0.51-1.33c-0.34-0.32-0.77-0.47-1.29-0.47
			c-0.68,0-1.21-0.16-1.6-0.48c-0.39-0.32-0.58-0.87-0.58-1.67v-29.39h4.72c0.52,0,0.9-0.13,1.14-0.37
			c0.24-0.25,0.36-0.67,0.36-1.26v-2.69c0-0.59-0.12-1-0.36-1.22c-0.24-0.23-0.62-0.34-1.14-0.34h-4.72v-7.31
			c0-0.27-0.01-0.53-0.03-0.76c-0.02-0.24-0.09-0.45-0.19-0.63c-0.1-0.18-0.27-0.32-0.49-0.41c-0.15-0.06-0.34-0.09-0.56-0.09
			C452.2,1005.3,452.08,1005.31,451.95,1005.32"/>
	</defs>
	<linearGradient id="SVGID_21_" gradientUnits="userSpaceOnUse" x1="441.3825" y1="1031.7438" x2="459.7981" y2="1031.7438">
		<stop  offset="0" style="stop-color:#F2D445"/>
		<stop  offset="1" style="stop-color:#DEB81A"/>
	</linearGradient>
	<use xlink:href="#SVGID_85_"  style="overflow:visible;fill:url(#SVGID_21_);"/>
	<clipPath id="SVGID_22_">
		<use xlink:href="#SVGID_85_"  style="overflow:visible;"/>
	</clipPath>
	
		<linearGradient id="SVGID_23_" gradientUnits="userSpaceOnUse" x1="105.5424" y1="645.5815" x2="107.4413" y2="645.5815" gradientTransform="matrix(293.5583 -31.1055 -31.1055 -293.5583 -10585.8574 193844.8125)">
		<stop  offset="0" style="stop-color:#F2D445"/>
		<stop  offset="1" style="stop-color:#DEB81A"/>
	</linearGradient>
	<polygon class="st8" points="435.84,1005.89 459.59,1003.37 465.34,1057.6 441.59,1060.12 	"/>
</g>
<g>
	<defs>
		<path id="SVGID_88_" d="M491.02,1001.75c-0.41,0-0.76,0.13-1.05,0.41c-0.29,0.27-0.44,0.64-0.44,1.09v52.97
			c0,1,0.53,1.49,1.6,1.49h3.5c1,0,1.49-0.5,1.49-1.49v-52.97c0-0.41-0.14-0.76-0.42-1.05c-0.28-0.3-0.66-0.44-1.14-0.44H491.02z"/>
	</defs>
	<linearGradient id="SVGID_24_" gradientUnits="userSpaceOnUse" x1="489.5257" y1="1029.7328" x2="496.1169" y2="1029.7328">
		<stop  offset="0" style="stop-color:#F2D445"/>
		<stop  offset="1" style="stop-color:#DEB81A"/>
	</linearGradient>
	<use xlink:href="#SVGID_88_"  style="overflow:visible;fill:url(#SVGID_24_);"/>
	<clipPath id="SVGID_25_">
		<use xlink:href="#SVGID_88_"  style="overflow:visible;"/>
	</clipPath>
	
		<linearGradient id="SVGID_26_" gradientUnits="userSpaceOnUse" x1="105.5424" y1="645.577" x2="107.4413" y2="645.577" gradientTransform="matrix(293.5583 -31.1055 -31.1055 -293.5583 -10585.7422 193845.9062)">
		<stop  offset="0" style="stop-color:#F2D445"/>
		<stop  offset="1" style="stop-color:#DEB81A"/>
	</linearGradient>
	<polygon class="st9" points="483.66,1002.38 496.04,1001.06 501.98,1057.09 489.6,1058.4 	"/>
</g>
<g>
	<defs>
		<path id="SVGID_91_" d="M522.18,1050.85c-1.88-0.86-3.52-2.02-4.93-3.47c-1.4-1.45-2.51-3.14-3.33-5.06
			c-0.82-1.93-1.22-3.96-1.22-6.12c0-2.11,0.41-4.13,1.22-6.08c0.82-1.95,1.93-3.66,3.33-5.15c1.41-1.48,3.05-2.67,4.93-3.55
			c1.88-0.88,3.89-1.33,6.05-1.33c2.13,0,4.13,0.44,6,1.33c1.87,0.89,3.5,2.07,4.89,3.55c1.4,1.48,2.49,3.2,3.3,5.15
			c0.81,1.95,1.2,3.97,1.2,6.08c0,2.15-0.4,4.19-1.2,6.12c-0.81,1.92-1.9,3.61-3.3,5.06c-1.39,1.45-3.02,2.6-4.89,3.47
			c-1.87,0.86-3.87,1.29-6,1.29C526.07,1052.14,524.06,1051.71,522.18,1050.85 M519.64,1015.62c-2.7,1.18-5.06,2.79-7.09,4.83
			c-2.03,2.04-3.63,4.41-4.83,7.12c-1.19,2.71-1.78,5.59-1.78,8.65c0,2.04,0.27,4,0.82,5.9c0.54,1.89,1.3,3.66,2.28,5.31
			c0.97,1.65,2.14,3.16,3.5,4.52c1.36,1.36,2.87,2.53,4.52,3.5c1.66,0.97,3.43,1.73,5.32,2.26c1.89,0.53,3.85,0.8,5.86,0.8
			c2.02,0,3.97-0.27,5.87-0.8c1.89-0.53,3.67-1.29,5.32-2.26c1.65-0.97,3.16-2.14,4.52-3.5c1.36-1.36,2.53-2.87,3.52-4.52
			c0.98-1.65,1.74-3.43,2.28-5.31c0.53-1.89,0.8-3.86,0.8-5.9c0-2.04-0.27-4-0.8-5.89c-0.53-1.89-1.29-3.67-2.28-5.33
			c-0.99-1.67-2.16-3.18-3.52-4.54c-1.36-1.36-2.87-2.53-4.52-3.52c-1.65-0.99-3.43-1.74-5.32-2.28c-1.89-0.53-3.85-0.8-5.87-0.8
			C525.2,1013.85,522.34,1014.44,519.64,1015.62"/>
	</defs>
	<linearGradient id="SVGID_27_" gradientUnits="userSpaceOnUse" x1="505.9361" y1="1036.172" x2="550.5453" y2="1036.172">
		<stop  offset="0" style="stop-color:#F2D445"/>
		<stop  offset="1" style="stop-color:#DEB81A"/>
	</linearGradient>
	<use xlink:href="#SVGID_91_"  style="overflow:visible;fill:url(#SVGID_27_);"/>
	<clipPath id="SVGID_28_">
		<use xlink:href="#SVGID_91_"  style="overflow:visible;"/>
	</clipPath>
	
		<linearGradient id="SVGID_29_" gradientUnits="userSpaceOnUse" x1="105.5424" y1="645.5607" x2="107.4413" y2="645.5607" gradientTransform="matrix(293.5583 -31.1055 -31.1055 -293.5583 -10585.1797 193851.2031)">
		<stop  offset="0" style="stop-color:#F2D445"/>
		<stop  offset="1" style="stop-color:#DEB81A"/>
	</linearGradient>
	<polygon class="st10" points="501.26,1014.35 550.05,1009.18 555.22,1058 506.43,1063.17 	"/>
</g>
<g>
	<defs>
		<path id="SVGID_94_" d="M573.68,1014.65c-1.88,0.53-3.65,1.29-5.32,2.28c-1.67,0.99-3.18,2.16-4.56,3.52
			c-1.37,1.36-2.56,2.86-3.55,4.52c-1,1.65-1.77,3.42-2.31,5.32c-0.54,1.89-0.81,3.85-0.81,5.9c0,2.04,0.27,4,0.81,5.89
			c0.55,1.89,1.31,3.66,2.31,5.32c0.99,1.66,2.18,3.16,3.55,4.52c1.37,1.36,2.89,2.53,4.56,3.52c1.66,0.99,3.44,1.74,5.32,2.27
			c1.88,0.53,3.83,0.8,5.84,0.8c1.43,0,2.78-0.12,4.06-0.38c1.28-0.25,2.5-0.6,3.65-1.05c1.16-0.45,2.26-0.99,3.31-1.61
			c1.05-0.62,2.07-1.32,3.04-2.09c0.41-0.32,0.71-0.61,0.9-0.87c0.2-0.26,0.31-0.5,0.36-0.71c0.05-0.22,0.02-0.41-0.05-0.6
			c-0.08-0.18-0.18-0.36-0.29-0.54c-0.09-0.11-0.23-0.29-0.41-0.54c-0.18-0.23-0.42-0.53-0.7-0.92c-0.28-0.38-0.65-0.88-1.11-1.49
			c-0.23-0.29-0.45-0.47-0.66-0.55c-0.22-0.07-0.43-0.07-0.64,0c-0.22,0.07-0.42,0.18-0.62,0.32c-0.19,0.15-0.37,0.29-0.53,0.43
			c-0.66,0.54-1.34,1.07-2.04,1.58c-0.7,0.51-1.47,0.96-2.29,1.36c-0.83,0.4-1.75,0.71-2.76,0.95c-1.01,0.24-2.13,0.36-3.38,0.36
			c-2.02,0-3.96-0.42-5.83-1.27c-1.87-0.85-3.52-2-4.94-3.45c-1.43-1.45-2.56-3.14-3.41-5.08c-0.85-1.93-1.28-3.99-1.28-6.16
			c0-2.15,0.43-4.2,1.29-6.15c0.86-1.95,2-3.66,3.43-5.13c1.42-1.47,3.07-2.64,4.92-3.5c1.86-0.86,3.78-1.29,5.78-1.29
			c0.95,0,1.91,0.1,2.89,0.31c0.97,0.21,1.91,0.49,2.82,0.87c0.9,0.37,1.75,0.82,2.55,1.33c0.79,0.51,1.49,1.08,2.11,1.72
			c0.77,0.79,1.45,0.8,2.04,0.03l2.48-3.26c0.16-0.29,0.21-0.57,0.17-0.83c-0.04-0.26-0.14-0.5-0.29-0.71
			c-0.15-0.22-0.33-0.41-0.54-0.58c-0.22-0.17-0.4-0.32-0.56-0.46c-0.81-0.65-1.74-1.27-2.77-1.83c-1.03-0.57-2.13-1.06-3.29-1.48
			c-1.17-0.42-2.38-0.75-3.63-0.98c-1.26-0.24-2.52-0.36-3.79-0.36C577.51,1013.85,575.56,1014.12,573.68,1014.65"/>
	</defs>
	<linearGradient id="SVGID_30_" gradientUnits="userSpaceOnUse" x1="557.1346" y1="1036.172" x2="594.8729" y2="1036.172">
		<stop  offset="0" style="stop-color:#F2D445"/>
		<stop  offset="1" style="stop-color:#DEB81A"/>
	</linearGradient>
	<use xlink:href="#SVGID_94_"  style="overflow:visible;fill:url(#SVGID_30_);"/>
	<clipPath id="SVGID_31_">
		<use xlink:href="#SVGID_94_"  style="overflow:visible;"/>
	</clipPath>
	
		<linearGradient id="SVGID_32_" gradientUnits="userSpaceOnUse" x1="105.5424" y1="645.5533" x2="107.4413" y2="645.5533" gradientTransform="matrix(293.5583 -31.1055 -31.1055 -293.5583 -10584.8799 193854.0469)">
		<stop  offset="0" style="stop-color:#F2D445"/>
		<stop  offset="1" style="stop-color:#DEB81A"/>
	</linearGradient>
	<polygon class="st11" points="552.46,1014.35 594.48,1009.89 599.57,1058 557.55,1062.45 	"/>
</g>
<g>
	<defs>
		<path id="SVGID_97_" d="M605.08,1001.72c-0.48,0-0.85,0.15-1.11,0.44c-0.26,0.29-0.39,0.65-0.39,1.06v53c0,1,0.5,1.49,1.5,1.49
			h3.53c1.04,0,1.56-0.5,1.56-1.49v-13.49l4.41-4.55l15.19,18.41c0.18,0.39,0.41,0.67,0.68,0.85c0.27,0.18,0.57,0.27,0.88,0.27h5.84
			c0.39,0,0.65-0.04,0.8-0.12c0.15-0.08,0.22-0.24,0.22-0.49c0-0.14-0.03-0.33-0.09-0.59c-0.05-0.26-0.2-0.51-0.42-0.73h0.07
			l-18.69-22.15l16.55-17.16c0.25-0.32,0.37-0.69,0.37-1.12c0-0.22-0.09-0.42-0.27-0.58c-0.18-0.16-0.46-0.24-0.85-0.24h-5.16
			c-0.41,0-0.75,0.09-1.04,0.25c-0.28,0.17-0.56,0.38-0.83,0.63l-17.67,18.72v-30.92c0-0.45-0.16-0.82-0.47-1.09
			c-0.32-0.27-0.68-0.41-1.09-0.41H605.08z"/>
	</defs>
	<linearGradient id="SVGID_33_" gradientUnits="userSpaceOnUse" x1="603.5783" y1="1029.7157" x2="638.1993" y2="1029.7157">
		<stop  offset="0" style="stop-color:#F2D445"/>
		<stop  offset="1" style="stop-color:#DEB81A"/>
	</linearGradient>
	<use xlink:href="#SVGID_97_"  style="overflow:visible;fill:url(#SVGID_33_);"/>
	<clipPath id="SVGID_34_">
		<use xlink:href="#SVGID_97_"  style="overflow:visible;"/>
	</clipPath>
	
		<linearGradient id="SVGID_35_" gradientUnits="userSpaceOnUse" x1="105.5424" y1="645.5554" x2="107.4413" y2="645.5554" gradientTransform="matrix(293.5583 -31.1055 -31.1055 -293.5583 -10584.9922 193852.9844)">
		<stop  offset="0" style="stop-color:#F2D445"/>
		<stop  offset="1" style="stop-color:#DEB81A"/>
	</linearGradient>
	<polygon class="st12" points="597.71,1002.34 637.81,998.09 644.07,1057.09 603.96,1061.34 	"/>
</g>
<g>
	<defs>
		<path id="SVGID_100_" d="M662.32,1050.85c-1.88-0.86-3.52-2.02-4.93-3.47c-1.41-1.45-2.51-3.14-3.33-5.06
			c-0.81-1.93-1.22-3.96-1.22-6.12c0-2.11,0.41-4.13,1.22-6.08c0.82-1.95,1.93-3.66,3.33-5.15c1.4-1.48,3.05-2.67,4.93-3.55
			c1.88-0.88,3.89-1.33,6.05-1.33c2.13,0,4.13,0.44,6,1.33c1.87,0.89,3.5,2.07,4.89,3.55c1.39,1.48,2.49,3.2,3.29,5.15
			c0.81,1.95,1.2,3.97,1.2,6.08c0,2.15-0.4,4.19-1.2,6.12c-0.81,1.92-1.9,3.61-3.29,5.06c-1.39,1.45-3.03,2.6-4.89,3.47
			c-1.87,0.86-3.87,1.29-6,1.29C666.22,1052.14,664.2,1051.71,662.32,1050.85 M648.09,1001.75c-0.41,0-0.76,0.13-1.05,0.41
			c-0.29,0.27-0.45,0.64-0.45,1.09v52.97c0,1,0.54,1.49,1.6,1.49h3.5c1,0,1.5-0.5,1.5-1.49v-4.11c1.95,1.99,4.22,3.56,6.8,4.69
			c2.58,1.13,5.39,1.7,8.4,1.7c2.01,0,3.97-0.27,5.86-0.8c1.89-0.53,3.67-1.29,5.32-2.26c1.66-0.97,3.16-2.14,4.53-3.5
			c1.36-1.36,2.53-2.87,3.52-4.52c0.99-1.65,1.75-3.43,2.28-5.31c0.53-1.89,0.8-3.86,0.8-5.9c0-2.04-0.27-4-0.8-5.89
			c-0.53-1.89-1.29-3.67-2.28-5.33c-0.98-1.67-2.16-3.18-3.52-4.54c-1.36-1.36-2.87-2.53-4.53-3.52c-1.66-0.99-3.43-1.74-5.32-2.28
			c-1.89-0.53-3.85-0.8-5.86-0.8c-3.02,0-5.82,0.57-8.4,1.71c-2.58,1.15-4.85,2.72-6.8,4.71v-17.02c0-0.41-0.14-0.76-0.43-1.05
			c-0.28-0.3-0.66-0.44-1.14-0.44H648.09z"/>
	</defs>
	<linearGradient id="SVGID_36_" gradientUnits="userSpaceOnUse" x1="646.5906" y1="1030.124" x2="690.6929" y2="1030.124">
		<stop  offset="0" style="stop-color:#F2D445"/>
		<stop  offset="1" style="stop-color:#DEB81A"/>
	</linearGradient>
	<use xlink:href="#SVGID_100_"  style="overflow:visible;fill:url(#SVGID_36_);"/>
	<clipPath id="SVGID_37_">
		<use xlink:href="#SVGID_100_"  style="overflow:visible;"/>
	</clipPath>
	
		<linearGradient id="SVGID_38_" gradientUnits="userSpaceOnUse" x1="105.5424" y1="645.5448" x2="107.4413" y2="645.5448" gradientTransform="matrix(293.5583 -31.1055 -31.1055 -293.5583 -10584.75 193855.2656)">
		<stop  offset="0" style="stop-color:#F2D445"/>
		<stop  offset="1" style="stop-color:#DEB81A"/>
	</linearGradient>
	<polygon class="st13" points="640.65,1002.38 690.2,997.13 696.64,1057.86 647.08,1063.11 	"/>
</g>
<g>
	<defs>
		<path id="SVGID_103_" d="M714.34,1050.85c-1.88-0.86-3.52-2.02-4.92-3.47c-1.4-1.45-2.51-3.14-3.33-5.06
			c-0.81-1.93-1.22-3.96-1.22-6.12c0-2.11,0.41-4.13,1.22-6.08c0.82-1.95,1.93-3.66,3.33-5.15c1.4-1.48,3.05-2.67,4.92-3.55
			c1.88-0.88,3.9-1.33,6.05-1.33c2.13,0,4.13,0.44,6,1.33c1.87,0.89,3.5,2.07,4.89,3.55c1.4,1.48,2.49,3.2,3.29,5.15
			c0.8,1.95,1.21,3.97,1.21,6.08c0,2.15-0.41,4.19-1.21,6.12c-0.8,1.92-1.9,3.61-3.29,5.06c-1.39,1.45-3.02,2.6-4.89,3.47
			c-1.87,0.86-3.87,1.29-6,1.29C718.23,1052.14,716.22,1051.71,714.34,1050.85 M711.8,1015.62c-2.69,1.18-5.06,2.79-7.09,4.83
			c-2.03,2.04-3.64,4.41-4.83,7.12c-1.19,2.71-1.78,5.59-1.78,8.65c0,2.04,0.27,4,0.81,5.9c0.54,1.89,1.3,3.66,2.28,5.31
			c0.98,1.65,2.14,3.16,3.51,4.52c1.36,1.36,2.86,2.53,4.52,3.5c1.65,0.97,3.43,1.73,5.32,2.26c1.89,0.53,3.85,0.8,5.86,0.8
			c2.02,0,3.97-0.27,5.86-0.8c1.89-0.53,3.67-1.29,5.32-2.26c1.66-0.97,3.16-2.14,4.52-3.5c1.36-1.36,2.53-2.87,3.52-4.52
			c0.99-1.65,1.75-3.43,2.28-5.31c0.53-1.89,0.8-3.86,0.8-5.9c0-2.04-0.26-4-0.8-5.89c-0.53-1.89-1.29-3.67-2.28-5.33
			c-0.98-1.67-2.16-3.18-3.52-4.54c-1.36-1.36-2.87-2.53-4.52-3.52c-1.66-0.99-3.43-1.74-5.32-2.28c-1.89-0.53-3.85-0.8-5.86-0.8
			C717.37,1013.85,714.5,1014.44,711.8,1015.62"/>
	</defs>
	<linearGradient id="SVGID_39_" gradientUnits="userSpaceOnUse" x1="698.0987" y1="1036.172" x2="742.706" y2="1036.172">
		<stop  offset="0" style="stop-color:#F2D445"/>
		<stop  offset="1" style="stop-color:#DEB81A"/>
	</linearGradient>
	<use xlink:href="#SVGID_103_"  style="overflow:visible;fill:url(#SVGID_39_);"/>
	<clipPath id="SVGID_40_">
		<use xlink:href="#SVGID_103_"  style="overflow:visible;"/>
	</clipPath>
	
		<linearGradient id="SVGID_41_" gradientUnits="userSpaceOnUse" x1="105.5424" y1="645.5283" x2="107.4413" y2="645.5283" gradientTransform="matrix(293.5583 -31.1055 -31.1055 -293.5583 -10584.0566 193861.8125)">
		<stop  offset="0" style="stop-color:#F2D445"/>
		<stop  offset="1" style="stop-color:#DEB81A"/>
	</linearGradient>
	<polygon class="st14" points="693.42,1014.35 742.21,1009.18 747.38,1058 698.59,1063.17 	"/>
</g>
<g>
	<defs>
		<path id="SVGID_106_" d="M777.88,1014.56c-0.28,0-0.51,0.02-0.7,0.07c-0.19,0.05-0.37,0.13-0.54,0.25
			c-0.17,0.13-0.33,0.28-0.49,0.48c-0.16,0.19-0.35,0.42-0.58,0.7l-9.17,14.1l-9.18-14.1c-0.23-0.27-0.42-0.5-0.58-0.7
			c-0.16-0.19-0.32-0.35-0.49-0.48c-0.17-0.13-0.35-0.21-0.54-0.25c-0.19-0.05-0.43-0.07-0.69-0.07h-4.42
			c-0.7,0-1.14,0.12-1.31,0.36c-0.17,0.24-0.03,0.7,0.43,1.38c1.11,1.59,2.14,3.06,3.09,4.43c0.95,1.37,1.92,2.77,2.92,4.2
			c0.99,1.43,2.05,2.95,3.16,4.58c1.11,1.63,2.38,3.49,3.8,5.57l-14.58,21.13c-0.29,0.45-0.41,0.82-0.34,1.09
			c0.07,0.27,0.39,0.41,0.95,0.41h5c0.43,0,0.8-0.11,1.1-0.32c0.31-0.22,0.62-0.53,0.93-0.94l10.74-16.51l10.73,16.51
			c0.32,0.41,0.63,0.72,0.94,0.94c0.3,0.21,0.67,0.32,1.1,0.32h5c0.56,0,0.88-0.14,0.95-0.41c0.07-0.27-0.04-0.63-0.34-1.09
			l-14.57-21.13c1.43-2.09,2.7-3.94,3.81-5.57c1.11-1.63,2.16-3.16,3.16-4.58c0.99-1.43,1.97-2.83,2.92-4.2
			c0.95-1.37,1.98-2.84,3.09-4.43c0.45-0.68,0.59-1.14,0.42-1.38c-0.17-0.24-0.61-0.36-1.31-0.36H777.88z"/>
	</defs>
	<linearGradient id="SVGID_42_" gradientUnits="userSpaceOnUse" x1="747.6485" y1="1036.1368" x2="785.1258" y2="1036.1368">
		<stop  offset="0" style="stop-color:#F2D445"/>
		<stop  offset="1" style="stop-color:#DEB81A"/>
	</linearGradient>
	<use xlink:href="#SVGID_106_"  style="overflow:visible;fill:url(#SVGID_42_);"/>
	<clipPath id="SVGID_43_">
		<use xlink:href="#SVGID_106_"  style="overflow:visible;"/>
	</clipPath>
	
		<linearGradient id="SVGID_44_" gradientUnits="userSpaceOnUse" x1="105.5424" y1="645.5207" x2="107.4413" y2="645.5207" gradientTransform="matrix(293.5583 -31.1055 -31.1055 -293.5583 -10583.7842 193864.375)">
		<stop  offset="0" style="stop-color:#F2D445"/>
		<stop  offset="1" style="stop-color:#DEB81A"/>
	</linearGradient>
	<polygon class="st15" points="743.08,1015.04 784.76,1010.62 789.7,1057.23 748.02,1061.65 	"/>
</g>
<g>
	<defs>
		<path id="SVGID_109_" d="M710.02,45.03c37.48,0,71.87,13.92,96.81,39.18c48.8,49.41,49.96,129.84,6.67,190.67
			c1.3-15.71,0.81-31.45-1.54-46.98c-6.34-41.99-25.54-78.73-55.53-106.26c-33.17-30.45-77.68-47.21-125.35-47.21
			c-4.8,0-9.63,0.17-14.46,0.52C644.6,55.7,677.38,45.03,710.02,45.03 M575.97,78.15c-12.35,12.2-22.72,25.57-31.17,39.66
			c0.62-0.17,1.86-0.48,3.64-0.88c26.95-12.75,55.25-18.99,82.64-18.99c40.99,0,79.98,13.97,109.44,41.02
			c52.91,48.56,65.42,130.38,30.45,202.72c-0.49,2.12-0.86,3.53-1.03,4.12c14.19-8.28,27.7-18.47,40.05-30.67
			c72.12-71.22,78.2-182.01,13.58-247.45c-30.52-30.91-71.36-46.17-113.55-46.17C662.88,21.51,614.03,40.56,575.97,78.15"/>
	</defs>
	<clipPath id="SVGID_45_">
		<use xlink:href="#SVGID_109_"  style="overflow:visible;"/>
	</clipPath>
	
		<linearGradient id="SVGID_46_" gradientUnits="userSpaceOnUse" x1="104.8433" y1="645.7793" x2="106.7422" y2="645.7793" gradientTransform="matrix(170.3766 0 0 -170.3766 -17318.0469 110209.3203)">
		<stop  offset="0" style="stop-color:#718416"/>
		<stop  offset="1" style="stop-color:#B0BC47"/>
	</linearGradient>
	<rect x="544.8" y="21.51" class="st16" width="343.4" height="324.29"/>
</g>
<g>
	<defs>
		<path id="SVGID_112_" d="M495.04,644.8L245.53,395.29c-10.19-10.19-10.19-26.77,0-36.96l249.51-249.51
			c10.2-10.19,26.77-10.19,36.96,0l249.51,249.51c10.19,10.19,10.19,26.77,0,36.96L532,644.8c-4.91,4.9-11.47,7.61-18.48,7.61
			C506.51,652.41,499.95,649.71,495.04,644.8 M478.41,92.18L228.9,341.69c-19.36,19.36-19.36,50.87,0,70.23l249.51,249.51
			c9.35,9.35,21.82,14.5,35.12,14.5c13.3,0,25.77-5.15,35.11-14.5l249.51-249.51c19.36-19.36,19.36-50.87,0-70.23L548.64,92.18
			c-9.68-9.68-22.4-14.52-35.11-14.52C500.81,77.66,488.09,82.5,478.41,92.18"/>
	</defs>
	<clipPath id="SVGID_47_">
		<use xlink:href="#SVGID_112_"  style="overflow:visible;"/>
	</clipPath>
	
		<linearGradient id="SVGID_48_" gradientUnits="userSpaceOnUse" x1="105.7966" y1="646.509" x2="107.6955" y2="646.509" gradientTransform="matrix(315.0728 0 0 -315.0728 -33119.2539 204074.2188)">
		<stop  offset="0" style="stop-color:#718416"/>
		<stop  offset="1" style="stop-color:#B0BC47"/>
	</linearGradient>
	<rect x="209.53" y="77.66" class="st17" width="607.98" height="598.27"/>
</g>
<g>
	<defs>
		<path id="SVGID_115_" d="M508.26,521.7c-38.95-1.14-74.94-17.19-101.34-45.18c-26.4-28-40.32-64.86-39.18-103.81
			c1.14-38.94,17.18-74.94,45.18-101.34c26.93-25.4,62.07-39.24,99.38-39.24c1.47,0,2.95,0.02,4.42,0.06
			c38.94,1.14,74.93,17.19,101.34,45.18c26.4,28,40.32,64.86,39.18,103.81c-1.14,38.94-17.18,74.93-45.18,101.34
			c-26.93,25.4-62.09,39.24-99.37,39.24C511.22,521.77,509.74,521.75,508.26,521.7 M396.78,254.27
			c-32.57,30.72-51.23,72.54-52.55,117.77c-1.32,45.22,14.87,88.07,45.58,120.64c30.71,32.56,72.54,51.23,117.76,52.55
			c1.71,0.05,3.42,0.07,5.13,0.07c43.33,0,84.17-16.1,115.51-45.65v0c32.57-30.72,51.23-72.54,52.55-117.76
			c1.32-45.23-14.87-88.07-45.58-120.64c-30.71-32.56-72.54-51.23-117.76-52.55c-1.72-0.05-3.43-0.07-5.14-0.07
			C468.88,208.61,428.11,224.71,396.78,254.27"/>
	</defs>
	<clipPath id="SVGID_49_">
		<use xlink:href="#SVGID_115_"  style="overflow:visible;"/>
	</clipPath>
	
		<linearGradient id="SVGID_50_" gradientUnits="userSpaceOnUse" x1="104.431" y1="645.35" x2="106.3299" y2="645.35" gradientTransform="matrix(177.3046 0 0 -177.3046 -18171.9355 114800.4453)">
		<stop  offset="0" style="stop-color:#718416"/>
		<stop  offset="1" style="stop-color:#B0BC47"/>
	</linearGradient>
	<rect x="342.9" y="208.61" class="st18" width="339.18" height="336.68"/>
</g>
<g>
	<defs>
		<path id="SVGID_118_" d="M510.41,448.15c-19.17-0.56-36.87-8.45-49.85-22.21c-12.98-13.77-19.82-31.9-19.26-51.07
			c0.56-19.16,8.45-36.87,22.22-49.85c13.24-12.49,30.53-19.29,48.88-19.29c0.72,0,1.45,0.01,2.18,0.03
			c19.17,0.56,36.87,8.45,49.85,22.22c12.98,13.76,19.82,31.9,19.26,51.06c-0.56,19.16-8.45,36.87-22.22,49.85v0
			c-13.25,12.5-30.6,19.29-48.94,19.29C511.83,448.18,511.12,448.17,510.41,448.15 M501.51,248.55v35.82
			c-17.16,1.96-33.26,8.59-46.79,19.27l-25.25-25.25l-15.53,15.53l25.24,25.24c-10.61,13.45-17.22,29.55-19.22,46.8H384.1v21.96
			h35.83c1.96,17.15,8.58,33.25,19.26,46.79l-25.25,25.25l15.53,15.53l25.24-25.24c13.45,10.61,29.55,17.22,46.8,19.22v35.87h21.96
			V469.5c17.15-1.97,33.26-8.56,46.8-19.24l25.25,25.25l15.53-15.53l-25.24-25.24c10.6-13.45,17.22-29.55,19.21-46.8h35.87v-21.96
			h-35.83c-1.96-17.15-8.58-33.25-19.26-46.79l25.25-25.25l-15.53-15.53l-25.24,25.24c-13.45-10.61-29.55-17.22-46.81-19.22v-35.87
			H501.51z"/>
	</defs>
	<linearGradient id="SVGID_51_" gradientUnits="userSpaceOnUse" x1="384.0961" y1="376.9525" x2="640.8939" y2="376.9525">
		<stop  offset="0" style="stop-color:#F2D445"/>
		<stop  offset="1" style="stop-color:#DEB81A"/>
	</linearGradient>
	<use xlink:href="#SVGID_118_"  style="overflow:visible;fill:url(#SVGID_51_);"/>
	<clipPath id="SVGID_52_">
		<use xlink:href="#SVGID_118_"  style="overflow:visible;"/>
	</clipPath>
	
		<linearGradient id="SVGID_53_" gradientUnits="userSpaceOnUse" x1="103.4604" y1="644.5255" x2="105.3594" y2="644.5255" gradientTransform="matrix(135.2333 0 0 -135.2333 -13607.2031 87538.2734)">
		<stop  offset="0" style="stop-color:#F2D445"/>
		<stop  offset="1" style="stop-color:#DEB81A"/>
	</linearGradient>
	<rect x="384.1" y="248.55" class="st19" width="256.8" height="256.8"/>
</g>
</svg>
