<?xml version="1.0" encoding="utf-8"?>
<!-- Generator: Adobe Illustrator 25.0.1, SVG Export Plug-In . SVG Version: 6.00 Build 0)  -->
<svg version="1.1" id="Layer_1" xmlns="http://www.w3.org/2000/svg" xmlns:xlink="http://www.w3.org/1999/xlink" x="0px" y="0px"
	 viewBox="0 0 1080 522.09" style="enable-background:new 0 0 1080 522.09;" xml:space="preserve">
<style type="text/css">
	.st0{fill:url(#SVGID_1_);}
	.st1{fill:url(#SVGID_2_);}
	.st2{fill:url(#SVGID_3_);}
	.st3{fill:url(#SVGID_4_);}
	.st4{fill:url(#SVGID_5_);}
	.st5{fill:url(#SVGID_6_);}
	.st6{fill:url(#SVGID_7_);}
	.st7{fill:url(#SVGID_8_);}
	.st8{fill:url(#SVGID_9_);}
	.st9{fill:url(#SVGID_10_);}
	.st10{fill:url(#SVGID_11_);}
	.st11{fill:url(#SVGID_12_);}
	.st12{fill:url(#SVGID_13_);}
	.st13{fill:url(#SVGID_14_);}
	.st14{fill:url(#SVGID_15_);}
	.st15{fill:url(#SVGID_16_);}
	.st16{fill:url(#SVGID_17_);}
	.st17{fill:url(#SVGID_18_);}
	.st18{fill:url(#SVGID_19_);}
	.st19{fill:url(#SVGID_20_);}
</style>
<g>
	<linearGradient id="SVGID_1_" gradientUnits="userSpaceOnUse" x1="455.8135" y1="240.4108" x2="1077.9874" y2="169.976">
		<stop  offset="0" style="stop-color:#718216"/>
		<stop  offset="1" style="stop-color:#AEBA48"/>
	</linearGradient>
	<path class="st0" d="M440.3,165.08c0-3.41,1.57-4.98,4.98-4.98h49.29c7.6,0,14.68,0.79,21.5,2.62c6.82,1.84,13.11,4.46,18.88,7.87
		c5.77,3.41,11.01,7.34,15.73,12.32c4.72,4.72,8.65,9.96,12.06,15.99c3.41,5.77,6.03,12.06,7.87,18.88
		c1.84,6.82,2.62,13.63,2.62,20.98s-1.05,14.16-2.88,20.98c-1.84,6.55-4.46,12.85-7.87,18.62c-3.41,5.77-7.6,11.01-12.32,15.73
		c-4.72,4.72-10.23,8.91-15.99,12.32c-5.77,3.41-12.06,6.03-18.88,7.87c-6.82,1.84-13.9,2.88-21.24,2.88h-49.29
		c-1.31,0-2.36-0.26-3.41-0.79c-1.05-0.52-1.57-1.84-1.57-3.41V165.08H440.3z M493.79,296.7c8.65,0,16.52-1.57,23.86-4.72
		c7.34-3.15,13.37-7.34,18.62-12.85c5.24-5.51,9.44-11.54,12.32-18.88c2.88-7.08,4.46-14.68,4.46-22.81
		c0-8.65-1.57-16.52-4.72-23.34c-3.15-7.08-7.34-13.11-12.59-18.09c-5.24-4.98-11.54-8.91-18.62-11.54
		c-7.08-2.62-14.68-4.2-22.81-4.2h-33.82V296.7L493.79,296.7L493.79,296.7z"/>
	<linearGradient id="SVGID_2_" gradientUnits="userSpaceOnUse" x1="458.7529" y1="266.3753" x2="1080.9268" y2="195.9405">
		<stop  offset="0" style="stop-color:#718216"/>
		<stop  offset="1" style="stop-color:#AEBA48"/>
	</linearGradient>
	<path class="st1" d="M626.72,312.96c-0.52,1.31-1.31,2.1-2.1,2.88s-2.1,1.05-3.41,1.05h-11.27c-3.15,0-4.98-1.31-4.98-3.67
		c0-0.52,0-0.79,0-1.31c0-0.26,0-0.52,0.26-0.79c0-0.26,0.26-0.52,0.26-0.79l60.83-146.31c0.26-0.26,0.26-0.79,0.52-1.31
		c0.26-0.52,0.52-0.79,0.79-1.31c0.26-0.26,0.79-0.79,1.57-1.05c0.79-0.26,1.57-0.52,2.62-0.52h7.08c1.05,0,1.84,0.26,2.62,0.52
		c0.79,0.26,1.05,0.52,1.57,1.05c0.26,0.26,0.52,0.79,0.79,1.31c0.26,0.52,0.26,0.79,0.52,1.31l60.31,146.31
		c0,0.26,0.26,0.79,0.26,1.05c0,0.26,0.26,0.79,0.26,1.05c0,0.26,0,0.52,0,0.79c0,2.36-1.57,3.67-4.98,3.67h-11.27
		c-1.31,0-2.62-0.26-3.41-1.05c-0.79-0.79-1.57-1.57-2.1-2.88l-11.54-29.1h-74.2c-2.36,6.29-4.72,12.06-6.82,17.04
		C629.08,305.88,627.51,309.81,626.72,312.96 M646.39,263.4h57.42l-28.58-72.1L646.39,263.4z"/>
	<linearGradient id="SVGID_3_" gradientUnits="userSpaceOnUse" x1="460.295" y1="279.9971" x2="1082.4689" y2="209.5623">
		<stop  offset="0" style="stop-color:#718216"/>
		<stop  offset="1" style="stop-color:#AEBA48"/>
	</linearGradient>
	<path class="st2" d="M874.24,296.18c1.31,0,2.36,0.52,3.15,1.31s1.31,2.1,1.31,3.67v10.75c0,1.31-0.52,2.36-1.31,3.15
		s-2.1,1.31-3.41,1.31H784.3c-3.15,0-4.72-1.57-4.72-4.72V164.55c0-1.31,0.52-2.36,1.31-3.15s2.1-1.31,3.67-1.31h10.75
		c1.31,0,2.36,0.26,3.41,1.05c0.79,0.79,1.31,1.84,1.31,3.41v131.62H874.24z"/>
	<linearGradient id="SVGID_4_" gradientUnits="userSpaceOnUse" x1="462.4556" y1="299.082" x2="1084.6295" y2="228.6472">
		<stop  offset="0" style="stop-color:#718216"/>
		<stop  offset="1" style="stop-color:#AEBA48"/>
	</linearGradient>
	<path class="st3" d="M919.33,312.96c-0.52,1.31-1.31,2.1-2.1,2.88s-2.1,1.05-3.41,1.05h-11.27c-3.15,0-4.98-1.31-4.98-3.67
		c0-0.52,0-0.79,0-1.31c0-0.26,0-0.52,0.26-0.79c0-0.26,0.26-0.52,0.26-0.79l60.83-146.31c0.26-0.26,0.26-0.79,0.52-1.31
		c0.26-0.52,0.52-0.79,0.79-1.31c0.26-0.26,0.79-0.79,1.57-1.05c0.79-0.26,1.57-0.52,2.62-0.52h7.08c1.05,0,1.84,0.26,2.62,0.52
		c0.79,0.26,1.05,0.52,1.57,1.05c0.26,0.26,0.52,0.79,0.79,1.31c0.26,0.52,0.26,0.79,0.52,1.31l60.31,146.31
		c0,0.26,0.26,0.79,0.26,1.05c0,0.26,0.26,0.79,0.26,1.05c0,0.26,0,0.52,0,0.79c0,2.36-1.57,3.67-4.98,3.67h-11.27
		c-1.31,0-2.62-0.26-3.41-1.05c-0.79-0.79-1.57-1.57-2.1-2.88l-11.54-29.1h-74.2c-2.36,6.29-4.72,12.06-6.82,17.04
		C921.96,305.88,920.38,309.81,919.33,312.96 M939.26,263.4h57.42l-28.58-72.1L939.26,263.4z"/>
	<linearGradient id="SVGID_5_" gradientUnits="userSpaceOnUse" x1="472.0546" y1="383.8734" x2="1094.2285" y2="313.4387">
		<stop  offset="0" style="stop-color:#F2D445"/>
		<stop  offset="1" style="stop-color:#DEB81A"/>
	</linearGradient>
	<path class="st4" d="M440.56,397.65c0-0.26-0.26-0.52-0.26-0.79c0-0.26,0-0.26,0-0.52c0-0.26,0.26-0.26,0.26-0.26
		s0.26-0.26,0.52-0.26l3.15-1.31c0.52-0.26,1.05-0.26,1.31,0c0.26,0.26,0.52,0.52,0.79,1.05c0.26,0.79,0.79,1.57,1.57,2.1
		s1.57,1.05,2.36,1.57c0.79,0.52,1.57,0.79,2.62,1.05c0.79,0.26,1.57,0.26,2.1,0.26c0.79,0,1.84,0,2.62-0.26
		c1.05-0.26,1.84-0.52,2.88-1.05c0.79-0.52,1.57-1.05,2.1-1.84c0.52-0.79,0.79-1.84,0.79-2.88c0-1.05-0.26-2.1-0.79-2.88
		c-0.52-0.79-1.31-1.31-2.1-1.84c-0.79-0.52-1.84-0.79-3.15-1.05c-1.05-0.26-2.1-0.52-3.41-0.79c-1.84-0.52-3.67-1.05-5.24-1.84
		s-2.88-1.57-3.93-2.62c-1.05-1.05-1.84-2.1-2.36-3.41c-0.52-1.31-0.79-2.62-0.79-4.2c0-1.84,0.26-3.41,1.05-4.72
		c0.79-1.31,1.57-2.62,2.88-3.67c1.31-1.05,2.62-1.84,4.46-2.36c1.57-0.52,3.67-0.79,5.51-0.79c1.57,0,3.15,0.26,4.2,0.52
		c1.31,0.26,2.36,0.79,3.15,1.31c1.05,0.52,1.84,1.31,2.62,2.1s1.57,1.84,2.36,3.15c0.26,0.52,0.52,0.79,0.52,1.05
		c0,0.26-0.26,0.52-0.52,1.05l-2.62,1.84c-0.52,0.26-0.79,0.26-1.05,0.26c-0.26,0-0.52-0.26-0.79-0.79
		c-0.52-0.52-1.05-1.05-1.57-1.57c-0.52-0.52-1.05-1.05-1.57-1.57c-0.52-0.52-1.31-0.79-2.1-1.05c-0.79-0.26-1.57-0.26-2.62-0.26
		s-1.84,0-2.88,0.26c-0.79,0.26-1.57,0.52-2.36,1.05c-0.79,0.52-1.31,1.05-1.57,1.84c-0.52,0.79-0.52,1.57-0.52,2.62
		c0,0.79,0.26,1.57,0.79,2.1c0.52,0.52,1.31,1.31,2.1,1.84s1.57,1.05,2.62,1.31c1.05,0.26,1.84,0.79,2.88,0.79
		c2.1,0.52,3.93,1.05,5.77,1.84c1.57,0.79,3.15,1.57,4.46,2.62c1.31,1.05,2.1,2.1,2.88,3.67c0.79,1.31,1.05,2.88,1.05,4.72
		c0,1.84-0.26,3.67-1.05,4.98c-0.79,1.57-1.84,2.88-3.15,3.93s-2.88,1.84-4.72,2.36s-3.93,0.79-6.03,0.79
		c-1.31,0-2.88-0.26-4.2-0.52c-1.57-0.26-2.88-0.79-4.2-1.57c-1.31-0.79-2.36-1.57-3.41-2.62
		C441.87,400.53,441.09,399.22,440.56,397.65"/>
	<linearGradient id="SVGID_6_" gradientUnits="userSpaceOnUse" x1="472.5835" y1="388.5459" x2="1094.7574" y2="318.1111">
		<stop  offset="0" style="stop-color:#F2D445"/>
		<stop  offset="1" style="stop-color:#DEB81A"/>
	</linearGradient>
	<path class="st5" d="M484.35,369.33c0.52-0.79,1.31-1.57,1.84-2.1c0.79-0.79,1.57-1.31,2.36-1.84c0.79-0.52,1.84-0.79,2.88-1.05
		c1.05-0.26,2.36-0.52,3.67-0.52c3.41,0,6.29,0.52,8.39,1.84c2.1,1.31,3.93,3.15,5.24,5.51c0.52-1.31,1.31-2.62,2.36-3.41
		c1.05-1.05,2.1-1.84,3.15-2.36c1.31-0.52,2.62-1.05,3.93-1.31c1.31-0.26,2.88-0.52,4.2-0.52c2.62,0,4.98,0.52,7.08,1.31
		c2.1,1.05,3.67,2.1,5.24,3.67c1.31,1.57,2.36,3.41,3.15,5.51c0.79,2.1,1.05,4.46,1.05,6.82v22.02c0,0.79-0.26,1.31-0.52,1.57
		c-0.26,0.26-0.79,0.52-1.57,0.52h-2.36c-0.79,0-1.31-0.26-1.57-0.52c-0.26-0.26-0.26-0.79-0.26-1.57v-22.29
		c0-1.31-0.26-2.62-0.52-3.93c-0.26-1.31-1.05-2.62-1.84-3.67c-0.79-1.05-1.84-2.1-3.15-2.62c-1.31-0.79-2.88-1.05-4.98-1.05
		c-1.57,0-3.15,0.26-4.46,0.79c-1.31,0.52-2.36,1.31-3.41,2.36c-0.79,1.05-1.57,2.1-2.1,3.67c-0.52,1.31-0.79,3.15-0.79,4.72v22.02
		c0,0.79-0.26,1.31-0.52,1.57c-0.26,0.26-0.79,0.52-1.57,0.52h-2.36c-0.79,0-1.31-0.26-1.57-0.52c-0.26-0.26-0.26-0.79-0.26-1.57
		v-22.29c0-1.31-0.26-2.62-0.52-3.93c-0.26-1.31-1.05-2.62-1.84-3.67c-0.79-1.05-1.84-2.1-3.15-2.62c-1.31-0.79-2.88-1.05-4.98-1.05
		c-1.31,0-2.36,0.26-3.67,0.79c-1.31,0.52-2.36,1.05-3.41,2.1c-1.05,0.79-1.84,1.84-2.36,3.15c-0.52,1.31-1.05,2.62-1.05,4.46v24.12
		c0,1.05-0.52,1.31-1.31,1.31h-3.41c-1.05,0-1.57-0.52-1.57-1.31V365.4c0-0.52,0.26-0.79,0.52-1.05c0.26-0.26,0.52-0.26,1.05-0.26
		h3.41c0.52,0,0.79,0.26,1.05,0.52c0.26,0.26,0.52,0.52,0.52,1.05L484.35,369.33L484.35,369.33z"/>
	<linearGradient id="SVGID_7_" gradientUnits="userSpaceOnUse" x1="473.4479" y1="396.181" x2="1095.6218" y2="325.7462">
		<stop  offset="0" style="stop-color:#F2D445"/>
		<stop  offset="1" style="stop-color:#DEB81A"/>
	</linearGradient>
	<path class="st6" d="M582.93,400.27c-1.84,1.84-3.93,3.41-6.55,4.46c-2.36,1.05-5.24,1.57-8.13,1.57c-1.84,0-3.93-0.26-5.51-0.79
		c-1.84-0.52-3.41-1.31-4.98-2.1c-1.57-1.05-3.15-2.1-4.46-3.41c-1.31-1.31-2.36-2.62-3.41-4.46c-1.05-1.57-1.57-3.41-2.1-4.98
		c-0.52-1.84-0.79-3.67-0.79-5.77c0-1.84,0.26-3.93,0.79-5.77c0.52-1.84,1.31-3.41,2.1-4.98c1.05-1.57,2.1-3.15,3.41-4.46
		s2.62-2.36,4.46-3.41c1.57-1.05,3.41-1.57,4.98-2.1c1.84-0.52,3.67-0.79,5.51-0.79c2.88,0,5.51,0.52,8.13,1.57
		c2.36,1.05,4.72,2.62,6.55,4.46v-3.93c0-1.05,0.52-1.31,1.31-1.31h3.41c1.05,0,1.57,0.52,1.57,1.31v38.54
		c0,0.52-0.26,0.79-0.52,1.05c-0.26,0.26-0.52,0.52-1.05,0.52h-3.41c-0.52,0-0.79-0.26-1.05-0.52c-0.26-0.26-0.52-0.52-0.52-1.05
		v-3.67H582.93z M583.2,385.06c0-2.1-0.26-3.93-1.05-5.77c-0.79-1.84-1.84-3.41-3.15-4.98c-1.31-1.31-2.88-2.62-4.72-3.41
		c-1.84-0.79-3.67-1.31-5.77-1.31s-3.93,0.52-5.77,1.31c-1.84,0.79-3.41,1.84-4.72,3.41c-1.31,1.31-2.36,2.88-3.15,4.98
		s-1.05,3.93-1.05,5.77c0,2.1,0.26,3.93,1.05,5.77c0.79,1.84,1.84,3.41,3.15,4.98c1.31,1.31,2.88,2.62,4.72,3.41
		c1.84,0.79,3.67,1.31,5.77,1.31s3.93-0.52,5.77-1.31c1.84-0.79,3.41-2.1,4.72-3.41c1.31-1.31,2.36-3.15,3.15-4.98
		C582.93,389,583.2,386.9,583.2,385.06"/>
	<linearGradient id="SVGID_8_" gradientUnits="userSpaceOnUse" x1="473.7925" y1="399.2252" x2="1095.9664" y2="328.7904">
		<stop  offset="0" style="stop-color:#F2D445"/>
		<stop  offset="1" style="stop-color:#DEB81A"/>
	</linearGradient>
	<path class="st7" d="M605.48,368.81c0.26-0.52,0.52-1.05,1.05-1.57c0.52-0.52,1.05-1.05,1.84-1.57c0.79-0.52,1.57-0.79,2.36-1.31
		c0.79-0.26,1.84-0.52,2.88-0.52c1.05,0,2.1,0,3.15,0.26c1.05,0,1.84,0.26,2.62,0.52c0.79,0.26,1.57,0.52,2.36,1.05
		c0.79,0.52,1.57,1.05,2.62,1.57c0.26,0.26,0.52,0.52,0.79,0.79c0.26,0.26,0.52,0.79,0.52,1.05c0,0.26,0,0.52-0.26,0.52l-1.84,2.88
		c-0.26,0.26-0.52,0.52-0.79,0.52s-0.26,0-0.52-0.26c-0.26,0-0.26-0.26-0.52-0.52c-1.31-0.79-2.62-1.57-3.93-2.1
		c-1.31-0.52-2.62-0.52-3.93-0.52c-1.05,0-2.1,0.26-3.15,0.52c-1.05,0.52-1.84,1.05-2.62,1.84s-1.31,1.84-1.84,2.88
		c-0.52,1.05-0.79,2.36-0.79,3.67v25.43c0,1.05-0.52,1.31-1.31,1.31h-3.41c-1.05,0-1.57-0.52-1.57-1.31V365.4
		c0-0.52,0.26-0.79,0.52-1.05c0.26-0.26,0.52-0.26,1.05-0.26h3.41c0.52,0,0.79,0.26,1.05,0.52s0.52,0.52,0.52,1.05v3.15H605.48z"/>
	<linearGradient id="SVGID_9_" gradientUnits="userSpaceOnUse" x1="473.8715" y1="399.9226" x2="1096.0454" y2="329.4878">
		<stop  offset="0" style="stop-color:#F2D445"/>
		<stop  offset="1" style="stop-color:#DEB81A"/>
	</linearGradient>
	<path class="st8" d="M644.03,406.3c-1.05,0-2.1,0-2.88-0.26c-1.05-0.26-1.84-0.79-2.62-1.31s-1.57-1.31-2.1-2.36
		c-0.52-1.05-0.79-2.36-0.79-3.93v-28.32h-3.67c-0.52,0-1.05,0-1.31-0.26c-0.26-0.26-0.52-0.52-0.52-1.05v-3.15
		c0-0.52,0-1.05,0.52-1.05c0.26-0.26,0.79-0.26,1.31-0.26h3.67v-6.82c0-0.26,0-0.52,0.26-0.79c0.26-0.26,0.52-0.26,0.79-0.52
		c0,0,0.52,0,0.79-0.26c0.52,0,0.79,0,1.31-0.26c0.52,0,1.05-0.26,1.57-0.26c0.26,0,0.79,0,0.79,0c0.26,0,0.26,0.26,0.52,0.52
		c0,0.26,0.26,0.26,0.26,0.52c0,0.26,0,0.52,0,0.79v7.08h4.46c0.52,0,0.79,0,1.05,0.26c0.26,0.26,0.26,0.52,0.26,1.05v2.62
		c0,0.52,0,1.05-0.26,1.31c-0.26,0.26-0.52,0.26-1.05,0.26h-4.46v28.06c0,0.79,0.26,1.31,0.52,1.57c0.26,0.26,0.79,0.52,1.57,0.52
		c0.52,0,0.79,0.26,1.31,0.52c0.26,0.26,0.52,0.79,0.52,1.31v2.62c0,0.52-0.26,0.79-0.52,1.31
		C645.08,406.04,644.55,406.3,644.03,406.3"/>
	<linearGradient id="SVGID_10_" gradientUnits="userSpaceOnUse" x1="474.1118" y1="402.0457" x2="1096.2858" y2="331.611">
		<stop  offset="0" style="stop-color:#F2D445"/>
		<stop  offset="1" style="stop-color:#DEB81A"/>
	</linearGradient>
	<path class="st9" d="M682.83,404.2c0,1.05-0.52,1.31-1.31,1.31h-3.41c-1.05,0-1.57-0.52-1.57-1.31v-50.87
		c0-0.52,0.26-0.79,0.52-1.05c0.26-0.26,0.52-0.26,1.05-0.26h3.41c0.52,0,0.79,0.26,1.05,0.52c0.26,0.26,0.52,0.52,0.52,1.05v50.6
		H682.83z"/>
	<linearGradient id="SVGID_11_" gradientUnits="userSpaceOnUse" x1="475.2416" y1="412.0257" x2="1097.4155" y2="341.5909">
		<stop  offset="0" style="stop-color:#F2D445"/>
		<stop  offset="1" style="stop-color:#DEB81A"/>
	</linearGradient>
	<path class="st10" d="M692.01,385.06c0-2.88,0.52-5.77,1.84-8.39c1.05-2.62,2.62-4.98,4.72-6.82c1.84-1.84,4.2-3.41,6.82-4.72
		c2.62-1.05,5.24-1.57,8.13-1.57c1.84,0,3.93,0.26,5.51,0.79c1.84,0.52,3.41,1.31,4.98,2.1c1.57,1.05,3.15,2.1,4.46,3.41
		c1.31,1.31,2.36,2.62,3.41,4.46c1.05,1.57,1.57,3.41,2.1,4.98c0.52,1.84,0.79,3.67,0.79,5.77c0,2.1-0.26,3.93-0.79,5.77
		s-1.31,3.41-2.1,4.98c-1.05,1.57-2.1,3.15-3.41,4.46c-1.31,1.31-2.62,2.36-4.46,3.41c-1.57,1.05-3.41,1.57-4.98,2.1
		c-1.84,0.52-3.67,0.79-5.51,0.79c-1.84,0-3.93-0.26-5.51-0.79c-1.84-0.52-3.41-1.31-4.98-2.1c-1.57-1.05-3.15-2.1-4.46-3.41
		c-1.31-1.31-2.36-2.62-3.41-4.46c-1.05-1.57-1.57-3.41-2.1-4.98C692.27,389,692.01,387.16,692.01,385.06 M698.56,385.06
		c0,2.1,0.26,3.93,1.05,5.77c0.79,1.84,1.84,3.41,3.15,4.98c1.31,1.31,2.88,2.62,4.72,3.41c1.84,0.79,3.67,1.31,5.77,1.31
		s3.93-0.52,5.77-1.31c1.84-0.79,3.41-1.84,4.72-3.41c1.31-1.31,2.36-2.88,3.15-4.98c0.79-1.84,1.05-3.67,1.05-5.77
		s-0.26-3.93-1.05-5.77c-0.79-1.84-1.84-3.41-3.15-4.98c-1.31-1.31-2.88-2.62-4.72-3.41c-1.84-0.79-3.67-1.31-5.77-1.31
		s-3.93,0.52-5.77,1.31c-1.84,0.79-3.41,2.1-4.72,3.41s-2.36,3.15-3.15,4.98C699.09,381.13,698.56,383.23,698.56,385.06"/>
	<linearGradient id="SVGID_12_" gradientUnits="userSpaceOnUse" x1="475.8395" y1="417.3072" x2="1098.0134" y2="346.8724">
		<stop  offset="0" style="stop-color:#F2D445"/>
		<stop  offset="1" style="stop-color:#DEB81A"/>
	</linearGradient>
	<path class="st11" d="M772.5,396.34c0.26,0,0.26-0.26,0.52-0.52c0.26-0.26,0.26-0.26,0.52-0.26c0.26,0,0.52,0,0.52,0
		c0.26,0,0.52,0.26,0.52,0.52c0.52,0.52,0.79,1.05,1.05,1.31c0.26,0.26,0.52,0.79,0.79,0.79c0.26,0.26,0.26,0.52,0.26,0.52
		c0,0.26,0.26,0.26,0.26,0.52c0,0.26,0,0.26,0,0.52c0,0.26-0.26,0.52-0.26,0.79c-0.26,0.26-0.52,0.52-0.79,0.79
		c-1.05,0.79-1.84,1.31-2.88,2.1c-1.05,0.52-2.1,1.05-3.15,1.57c-1.05,0.52-2.36,0.79-3.41,1.05c-1.31,0.26-2.62,0.26-3.93,0.26
		c-1.84,0-3.67-0.26-5.51-0.79c-1.84-0.52-3.41-1.31-4.98-2.1c-1.57-1.05-3.15-2.1-4.46-3.41c-1.31-1.31-2.36-2.62-3.41-4.46
		c-1.05-1.57-1.57-3.41-2.1-4.98c-0.52-1.84-0.79-3.67-0.79-5.77c0-1.84,0.26-3.93,0.79-5.77c0.52-1.84,1.31-3.41,2.1-4.98
		c1.05-1.57,2.1-3.15,3.41-4.46s2.88-2.36,4.46-3.41c1.57-1.05,3.41-1.57,4.98-2.1c1.84-0.52,3.67-0.79,5.51-0.79
		c1.31,0,2.36,0,3.67,0.26c1.31,0.26,2.36,0.52,3.41,1.05c1.05,0.52,2.1,0.79,3.15,1.31c1.05,0.52,1.84,1.05,2.62,1.84
		c0.26,0,0.26,0.26,0.52,0.52c0.26,0.26,0.26,0.26,0.52,0.52c0.26,0.26,0.26,0.52,0.26,0.79c0,0.26,0,0.52-0.26,0.79l-2.36,3.15
		c-0.52,0.79-1.31,0.79-1.84,0c-0.52-0.52-1.31-1.05-2.1-1.57c-0.79-0.52-1.57-0.79-2.36-1.31c-0.79-0.26-1.84-0.52-2.62-0.79
		c-1.05-0.26-1.84-0.26-2.88-0.26c-1.84,0-3.67,0.52-5.51,1.31c-1.84,0.79-3.41,1.84-4.72,3.41c-1.31,1.31-2.36,3.15-3.41,4.98
		c-0.79,1.84-1.31,3.93-1.31,5.77c0,2.1,0.52,3.93,1.31,6.03c0.79,1.84,1.84,3.41,3.15,4.98c1.31,1.31,2.88,2.36,4.72,3.41
		c1.84,0.79,3.67,1.31,5.51,1.31c1.31,0,2.36,0,3.15-0.26c1.05-0.26,1.84-0.52,2.62-0.79c0.79-0.26,1.57-0.79,2.1-1.31
		C771.19,397.39,771.98,396.86,772.5,396.34"/>
	<linearGradient id="SVGID_13_" gradientUnits="userSpaceOnUse" x1="475.6851" y1="415.9427" x2="1097.859" y2="345.5079">
		<stop  offset="0" style="stop-color:#F2D445"/>
		<stop  offset="1" style="stop-color:#DEB81A"/>
	</linearGradient>
	<path class="st12" d="M785.61,353.6c0-0.26,0-0.79,0.26-1.05c0.26-0.26,0.52-0.52,1.05-0.52h3.41c0.26,0,0.79,0,1.05,0.26
		c0.26,0.26,0.52,0.52,0.52,1.05v29.63l17.04-17.83c0.26-0.26,0.52-0.52,0.79-0.52c0.26-0.26,0.52-0.26,1.05-0.26h4.98
		c0.26,0,0.52,0,0.79,0.26c0.26,0.26,0.26,0.26,0.26,0.52c0,0.52,0,0.79-0.26,1.05l-15.73,16.52l17.83,21.24l0,0
		c0.26,0.26,0.26,0.52,0.52,0.79c0,0.26,0,0.52,0,0.52c0,0.26,0,0.52-0.26,0.52s-0.52,0-0.79,0h-5.51c-0.26,0-0.52,0-0.79-0.26
		c-0.26-0.26-0.52-0.52-0.52-0.79l-14.68-17.57l-4.2,4.46v12.85c0,1.05-0.52,1.31-1.57,1.31h-3.41c-1.05,0-1.31-0.52-1.31-1.31
		V353.6H785.61z"/>
	<linearGradient id="SVGID_14_" gradientUnits="userSpaceOnUse" x1="476.213" y1="420.6064" x2="1098.387" y2="350.1716">
		<stop  offset="0" style="stop-color:#F2D445"/>
		<stop  offset="1" style="stop-color:#DEB81A"/>
	</linearGradient>
	<path class="st13" d="M833.33,369.86c1.84-1.84,3.93-3.41,6.55-4.46c2.36-1.05,5.24-1.57,8.13-1.57c1.84,0,3.93,0.26,5.51,0.79
		c1.84,0.52,3.41,1.31,4.98,2.1c1.57,1.05,3.15,2.1,4.46,3.41c1.31,1.31,2.36,2.62,3.41,4.46c1.05,1.57,1.57,3.41,2.1,4.98
		c0.52,1.84,0.79,3.67,0.79,5.77c0,2.1-0.26,3.93-0.79,5.77s-1.31,3.41-2.1,4.98c-1.05,1.57-2.1,3.15-3.41,4.46
		c-1.31,1.31-2.62,2.36-4.46,3.41c-1.57,1.05-3.41,1.57-4.98,2.1c-1.84,0.52-3.67,0.79-5.51,0.79c-2.88,0-5.51-0.52-8.13-1.57
		c-2.36-1.05-4.72-2.62-6.55-4.46v3.93c0,1.05-0.52,1.31-1.31,1.31h-3.41c-1.05,0-1.57-0.52-1.57-1.31v-50.87
		c0-0.52,0.26-0.79,0.52-1.05c0.26-0.26,0.52-0.52,1.05-0.52h3.41c0.52,0,0.79,0.26,1.05,0.52c0.26,0.26,0.52,0.52,0.52,1.05v15.99
		H833.33z M833.07,385.06c0,2.1,0.26,3.93,1.05,5.77c0.79,1.84,1.84,3.41,3.15,4.98c1.31,1.31,2.88,2.62,4.72,3.41
		c1.84,0.79,3.67,1.31,5.77,1.31c2.1,0,3.93-0.52,5.77-1.31c1.84-0.79,3.41-1.84,4.72-3.41c1.31-1.31,2.36-2.88,3.15-4.98
		c0.79-1.84,1.05-3.67,1.05-5.77s-0.26-3.93-1.05-5.77c-0.79-1.84-1.84-3.41-3.15-4.98s-2.88-2.62-4.72-3.41
		c-1.84-0.79-3.67-1.31-5.77-1.31c-2.1,0-3.93,0.52-5.77,1.31c-1.84,0.79-3.41,2.1-4.72,3.41s-2.36,3.15-3.15,4.98
		S833.07,383.23,833.07,385.06"/>
	<linearGradient id="SVGID_15_" gradientUnits="userSpaceOnUse" x1="477.574" y1="432.6286" x2="1099.7479" y2="362.1938">
		<stop  offset="0" style="stop-color:#F2D445"/>
		<stop  offset="1" style="stop-color:#DEB81A"/>
	</linearGradient>
	<path class="st14" d="M876.33,385.06c0-2.88,0.52-5.77,1.84-8.39c1.05-2.62,2.62-4.98,4.72-6.82c1.84-1.84,4.2-3.41,6.82-4.72
		c2.62-1.05,5.24-1.57,8.13-1.57c1.84,0,3.93,0.26,5.51,0.79c1.84,0.52,3.41,1.31,4.98,2.1c1.57,1.05,3.15,2.1,4.46,3.41
		c1.31,1.31,2.36,2.62,3.41,4.46c1.05,1.57,1.57,3.41,2.1,4.98c0.52,1.84,0.79,3.67,0.79,5.77c0,2.1-0.26,3.93-0.79,5.77
		s-1.31,3.41-2.1,4.98c-1.05,1.57-2.1,3.15-3.41,4.46c-1.31,1.31-2.62,2.36-4.46,3.41c-1.57,1.05-3.41,1.57-4.98,2.1
		c-1.84,0.52-3.67,0.79-5.51,0.79c-1.84,0-3.93-0.26-5.51-0.79c-1.84-0.52-3.41-1.31-4.98-2.1c-1.57-1.05-3.15-2.1-4.46-3.41
		c-1.31-1.31-2.36-2.62-3.41-4.46c-1.05-1.57-1.57-3.41-2.1-4.98C876.6,389,876.33,387.16,876.33,385.06 M882.89,385.06
		c0,2.1,0.26,3.93,1.05,5.77c0.79,1.84,1.84,3.41,3.15,4.98c1.31,1.31,2.88,2.62,4.72,3.41c1.84,0.79,3.67,1.31,5.77,1.31
		s3.93-0.52,5.77-1.31c1.84-0.79,3.41-1.84,4.72-3.41c1.31-1.31,2.36-2.88,3.15-4.98c0.79-1.84,1.05-3.67,1.05-5.77
		s-0.26-3.93-1.05-5.77c-0.79-1.84-1.84-3.41-3.15-4.98c-1.31-1.31-2.88-2.62-4.72-3.41c-1.84-0.79-3.67-1.31-5.77-1.31
		s-3.93,0.52-5.77,1.31c-1.84,0.79-3.41,2.1-4.72,3.41c-1.31,1.31-2.36,3.15-3.15,4.98S882.89,383.23,882.89,385.06"/>
	<linearGradient id="SVGID_16_" gradientUnits="userSpaceOnUse" x1="478.1411" y1="437.6381" x2="1100.3151" y2="367.2033">
		<stop  offset="0" style="stop-color:#F2D445"/>
		<stop  offset="1" style="stop-color:#DEB81A"/>
	</linearGradient>
	<path class="st15" d="M931.39,404.47c-0.26,0.26-0.52,0.79-0.79,0.79c-0.26,0.26-0.52,0.26-1.05,0.26h-4.72
		c-0.52,0-0.79,0-0.79-0.26c0-0.26,0-0.52,0.26-1.05l13.9-20.19c-1.31-2.1-2.62-3.67-3.67-5.24c-1.05-1.57-2.1-3.15-3.15-4.46
		c-1.05-1.31-1.84-2.62-2.88-3.93c-0.79-1.31-1.84-2.62-2.88-4.2c-0.52-0.52-0.52-1.05-0.52-1.31c0.26-0.26,0.52-0.26,1.31-0.26h4.2
		c0.26,0,0.52,0,0.79,0s0.26,0,0.52,0.26c0.26,0,0.26,0.26,0.52,0.52c0.26,0.26,0.26,0.52,0.52,0.79l8.91,13.63l8.91-13.63
		c0.26-0.26,0.52-0.52,0.52-0.79c0.26-0.26,0.26-0.26,0.52-0.52c0.26,0,0.26-0.26,0.52-0.26c0.26,0,0.52,0,0.79,0h4.2
		c0.79,0,1.05,0,1.31,0.26c0.26,0.26,0,0.79-0.52,1.31c-1.05,1.57-2.1,2.88-2.88,4.2s-1.84,2.62-2.88,3.93
		c-1.05,1.31-2.1,2.88-3.15,4.46c-1.05,1.57-2.36,3.41-3.67,5.24l13.9,20.19c0.26,0.52,0.52,0.79,0.26,1.05
		c0,0.26-0.26,0.26-0.79,0.26h-4.72c-0.52,0-0.79,0-1.05-0.26c-0.26-0.26-0.52-0.52-0.79-0.79l-10.23-15.73L931.39,404.47z"/>
	<g>
		<linearGradient id="SVGID_17_" gradientUnits="userSpaceOnUse" x1="210.8771" y1="176.747" x2="375.8669" y2="176.747">
			<stop  offset="0" style="stop-color:#718216"/>
			<stop  offset="1" style="stop-color:#AEBA48"/>
		</linearGradient>
		<path class="st16" d="M295.3,105.82c19.14,0,36.71,7.08,49.29,19.93c24.91,25.17,25.43,66.34,3.41,97.28
			c0.79-8.13,0.52-15.99-0.79-23.86c-3.15-21.5-13.11-40.12-28.32-54.27c-17.04-15.47-39.59-24.12-63.98-24.12
			c-2.36,0-4.98,0-7.34,0.26C261.74,111.33,278.52,105.82,295.3,105.82 M295.3,94.02c-24.12,0-49.03,9.7-68.43,28.84
			c-6.29,6.29-11.54,13.11-15.99,20.19c0.26,0,1.05-0.26,1.84-0.52c13.63-6.55,28.32-9.7,42.21-9.7c20.98,0,40.9,7.08,55.85,20.98
			c27.01,24.91,33.3,66.6,15.47,103.57c-0.26,1.05-0.52,1.84-0.52,2.1c7.34-4.2,14.16-9.44,20.45-15.73
			c36.71-36.45,39.85-92.82,6.82-126.38C337.52,101.63,316.8,94.02,295.3,94.02"/>
		<linearGradient id="SVGID_18_" gradientUnits="userSpaceOnUse" x1="42.1532" y1="275.2678" x2="347.8752" y2="275.2678">
			<stop  offset="0" style="stop-color:#718216"/>
			<stop  offset="1" style="stop-color:#AEBA48"/>
		</linearGradient>
		<path class="st17" d="M194.88,428.06c-6.82,0-13.11-2.62-17.83-7.34L49.63,293.29c-9.96-9.96-9.96-25.96,0-35.92l127.43-127.43
			c9.96-9.96,25.96-9.96,35.92,0L340.4,257.37c9.96,9.96,9.96,25.96,0,35.92L212.97,420.72
			C207.99,425.44,201.7,428.06,194.88,428.06 M185.44,412.07c2.62,2.62,5.77,3.93,9.44,3.93s6.82-1.31,9.44-3.93l127.43-127.43
			c5.24-5.24,5.24-13.63,0-18.88L204.32,138.34c-5.24-5.24-13.63-5.24-18.88,0L58.02,265.76c-5.24,5.24-5.24,13.63,0,18.88
			L185.44,412.07z"/>
		<linearGradient id="SVGID_19_" gradientUnits="userSpaceOnUse" x1="108.3342" y1="275.3213" x2="280.1211" y2="275.3213">
			<stop  offset="0" style="stop-color:#718216"/>
			<stop  offset="1" style="stop-color:#AEBA48"/>
		</linearGradient>
		<path class="st18" d="M194.36,361.2c-0.79,0-1.84,0-2.62,0c-23.07-0.79-44.31-10.23-60.04-26.74
			c-15.73-16.52-23.86-38.54-23.34-61.62c0.79-23.07,10.23-44.31,26.74-60.04c16.52-15.73,38.54-23.86,61.62-23.34
			c23.07,0.79,44.31,10.23,60.04,26.74s23.86,38.54,23.34,61.62c-0.79,23.07-10.23,44.31-26.74,60.04
			C237.36,353.07,216.65,361.2,194.36,361.2 M194.36,201.52c-19.14,0-36.97,7.08-50.6,19.93c-14.16,13.37-22.55,31.73-23.07,51.65
			c-0.52,19.93,6.55,38.81,19.93,52.96c13.37,14.16,31.73,22.55,51.65,23.07c19.93,0.52,38.81-6.55,52.96-19.93
			c14.16-13.37,22.55-31.73,23.07-51.65c0.52-19.93-6.55-38.81-19.93-52.96s-31.73-22.55-51.65-23.07
			C195.67,201.52,195.15,201.52,194.36,201.52"/>
		<linearGradient id="SVGID_20_" gradientUnits="userSpaceOnUse" x1="129.0715" y1="275.4642" x2="259.908" y2="275.4642">
			<stop  offset="0" style="stop-color:#F2D445"/>
			<stop  offset="1" style="stop-color:#DEB81A"/>
		</linearGradient>
		<path class="st19" d="M259.91,280.97V269.7h-18.35c-1.05-8.65-4.46-17.04-9.7-23.86l12.85-12.85l-7.87-7.87l-12.85,12.85
			c-6.82-5.51-15.21-8.91-23.86-9.7v-18.35h-11.27v18.35c-8.65,1.05-17.04,4.46-23.86,9.96l-12.85-12.85l-7.87,7.87l12.85,12.85
			c-5.51,6.82-8.91,15.21-9.7,23.86h-18.35v11.27h18.35c1.05,8.65,4.46,17.04,9.96,23.86l-12.85,12.85l7.87,7.87l12.85-12.85
			c6.82,5.51,15.21,8.91,23.86,9.7v18.35h11.27v-18.35c8.65-1.05,17.04-4.46,23.86-9.7l12.85,12.85l7.87-7.87l-12.85-12.85
			c5.51-6.82,8.91-15.21,9.7-23.86L259.91,280.97z M219.27,301.95c-7.08,6.55-16.26,10.23-25.96,9.96
			c-9.7-0.26-18.88-4.2-25.43-11.27s-10.23-16.26-9.7-25.96c0.26-9.7,4.2-18.88,11.27-25.43c6.82-6.29,15.47-9.96,24.91-9.96
			c0.26,0,0.79,0,1.05,0c9.7,0.26,18.88,4.2,25.43,11.27c6.55,7.08,10.23,16.26,9.7,25.96
			C230.54,286.21,226.35,295.13,219.27,301.95"/>
	</g>
</g>
</svg>
