<?xml version="1.0" encoding="utf-8"?>
<!-- Generator: Adobe Illustrator 25.0.1, SVG Export Plug-In . SVG Version: 6.00 Build 0)  -->
<svg version="1.1" id="Layer_1" xmlns="http://www.w3.org/2000/svg" xmlns:xlink="http://www.w3.org/1999/xlink" x="0px" y="0px"
	 viewBox="0 0 720 720" style="enable-background:new 0 0 720 720;" xml:space="preserve">
<style type="text/css">
	.st0{opacity:0.38;fill:url(#SVGID_1_);stroke:url(#SVGID_2_);stroke-miterlimit:10;}
	.st1{fill:url(#SVGID_3_);}
	.st2{fill:url(#SVGID_4_);}
</style>
<g>
	<linearGradient id="SVGID_1_" gradientUnits="userSpaceOnUse" x1="410.1399" y1="246.7083" x2="295.1477" y2="47.536">
		<stop  offset="0" style="stop-color:#FFFFFF"/>
		<stop  offset="1" style="stop-color:#000000"/>
	</linearGradient>
	<linearGradient id="SVGID_2_" gradientUnits="userSpaceOnUse" x1="410.3899" y1="247.1413" x2="294.8977" y2="47.103">
		<stop  offset="0" style="stop-color:#FFFFFF"/>
		<stop  offset="1" style="stop-color:#000000;stop-opacity:0.5"/>
	</linearGradient>
	<path class="st0" d="M398.3,250.5h-75.9c-7.3,0-13.1-3.7-13.1-8.2V43c0-6.5,11.7-10.4,20.4-6.8c22.1,9.1,44.2,18.3,66.3,27.4
		c10.1,4.2,16.2,11.2,16.1,18.8c-0.2,53.4-0.4,106.7-0.6,160.1C411.5,246.9,405.6,250.5,398.3,250.5z"/>
	<g>
		<linearGradient id="SVGID_3_" gradientUnits="userSpaceOnUse" x1="366.049" y1="261.9542" x2="352.8235" y2="526.4627">
			<stop  offset="0" style="stop-color:#000000"/>
			<stop  offset="1" style="stop-color:#FFFFFF"/>
		</linearGradient>
		<path class="st1" d="M415.5,224.5h-3.9c0,6,0,11.9-0.1,17.9c0,4.5-5.9,8.2-13.1,8.2h-75.9c-7.3,0-13.1-3.7-13.1-8.2v-17.9h-4.8
			c-9.2,0-16.7,7.5-16.7,16.7v283.5c0,9.2,7.5,16.7,16.7,16.7h111c9.2,0,16.7-7.5,16.7-16.7V241.2
			C432.2,232,424.6,224.5,415.5,224.5z"/>
		<g>
			
				<image style="overflow:visible;" width="727" height="409" xlink:href="F2A5630F.png"  transform="matrix(0.24 0 0 0.24 273.12 188.4)">
			</image>
		</g>
	</g>
	<linearGradient id="SVGID_4_" gradientUnits="userSpaceOnUse" x1="256.5198" y1="703.8378" x2="458.9788" y2="339.0837">
		<stop  offset="0" style="stop-color:#FFFFFF"/>
		<stop  offset="1" style="stop-color:#000000"/>
	</linearGradient>
	<path class="st2" d="M411.8,685.2H308.2c-24.2,0-44.1-19.8-44.1-44.1V393.7c0-24.2,19.8-44.1,44.1-44.1h103.6
		c24.2,0,44.1,19.8,44.1,44.1v247.5C455.9,665.4,436.1,685.2,411.8,685.2z"/>
</g>
</svg>
