<?xml version="1.0" encoding="utf-8"?>
<!-- Generator: Adobe Illustrator 25.0.1, SVG Export Plug-In . SVG Version: 6.00 Build 0)  -->
<svg version="1.1" id="Layer_1" xmlns="http://www.w3.org/2000/svg" xmlns:xlink="http://www.w3.org/1999/xlink" x="0px" y="0px"
	 viewBox="0 0 720 720" style="enable-background:new 0 0 720 720;" xml:space="preserve">
<style type="text/css">
	.st0{fill:url(#SVGID_1_);stroke:url(#SVGID_2_);stroke-miterlimit:10;}
	.st1{fill:url(#SVGID_3_);}
	.st2{fill:url(#SVGID_4_);}
</style>
<g>
	<linearGradient id="SVGID_1_" gradientUnits="userSpaceOnUse" x1="411.0208" y1="244.7179" x2="294.0084" y2="42.0465">
		<stop  offset="0" style="stop-color:#DEB800;stop-opacity:0.5"/>
		<stop  offset="1" style="stop-color:#F4F0EF;stop-opacity:0.5"/>
	</linearGradient>
	<linearGradient id="SVGID_2_" gradientUnits="userSpaceOnUse" x1="411.2708" y1="245.1509" x2="293.7584" y2="41.6135">
		<stop  offset="0" style="stop-color:#DEB800;stop-opacity:0.5"/>
		<stop  offset="1" style="stop-color:#F4F0EF;stop-opacity:0.3"/>
	</linearGradient>
	<path class="st0" d="M399,248.6h-77.3c-7.4,0-13.4-3.7-13.4-8.3V37.4c0-6.6,11.9-10.6,20.8-6.9c22.5,9.3,45,18.6,67.5,27.9
		c10.3,4.2,16.5,11.4,16.4,19.1c-0.2,54.3-0.4,108.6-0.7,162.9C412.4,244.9,406.4,248.6,399,248.6z"/>
	<g>
		<linearGradient id="SVGID_3_" gradientUnits="userSpaceOnUse" x1="366.1552" y1="260.2316" x2="352.6974" y2="529.3872">
			<stop  offset="0" style="stop-color:#F2D432"/>
			<stop  offset="1" style="stop-color:#DEB800"/>
		</linearGradient>
		<path class="st1" d="M416.4,222.1h-4c0,6.1,0,12.1-0.1,18.2c0,4.6-6,8.3-13.4,8.3h-77.3c-7.4,0-13.4-3.7-13.4-8.3v-18.2h-4.8
			c-9.3,0-17,7.6-17,17v288.5c0,9.3,7.6,17,17,17h112.9c9.3,0,17-7.6,17-17V239.1C433.4,229.7,425.8,222.1,416.4,222.1z"/>
		<g>
			
				<image style="overflow:visible;" width="735" height="411" xlink:href="1B2DC384.png"  transform="matrix(0.24 0 0 0.24 272.16 186)">
			</image>
		</g>
	</g>
	<linearGradient id="SVGID_4_" gradientUnits="userSpaceOnUse" x1="297.3805" y1="661.3721" x2="419.2802" y2="386.5002">
		<stop  offset="0" style="stop-color:#F2D432"/>
		<stop  offset="1" style="stop-color:#DEB800"/>
	</linearGradient>
	<path class="st2" d="M412.7,690.9H307.3c-24.7,0-44.9-20.2-44.9-44.9V394.2c0-24.7,20.2-44.9,44.9-44.9h105.5
		c24.7,0,44.9,20.2,44.9,44.9v251.8C457.6,670.8,437.4,690.9,412.7,690.9z"/>
</g>
</svg>
