<?xml version="1.0" encoding="utf-8"?>
<!-- Generator: Adobe Illustrator 25.0.1, SVG Export Plug-In . SVG Version: 6.00 Build 0)  -->
<svg version="1.1" id="Layer_1" xmlns="http://www.w3.org/2000/svg" xmlns:xlink="http://www.w3.org/1999/xlink" x="0px" y="0px"
	 viewBox="0 0 720 720" style="enable-background:new 0 0 720 720;" xml:space="preserve">
<style type="text/css">
	.st0{fill:url(#SVGID_1_);stroke:url(#SVGID_2_);stroke-miterlimit:10;}
	.st1{fill:url(#SVGID_3_);}
	.st2{fill:url(#SVGID_4_);}
</style>
<g>
	<linearGradient id="SVGID_1_" gradientUnits="userSpaceOnUse" x1="410.0812" y1="246.841" x2="295.2237" y2="47.902">
		<stop  offset="1.501339e-03" style="stop-color:#B27149;stop-opacity:0.5"/>
		<stop  offset="1" style="stop-color:#F4F0EF"/>
	</linearGradient>
	<linearGradient id="SVGID_2_" gradientUnits="userSpaceOnUse" x1="410.3312" y1="247.274" x2="294.9737" y2="47.4689">
		<stop  offset="1.501339e-03" style="stop-color:#B27149;stop-opacity:0.5"/>
		<stop  offset="1" style="stop-color:#F4F0EF"/>
	</linearGradient>
	<path class="st0" d="M398.3,250.7h-75.8c-7.2,0-13.1-3.7-13.1-8.2V43.3c0-6.5,11.7-10.4,20.4-6.8c22.1,9.1,44.2,18.2,66.2,27.4
		c10.1,4.2,16.2,11.2,16.1,18.8c-0.2,53.3-0.4,106.6-0.6,159.9C411.4,247,405.5,250.7,398.3,250.7z"/>
	<g>
		<linearGradient id="SVGID_3_" gradientUnits="userSpaceOnUse" x1="366.0419" y1="262.069" x2="352.8319" y2="526.2678">
			<stop  offset="1.501339e-03" style="stop-color:#B27149"/>
			<stop  offset="1" style="stop-color:#BC896F"/>
		</linearGradient>
		<path class="st1" d="M415.4,224.6h-3.9c0,6,0,11.9-0.1,17.9c0,4.5-5.9,8.1-13.1,8.1h-75.8c-7.2,0-13.1-3.7-13.1-8.2v-17.9h-4.7
			c-9.2,0-16.7,7.5-16.7,16.7v283.2c0,9.2,7.5,16.7,16.7,16.7h110.8c9.2,0,16.7-7.5,16.7-16.7V241.3
			C432.1,232.1,424.6,224.6,415.4,224.6z"/>
		<g>
			
				<image style="overflow:visible;" width="727" height="409" xlink:href="97AD9A80.png"  transform="matrix(0.24 0 0 0.24 273.12 188.64)">
			</image>
		</g>
	</g>
	<linearGradient id="SVGID_4_" gradientUnits="userSpaceOnUse" x1="296.3724" y1="660.6955" x2="420.2345" y2="381.3986">
		<stop  offset="0" style="stop-color:#BC896F"/>
		<stop  offset="0.9985" style="stop-color:#B27149"/>
	</linearGradient>
	<path class="st2" d="M431.3,684.9H288.7c-13.5,0-24.5-11-24.5-24.5V374.1c0-13.5,11-24.5,24.5-24.5h142.6c13.5,0,24.5,11,24.5,24.5
		v286.3C455.8,673.8,444.8,684.9,431.3,684.9z"/>
</g>
</svg>
