<?xml version="1.0" encoding="utf-8"?>
<!-- Generator: Adobe Illustrator 25.0.1, SVG Export Plug-In . SVG Version: 6.00 Build 0)  -->
<svg version="1.1" id="Layer_1" xmlns="http://www.w3.org/2000/svg" xmlns:xlink="http://www.w3.org/1999/xlink" x="0px" y="0px"
	 viewBox="0 0 720 720" style="enable-background:new 0 0 720 720;" xml:space="preserve">
<style type="text/css">
	.st0{fill:url(#SVGID_1_);stroke:url(#SVGID_2_);stroke-miterlimit:10;}
	.st1{fill:url(#SVGID_3_);}
</style>
<g>
	<linearGradient id="SVGID_1_" gradientUnits="userSpaceOnUse" x1="303.8665" y1="255.5941" x2="609.0575" y2="255.5941">
		<stop  offset="0" style="stop-color:#DEB800;stop-opacity:0.5"/>
		<stop  offset="1" style="stop-color:#F4F0EF;stop-opacity:0.5"/>
	</linearGradient>
	<linearGradient id="SVGID_2_" gradientUnits="userSpaceOnUse" x1="303.3665" y1="255.5941" x2="609.5575" y2="255.5941">
		<stop  offset="0" style="stop-color:#DEB800;stop-opacity:0.5"/>
		<stop  offset="1" style="stop-color:#F4F0EF;stop-opacity:0.3"/>
	</linearGradient>
	<path class="st0" d="M335.6,350.4c4.2-8,8.1-16.3,12.8-24.1c3.2-5.3,3.3-9.4,0.2-15.1c-4.1-7.4-6.4-15.8-9.4-23.8
		c-0.6-1.6-1.1-2.6-2.9-3.1c-10-3-19.9-6.3-29.9-9.3c-1.9-0.6-2.5-1.5-2.4-3.4c0.3-11.5-0.2-22.9,0.2-34.4
		c10.7-3.5,21.7-6.8,32.5-10.2c1.4-0.4,2.1-1,2.5-2.6c2.7-10.4,6.8-20.3,12.3-29.5c0.8-1.3,0.7-2.3,0-3.6
		c-5.1-9.6-10.1-19.2-15.1-28.9c-0.3-0.7-0.4-2.1,0-2.5c8.3-8.4,16.6-16.7,25.2-25.1c10.2,5.1,20.3,10.7,30.5,15.9
		c0.9,0.5,2.5,0.6,3.3,0.2c9.3-5.4,19.1-9.5,29.6-12.2c1.6-0.4,2.3-1.2,2.7-2.7c3.2-10.3,6.5-20.5,9.7-30.8c0.5-1.6,1.2-2.2,2.9-2.2
		c10.8,0.1,21.6,0.1,32.4,0c1.7,0,2.4,0.6,2.9,2.2c15.8,49,1.1,23.2,41.2,45.5c1.4,0.8,2.5,1,4,0.2c9.5-5.1,19.1-10,28.6-15.1
		c1.4-0.7,2.2-0.7,3.4,0.5c7.7,7.8,15.4,15.6,23.2,23.3c1.1,1.1,1.1,1.9,0.4,3.2c-5,9.5-10,19.1-15,28.6c-0.7,1.4-0.8,2.4,0,3.8
		c5.3,9.1,9.4,18.8,12.1,29.1c0.4,1.6,1.2,2.4,2.8,2.9c10.1,3.1,20.2,6.4,30.4,9.5c1.8,0.5,2.4,1.3,2.4,3.3
		c-0.1,10.7-0.1,21.4,0,32.1c0,1.7-0.6,2.4-2.2,2.9c-10.2,3.1-20.4,6.4-30.6,9.5c-1.4,0.4-2.1,1.1-2.5,2.6
		c-2.8,10.6-6.9,20.6-12.3,30c-0.4,0.8-0.4,2.2,0,3.1c4.9,9.5,9.8,19,14.9,28.4c0.9,1.6,0.7,2.5-0.6,3.8
		c-7.6,7.5-15.2,15.1-22.7,22.8c-1.4,1.4-2.3,1.4-4,0.5c-9.3-4.9-18.7-9.7-28-14.6c-1.3-0.7-2.3-0.7-3.6,0.1
		c-9.3,5.5-19.3,9.6-29.8,12.3c-1.6,0.4-2.3,1.2-2.7,2.7c-3.1,10.1-6.3,20.1-9.4,30.2c-0.5,1.7-1.3,2.3-3.1,2.3
		c-10.8-0.1-21.6-0.1-32.4,0c-1.6,0-2.3-0.5-2.7-2c-3.1-10.1-6.4-20.2-9.5-30.4c-0.5-1.5-1.1-2.2-2.7-2.7
		c-10.4-2.7-20.3-6.6-29.5-12.2c-1.4-0.9-2.5-0.9-4-0.1c-9.4,5-18.8,9.8-28.2,14.8c-1.1,0.6-1.9,0.9-3-0.2
		C352.1,367,343.5,359,335.6,350.4z M386.3,255.8c0,39.5,31.9,69.8,69,70.1c93.8-2.7,94.3-136.5,0.9-140.1
		C417.7,185.7,386.2,217.2,386.3,255.8z"/>
	<linearGradient id="SVGID_3_" gradientUnits="userSpaceOnUse" x1="110.9425" y1="407.6953" x2="529.4766" y2="407.6953">
		<stop  offset="0" style="stop-color:#F2D432"/>
		<stop  offset="1" style="stop-color:#DEB800"/>
	</linearGradient>
	<path class="st1" d="M154.4,537.7c5.8-11,11-22.4,17.5-33.1c4.4-7.3,4.6-12.9,0.3-20.7c-5.6-10.2-8.8-21.6-12.8-32.6
		c-0.8-2.2-1.6-3.5-4-4.3c-13.7-4.2-27.3-8.6-41-12.8c-2.7-0.8-3.4-2-3.4-4.7c0.4-15.7-0.3-31.5,0.3-47.1c14.7-4.7,29.8-9.4,44.6-14
		c1.9-0.6,2.9-1.4,3.5-3.5c3.7-14.3,9.4-27.8,16.9-40.5c1.1-1.8,1-3.1,0-4.9c-7-13.2-13.9-26.4-20.7-39.6c-0.5-0.9-0.6-2.8,0-3.4
		c11.4-11.5,22.8-22.9,34.5-34.5c14,7,27.9,14.6,41.9,21.7c1.2,0.6,3.4,0.9,4.5,0.2c12.8-7.3,26.3-13.1,40.5-16.7
		c2.2-0.6,3.1-1.6,3.7-3.7c4.4-14.1,8.9-28.2,13.3-42.3c0.7-2.2,1.6-3,4-2.9c14.8,0.1,29.6,0.1,44.4,0c2.4,0,3.3,0.8,4,3
		c4.3,14.1,8.8,28.2,13.2,42.3c0.6,2.1,1.7,3,3.8,3.6c13.9,3.7,27.1,9.2,39.6,16.5c2,1.2,3.4,1.3,5.5,0.2c13-7,26.2-13.8,39.2-20.7
		c1.9-1,3.1-1,4.6,0.6c10.5,10.7,21.2,21.4,31.8,31.9c1.5,1.5,1.6,2.6,0.6,4.4c-6.9,13.1-13.7,26.2-20.6,39.3
		c-1,1.9-1.1,3.3,0.1,5.2c7.3,12.5,12.9,25.8,16.6,39.9c0.6,2.2,1.6,3.3,3.8,4c13.9,4.3,27.8,8.7,41.7,13c2.5,0.8,3.3,1.8,3.3,4.5
		c-0.1,14.7-0.1,29.4,0,44.1c0,2.4-0.8,3.3-3,4c-14,4.3-28,8.8-42,13.1c-1.9,0.6-2.9,1.5-3.5,3.5c-3.8,14.5-9.4,28.2-16.9,41.2
		c-0.6,1.1-0.6,3.1,0,4.2c6.7,13.1,13.5,26.1,20.4,39c1.2,2.2,0.9,3.4-0.8,5.2c-10.5,10.3-20.9,20.7-31.1,31.2
		c-1.9,1.9-3.2,1.9-5.5,0.7c-12.8-6.8-25.6-13.3-38.4-20.1c-1.8-1-3.1-0.9-4.9,0.1c-12.8,7.6-26.5,13.1-40.8,16.9
		c-2.2,0.6-3.1,1.7-3.7,3.7c-4.3,13.8-8.7,27.5-12.9,41.4c-0.7,2.4-1.8,3.1-4.3,3.1c-14.8-0.1-29.6-0.1-44.4,0
		c-2.2,0-3.1-0.7-3.7-2.8c-4.3-13.9-8.7-27.8-13-41.7c-0.6-2-1.5-3.1-3.8-3.6c-14.3-3.6-27.9-9.1-40.5-16.8c-2-1.2-3.5-1.2-5.5-0.1
		c-12.9,6.8-25.8,13.5-38.7,20.2c-1.5,0.8-2.6,1.3-4.1-0.3C177.2,560.5,165.4,549.4,154.4,537.7z M224.1,408
		c0.1,54.1,43.8,95.7,94.7,96.1C447.4,500.5,448,316.9,320,312C267.1,311.9,223.9,355.1,224.1,408z"/>
</g>
</svg>
