<?xml version="1.0" encoding="utf-8"?>
<!-- Generator: Adobe Illustrator 25.0.1, SVG Export Plug-In . SVG Version: 6.00 Build 0)  -->
<svg version="1.1" id="Layer_1" xmlns="http://www.w3.org/2000/svg" xmlns:xlink="http://www.w3.org/1999/xlink" x="0px" y="0px"
	 viewBox="0 0 720 720" style="enable-background:new 0 0 720 720;" xml:space="preserve">
<style type="text/css">
	.st0{opacity:0.38;fill:url(#SVGID_1_);stroke:url(#SVGID_2_);stroke-miterlimit:10;}
	.st1{fill:url(#SVGID_3_);}
</style>
<g>
	<linearGradient id="SVGID_1_" gradientUnits="userSpaceOnUse" x1="304.029" y1="255.8964" x2="608.3364" y2="255.8964">
		<stop  offset="0" style="stop-color:#FFFFFF"/>
		<stop  offset="1" style="stop-color:#000000"/>
	</linearGradient>
	<linearGradient id="SVGID_2_" gradientUnits="userSpaceOnUse" x1="303.529" y1="255.8964" x2="608.8364" y2="255.8964">
		<stop  offset="0" style="stop-color:#FFFFFF"/>
		<stop  offset="1" style="stop-color:#000000;stop-opacity:0.5"/>
	</linearGradient>
	<path class="st0" d="M335.6,350.4c4.2-8,8-16.3,12.7-24.1c3.2-5.3,3.3-9.4,0.2-15c-4.1-7.4-6.4-15.7-9.3-23.7
		c-0.6-1.6-1.1-2.6-2.9-3.1c-10-3-19.9-6.3-29.8-9.3c-1.9-0.6-2.5-1.5-2.4-3.4c0.3-11.4-0.2-22.9,0.2-34.3
		c10.7-3.4,21.6-6.8,32.4-10.2c1.4-0.4,2.1-1,2.5-2.6c2.7-10.4,6.8-20.2,12.3-29.4c0.8-1.3,0.7-2.3,0-3.6
		c-5.1-9.6-10.1-19.2-15-28.8c-0.3-0.7-0.4-2,0-2.5c8.3-8.4,16.6-16.6,25.1-25.1c10.2,5.1,20.3,10.6,30.4,15.8
		c0.9,0.5,2.5,0.6,3.3,0.2c9.3-5.3,19.1-9.5,29.5-12.2c1.6-0.4,2.2-1.2,2.7-2.7c3.2-10.3,6.5-20.5,9.6-30.8c0.5-1.6,1.2-2.2,2.9-2.1
		c10.8,0.1,21.5,0.1,32.3,0c1.7,0,2.4,0.6,2.9,2.2c15.7,48.9,1.1,23.1,41.1,45.3c1.4,0.8,2.5,1,4,0.2c9.5-5.1,19-10,28.5-15.1
		c1.4-0.7,2.2-0.7,3.4,0.5c7.7,7.8,15.4,15.5,23.2,23.2c1.1,1.1,1.1,1.9,0.4,3.2c-5,9.5-10,19.1-15,28.5c-0.7,1.4-0.8,2.4,0,3.8
		c5.3,9.1,9.4,18.8,12.1,29c0.4,1.6,1.2,2.4,2.8,2.9c10.1,3.1,20.2,6.4,30.3,9.5c1.8,0.5,2.4,1.3,2.4,3.3c-0.1,10.7-0.1,21.4,0,32
		c0,1.7-0.6,2.4-2.2,2.9c-10.2,3.1-20.3,6.4-30.5,9.5c-1.4,0.4-2.1,1.1-2.5,2.6c-2.8,10.5-6.9,20.5-12.3,30c-0.4,0.8-0.4,2.2,0,3
		c4.9,9.5,9.8,19,14.8,28.4c0.9,1.6,0.7,2.5-0.6,3.8c-7.6,7.5-15.2,15-22.6,22.7c-1.4,1.4-2.3,1.4-4,0.5
		c-9.3-4.9-18.6-9.7-27.9-14.6c-1.3-0.7-2.3-0.7-3.6,0.1c-9.3,5.5-19.2,9.5-29.7,12.3c-1.6,0.4-2.2,1.2-2.7,2.7
		c-3.1,10-6.3,20-9.4,30.1c-0.5,1.7-1.3,2.3-3.1,2.3c-10.8-0.1-21.5-0.1-32.3,0c-1.6,0-2.3-0.5-2.7-2c-3.1-10.1-6.3-20.2-9.5-30.3
		c-0.5-1.5-1.1-2.2-2.7-2.6c-10.4-2.6-20.3-6.6-29.5-12.2c-1.4-0.9-2.5-0.9-4-0.1c-9.3,5-18.8,9.8-28.1,14.7c-1.1,0.6-1.9,0.9-3-0.2
		C352.2,367,343.6,359,335.6,350.4z M386.3,256.1c0,39.4,31.8,69.6,68.8,69.9c93.5-2.7,94-136.1,0.9-139.7
		C417.6,186.2,386.2,217.6,386.3,256.1z"/>
	<linearGradient id="SVGID_3_" gradientUnits="userSpaceOnUse" x1="111.6636" y1="407.5572" x2="528.9859" y2="407.5572">
		<stop  offset="0" style="stop-color:#FFFFFF"/>
		<stop  offset="1" style="stop-color:#000000"/>
	</linearGradient>
	<path class="st1" d="M155,537.1c5.7-11,11-22.3,17.4-33c4.4-7.3,4.5-12.9,0.3-20.6c-5.6-10.1-8.8-21.6-12.8-32.5
		c-0.8-2.2-1.6-3.5-4-4.2c-13.7-4.1-27.3-8.6-40.9-12.7c-2.7-0.8-3.4-2-3.3-4.7c0.4-15.7-0.3-31.4,0.3-47
		c14.7-4.7,29.7-9.4,44.5-13.9c1.9-0.6,2.9-1.4,3.5-3.5c3.7-14.2,9.3-27.7,16.8-40.4c1.1-1.8,1-3.1,0-4.9
		c-7-13.1-13.8-26.3-20.6-39.5c-0.5-0.9-0.6-2.8,0-3.4c11.3-11.5,22.8-22.8,34.4-34.4c14,7,27.8,14.6,41.7,21.7
		c1.2,0.6,3.4,0.9,4.5,0.2c12.8-7.3,26.2-13,40.4-16.7c2.2-0.6,3.1-1.6,3.7-3.7c4.4-14.1,8.9-28.1,13.2-42.2c0.7-2.2,1.6-3,3.9-2.9
		c14.8,0.1,29.5,0.1,44.3,0c2.4,0,3.3,0.8,4,3c4.3,14.1,8.8,28.1,13.1,42.2c0.6,2.1,1.7,3,3.8,3.6c13.9,3.7,27,9.2,39.4,16.4
		c2,1.2,3.4,1.3,5.5,0.2c13-6.9,26.1-13.7,39.1-20.6c1.9-1,3.1-1,4.6,0.6c10.5,10.7,21.1,21.3,31.7,31.8c1.5,1.5,1.6,2.6,0.6,4.3
		c-6.9,13-13.7,26.1-20.6,39.1c-1,1.9-1.1,3.3,0.1,5.2c7.3,12.5,12.9,25.7,16.5,39.8c0.6,2.2,1.6,3.3,3.8,4
		c13.9,4.3,27.7,8.7,41.6,13c2.4,0.7,3.3,1.8,3.3,4.5c-0.1,14.6-0.1,29.3,0,43.9c0,2.4-0.8,3.3-2.9,4c-14,4.3-27.9,8.7-41.9,13
		c-1.9,0.6-2.9,1.4-3.4,3.5c-3.8,14.4-9.4,28.1-16.9,41.1c-0.6,1.1-0.6,3,0,4.2c6.7,13,13.4,26,20.3,38.9c1.2,2.2,0.9,3.4-0.8,5.1
		c-10.4,10.3-20.8,20.6-31,31.1c-1.9,1.9-3.2,1.9-5.4,0.7c-12.7-6.8-25.6-13.3-38.3-20c-1.8-1-3.1-0.9-4.9,0.1
		c-12.8,7.6-26.4,13.1-40.7,16.8c-2.2,0.6-3.1,1.7-3.7,3.7c-4.2,13.8-8.6,27.5-12.8,41.2c-0.7,2.3-1.8,3.1-4.2,3.1
		c-14.8-0.1-29.5-0.1-44.3,0c-2.2,0-3.1-0.7-3.7-2.8c-4.2-13.9-8.7-27.7-13-41.5c-0.6-2-1.5-3.1-3.7-3.6
		c-14.3-3.6-27.8-9.1-40.4-16.7c-2-1.2-3.5-1.2-5.5-0.1c-12.8,6.8-25.7,13.4-38.6,20.2c-1.5,0.8-2.6,1.3-4.1-0.3
		C177.7,559.9,165.9,548.9,155,537.1z M224.4,407.9c0.1,54,43.6,95.4,94.4,95.9c128.2-3.7,128.9-186.7,1.3-191.6
		C267.4,312,224.3,355.1,224.4,407.9z"/>
</g>
</svg>
