<?xml version="1.0" encoding="utf-8"?>
<!-- Generator: Adobe Illustrator 25.0.1, SVG Export Plug-In . SVG Version: 6.00 Build 0)  -->
<svg version="1.1" id="Layer_1" xmlns="http://www.w3.org/2000/svg" xmlns:xlink="http://www.w3.org/1999/xlink" x="0px" y="0px"
	 viewBox="0 0 720 720" style="enable-background:new 0 0 720 720;" xml:space="preserve">
<style type="text/css">
	.st0{fill:url(#SVGID_1_);stroke:url(#SVGID_2_);stroke-linejoin:round;stroke-miterlimit:10;}
	.st1{fill:url(#SVGID_3_);}
</style>
<g>
	<linearGradient id="SVGID_1_" gradientUnits="userSpaceOnUse" x1="304.0961" y1="256.0211" x2="608.0388" y2="256.0211">
		<stop  offset="1.501339e-03" style="stop-color:#B27149;stop-opacity:0.5"/>
		<stop  offset="1" style="stop-color:#F4F0EF"/>
	</linearGradient>
	<linearGradient id="SVGID_2_" gradientUnits="userSpaceOnUse" x1="303.5961" y1="256.0211" x2="608.5388" y2="256.0211">
		<stop  offset="1.501342e-03" style="stop-color:#B27149;stop-opacity:0.5"/>
		<stop  offset="1" style="stop-color:#F4F0EF"/>
	</linearGradient>
	<path class="st0" d="M335.7,350.4c4.2-8,8-16.3,12.7-24c3.2-5.3,3.3-9.4,0.2-15c-4.1-7.4-6.4-15.7-9.3-23.7
		c-0.6-1.6-1.1-2.6-2.9-3.1c-10-3-19.8-6.3-29.8-9.3c-1.9-0.6-2.5-1.5-2.4-3.4c0.1-11.2,0.1-22.3,0.1-33.5c0-0.2,0.1-0.3,0.2-0.7
		c2.2-0.7,4.5-1.5,6.8-2.2c8.5-2.7,17-5.3,25.6-8c1.4-0.4,2.1-1,2.5-2.6c2.7-10.4,6.8-20.2,12.3-29.4c0.8-1.3,0.7-2.3,0-3.5
		c-5.1-9.6-10.1-19.2-15-28.8c-0.3-0.7-0.4-2,0-2.5c8.2-8.3,16.6-16.6,25.1-25c0.7,0.3,1.5,0.7,2.3,1.1c9.4,4.9,18.7,9.9,28.1,14.7
		c0.9,0.5,2.5,0.6,3.3,0.2c9.3-5.3,19.1-9.5,29.4-12.2c1.6-0.4,2.2-1.2,2.7-2.7c3.2-10.3,6.5-20.5,9.6-30.7c0.5-1.6,1.2-2.2,2.9-2.1
		c10.8,0.1,21.5,0.1,32.3,0c1.7,0,2.4,0.6,2.9,2.2c3.1,10.3,6.4,20.5,9.6,30.7c0.5,1.5,1.2,2.2,2.8,2.6c10.1,2.7,19.7,6.7,28.7,11.9
		c1.4,0.8,2.5,1,4,0.2c9.5-5.1,19-10,28.5-15c1.4-0.7,2.2-0.7,3.4,0.5c7.7,7.8,15.4,15.5,23.1,23.2c1.1,1.1,1.1,1.9,0.4,3.2
		c-5,9.5-9.9,19-15,28.5c-0.7,1.4-0.8,2.4,0,3.8c5.3,9.1,9.4,18.7,12,29c0.4,1.6,1.2,2.4,2.8,2.9c10.1,3.1,20.2,6.3,30.3,9.4
		c1.8,0.5,2.4,1.3,2.4,3.2c-0.1,10.7-0.1,21.3,0,32c0,1.7-0.6,2.4-2.1,2.9c-10.2,3.1-20.3,6.4-30.5,9.5c-1.4,0.4-2.1,1.1-2.5,2.5
		c-2.8,10.5-6.9,20.5-12.3,29.9c-0.4,0.8-0.4,2.2,0,3c4.8,9.5,9.8,18.9,14.8,28.3c0.9,1.6,0.7,2.5-0.6,3.7
		c-7.6,7.5-15.2,15-22.6,22.7c-1.4,1.4-2.3,1.4-4,0.5c-9.3-4.9-18.6-9.7-27.9-14.6c-1.3-0.7-2.3-0.7-3.6,0.1
		c-9.3,5.5-19.2,9.5-29.7,12.2c-1.6,0.4-2.2,1.2-2.7,2.7c-3.1,10-6.3,20-9.4,30c-0.5,1.7-1.3,2.3-3.1,2.2c-10.8-0.1-21.5-0.1-32.3,0
		c-1.6,0-2.3-0.5-2.7-2c-3.1-10.1-6.3-20.2-9.4-30.3c-0.5-1.5-1.1-2.2-2.7-2.6c-10.4-2.6-20.2-6.6-29.4-12.2c-1.4-0.9-2.5-0.9-4-0.1
		c-9.3,5-18.7,9.8-28.1,14.7c-1.1,0.6-1.9,0.9-3-0.2c-8-8.1-16.1-16.2-24.1-24.3C336,351,335.9,350.7,335.7,350.4z M386.2,256.3
		c0,39.3,31.8,69.5,68.8,69.8c39.2,0.3,70.7-31,70.7-69.6c0-38.7-31.1-69.8-69.8-69.9C417.5,186.4,386.1,217.8,386.2,256.3z"/>
	<linearGradient id="SVGID_3_" gradientUnits="userSpaceOnUse" x1="111.9612" y1="407.5002" x2="528.7834" y2="407.5002">
		<stop  offset="0" style="stop-color:#BC896F"/>
		<stop  offset="0.9985" style="stop-color:#B27149"/>
	</linearGradient>
	<path class="st1" d="M155.2,536.9c5.7-11,11-22.3,17.4-33c4.4-7.3,4.5-12.9,0.3-20.6c-5.6-10.1-8.8-21.6-12.8-32.5
		c-0.8-2.2-1.6-3.5-4-4.2c-13.7-4.1-27.2-8.6-40.9-12.7c-2.7-0.8-3.4-2-3.3-4.7c0.2-15.3,0.1-30.6,0.1-45.9c0-0.2,0.1-0.4,0.2-1
		c3-1,6.2-2,9.3-3c11.7-3.7,23.4-7.3,35.1-10.9c1.9-0.6,2.9-1.4,3.5-3.5c3.7-14.2,9.3-27.7,16.8-40.3c1.1-1.8,1-3.1,0-4.9
		c-6.9-13.1-13.8-26.3-20.6-39.5c-0.5-0.9-0.6-2.8,0-3.4c11.3-11.4,22.7-22.8,34.4-34.3c1,0.5,2.1,1,3.1,1.5
		c12.8,6.7,25.7,13.5,38.6,20.1c1.2,0.6,3.4,0.9,4.5,0.2c12.8-7.3,26.1-13,40.4-16.7c2.2-0.6,3.1-1.6,3.7-3.7
		c4.3-14.1,8.9-28.1,13.2-42.1c0.7-2.2,1.6-3,3.9-2.9c14.7,0.1,29.5,0.1,44.2,0c2.4,0,3.3,0.8,4,3c4.3,14.1,8.8,28.1,13.1,42.2
		c0.6,2.1,1.7,3,3.8,3.6c13.9,3.7,27,9.1,39.4,16.4c2,1.2,3.4,1.3,5.5,0.2c13-6.9,26.1-13.7,39.1-20.6c1.9-1,3.1-1,4.6,0.6
		c10.5,10.7,21.1,21.3,31.7,31.8c1.5,1.5,1.6,2.6,0.6,4.3c-6.9,13-13.6,26.1-20.5,39.1c-1,1.9-1.1,3.3,0.1,5.2
		c7.3,12.5,12.9,25.7,16.5,39.7c0.6,2.2,1.6,3.3,3.8,4c13.9,4.2,27.6,8.7,41.5,12.9c2.4,0.7,3.3,1.8,3.3,4.5
		c-0.1,14.6-0.1,29.3,0,43.9c0,2.4-0.8,3.3-2.9,4c-14,4.3-27.9,8.7-41.8,13c-1.9,0.6-2.9,1.4-3.4,3.5c-3.8,14.4-9.4,28.1-16.9,41
		c-0.6,1.1-0.6,3,0,4.2c6.6,13,13.4,26,20.3,38.9c1.2,2.2,0.9,3.4-0.8,5.1c-10.4,10.3-20.8,20.6-31,31.1c-1.9,1.9-3.2,1.9-5.4,0.7
		c-12.7-6.7-25.5-13.3-38.2-20c-1.8-1-3.1-0.9-4.9,0.1c-12.7,7.5-26.4,13.1-40.7,16.8c-2.2,0.6-3.1,1.7-3.7,3.7
		c-4.2,13.7-8.6,27.4-12.8,41.2c-0.7,2.3-1.8,3.1-4.2,3.1c-14.7-0.1-29.5-0.1-44.2,0c-2.2,0-3.1-0.7-3.7-2.8
		c-4.2-13.9-8.7-27.6-13-41.5c-0.6-2-1.5-3.1-3.7-3.6c-14.2-3.6-27.8-9.1-40.3-16.7c-2-1.2-3.5-1.2-5.5-0.1
		c-12.8,6.8-25.7,13.4-38.5,20.2c-1.5,0.8-2.6,1.3-4.1-0.3c-11-11.2-22-22.2-33.1-33.3C155.7,537.7,155.6,537.4,155.2,536.9z
		 M224.6,407.8c0.1,53.9,43.6,95.3,94.3,95.8c53.8,0.5,96.9-42.5,97-95.5c0-53.1-42.6-95.8-95.7-95.9
		C267.5,312.1,224.4,355.1,224.6,407.8z"/>
</g>
</svg>
