<?xml version="1.0" encoding="utf-8"?>
<!-- Generator: Adobe Illustrator 25.0.1, SVG Export Plug-In . SVG Version: 6.00 Build 0)  -->
<svg version="1.1" id="Layer_1" xmlns="http://www.w3.org/2000/svg" xmlns:xlink="http://www.w3.org/1999/xlink" x="0px" y="0px"
	 viewBox="0 0 720 720" style="enable-background:new 0 0 720 720;" xml:space="preserve">
<style type="text/css">
	.st0{fill:url(#SVGID_1_);}
	.st1{opacity:0.38;fill:url(#SVGID_2_);stroke:url(#SVGID_3_);stroke-miterlimit:10;}
	.st2{opacity:0.38;fill:url(#SVGID_4_);stroke:url(#SVGID_5_);stroke-miterlimit:10;}
	.st3{opacity:0.38;fill:url(#SVGID_6_);stroke:url(#SVGID_7_);stroke-miterlimit:10;}
	.st4{opacity:0.38;fill:url(#SVGID_8_);stroke:url(#SVGID_9_);stroke-miterlimit:10;}
	.st5{opacity:0.38;fill:url(#SVGID_10_);stroke:url(#SVGID_11_);stroke-miterlimit:10;}
</style>
<g>
	<g>
		<linearGradient id="SVGID_1_" gradientUnits="userSpaceOnUse" x1="507.7725" y1="621.7466" x2="121.519" y2="-47.2641">
			<stop  offset="0" style="stop-color:#FFFFFF"/>
			<stop  offset="1" style="stop-color:#000000"/>
		</linearGradient>
		<path class="st0" d="M597.7,165H412.9v237.5c0,7-8.3,10.4-13,5.4c-50.3-52-29.2-49.2-81.2-0.6c-4.8,4.8-12.8,1.3-12.8-5.6V165
			H122.3c-11.9,0-21.7,10-21.7,22.2v357.1c0,12.2,9.8,22.2,21.7,22.2h475.4c11.9,0,21.7-10,21.7-22.2V187.3
			C619.4,175,609.6,165,597.7,165z"/>
		<g>
			
				<image style="overflow:visible;" width="747" height="1340" xlink:href="E5508EAC.png"  transform="matrix(0.24 0 0 0.24 269.76 128.88)">
			</image>
		</g>
	</g>
	<linearGradient id="SVGID_2_" gradientUnits="userSpaceOnUse" x1="428.4273" y1="411.1144" x2="245.929" y2="95.0183">
		<stop  offset="0" style="stop-color:#FFFFFF"/>
		<stop  offset="1" style="stop-color:#000000"/>
	</linearGradient>
	<linearGradient id="SVGID_3_" gradientUnits="userSpaceOnUse" x1="428.6773" y1="411.5475" x2="288.5373" y2="168.8179">
		<stop  offset="0" style="stop-color:#FFFFFF"/>
		<stop  offset="1" style="stop-color:#000000;stop-opacity:0.5"/>
	</linearGradient>
	<path class="st1" d="M322.1,410.4l5.5,9.6c0.3,0.5,0.8,0.8,1.3,0.8h5.4c0.6,0,1.1-0.3,1.3-0.8l5.5-9.6c1.8-3,6.1-3,7.8,0l5.5,9.6
		c0.3,0.5,0.8,0.8,1.3,0.8c2.3-0.2,6.2,0.6,6.7-0.8c0,0,5.5-9.6,5.5-9.6c1.8-3,6.1-3,7.8,0c0,0,5.5,9.6,5.5,9.6
		c0.3,0.5,0.8,0.8,1.3,0.8h5.4c0.6,0,1.1-0.3,1.3-0.8c0,0,5.5-9.6,5.5-9.6c1.8-3,6.1-3,7.8,0l5.5,9.6c0.5,1,2,0.7,2.9,0.8
		c0.9,0,1.6-0.7,1.6-1.6V167c0-7.5-6.4-13.6-14.3-13.6c0,0-78.5,0-78.5,0c-7.9,0-14.3,6.1-14.3,13.6v252.1c0,1.6,2.1,2.2,2.9,0.8
		c0,0,5.5-9.6,5.5-9.6C316.1,407.3,320.4,407.3,322.1,410.4z"/>
	<linearGradient id="SVGID_4_" gradientUnits="userSpaceOnUse" x1="211.1049" y1="486.2761" x2="171.1069" y2="416.9975">
		<stop  offset="0" style="stop-color:#FFFFFF"/>
		<stop  offset="1" style="stop-color:#000000"/>
	</linearGradient>
	<linearGradient id="SVGID_5_" gradientUnits="userSpaceOnUse" x1="211.3549" y1="486.7091" x2="180.2501" y2="432.834">
		<stop  offset="0" style="stop-color:#FFFFFF"/>
		<stop  offset="1" style="stop-color:#000000;stop-opacity:0.5"/>
	</linearGradient>
	<path class="st2" d="M242.7,467.1h-93.8c-3.3,0-6-2.7-6-6v-2.6c0-3.3,2.7-6,6-6h93.8c3.3,0,6,2.7,6,6v2.6
		C248.8,464.4,246,467.1,242.7,467.1z"/>
	<linearGradient id="SVGID_6_" gradientUnits="userSpaceOnUse" x1="211.1049" y1="515.5668" x2="171.1069" y2="446.2883">
		<stop  offset="0" style="stop-color:#FFFFFF"/>
		<stop  offset="1" style="stop-color:#000000"/>
	</linearGradient>
	<linearGradient id="SVGID_7_" gradientUnits="userSpaceOnUse" x1="211.3549" y1="515.9998" x2="180.2501" y2="462.1248">
		<stop  offset="0" style="stop-color:#FFFFFF"/>
		<stop  offset="1" style="stop-color:#000000;stop-opacity:0.5"/>
	</linearGradient>
	<path class="st3" d="M242.7,496.4h-93.8c-3.3,0-6-2.7-6-6v-2.6c0-3.3,2.7-6,6-6h93.8c3.3,0,6,2.7,6,6v2.6
		C248.8,493.7,246,496.4,242.7,496.4z"/>
	<linearGradient id="SVGID_8_" gradientUnits="userSpaceOnUse" x1="211.1049" y1="544.8575" x2="171.1069" y2="475.579">
		<stop  offset="0" style="stop-color:#FFFFFF"/>
		<stop  offset="1" style="stop-color:#000000"/>
	</linearGradient>
	<linearGradient id="SVGID_9_" gradientUnits="userSpaceOnUse" x1="211.3549" y1="545.2906" x2="180.2501" y2="491.4155">
		<stop  offset="0" style="stop-color:#FFFFFF"/>
		<stop  offset="1" style="stop-color:#000000;stop-opacity:0.5"/>
	</linearGradient>
	<path class="st4" d="M242.7,525.7h-93.8c-3.3,0-6-2.7-6-6v-2.6c0-3.3,2.7-6,6-6h93.8c3.3,0,6,2.7,6,6v2.6
		C248.8,523,246,525.7,242.7,525.7z"/>
	<linearGradient id="SVGID_10_" gradientUnits="userSpaceOnUse" x1="582.2175" y1="514.7408" x2="510.5459" y2="390.6019">
		<stop  offset="0" style="stop-color:#FFFFFF"/>
		<stop  offset="1" style="stop-color:#000000"/>
	</linearGradient>
	<linearGradient id="SVGID_11_" gradientUnits="userSpaceOnUse" x1="582.4675" y1="515.1738" x2="527.1274" y2="419.3219">
		<stop  offset="0" style="stop-color:#FFFFFF"/>
		<stop  offset="1" style="stop-color:#000000;stop-opacity:0.5"/>
	</linearGradient>
	<path class="st5" d="M591.9,453.7l-26.7-42.2c-4.7-7.4-16.3-7.4-21,0l-26.7,42.2c-4.7,7.4,1.2,16.6,10.5,16.6h11.8v45.7
		c-0.1,7.6,7.6,12.9,15.4,12.1c7.3,0,13.2-5.4,13.2-12.1v-45.7h12.9C590.7,470.3,596.5,461.1,591.9,453.7z"/>
</g>
</svg>
