<?xml version="1.0" encoding="utf-8"?>
<!-- Generator: Adobe Illustrator 25.0.1, SVG Export Plug-In . SVG Version: 6.00 Build 0)  -->
<svg version="1.1" id="Layer_1" xmlns="http://www.w3.org/2000/svg" xmlns:xlink="http://www.w3.org/1999/xlink" x="0px" y="0px"
	 viewBox="0 0 720 720" style="enable-background:new 0 0 720 720;" xml:space="preserve">
<style type="text/css">
	.st0{fill:url(#SVGID_1_);}
	.st1{fill:url(#SVGID_2_);stroke:url(#SVGID_3_);stroke-miterlimit:10;}
	.st2{fill:url(#SVGID_4_);stroke:url(#SVGID_5_);stroke-miterlimit:10;}
	.st3{fill:url(#SVGID_6_);stroke:url(#SVGID_7_);stroke-miterlimit:10;}
	.st4{fill:url(#SVGID_8_);stroke:url(#SVGID_9_);stroke-miterlimit:10;}
	.st5{fill:url(#SVGID_10_);stroke:url(#SVGID_11_);stroke-miterlimit:10;}
</style>
<g>
	<g>
		<linearGradient id="SVGID_1_" gradientUnits="userSpaceOnUse" x1="508.2016" y1="622.5067" x2="120.8265" y2="-48.4467">
			<stop  offset="0" style="stop-color:#F2D432"/>
			<stop  offset="1" style="stop-color:#DEB800"/>
		</linearGradient>
		<path class="st0" d="M598.4,164.5H413.1v238.2c0,7-8.3,10.5-13.1,5.4c-50.4-52.2-29.2-49.4-81.4-0.6c-4.8,4.8-12.9,1.3-12.9-5.6
			V164.5H121.6c-12,0-21.7,10-21.7,22.3v358.1c0,12.3,9.8,22.3,21.7,22.3h476.8c12,0,21.7-10,21.7-22.3V186.8
			C620.1,174.5,610.4,164.5,598.4,164.5z"/>
		<g>
			
				<image style="overflow:visible;" width="749" height="1342" xlink:href="270C07A5.png"  transform="matrix(0.24 0 0 0.24 269.52 128.4)">
			</image>
		</g>
	</g>
	<linearGradient id="SVGID_2_" gradientUnits="userSpaceOnUse" x1="428.626" y1="411.2629" x2="245.5978" y2="94.2488">
		<stop  offset="0" style="stop-color:#DEB800;stop-opacity:0.5"/>
		<stop  offset="1" style="stop-color:#F4F0EF;stop-opacity:0.5"/>
	</linearGradient>
	<linearGradient id="SVGID_3_" gradientUnits="userSpaceOnUse" x1="428.876" y1="411.6959" x2="288.3305" y2="168.264">
		<stop  offset="0" style="stop-color:#DEB800;stop-opacity:0.5"/>
		<stop  offset="1" style="stop-color:#F4F0EF;stop-opacity:0.3"/>
	</linearGradient>
	<path class="st1" d="M322,410.5l5.6,9.6c0.3,0.5,0.8,0.8,1.3,0.8h5.4c0.6,0,1.1-0.3,1.3-0.8c0,0,5.6-9.6,5.6-9.6c1.8-3,6.1-3,7.8,0
		l5.6,9.6c0.3,0.5,0.8,0.8,1.3,0.8c2.3-0.2,6.2,0.6,6.7-0.8c0,0,5.6-9.6,5.6-9.6c1.8-3,6.1-3,7.8,0l5.6,9.6c0.3,0.5,0.8,0.8,1.3,0.8
		h5.4c0.6,0,1.1-0.3,1.3-0.8l5.6-9.6c1.8-3,6.1-3,7.8,0l5.6,9.6c0.5,1,2,0.8,2.9,0.8c0.9,0,1.6-0.7,1.6-1.6V166.5
		c0-7.5-6.4-13.6-14.3-13.6H320c-7.9,0-14.3,6.1-14.3,13.6v252.8c0,1.6,2.1,2.2,2.9,0.8c0,0,5.6-9.6,5.6-9.6
		C315.9,407.5,320.2,407.5,322,410.5z"/>
	<linearGradient id="SVGID_4_" gradientUnits="userSpaceOnUse" x1="210.6726" y1="486.6428" x2="170.5584" y2="417.1631">
		<stop  offset="0" style="stop-color:#DEB800;stop-opacity:0.5"/>
		<stop  offset="1" style="stop-color:#F4F0EF;stop-opacity:0.5"/>
	</linearGradient>
	<linearGradient id="SVGID_5_" gradientUnits="userSpaceOnUse" x1="210.9226" y1="487.0758" x2="179.7289" y2="433.0468">
		<stop  offset="0" style="stop-color:#DEB800;stop-opacity:0.5"/>
		<stop  offset="1" style="stop-color:#F4F0EF;stop-opacity:0.3"/>
	</linearGradient>
	<path class="st2" d="M242.4,467.4h-94.1c-3.3,0-6-2.7-6-6v-2.6c0-3.3,2.7-6,6-6h94.1c3.3,0,6,2.7,6,6v2.6
		C248.4,464.7,245.7,467.4,242.4,467.4z"/>
	<linearGradient id="SVGID_6_" gradientUnits="userSpaceOnUse" x1="210.6726" y1="516.0186" x2="170.5584" y2="446.5388">
		<stop  offset="0" style="stop-color:#DEB800;stop-opacity:0.5"/>
		<stop  offset="1" style="stop-color:#F4F0EF;stop-opacity:0.5"/>
	</linearGradient>
	<linearGradient id="SVGID_7_" gradientUnits="userSpaceOnUse" x1="210.9226" y1="516.4515" x2="179.7289" y2="462.4226">
		<stop  offset="0" style="stop-color:#DEB800;stop-opacity:0.5"/>
		<stop  offset="1" style="stop-color:#F4F0EF;stop-opacity:0.3"/>
	</linearGradient>
	<path class="st3" d="M242.4,496.8h-94.1c-3.3,0-6-2.7-6-6v-2.6c0-3.3,2.7-6,6-6h94.1c3.3,0,6,2.7,6,6v2.6
		C248.4,494.1,245.7,496.8,242.4,496.8z"/>
	<linearGradient id="SVGID_8_" gradientUnits="userSpaceOnUse" x1="210.6726" y1="545.3943" x2="170.5584" y2="475.9146">
		<stop  offset="0" style="stop-color:#DEB800;stop-opacity:0.5"/>
		<stop  offset="1" style="stop-color:#F4F0EF;stop-opacity:0.5"/>
	</linearGradient>
	<linearGradient id="SVGID_9_" gradientUnits="userSpaceOnUse" x1="210.9226" y1="545.8273" x2="179.7289" y2="491.7984">
		<stop  offset="0" style="stop-color:#DEB800;stop-opacity:0.5"/>
		<stop  offset="1" style="stop-color:#F4F0EF;stop-opacity:0.3"/>
	</linearGradient>
	<path class="st4" d="M242.4,526.2h-94.1c-3.3,0-6-2.7-6-6v-2.6c0-3.3,2.7-6,6-6h94.1c3.3,0,6,2.7,6,6v2.6
		C248.4,523.4,245.7,526.2,242.4,526.2z"/>
	<linearGradient id="SVGID_10_" gradientUnits="userSpaceOnUse" x1="582.8628" y1="515.1901" x2="510.983" y2="390.6907">
		<stop  offset="0" style="stop-color:#DEB800;stop-opacity:0.5"/>
		<stop  offset="1" style="stop-color:#F4F0EF;stop-opacity:0.5"/>
	</linearGradient>
	<linearGradient id="SVGID_11_" gradientUnits="userSpaceOnUse" x1="583.1128" y1="515.6231" x2="527.6134" y2="419.4954">
		<stop  offset="0" style="stop-color:#DEB800;stop-opacity:0.5"/>
		<stop  offset="1" style="stop-color:#F4F0EF;stop-opacity:0.3"/>
	</linearGradient>
	<path class="st5" d="M592.5,454l-26.8-42.3c-4.7-7.4-16.4-7.4-21.1,0L518,454c-4.7,7.4,1.2,16.6,10.5,16.6h11.9v45.9
		c-0.1,7.6,7.7,12.9,15.5,12.1c7.3,0,13.3-5.4,13.3-12.1v-45.9h13C591.4,470.7,597.2,461.4,592.5,454z"/>
</g>
</svg>
