<?xml version="1.0" encoding="utf-8"?>
<!-- Generator: Adobe Illustrator 25.0.1, SVG Export Plug-In . SVG Version: 6.00 Build 0)  -->
<svg version="1.1" id="Layer_1" xmlns="http://www.w3.org/2000/svg" xmlns:xlink="http://www.w3.org/1999/xlink" x="0px" y="0px"
	 viewBox="0 0 720 720" style="enable-background:new 0 0 720 720;" xml:space="preserve">
<style type="text/css">
	.st0{fill:url(#SVGID_1_);}
	.st1{fill:url(#SVGID_2_);stroke:url(#SVGID_3_);stroke-linejoin:round;stroke-miterlimit:10;}
	.st2{fill:url(#SVGID_4_);stroke:url(#SVGID_5_);stroke-miterlimit:10;}
	.st3{fill:url(#SVGID_6_);stroke:url(#SVGID_7_);stroke-miterlimit:10;}
	.st4{fill:url(#SVGID_8_);stroke:url(#SVGID_9_);stroke-miterlimit:10;}
	.st5{fill:url(#SVGID_10_);stroke:url(#SVGID_11_);stroke-linejoin:round;stroke-miterlimit:10;}
</style>
<g>
	<g>
		<linearGradient id="SVGID_1_" gradientUnits="userSpaceOnUse" x1="507.5954" y1="621.4329" x2="121.8048" y2="-46.776">
			<stop  offset="0" style="stop-color:#BC896F"/>
			<stop  offset="0.9985" style="stop-color:#B27149"/>
		</linearGradient>
		<path class="st0" d="M597.4,165.3H412.9v237.3c0,7-8.3,10.4-13,5.4c-10.9-11.7-21.8-23.3-32.6-35c-3.6-3.9-9.7-4-13.5-0.3
			c-11.7,11.6-23.3,23.1-35,34.7c-4.8,4.8-12.8,1.3-12.8-5.6V165.3H122.6c-11.9,0-21.6,10-21.6,22.2v356.6
			c0,12.2,9.7,22.2,21.6,22.2h474.8c11.9,0,21.6-10,21.6-22.2V187.5C619.1,175.3,609.3,165.3,597.4,165.3z"/>
		<g>
			
				<image style="overflow:visible;" width="747" height="1338" xlink:href="34F6D683.png"  transform="matrix(0.24 0 0 0.24 269.76 129.12)">
			</image>
		</g>
	</g>
	<linearGradient id="SVGID_2_" gradientUnits="userSpaceOnUse" x1="428.3473" y1="411.052" x2="246.0678" y2="95.3346">
		<stop  offset="0" style="stop-color:#F4F0EF"/>
		<stop  offset="0.9985" style="stop-color:#B27149;stop-opacity:0.5"/>
	</linearGradient>
	<linearGradient id="SVGID_3_" gradientUnits="userSpaceOnUse" x1="428.5973" y1="411.485" x2="288.6247" y2="169.0453">
		<stop  offset="0" style="stop-color:#F4F0EF"/>
		<stop  offset="0.9985" style="stop-color:#B27149;stop-opacity:0.5"/>
	</linearGradient>
	<path class="st1" d="M322.2,410.3l5.5,9.5c0.3,0.5,0.8,0.8,1.3,0.8h5.4c0.6,0,1.1-0.3,1.3-0.8l5.5-9.5c1.8-3,6-3,7.8,0l5.5,9.5
		c0.3,0.5,0.8,0.8,1.3,0.8h5.4c0.6,0,1.1-0.3,1.3-0.8l5.5-9.5c1.8-3,6-3,7.8,0l5.5,9.5c0.3,0.5,0.8,0.8,1.3,0.8h5.4
		c0.6,0,1.1-0.3,1.3-0.8l5.5-9.5c1.8-3,6-3,7.8,0l5.5,9.5c0.3,0.5,0.8,0.8,1.3,0.8h1.5c0.9,0,1.6-0.7,1.6-1.6V167.3
		c0-7.5-6.4-13.6-14.3-13.6h-78.4c-7.8,0-14.3,6.1-14.3,13.6V419c0,0.9,0.7,1.6,1.6,1.6l0,0c0.6,0,1.1-0.3,1.3-0.8l5.5-9.5
		C316.1,407.3,320.4,407.3,322.2,410.3z"/>
	<linearGradient id="SVGID_4_" gradientUnits="userSpaceOnUse" x1="211.046" y1="485.7137" x2="171.7163" y2="417.5926">
		<stop  offset="0" style="stop-color:#F4F0EF"/>
		<stop  offset="0.9985" style="stop-color:#B27149;stop-opacity:0.5"/>
	</linearGradient>
	<linearGradient id="SVGID_5_" gradientUnits="userSpaceOnUse" x1="211.296" y1="486.1467" x2="180.7026" y2="433.1573">
		<stop  offset="1.501339e-03" style="stop-color:#B27149;stop-opacity:0.5"/>
		<stop  offset="1" style="stop-color:#F4F0EF;stop-opacity:0.7"/>
	</linearGradient>
	<path class="st2" d="M241.6,467h-91.1c-4,0-7.3-3.3-7.3-7.3l0,0c0-4,3.3-7.3,7.3-7.3h91.1c4,0,7.3,3.3,7.3,7.3l0,0
		C248.9,463.7,245.6,467,241.6,467z"/>
	<linearGradient id="SVGID_6_" gradientUnits="userSpaceOnUse" x1="211.046" y1="514.9694" x2="171.7163" y2="446.8483">
		<stop  offset="0" style="stop-color:#F4F0EF"/>
		<stop  offset="0.9985" style="stop-color:#B27149;stop-opacity:0.5"/>
	</linearGradient>
	<linearGradient id="SVGID_7_" gradientUnits="userSpaceOnUse" x1="211.296" y1="515.4023" x2="180.7026" y2="462.4129">
		<stop  offset="1.501339e-03" style="stop-color:#B27149;stop-opacity:0.5"/>
		<stop  offset="1" style="stop-color:#F4F0EF;stop-opacity:0.7"/>
	</linearGradient>
	<path class="st3" d="M241.6,496.2h-91.1c-4,0-7.3-3.3-7.3-7.3l0,0c0-4,3.3-7.3,7.3-7.3h91.1c4,0,7.3,3.3,7.3,7.3l0,0
		C248.9,492.9,245.6,496.2,241.6,496.2z"/>
	<linearGradient id="SVGID_8_" gradientUnits="userSpaceOnUse" x1="211.046" y1="544.225" x2="171.7163" y2="476.1039">
		<stop  offset="0" style="stop-color:#F4F0EF"/>
		<stop  offset="0.9985" style="stop-color:#B27149;stop-opacity:0.5"/>
	</linearGradient>
	<linearGradient id="SVGID_9_" gradientUnits="userSpaceOnUse" x1="211.296" y1="544.658" x2="180.7026" y2="491.6686">
		<stop  offset="1.501339e-03" style="stop-color:#B27149;stop-opacity:0.5"/>
		<stop  offset="1" style="stop-color:#F4F0EF;stop-opacity:0.7"/>
	</linearGradient>
	<path class="st4" d="M241.6,525.5h-91.1c-4,0-7.3-3.3-7.3-7.3l0,0c0-4,3.3-7.3,7.3-7.3h91.1c4,0,7.3,3.3,7.3,7.3l0,0
		C248.9,522.2,245.6,525.5,241.6,525.5z"/>
	<linearGradient id="SVGID_10_" gradientUnits="userSpaceOnUse" x1="581.9595" y1="514.5506" x2="510.3737" y2="390.5604">
		<stop  offset="0" style="stop-color:#F4F0EF"/>
		<stop  offset="0.9985" style="stop-color:#B27149;stop-opacity:0.5"/>
	</linearGradient>
	<linearGradient id="SVGID_11_" gradientUnits="userSpaceOnUse" x1="582.2095" y1="514.9836" x2="526.9351" y2="419.2455">
		<stop  offset="1.501339e-03" style="stop-color:#B27149;stop-opacity:0.5"/>
		<stop  offset="1" style="stop-color:#F4F0EF;stop-opacity:0.7"/>
	</linearGradient>
	<path class="st5" d="M591.6,453.6l-26.7-42.1c-4.7-7.4-16.3-7.4-21,0l-26.7,42.1c-4.7,7.4,1.2,16.6,10.5,16.6h11.8v45.7
		c0,6.6,5.9,12,13.2,12h2.2c7.3,0,13.2-5.4,13.2-12v-45.7h12.9C590.4,470.2,596.3,461,591.6,453.6z"/>
</g>
</svg>
