<?xml version="1.0" encoding="utf-8"?>
<!-- Generator: Adobe Illustrator 25.0.1, SVG Export Plug-In . SVG Version: 6.00 Build 0)  -->
<svg version="1.1" id="Layer_1" xmlns="http://www.w3.org/2000/svg" xmlns:xlink="http://www.w3.org/1999/xlink" x="0px" y="0px"
	 viewBox="0 0 1080 522.1" style="enable-background:new 0 0 1080 522.1;" xml:space="preserve">
<g>
	<path d="M440.3,165.1c0-3.4,1.6-5,5-5h49.3c7.6,0,14.7,0.8,21.5,2.6c6.8,1.8,13.1,4.5,18.9,7.9c5.8,3.4,11,7.3,15.7,12.3
		c4.7,4.7,8.7,10,12.1,16c3.4,5.8,6,12.1,7.9,18.9c1.8,6.8,2.6,13.6,2.6,21s-1,14.2-2.9,21c-1.8,6.5-4.5,12.9-7.9,18.6
		s-7.6,11-12.3,15.7c-4.7,4.7-10.2,8.9-16,12.3c-5.8,3.4-12.1,6-18.9,7.9s-13.9,2.9-21.2,2.9h-49.3c-1.3,0-2.4-0.3-3.4-0.8
		c-1-0.5-1.6-1.8-1.6-3.4V165.1H440.3z M493.8,296.7c8.6,0,16.5-1.6,23.9-4.7s13.4-7.3,18.6-12.9c5.2-5.5,9.4-11.5,12.3-18.9
		c2.9-7.1,4.5-14.7,4.5-22.8c0-8.6-1.6-16.5-4.7-23.3c-3.2-7.1-7.3-13.1-12.6-18.1c-5.2-5-11.5-8.9-18.6-11.5
		c-7.1-2.6-14.7-4.2-22.8-4.2h-33.8v116.4H493.8L493.8,296.7z"/>
	<path d="M626.7,313c-0.5,1.3-1.3,2.1-2.1,2.9s-2.1,1-3.4,1h-11.3c-3.2,0-5-1.3-5-3.7c0-0.5,0-0.8,0-1.3c0-0.3,0-0.5,0.3-0.8
		c0-0.3,0.3-0.5,0.3-0.8L666.3,164c0.3-0.3,0.3-0.8,0.5-1.3s0.5-0.8,0.8-1.3c0.3-0.3,0.8-0.8,1.6-1.1c0.8-0.3,1.6-0.5,2.6-0.5h7.1
		c1,0,1.8,0.3,2.6,0.5c0.8,0.3,1,0.5,1.6,1.1c0.3,0.3,0.5,0.8,0.8,1.3c0.3,0.5,0.3,0.8,0.5,1.3l60.3,146.3c0,0.3,0.3,0.8,0.3,1
		c0,0.3,0.3,0.8,0.3,1c0,0.3,0,0.5,0,0.8c0,2.4-1.6,3.7-5,3.7H729c-1.3,0-2.6-0.3-3.4-1c-0.8-0.8-1.6-1.6-2.1-2.9l-11.5-29.1h-74.2
		c-2.4,6.3-4.7,12.1-6.8,17C629.1,305.9,627.5,309.8,626.7,313 M646.4,263.4h57.4l-28.6-72.1L646.4,263.4z"/>
	<path d="M874.2,296.2c1.3,0,2.4,0.5,3.2,1.3s1.3,2.1,1.3,3.7v10.8c0,1.3-0.5,2.4-1.3,3.1s-2.1,1.3-3.4,1.3h-89.7
		c-3.2,0-4.7-1.6-4.7-4.7V164.6c0-1.3,0.5-2.4,1.3-3.1s2.1-1.3,3.7-1.3h10.8c1.3,0,2.4,0.3,3.4,1.1c0.8,0.8,1.3,1.8,1.3,3.4v131.6
		L874.2,296.2L874.2,296.2z"/>
	<path d="M919.3,313c-0.5,1.3-1.3,2.1-2.1,2.9s-2.1,1-3.4,1h-11.3c-3.2,0-5-1.3-5-3.7c0-0.5,0-0.8,0-1.3c0-0.3,0-0.5,0.3-0.8
		c0-0.3,0.3-0.5,0.3-0.8L958.9,164c0.3-0.3,0.3-0.8,0.5-1.3s0.5-0.8,0.8-1.3c0.3-0.3,0.8-0.8,1.6-1.1c0.8-0.3,1.6-0.5,2.6-0.5h7.1
		c1,0,1.8,0.3,2.6,0.5c0.8,0.3,1,0.5,1.6,1.1c0.3,0.3,0.5,0.8,0.8,1.3c0.3,0.5,0.3,0.8,0.5,1.3l60.3,146.3c0,0.3,0.3,0.8,0.3,1
		c0,0.3,0.3,0.8,0.3,1c0,0.3,0,0.5,0,0.8c0,2.4-1.6,3.7-5,3.7h-11.3c-1.3,0-2.6-0.3-3.4-1c-0.8-0.8-1.6-1.6-2.1-2.9l-11.5-29.1
		h-74.2c-2.4,6.3-4.7,12.1-6.8,17C922,305.9,920.4,309.8,919.3,313 M939.3,263.4h57.4l-28.6-72.1L939.3,263.4z"/>
	<path d="M440.6,397.6c0-0.3-0.3-0.5-0.3-0.8c0-0.3,0-0.3,0-0.5c0-0.3,0.3-0.3,0.3-0.3s0.3-0.3,0.5-0.3l3.1-1.3c0.5-0.3,1-0.3,1.3,0
		s0.5,0.5,0.8,1c0.3,0.8,0.8,1.6,1.6,2.1s1.6,1,2.4,1.6c0.8,0.5,1.6,0.8,2.6,1c0.8,0.3,1.6,0.3,2.1,0.3c0.8,0,1.8,0,2.6-0.3
		c1-0.3,1.8-0.5,2.9-1c0.8-0.5,1.6-1,2.1-1.8c0.5-0.8,0.8-1.8,0.8-2.9c0-1-0.3-2.1-0.8-2.9c-0.5-0.8-1.3-1.3-2.1-1.8
		c-0.8-0.5-1.8-0.8-3.1-1c-1-0.3-2.1-0.5-3.4-0.8c-1.8-0.5-3.7-1-5.2-1.8s-2.9-1.6-3.9-2.6s-1.8-2.1-2.4-3.4s-0.8-2.6-0.8-4.2
		c0-1.8,0.3-3.4,1-4.7c0.8-1.3,1.6-2.6,2.9-3.7c1.3-1,2.6-1.8,4.5-2.4c1.6-0.5,3.7-0.8,5.5-0.8c1.6,0,3.1,0.3,4.2,0.5
		c1.3,0.3,2.4,0.8,3.1,1.3c1,0.5,1.8,1.3,2.6,2.1s1.6,1.8,2.4,3.1c0.3,0.5,0.5,0.8,0.5,1c0,0.3-0.3,0.5-0.5,1l-2.6,1.8
		c-0.5,0.3-0.8,0.3-1,0.3c-0.3,0-0.5-0.3-0.8-0.8c-0.5-0.5-1-1-1.6-1.6c-0.5-0.5-1-1-1.6-1.6c-0.5-0.5-1.3-0.8-2.1-1
		c-0.8-0.3-1.6-0.3-2.6-0.3s-1.8,0-2.9,0.3c-0.8,0.3-1.6,0.5-2.4,1c-0.8,0.5-1.3,1-1.6,1.8c-0.5,0.8-0.5,1.6-0.5,2.6
		c0,0.8,0.3,1.6,0.8,2.1c0.5,0.5,1.3,1.3,2.1,1.8s1.6,1,2.6,1.3s1.8,0.8,2.9,0.8c2.1,0.5,3.9,1,5.8,1.8c1.6,0.8,3.1,1.6,4.5,2.6
		s2.1,2.1,2.9,3.7c0.8,1.3,1,2.9,1,4.7s-0.3,3.7-1,5c-0.8,1.6-1.8,2.9-3.1,3.9s-2.9,1.8-4.7,2.4s-3.9,0.8-6,0.8
		c-1.3,0-2.9-0.3-4.2-0.5c-1.6-0.3-2.9-0.8-4.2-1.6c-1.3-0.8-2.4-1.6-3.4-2.6C441.9,400.5,441.1,399.2,440.6,397.6"/>
	<path d="M484.4,369.3c0.5-0.8,1.3-1.6,1.8-2.1c0.8-0.8,1.6-1.3,2.4-1.8c0.8-0.5,1.8-0.8,2.9-1c1-0.3,2.4-0.5,3.7-0.5
		c3.4,0,6.3,0.5,8.4,1.8c2.1,1.3,3.9,3.1,5.2,5.5c0.5-1.3,1.3-2.6,2.4-3.4c1.1-1,2.1-1.8,3.1-2.4c1.3-0.5,2.6-1,3.9-1.3
		s2.9-0.5,4.2-0.5c2.6,0,5,0.5,7.1,1.3c2.1,1,3.7,2.1,5.2,3.7c1.3,1.6,2.4,3.4,3.2,5.5c0.8,2.1,1,4.5,1,6.8v22
		c0,0.8-0.3,1.3-0.5,1.6s-0.8,0.5-1.6,0.5h-2.4c-0.8,0-1.3-0.3-1.6-0.5c-0.3-0.3-0.3-0.8-0.3-1.6v-22.3c0-1.3-0.3-2.6-0.5-3.9
		s-1-2.6-1.8-3.7c-0.8-1-1.8-2.1-3.2-2.6c-1.3-0.8-2.9-1-5-1c-1.6,0-3.2,0.3-4.5,0.8c-1.3,0.5-2.4,1.3-3.4,2.4
		c-0.8,1-1.6,2.1-2.1,3.7c-0.5,1.3-0.8,3.1-0.8,4.7v22c0,0.8-0.3,1.3-0.5,1.6c-0.3,0.3-0.8,0.5-1.6,0.5h-2.4c-0.8,0-1.3-0.3-1.6-0.5
		c-0.3-0.3-0.3-0.8-0.3-1.6v-22.3c0-1.3-0.3-2.6-0.5-3.9c-0.3-1.3-1-2.6-1.8-3.7c-0.8-1-1.8-2.1-3.1-2.6c-1.3-0.8-2.9-1-5-1
		c-1.3,0-2.4,0.3-3.7,0.8c-1.3,0.5-2.4,1-3.4,2.1c-1,0.8-1.8,1.8-2.4,3.1s-1,2.6-1,4.5V404c0,1-0.5,1.3-1.3,1.3h-3.4
		c-1,0-1.6-0.5-1.6-1.3v-38.6c0-0.5,0.3-0.8,0.5-1c0.3-0.3,0.5-0.3,1-0.3h3.4c0.5,0,0.8,0.3,1,0.5c0.3,0.3,0.5,0.5,0.5,1
		L484.4,369.3L484.4,369.3z"/>
	<path d="M582.9,400.3c-1.8,1.8-3.9,3.4-6.5,4.5c-2.4,1-5.2,1.6-8.1,1.6c-1.8,0-3.9-0.3-5.5-0.8c-1.8-0.5-3.4-1.3-5-2.1
		c-1.6-1-3.2-2.1-4.5-3.4s-2.4-2.6-3.4-4.5c-1-1.6-1.6-3.4-2.1-5c-0.5-1.8-0.8-3.7-0.8-5.8c0-1.8,0.3-3.9,0.8-5.8
		c0.5-1.8,1.3-3.4,2.1-5c1-1.6,2.1-3.1,3.4-4.5s2.6-2.4,4.5-3.4c1.6-1,3.4-1.6,5-2.1c1.8-0.5,3.7-0.8,5.5-0.8c2.9,0,5.5,0.5,8.1,1.6
		c2.4,1,4.7,2.6,6.5,4.5v-3.9c0-1,0.5-1.3,1.3-1.3h3.4c1,0,1.6,0.5,1.6,1.3v38.5c0,0.5-0.3,0.8-0.5,1c-0.3,0.3-0.5,0.5-1,0.5h-3.4
		c-0.5,0-0.8-0.3-1-0.5c-0.3-0.3-0.5-0.5-0.5-1v-3.7L582.9,400.3L582.9,400.3z M583.2,385.1c0-2.1-0.3-3.9-1-5.8s-1.8-3.4-3.2-5
		c-1.3-1.3-2.9-2.6-4.7-3.4c-1.8-0.8-3.7-1.3-5.8-1.3s-3.9,0.5-5.8,1.3s-3.4,1.8-4.7,3.4c-1.3,1.3-2.4,2.9-3.2,5s-1,3.9-1,5.8
		c0,2.1,0.3,3.9,1,5.8s1.8,3.4,3.2,5c1.3,1.3,2.9,2.6,4.7,3.4c1.8,0.8,3.7,1.3,5.8,1.3s3.9-0.5,5.8-1.3s3.4-2.1,4.7-3.4
		s2.4-3.1,3.2-5C582.9,389,583.2,386.9,583.2,385.1"/>
	<path d="M605.5,368.8c0.3-0.5,0.5-1,1-1.6c0.5-0.5,1-1,1.8-1.6c0.8-0.5,1.6-0.8,2.4-1.3c0.8-0.3,1.8-0.5,2.9-0.5c1,0,2.1,0,3.2,0.3
		c1,0,1.8,0.3,2.6,0.5c0.8,0.3,1.6,0.5,2.4,1c0.8,0.5,1.6,1,2.6,1.6c0.3,0.3,0.5,0.5,0.8,0.8c0.3,0.3,0.5,0.8,0.5,1
		c0,0.3,0,0.5-0.3,0.5l-1.8,2.9c-0.3,0.3-0.5,0.5-0.8,0.5s-0.3,0-0.5-0.3c-0.3,0-0.3-0.3-0.5-0.5c-1.3-0.8-2.6-1.6-3.9-2.1
		c-1.3-0.5-2.6-0.5-3.9-0.5c-1,0-2.1,0.3-3.2,0.5c-1,0.5-1.8,1-2.6,1.8s-1.3,1.8-1.8,2.9c-0.5,1-0.8,2.4-0.8,3.7v25.4
		c0,1-0.5,1.3-1.3,1.3h-3.4c-1,0-1.6-0.5-1.6-1.3v-38.5c0-0.5,0.3-0.8,0.5-1c0.3-0.3,0.5-0.3,1-0.3h3.4c0.5,0,0.8,0.3,1,0.5
		s0.5,0.5,0.5,1v3.1L605.5,368.8L605.5,368.8z"/>
	<path d="M644,406.3c-1,0-2.1,0-2.9-0.3c-1-0.3-1.8-0.8-2.6-1.3s-1.6-1.3-2.1-2.4c-0.5-1-0.8-2.4-0.8-3.9v-28.3H632
		c-0.5,0-1,0-1.3-0.3s-0.5-0.5-0.5-1v-3.1c0-0.5,0-1,0.5-1c0.3-0.3,0.8-0.3,1.3-0.3h3.7v-6.8c0-0.3,0-0.5,0.3-0.8
		c0.3-0.3,0.5-0.3,0.8-0.5c0,0,0.5,0,0.8-0.3c0.5,0,0.8,0,1.3-0.3c0.5,0,1-0.3,1.6-0.3c0.3,0,0.8,0,0.8,0c0.3,0,0.3,0.3,0.5,0.5
		c0,0.3,0.3,0.3,0.3,0.5c0,0.3,0,0.5,0,0.8v7.1h4.5c0.5,0,0.8,0,1,0.3s0.3,0.5,0.3,1v2.6c0,0.5,0,1-0.3,1.3s-0.5,0.3-1,0.3h-4.5
		v28.1c0,0.8,0.3,1.3,0.5,1.6s0.8,0.5,1.6,0.5c0.5,0,0.8,0.3,1.3,0.5c0.3,0.3,0.5,0.8,0.5,1.3v2.6c0,0.5-0.3,0.8-0.5,1.3
		C645.1,406,644.5,406.3,644,406.3"/>
	<path d="M682.8,404.2c0,1-0.5,1.3-1.3,1.3h-3.4c-1,0-1.6-0.5-1.6-1.3v-50.9c0-0.5,0.3-0.8,0.5-1c0.3-0.3,0.5-0.3,1-0.3h3.4
		c0.5,0,0.8,0.3,1,0.5c0.3,0.3,0.5,0.5,0.5,1v50.6L682.8,404.2L682.8,404.2z"/>
	<path d="M692,385.1c0-2.9,0.5-5.8,1.8-8.4c1-2.6,2.6-5,4.7-6.8c1.8-1.8,4.2-3.4,6.8-4.7c2.6-1,5.2-1.6,8.1-1.6
		c1.8,0,3.9,0.3,5.5,0.8c1.8,0.5,3.4,1.3,5,2.1c1.6,1,3.2,2.1,4.5,3.4s2.4,2.6,3.4,4.5c1,1.6,1.6,3.4,2.1,5c0.5,1.8,0.8,3.7,0.8,5.8
		c0,2.1-0.3,3.9-0.8,5.8s-1.3,3.4-2.1,5c-1,1.6-2.1,3.1-3.4,4.5s-2.6,2.4-4.5,3.4c-1.6,1-3.4,1.6-5,2.1c-1.8,0.5-3.7,0.8-5.5,0.8
		s-3.9-0.3-5.5-0.8c-1.8-0.5-3.4-1.3-5-2.1c-1.6-1-3.2-2.1-4.5-3.4s-2.4-2.6-3.4-4.5c-1-1.6-1.6-3.4-2.1-5
		C692.3,389,692,387.2,692,385.1 M698.6,385.1c0,2.1,0.3,3.9,1,5.8s1.8,3.4,3.2,5c1.3,1.3,2.9,2.6,4.7,3.4c1.8,0.8,3.7,1.3,5.8,1.3
		s3.9-0.5,5.8-1.3s3.4-1.8,4.7-3.4c1.3-1.3,2.4-2.9,3.2-5c0.8-1.8,1-3.7,1-5.8s-0.3-3.9-1-5.8s-1.8-3.4-3.2-5
		c-1.3-1.3-2.9-2.6-4.7-3.4c-1.8-0.8-3.7-1.3-5.8-1.3s-3.9,0.5-5.8,1.3s-3.4,2.1-4.7,3.4s-2.4,3.1-3.2,5
		C699.1,381.1,698.6,383.2,698.6,385.1"/>
	<path d="M772.5,396.3c0.3,0,0.3-0.3,0.5-0.5c0.3-0.3,0.3-0.3,0.5-0.3s0.5,0,0.5,0c0.3,0,0.5,0.3,0.5,0.5c0.5,0.5,0.8,1,1,1.3
		s0.5,0.8,0.8,0.8c0.3,0.3,0.3,0.5,0.3,0.5c0,0.3,0.3,0.3,0.3,0.5c0,0.3,0,0.3,0,0.5c0,0.3-0.3,0.5-0.3,0.8
		c-0.3,0.3-0.5,0.5-0.8,0.8c-1,0.8-1.8,1.3-2.9,2.1c-1,0.5-2.1,1-3.2,1.6c-1,0.5-2.4,0.8-3.4,1c-1.3,0.3-2.6,0.3-3.9,0.3
		c-1.8,0-3.7-0.3-5.5-0.8c-1.8-0.5-3.4-1.3-5-2.1c-1.6-1-3.2-2.1-4.5-3.4s-2.4-2.6-3.4-4.5c-1-1.6-1.6-3.4-2.1-5
		c-0.5-1.8-0.8-3.7-0.8-5.8c0-1.8,0.3-3.9,0.8-5.8c0.5-1.8,1.3-3.4,2.1-5c1-1.6,2.1-3.1,3.4-4.5s2.9-2.4,4.5-3.4
		c1.6-1,3.4-1.6,5-2.1c1.8-0.5,3.7-0.8,5.5-0.8c1.3,0,2.4,0,3.7,0.3s2.4,0.5,3.4,1c1,0.5,2.1,0.8,3.2,1.3c1,0.5,1.8,1,2.6,1.8
		c0.3,0,0.3,0.3,0.5,0.5c0.3,0.3,0.3,0.3,0.5,0.5c0.3,0.3,0.3,0.5,0.3,0.8c0,0.3,0,0.5-0.3,0.8l-2.4,3.1c-0.5,0.8-1.3,0.8-1.8,0
		c-0.5-0.5-1.3-1-2.1-1.6c-0.8-0.5-1.6-0.8-2.4-1.3c-0.8-0.3-1.8-0.5-2.6-0.8c-1-0.3-1.8-0.3-2.9-0.3c-1.8,0-3.7,0.5-5.5,1.3
		s-3.4,1.8-4.7,3.4c-1.3,1.3-2.4,3.1-3.4,5c-0.8,1.8-1.3,3.9-1.3,5.8c0,2.1,0.5,3.9,1.3,6c0.8,1.8,1.8,3.4,3.2,5
		c1.3,1.3,2.9,2.4,4.7,3.4c1.8,0.8,3.7,1.3,5.5,1.3c1.3,0,2.4,0,3.2-0.3c1-0.3,1.8-0.5,2.6-0.8c0.8-0.3,1.6-0.8,2.1-1.3
		C771.2,397.4,772,396.9,772.5,396.3"/>
	<path d="M785.6,353.6c0-0.3,0-0.8,0.3-1c0.3-0.3,0.5-0.5,1-0.5h3.4c0.3,0,0.8,0,1,0.3s0.5,0.5,0.5,1V383l17-17.8
		c0.3-0.3,0.5-0.5,0.8-0.5c0.3-0.3,0.5-0.3,1-0.3h5c0.3,0,0.5,0,0.8,0.3c0.3,0.3,0.3,0.3,0.3,0.5c0,0.5,0,0.8-0.3,1l-15.7,16.5
		l17.8,21.2l0,0c0.3,0.3,0.3,0.5,0.5,0.8c0,0.3,0,0.5,0,0.5c0,0.3,0,0.5-0.3,0.5s-0.5,0-0.8,0h-5.5c-0.3,0-0.5,0-0.8-0.3
		c-0.3-0.3-0.5-0.5-0.5-0.8l-14.7-17.6l-4.2,4.5v12.9c0,1-0.5,1.3-1.6,1.3h-3.4c-1,0-1.3-0.5-1.3-1.3v-50.9H785.6z"/>
	<path d="M833.3,369.9c1.8-1.8,3.9-3.4,6.5-4.5c2.4-1,5.2-1.6,8.1-1.6c1.8,0,3.9,0.3,5.5,0.8c1.8,0.5,3.4,1.3,5,2.1
		c1.6,1,3.2,2.1,4.5,3.4s2.4,2.6,3.4,4.5c1,1.6,1.6,3.4,2.1,5c0.5,1.8,0.8,3.7,0.8,5.8c0,2.1-0.3,3.9-0.8,5.8s-1.3,3.4-2.1,5
		c-1,1.6-2.1,3.1-3.4,4.5s-2.6,2.4-4.5,3.4c-1.6,1-3.4,1.6-5,2.1c-1.8,0.5-3.7,0.8-5.5,0.8c-2.9,0-5.5-0.5-8.1-1.6
		c-2.4-1-4.7-2.6-6.5-4.5v3.9c0,1-0.5,1.3-1.3,1.3h-3.4c-1,0-1.6-0.5-1.6-1.3v-50.9c0-0.5,0.3-0.8,0.5-1c0.3-0.3,0.5-0.5,1-0.5h3.4
		c0.5,0,0.8,0.3,1,0.5c0.3,0.3,0.5,0.5,0.5,1v16L833.3,369.9L833.3,369.9z M833.1,385.1c0,2.1,0.3,3.9,1,5.8s1.8,3.4,3.2,5
		c1.3,1.3,2.9,2.6,4.7,3.4c1.8,0.8,3.7,1.3,5.8,1.3c2.1,0,3.9-0.5,5.8-1.3s3.4-1.8,4.7-3.4c1.3-1.3,2.4-2.9,3.2-5
		c0.8-1.8,1-3.7,1-5.8s-0.3-3.9-1-5.8s-1.8-3.4-3.2-5s-2.9-2.6-4.7-3.4c-1.8-0.8-3.7-1.3-5.8-1.3c-2.1,0-3.9,0.5-5.8,1.3
		s-3.4,2.1-4.7,3.4s-2.4,3.1-3.2,5S833.1,383.2,833.1,385.1"/>
	<path d="M876.3,385.1c0-2.9,0.5-5.8,1.8-8.4c1-2.6,2.6-5,4.7-6.8c1.8-1.8,4.2-3.4,6.8-4.7c2.6-1,5.2-1.6,8.1-1.6
		c1.8,0,3.9,0.3,5.5,0.8c1.8,0.5,3.4,1.3,5,2.1c1.6,1,3.2,2.1,4.5,3.4s2.4,2.6,3.4,4.5c1,1.6,1.6,3.4,2.1,5c0.5,1.8,0.8,3.7,0.8,5.8
		c0,2.1-0.3,3.9-0.8,5.8s-1.3,3.4-2.1,5c-1,1.6-2.1,3.1-3.4,4.5s-2.6,2.4-4.5,3.4c-1.6,1-3.4,1.6-5,2.1c-1.8,0.5-3.7,0.8-5.5,0.8
		s-3.9-0.3-5.5-0.8c-1.8-0.5-3.4-1.3-5-2.1c-1.6-1-3.2-2.1-4.5-3.4s-2.4-2.6-3.4-4.5c-1-1.6-1.6-3.4-2.1-5
		C876.6,389,876.3,387.2,876.3,385.1 M882.9,385.1c0,2.1,0.3,3.9,1,5.8s1.8,3.4,3.2,5c1.3,1.3,2.9,2.6,4.7,3.4
		c1.8,0.8,3.7,1.3,5.8,1.3s3.9-0.5,5.8-1.3s3.4-1.8,4.7-3.4c1.3-1.3,2.4-2.9,3.2-5c0.8-1.8,1-3.7,1-5.8s-0.3-3.9-1-5.8
		s-1.8-3.4-3.2-5c-1.3-1.3-2.9-2.6-4.7-3.4c-1.8-0.8-3.7-1.3-5.8-1.3s-3.9,0.5-5.8,1.3s-3.4,2.1-4.7,3.4s-2.4,3.1-3.2,5
		S882.9,383.2,882.9,385.1"/>
	<path d="M931.4,404.5c-0.3,0.3-0.5,0.8-0.8,0.8c-0.3,0.3-0.5,0.3-1,0.3h-4.7c-0.5,0-0.8,0-0.8-0.3s0-0.5,0.3-1l13.9-20.2
		c-1.3-2.1-2.6-3.7-3.7-5.2c-1-1.6-2.1-3.1-3.2-4.5c-1-1.3-1.8-2.6-2.9-3.9c-0.8-1.3-1.8-2.6-2.9-4.2c-0.5-0.5-0.5-1-0.5-1.3
		c0.3-0.3,0.5-0.3,1.3-0.3h4.2c0.3,0,0.5,0,0.8,0s0.3,0,0.5,0.3c0.3,0,0.3,0.3,0.5,0.5c0.3,0.3,0.3,0.5,0.5,0.8l8.9,13.6l8.9-13.6
		c0.3-0.3,0.5-0.5,0.5-0.8c0.3-0.3,0.3-0.3,0.5-0.5c0.3,0,0.3-0.3,0.5-0.3s0.5,0,0.8,0h4.2c0.8,0,1,0,1.3,0.3s0,0.8-0.5,1.3
		c-1,1.6-2.1,2.9-2.9,4.2s-1.8,2.6-2.9,3.9c-1,1.3-2.1,2.9-3.2,4.5c-1,1.6-2.4,3.4-3.7,5.2l13.9,20.2c0.3,0.5,0.5,0.8,0.3,1
		c0,0.3-0.3,0.3-0.8,0.3h-4.7c-0.5,0-0.8,0-1-0.3s-0.5-0.5-0.8-0.8l-10.2-15.7L931.4,404.5z"/>
	<g>
		<path d="M295.3,105.8c19.1,0,36.7,7.1,49.3,19.9c24.9,25.2,25.4,66.3,3.4,97.3c0.8-8.1,0.5-16-0.8-23.9
			c-3.1-21.5-13.1-40.1-28.3-54.3c-17-15.5-39.6-24.1-64-24.1c-2.4,0-5,0-7.3,0.3C261.7,111.3,278.5,105.8,295.3,105.8 M295.3,94
			c-24.1,0-49,9.7-68.4,28.8c-6.3,6.3-11.5,13.1-16,20.2c0.3,0,1.1-0.3,1.8-0.5c13.6-6.6,28.3-9.7,42.2-9.7c21,0,40.9,7.1,55.9,21
			c27,24.9,33.3,66.6,15.5,103.6c-0.3,1-0.5,1.8-0.5,2.1c7.3-4.2,14.2-9.4,20.5-15.7c36.7-36.4,39.9-92.8,6.8-126.4
			C337.5,101.6,316.8,94,295.3,94"/>
		<path d="M194.9,428.1c-6.8,0-13.1-2.6-17.8-7.3L49.6,293.3c-10-10-10-26,0-35.9l127.4-127.4c10-10,26-10,35.9,0l127.4,127.4
			c10,10,10,26,0,35.9L213,420.7C208,425.4,201.7,428.1,194.9,428.1 M185.4,412.1c2.6,2.6,5.8,3.9,9.4,3.9s6.8-1.3,9.4-3.9
			l127.4-127.4c5.2-5.2,5.2-13.6,0-18.9L204.3,138.3c-5.2-5.2-13.6-5.2-18.9,0L58,265.8c-5.2,5.2-5.2,13.6,0,18.9L185.4,412.1z"/>
		<path d="M194.4,361.2c-0.8,0-1.8,0-2.6,0c-23.1-0.8-44.3-10.2-60-26.7c-15.7-16.5-23.9-38.5-23.3-61.6c0.8-23.1,10.2-44.3,26.7-60
			c16.5-15.7,38.5-23.9,61.6-23.3c23.1,0.8,44.3,10.2,60,26.7s23.9,38.5,23.3,61.6c-0.8,23.1-10.2,44.3-26.7,60
			C237.4,353.1,216.6,361.2,194.4,361.2 M194.4,201.5c-19.1,0-37,7.1-50.6,19.9c-14.2,13.4-22.6,31.7-23.1,51.6
			c-0.5,19.9,6.6,38.8,19.9,53c13.4,14.2,31.7,22.5,51.7,23.1c19.9,0.5,38.8-6.5,53-19.9c14.2-13.4,22.5-31.7,23.1-51.6
			c0.5-19.9-6.5-38.8-19.9-53s-31.7-22.6-51.6-23.1C195.7,201.5,195.1,201.5,194.4,201.5"/>
		<path d="M259.9,281v-11.3h-18.4c-1.1-8.6-4.5-17-9.7-23.9l12.9-12.9l-7.9-7.9L224,238c-6.8-5.5-15.2-8.9-23.9-9.7v-18.4h-11.3
			v18.4c-8.6,1.1-17,4.5-23.9,10l-12.9-12.9l-7.9,7.9l12.9,12.9c-5.5,6.8-8.9,15.2-9.7,23.9h-18.4v11.3h18.4c1.1,8.6,4.5,17,10,23.9
			l-12.9,12.9l7.9,7.9l12.9-12.9c6.8,5.5,15.2,8.9,23.9,9.7V341h11.3v-18.4c8.6-1,17-4.5,23.9-9.7l12.9,12.9l7.9-7.9l-12.9-12.9
			c5.5-6.8,8.9-15.2,9.7-23.9L259.9,281z M219.3,302c-7.1,6.5-16.3,10.2-26,10c-9.7-0.3-18.9-4.2-25.4-11.3s-10.2-16.3-9.7-26
			c0.3-9.7,4.2-18.9,11.3-25.4c6.8-6.3,15.5-10,24.9-10c0.3,0,0.8,0,1.1,0c9.7,0.3,18.9,4.2,25.4,11.3c6.6,7.1,10.2,16.3,9.7,26
			C230.5,286.2,226.4,295.1,219.3,302"/>
	</g>
</g>
</svg>
