<?xml version="1.0" encoding="utf-8"?>
<!-- Generator: Adobe Illustrator 25.0.1, SVG Export Plug-In . SVG Version: 6.00 Build 0)  -->
<svg version="1.1" id="Layer_1" xmlns="http://www.w3.org/2000/svg" xmlns:xlink="http://www.w3.org/1999/xlink" x="0px" y="0px"
	 viewBox="0 0 1080 1080" style="enable-background:new 0 0 1080 1080;" xml:space="preserve">
<style type="text/css">
	.st0{fill:#FBFCF5;}
</style>
<path d="M958,1080.4H125.7c-68.4,0-124.3-55.9-124.3-124.3V123.9C1.4,55.5,57.3-0.4,125.7-0.4H958c68.4,0,124.3,55.9,124.3,124.3
	v832.2C1082.3,1024.5,1026.3,1080.4,958,1080.4z"/>
<g>
	<path class="st0" d="M748,169.1c45.7,0,87.7,16.9,117.8,47.6c59.5,60.1,60.8,158.5,8.2,232.5c1.9-19.4,1.2-38.2-1.9-57
		c-7.5-51.4-31.3-95.9-67.7-129.7c-40.7-37-94.6-57.6-152.9-57.6c-5.6,0-11.9,0-17.5,0.6C667.8,182.2,708,169.1,748,169.1
		 M748,140.9c-57.6,0-117.2,23.2-163.5,68.9c-15,15-27.6,31.3-38.2,48.2c0.6,0,2.5-0.6,4.4-1.2c32.6-15.7,67.7-23.2,100.9-23.2
		c50.1,0,97.8,16.9,133.5,50.1c64.5,59.5,79.6,159.1,37,247.5c-0.6,2.5-1.2,4.4-1.2,5c17.5-10,33.8-22.6,48.9-37.6
		c87.7-87.1,95.2-221.8,16.3-302C848.9,159,799.4,140.9,748,140.9"/>
	<path class="st0" d="M508.1,939.1c-16.3,0-31.3-6.3-42.6-17.5L161,617.1c-23.8-23.8-23.8-62,0-85.8l304.5-304.5
		c23.8-23.8,62-23.8,85.8,0l304.5,304.5c23.8,23.8,23.8,62,0,85.8L551.3,921.6C539.4,932.9,524.4,939.1,508.1,939.1 M485.5,900.9
		c6.3,6.3,13.8,9.4,22.6,9.4c8.8,0,16.3-3.1,22.6-9.4l304.5-304.5c12.5-12.5,12.5-32.6,0-45.1L530.6,246.8
		c-12.5-12.5-32.6-12.5-45.1,0L181,551.3c-12.5,12.5-12.5,32.6,0,45.1L485.5,900.9z"/>
	<path class="st0" d="M506.8,779.3c-1.9,0-4.4,0-6.3,0c-55.1-1.9-105.9-24.4-143.5-63.9s-57-92.1-55.8-147.2
		c1.9-55.1,24.4-105.9,63.9-143.5c39.5-37.6,92.1-57,147.2-55.8c55.1,1.9,105.9,24.4,143.5,63.9s57,92.1,55.8,147.2
		c-1.9,55.1-24.4,105.9-63.9,143.5C609.6,759.9,560.1,779.3,506.8,779.3 M506.8,397.8c-45.7,0-88.4,16.9-120.9,47.6
		c-33.8,32-53.9,75.8-55.1,123.4c-1.2,47.6,15.7,92.7,47.6,126.6s75.8,53.9,123.4,55.1s92.7-15.7,126.6-47.6s53.9-75.8,55.1-123.4
		c1.2-47.6-15.7-92.7-47.6-126.6s-75.8-53.9-123.4-55.1C510,397.8,508.7,397.8,506.8,397.8"/>
	<path class="st0" d="M663.5,587.6v-26.9h-43.9c-2.5-20.7-10.7-40.7-23.2-57l30.7-30.7l-18.8-18.8l-30.7,30.7
		c-16.3-13.2-36.3-21.3-57-23.2v-43.9h-26.9v43.9c-20.7,2.5-40.7,10.6-57,23.8l-30.7-30.7l-18.8,18.8l30.7,30.7
		c-13.2,16.3-21.3,36.3-23.2,57h-43.9v26.9h43.9c2.5,20.7,10.6,40.7,23.8,57L387.8,676l18.8,18.8l30.7-30.7
		c16.3,13.2,36.3,21.3,57,23.2v43.9h26.9v-43.9c20.7-2.5,40.7-10.7,57-23.2l30.7,30.7l18.8-18.8l-30.7-30.7
		c13.2-16.3,21.3-36.3,23.2-57L663.5,587.6z M566.3,637.8c-16.9,15.7-38.8,24.4-62,23.8c-23.2-0.6-45.1-10-60.8-26.9
		c-15.7-16.9-24.4-38.8-23.2-62c0.6-23.2,10-45.1,26.9-60.8c16.3-15,37-23.8,59.5-23.8c0.6,0,1.9,0,2.5,0
		c23.2,0.6,45.1,10,60.8,26.9c15.7,16.9,24.4,38.8,23.2,62C593.3,600.2,583.3,621.5,566.3,637.8"/>
</g>
</svg>
