<?xml version="1.0" encoding="utf-8"?>
<!-- Generator: Adobe Illustrator 25.0.1, SVG Export Plug-In . SVG Version: 6.00 Build 0)  -->
<svg version="1.1" id="Layer_1" xmlns="http://www.w3.org/2000/svg" xmlns:xlink="http://www.w3.org/1999/xlink" x="0px" y="0px"
	 viewBox="0 0 720 720" style="enable-background:new 0 0 720 720;" xml:space="preserve">
<style type="text/css">
	.st0{fill:url(#SVGID_1_);}
	.st1{opacity:0.38;fill:url(#SVGID_2_);stroke:url(#SVGID_3_);stroke-miterlimit:10;}
	.st2{opacity:0.38;fill:url(#SVGID_4_);stroke:url(#SVGID_5_);stroke-miterlimit:10;}
</style>
<g>
	
		<linearGradient id="SVGID_1_" gradientUnits="userSpaceOnUse" x1="194.7674" y1="518.2788" x2="539.2326" y2="518.2788" gradientTransform="matrix(1 0 0 1 -7 -55)">
		<stop  offset="0" style="stop-color:#FFFFFF"/>
		<stop  offset="1" style="stop-color:#000000"/>
	</linearGradient>
	<path class="st0" d="M506.9,616.3H213.1c-13.9,0-25.3-11.4-25.3-25.3V335.5c0-13.9,11.4-25.3,25.3-25.3h293.9
		c13.9,0,25.3,11.4,25.3,25.3V591C532.2,604.9,520.9,616.3,506.9,616.3z"/>
	<linearGradient id="SVGID_2_" gradientUnits="userSpaceOnUse" x1="360" y1="531.1391" x2="360" y2="344.2792">
		<stop  offset="0" style="stop-color:#FFFFFF"/>
		<stop  offset="1" style="stop-color:#000000"/>
	</linearGradient>
	
		<linearGradient id="SVGID_3_" gradientUnits="userSpaceOnUse" x1="447.817" y1="-189" x2="587.0284" y2="-189" gradientTransform="matrix(-1.037167e-09 -1 1 -1.037167e-09 549 919)">
		<stop  offset="0" style="stop-color:#FFFFFF"/>
		<stop  offset="1" style="stop-color:#000000;stop-opacity:0.5"/>
	</linearGradient>
	<path class="st1" d="M512.5,351v101.2c0,10.2-8.3,18.5-18.5,18.5H226c-10.2,0-18.5-8.3-18.5-18.5V351c0-10.2,8.3-18.5,18.5-18.5
		h268C504.2,332.5,512.5,340.8,512.5,351z"/>
	
		<linearGradient id="SVGID_4_" gradientUnits="userSpaceOnUse" x1="627.6641" y1="62.4388" x2="881.901" y2="62.4388" gradientTransform="matrix(-1 0 0 -1 1113.255 310.3166)">
		<stop  offset="0" style="stop-color:#FFFFFF"/>
		<stop  offset="1" style="stop-color:#000000"/>
	</linearGradient>
	
		<linearGradient id="SVGID_5_" gradientUnits="userSpaceOnUse" x1="627.1641" y1="62.4388" x2="882.401" y2="62.4388" gradientTransform="matrix(-1 0 0 -1 1113.255 310.3166)">
		<stop  offset="0" style="stop-color:#FFFFFF"/>
		<stop  offset="1" style="stop-color:#000000;stop-opacity:0.5"/>
	</linearGradient>
	<path class="st2" d="M240.3,232.9l65.6,0v141.3c0,9.8,8,17.8,17.8,17.8h69.7c9.8,0,17.8-8,17.8-17.8V232.9l65.4,0
		c8,0,11.9-9.6,6.3-15.3c-35.6-35.6-71.1-71.1-106.4-106.4c-10-10-26.2-10-36.2,0C305,146.6,269.5,182.1,234,217.6
		C228.4,223.3,232.3,232.9,240.3,232.9z"/>
</g>
</svg>
