<?xml version="1.0" encoding="utf-8"?>
<!-- Generator: Adobe Illustrator 25.0.1, SVG Export Plug-In . SVG Version: 6.00 Build 0)  -->
<svg version="1.1" id="Layer_1" xmlns="http://www.w3.org/2000/svg" xmlns:xlink="http://www.w3.org/1999/xlink" x="0px" y="0px"
	 viewBox="0 0 720 720" style="enable-background:new 0 0 720 720;" xml:space="preserve">
<style type="text/css">
	.st0{fill:url(#SVGID_1_);}
	.st1{fill:url(#SVGID_2_);stroke:url(#SVGID_3_);stroke-miterlimit:10;}
	.st2{fill:url(#SVGID_4_);stroke:url(#SVGID_5_);stroke-miterlimit:10;}
</style>
<g>
	
		<linearGradient id="SVGID_1_" gradientUnits="userSpaceOnUse" x1="210.9886" y1="518.5787" x2="556.454" y2="518.5787" gradientTransform="matrix(1 0 0 1 -7 -55)">
		<stop  offset="0" style="stop-color:#F2D432"/>
		<stop  offset="1" style="stop-color:#DEB800"/>
	</linearGradient>
	<path class="st0" d="M524.1,617H229.3c-13.9,0-25.4-11.4-25.4-25.4V335.5c0-13.9,11.4-25.4,25.4-25.4h294.7
		c13.9,0,25.4,11.4,25.4,25.4v256.2C549.5,605.6,538,617,524.1,617z"/>
	<linearGradient id="SVGID_2_" gradientUnits="userSpaceOnUse" x1="376.7213" y1="531.636" x2="376.7213" y2="344.2335">
		<stop  offset="0" style="stop-color:#DEB800;stop-opacity:0.5"/>
		<stop  offset="1" style="stop-color:#F4F0EF;stop-opacity:0.5"/>
	</linearGradient>
	
		<linearGradient id="SVGID_3_" gradientUnits="userSpaceOnUse" x1="447.4956" y1="-172.2787" x2="587.1083" y2="-172.2787" gradientTransform="matrix(-1.037167e-09 -1 1 -1.037167e-09 549 919)">
		<stop  offset="0" style="stop-color:#DEB800;stop-opacity:0.5"/>
		<stop  offset="1" style="stop-color:#F4F0EF;stop-opacity:0.3"/>
	</linearGradient>
	<path class="st1" d="M529.7,351v101.5c0,10.2-8.4,18.6-18.6,18.6H242.3c-10.2,0-18.6-8.4-18.6-18.6V351c0-10.2,8.4-18.6,18.6-18.6
		h268.7C521.3,332.4,529.7,340.7,529.7,351z"/>
	
		<linearGradient id="SVGID_4_" gradientUnits="userSpaceOnUse" x1="610.5781" y1="62.7643" x2="865.5532" y2="62.7643" gradientTransform="matrix(-1 0 0 -1 1113.255 310.3166)">
		<stop  offset="0" style="stop-color:#DEB800;stop-opacity:0.5"/>
		<stop  offset="1" style="stop-color:#F4F0EF;stop-opacity:0.5"/>
	</linearGradient>
	
		<linearGradient id="SVGID_5_" gradientUnits="userSpaceOnUse" x1="610.0781" y1="62.7643" x2="866.0532" y2="62.7643" gradientTransform="matrix(-1 0 0 -1 1113.255 310.3166)">
		<stop  offset="0" style="stop-color:#DEB800;stop-opacity:0.5"/>
		<stop  offset="1" style="stop-color:#F4F0EF;stop-opacity:0.3"/>
	</linearGradient>
	<path class="st2" d="M256.7,232.5l65.8,0v141.8c0,9.9,8,17.9,17.9,17.9h69.9c9.9,0,17.9-8,17.9-17.9V232.5l65.6,0
		c8,0,12-9.7,6.3-15.3c-35.7-35.7-71.3-71.3-106.7-106.7c-10-10-26.2-10-36.3,0c-35.5,35.5-71,71.1-106.7,106.7
		C244.7,222.9,248.7,232.5,256.7,232.5z"/>
</g>
</svg>
