<?xml version="1.0" encoding="utf-8"?>
<!-- Generator: Adobe Illustrator 25.0.1, SVG Export Plug-In . SVG Version: 6.00 Build 0)  -->
<svg version="1.1" id="Layer_1" xmlns="http://www.w3.org/2000/svg" xmlns:xlink="http://www.w3.org/1999/xlink" x="0px" y="0px"
	 viewBox="0 0 720 720" style="enable-background:new 0 0 720 720;" xml:space="preserve">
<style type="text/css">
	.st0{fill:url(#SVGID_1_);}
	.st1{fill:url(#SVGID_2_);}
	.st2{fill:url(#SVGID_3_);stroke:url(#SVGID_4_);stroke-linejoin:round;stroke-miterlimit:10;}
</style>
<g>
	<linearGradient id="SVGID_1_" gradientUnits="userSpaceOnUse" x1="301.9886" y1="180.7668" x2="340.9695" y2="332.7922">
		<stop  offset="0" style="stop-color:#BC896F"/>
		<stop  offset="0.9985" style="stop-color:#B27149"/>
	</linearGradient>
	<path class="st0" d="M421.4,287.3c16,85-39.1,147.2-45.6,154.3c-8.8-2.1-90.5-23.2-123.9-102.8c-26.8-63.7-11.8-139.2,38.2-191.7
		C357.8,166.5,408.9,220.9,421.4,287.3z"/>
	<linearGradient id="SVGID_2_" gradientUnits="userSpaceOnUse" x1="533.244" y1="278.8202" x2="396.811" y2="399.6608">
		<stop  offset="0" style="stop-color:#BC896F"/>
		<stop  offset="0.9985" style="stop-color:#B27149"/>
	</linearGradient>
	<path class="st1" d="M484.8,417.3c-42.5,54.5-109.1,54.7-116.8,54.6c-3.4-6.4-34.2-66-4.2-127.9c24-49.6,77.3-80.6,135.3-78.8
		C523.6,315.6,518.1,374.7,484.8,417.3z"/>
	<linearGradient id="SVGID_3_" gradientUnits="userSpaceOnUse" x1="101.3814" y1="466.163" x2="618.6186" y2="466.163">
		<stop  offset="1.501339e-03" style="stop-color:#B27149;stop-opacity:0.5"/>
		<stop  offset="1" style="stop-color:#F4F0EF"/>
	</linearGradient>
	<linearGradient id="SVGID_4_" gradientUnits="userSpaceOnUse" x1="100.8814" y1="466.163" x2="619.1186" y2="466.163">
		<stop  offset="1.501342e-03" style="stop-color:#B27149;stop-opacity:0.5"/>
		<stop  offset="1" style="stop-color:#F4F0EF"/>
	</linearGradient>
	<path class="st2" d="M197.7,382.3c18.3-5.2,37.7-6.4,37.7-6.4c9.1-0.6,17.6-0.5,25.8,0.1c22,1.6,44.1,3.8,65.7,7.8
		c33.7,6.2,67,14.1,100.5,21.4c10.3,2.3,15.9,9.2,16.8,20.2c0.8,9.6-4.9,19.6-14,22.6c-5.6,1.9-11.7,3.4-17.5,3.2
		c-22.7-0.5-45.4-1.9-68.2-2.8c-14.2-0.6-28.5-1-42.7-1c-2.4,0-4.9,2.3-7.3,3.6c1.4,2.6,2.3,5.8,4.3,7.6c41,36,87.1,40.9,136.4,21.1
		c44-17.7,78.1-48,106.7-85.4c15.2-20,36.4-30.5,61-34.5c1.4-0.2,2.9-0.3,4.3-0.3c10.5,0.2,13.6,4.1,10,12.9
		c-10,24.5-24.1,46.6-40.1,67.5c-32.2,42-70.2,77.4-116.7,103.2c-43.8,24.3-90.6,34.4-140.4,28c-32.6-4.2-72.4-4.5-122.7-17.3
		c-45.4-11.6-68.4-17.8-82.8-38.6c-1.5-2.1-17.5-26.1-12-55.3C112.5,406.5,184.3,386.1,197.7,382.3z"/>
</g>
</svg>
