<?xml version="1.0" encoding="utf-8"?>
<!-- Generator: Adobe Illustrator 25.0.1, SVG Export Plug-In . SVG Version: 6.00 Build 0)  -->
<svg version="1.1" id="Layer_1" xmlns="http://www.w3.org/2000/svg" xmlns:xlink="http://www.w3.org/1999/xlink" x="0px" y="0px"
	 viewBox="0 0 720 720" style="enable-background:new 0 0 720 720;" xml:space="preserve">
<style type="text/css">
	.st0{fill:url(#SVGID_1_);}
	.st1{fill:url(#SVGID_2_);}
	.st2{opacity:0.38;fill:url(#SVGID_3_);stroke:url(#SVGID_4_);stroke-miterlimit:10;}
</style>
<g>
	<linearGradient id="SVGID_1_" gradientUnits="userSpaceOnUse" x1="301.0303" y1="177.8296" x2="340.6315" y2="332.2742">
		<stop  offset="0" style="stop-color:#FFFFFF"/>
		<stop  offset="1" style="stop-color:#000000"/>
	</linearGradient>
	<path class="st0" d="M422.3,286c16.3,86.4-39.7,149.5-46.3,156.7c-9-2.2-92-23.6-125.9-104.4c-27.2-64.7-12-141.4,38.8-194.7
		C357.7,163.3,409.6,218.6,422.3,286z"/>
	<linearGradient id="SVGID_2_" gradientUnits="userSpaceOnUse" x1="535.8132" y1="277.271" x2="397.209" y2="400.0346">
		<stop  offset="0" style="stop-color:#FFFFFF"/>
		<stop  offset="1" style="stop-color:#000000"/>
	</linearGradient>
	<path class="st1" d="M486.8,418.1c-43.2,55.4-110.8,55.6-118.6,55.5c-45.5-83.3-1.3-209.4,133.2-209.9
		C526.1,314.8,520.5,374.8,486.8,418.1z"/>
	<linearGradient id="SVGID_3_" gradientUnits="userSpaceOnUse" x1="97.2307" y1="467.8477" x2="622.7693" y2="467.8477">
		<stop  offset="0" style="stop-color:#FFFFFF"/>
		<stop  offset="1" style="stop-color:#000000"/>
	</linearGradient>
	<linearGradient id="SVGID_4_" gradientUnits="userSpaceOnUse" x1="96.7307" y1="467.8477" x2="623.2693" y2="467.8477">
		<stop  offset="0" style="stop-color:#FFFFFF"/>
		<stop  offset="1" style="stop-color:#000000;stop-opacity:0.5"/>
	</linearGradient>
	<path class="st2" d="M195.1,382.6c18.6-5.3,38.3-6.6,38.3-6.6c9.2-0.6,17.9-0.5,26.2,0.1c22.3,1.6,44.8,3.9,66.8,7.9
		c34.2,6.3,68.1,14.3,102.1,21.7c21.4,3.3,22.8,36.9,2.8,43.5c-5.7,1.9-11.9,3.4-17.8,3.3c-23.1-0.6-46.2-1.9-69.2-2.8
		c-14.4-0.6-28.9-1-43.4-1.1c-2.5,0-5,2.3-7.5,3.6c1.4,2.6,2.3,5.9,4.4,7.7c80.5,74.3,193,9.5,247-65.3c15.5-20.3,37-31,62-35
		c10.2-1.4,19.9,1.5,14.6,12.8c-10.1,24.9-24.4,47.3-40.7,68.6c-61,80.1-156,148.3-261.2,133.3c-33.2-4.2-73.5-4.6-124.6-17.6
		c-46.2-11.8-69.5-18.1-84.1-39.2c-1.5-2.2-17.8-26.5-12.2-56.2C108.5,407.2,181.4,386.5,195.1,382.6z"/>
</g>
</svg>
