<?xml version="1.0" encoding="utf-8"?>
<!-- Generator: Adobe Illustrator 25.0.1, SVG Export Plug-In . SVG Version: 6.00 Build 0)  -->
<svg version="1.1" id="Layer_1" xmlns="http://www.w3.org/2000/svg" xmlns:xlink="http://www.w3.org/1999/xlink" x="0px" y="0px"
	 viewBox="0 0 720 720" style="enable-background:new 0 0 720 720;" xml:space="preserve">
<style type="text/css">
	.st0{fill:url(#SVGID_1_);}
	.st1{fill:url(#SVGID_2_);}
	.st2{fill:url(#SVGID_3_);stroke:url(#SVGID_4_);stroke-miterlimit:10;}
</style>
<g>
	<linearGradient id="SVGID_1_" gradientUnits="userSpaceOnUse" x1="300.9424" y1="177.5582" x2="340.6026" y2="332.2329">
		<stop  offset="0" style="stop-color:#F2D432"/>
		<stop  offset="1" style="stop-color:#DEB800"/>
	</linearGradient>
	<path class="st0" d="M422.4,285.9c16.3,86.5-39.7,149.8-46.4,156.9c-9-2.2-92.1-23.6-126.1-104.5c-27.2-64.8-12-141.6,38.8-195
		C357.7,163,409.7,218.3,422.4,285.9z"/>
	<linearGradient id="SVGID_2_" gradientUnits="userSpaceOnUse" x1="536.0751" y1="277.1477" x2="397.2645" y2="400.0943">
		<stop  offset="0" style="stop-color:#F2D432"/>
		<stop  offset="1" style="stop-color:#DEB800"/>
	</linearGradient>
	<path class="st1" d="M487,418.2c-43.2,55.5-111,55.7-118.8,55.6c-45.6-83.4-1.3-209.7,133.4-210.2
		C526.4,314.7,520.8,374.8,487,418.2z"/>
	<linearGradient id="SVGID_3_" gradientUnits="userSpaceOnUse" x1="96.8393" y1="468.0084" x2="623.1607" y2="468.0084">
		<stop  offset="0" style="stop-color:#DEB800;stop-opacity:0.5"/>
		<stop  offset="1" style="stop-color:#F4F0EF;stop-opacity:0.5"/>
	</linearGradient>
	<linearGradient id="SVGID_4_" gradientUnits="userSpaceOnUse" x1="96.3393" y1="468.0084" x2="623.6607" y2="468.0084">
		<stop  offset="0" style="stop-color:#DEB800;stop-opacity:0.5"/>
		<stop  offset="1" style="stop-color:#F4F0EF;stop-opacity:0.3"/>
	</linearGradient>
	<path class="st2" d="M194.9,382.6c18.6-5.3,38.3-6.6,38.3-6.6c9.2-0.6,17.9-0.5,26.3,0.1c22.4,1.6,44.8,3.9,66.9,7.9
		c34.3,6.3,68.2,14.3,102.2,21.7c21.4,3.3,22.8,36.9,2.8,43.5c-5.7,1.9-11.9,3.4-17.9,3.3c-23.1-0.6-46.2-1.9-69.3-2.8
		c-14.5-0.6-29-1-43.4-1.1c-2.5,0-5,2.3-7.5,3.6c1.4,2.6,2.3,5.9,4.4,7.7c80.7,74.4,193.3,9.5,247.4-65.4c15.5-20.3,37.1-31,62-35.1
		c10.3-1.4,19.9,1.5,14.6,12.8c-10.1,24.9-24.5,47.4-40.8,68.7c-61.1,80.2-156.2,148.5-261.6,133.5c-33.2-4.3-73.6-4.6-124.8-17.6
		c-46.2-11.8-69.6-18.1-84.2-39.2c-1.5-2.2-17.8-26.5-12.2-56.3C108.1,407.2,181.2,386.5,194.9,382.6z"/>
</g>
</svg>
