<?xml version="1.0" encoding="utf-8"?>
<!-- Generator: Adobe Illustrator 25.0.1, SVG Export Plug-In . SVG Version: 6.00 Build 0)  -->
<svg version="1.1" id="Layer_1" xmlns="http://www.w3.org/2000/svg" xmlns:xlink="http://www.w3.org/1999/xlink" x="0px" y="0px"
	 viewBox="0 0 720 720" style="enable-background:new 0 0 720 720;" xml:space="preserve">
<style type="text/css">
	.st0{fill:url(#SVGID_1_);}
	.st1{fill:url(#SVGID_2_);}
	.st2{opacity:0.76;fill:url(#SVGID_3_);stroke:url(#SVGID_4_);stroke-width:0.5;stroke-miterlimit:10;}
</style>
<g>
	<linearGradient id="SVGID_1_" gradientUnits="userSpaceOnUse" x1="302.0034" y1="180.8125" x2="340.9743" y2="332.7991">
		<stop  offset="0" style="stop-color:#ADBA3E"/>
		<stop  offset="1" style="stop-color:#718200"/>
	</linearGradient>
	<path class="st0" d="M421.4,287.3c16,85-39.1,147.1-45.5,154.2c-8.8-2.1-90.5-23.2-123.9-102.7c-26.8-63.7-11.8-139.1,38.2-191.6
		C357.8,166.5,408.8,220.9,421.4,287.3z"/>
	<linearGradient id="SVGID_2_" gradientUnits="userSpaceOnUse" x1="533.1999" y1="278.8408" x2="396.8016" y2="399.6507">
		<stop  offset="0" style="stop-color:#ADBA3E"/>
		<stop  offset="1" style="stop-color:#718200"/>
	</linearGradient>
	<path class="st1" d="M484.8,417.2c-42.5,54.5-109.1,54.7-116.7,54.6c-3.4-6.4-34.1-65.9-4.2-127.8c24-49.6,77.2-80.6,135.3-78.8
		C523.5,315.6,518,374.7,484.8,417.2z"/>
	<linearGradient id="SVGID_3_" gradientUnits="userSpaceOnUse" x1="101.4472" y1="466.136" x2="618.5528" y2="466.136">
		<stop  offset="3.534978e-03" style="stop-color:#FFFFFF;stop-opacity:0.7"/>
		<stop  offset="1" style="stop-color:#A0AE32"/>
	</linearGradient>
	<linearGradient id="SVGID_4_" gradientUnits="userSpaceOnUse" x1="101.1972" y1="466.136" x2="618.8028" y2="466.136">
		<stop  offset="0" style="stop-color:#FFFFFF"/>
		<stop  offset="1" style="stop-color:#718416;stop-opacity:0.8"/>
	</linearGradient>
	<path class="st2" d="M197.8,382.3c18.3-5.2,37.7-6.4,37.7-6.4c9.1-0.6,17.6-0.5,25.8,0.1c22,1.6,44,3.8,65.7,7.8
		c33.7,6.2,67,14.1,100.5,21.4c10.3,2.3,15.9,9.2,16.7,20.2c0.8,9.6-4.9,19.5-14,22.6c-5.6,1.9-11.7,3.4-17.5,3.2
		c-22.7-0.5-45.4-1.9-68.1-2.8c-14.2-0.6-28.5-1-42.7-1c-2.4,0-4.9,2.3-7.3,3.6c1.4,2.6,2.3,5.8,4.3,7.6
		c40.9,36,87.1,40.9,136.4,21.1c44-17.6,78.1-48,106.6-85.4c15.2-20,36.4-30.5,61-34.5c1.4-0.2,2.9-0.3,4.3-0.3
		c10.4,0.2,13.6,4.1,10,12.9c-10,24.5-24.1,46.6-40.1,67.5c-32.2,42-70.2,77.4-116.7,103.2c-43.8,24.3-90.6,34.4-140.4,28
		c-32.6-4.2-72.4-4.5-122.6-17.3c-45.4-11.6-68.4-17.8-82.8-38.6c-1.5-2.1-17.5-26.1-12-55.3C112.5,406.5,184.3,386.1,197.8,382.3z"
		/>
</g>
</svg>
