<?xml version="1.0" encoding="utf-8"?>
<!-- Generator: Adobe Illustrator 25.0.1, SVG Export Plug-In . SVG Version: 6.00 Build 0)  -->
<svg version="1.1" id="Layer_1" xmlns="http://www.w3.org/2000/svg" xmlns:xlink="http://www.w3.org/1999/xlink" x="0px" y="0px"
	 viewBox="0 0 720 720" style="enable-background:new 0 0 720 720;" xml:space="preserve">
<style type="text/css">
	.st0{fill:url(#SVGID_1_);}
	.st1{opacity:0.38;fill:url(#SVGID_2_);stroke:url(#SVGID_3_);stroke-miterlimit:10;}
	.st2{opacity:0.38;fill:url(#SVGID_4_);stroke:url(#SVGID_5_);stroke-miterlimit:10;}
</style>
<g>
	<linearGradient id="SVGID_1_" gradientUnits="userSpaceOnUse" x1="486.8224" y1="587.6552" x2="200.8679" y2="92.3676">
		<stop  offset="0" style="stop-color:#FFFFFF"/>
		<stop  offset="1" style="stop-color:#000000"/>
	</linearGradient>
	<path class="st0" d="M595.1,156.9H92.6c-7.1,0-13,5.8-13,13v340.3c0,7.1,5.8,13,13,13h206.9l-7.3,37.4c-0.7,3.4-3.6,5.8-7.1,5.8
		h-38.7c-2.8,0-5.1,2.3-5.1,5.1v15.8c0,2.8,2.3,5.1,5.1,5.1h177.9c2.8,0,5.1-2.3,5.1-5.1v-15.8c0-2.8-2.3-5.1-5.1-5.1h-38.7
		c-3.4,0-6.4-2.4-7.1-5.8l-7.3-37.4h223.9c7.1,0,13-5.8,13-13V169.8C608.1,162.7,602.2,156.9,595.1,156.9z"/>
	<linearGradient id="SVGID_2_" gradientUnits="userSpaceOnUse" x1="467.5858" y1="535.4283" x2="220.1045" y2="106.7782">
		<stop  offset="0" style="stop-color:#FFFFFF"/>
		<stop  offset="1" style="stop-color:#000000"/>
	</linearGradient>
	<linearGradient id="SVGID_3_" gradientUnits="userSpaceOnUse" x1="95.7517" y1="321.1032" x2="591.9387" y2="321.1032">
		<stop  offset="0" style="stop-color:#FFFFFF"/>
		<stop  offset="1" style="stop-color:#000000;stop-opacity:0.5"/>
	</linearGradient>
	<path class="st1" d="M579.1,469.1H108.5c-6.8,0-12.3-5.5-12.3-12.3V185.4c0-6.8,5.5-12.3,12.3-12.3h470.6c6.8,0,12.3,5.5,12.3,12.3
		v271.5C591.4,463.6,585.9,469.1,579.1,469.1z"/>
	<linearGradient id="SVGID_4_" gradientUnits="userSpaceOnUse" x1="508.03" y1="504.7603" x2="256.0375" y2="68.2964">
		<stop  offset="0" style="stop-color:#FFFFFF"/>
		<stop  offset="1" style="stop-color:#000000"/>
	</linearGradient>
	<linearGradient id="SVGID_5_" gradientUnits="userSpaceOnUse" x1="508.28" y1="505.1933" x2="255.7875" y2="67.8634">
		<stop  offset="0" style="stop-color:#FFFFFF"/>
		<stop  offset="1" style="stop-color:#000000;stop-opacity:0.5"/>
	</linearGradient>
	<path class="st2" d="M600.2,445.4H163.8c-22.1,0-40.1-18.1-40.1-40.1V167.8c0-22.1,18.1-40.1,40.1-40.1h436.4
		c22.1,0,40.1,18.1,40.1,40.1v237.4C640.4,427.3,622.3,445.4,600.2,445.4z"/>
</g>
</svg>
