<?xml version="1.0" encoding="utf-8"?>
<!-- Generator: Adobe Illustrator 25.0.1, SVG Export Plug-In . SVG Version: 6.00 Build 0)  -->
<svg version="1.1" id="Layer_1" xmlns="http://www.w3.org/2000/svg" xmlns:xlink="http://www.w3.org/1999/xlink" x="0px" y="0px"
	 viewBox="0 0 720 720" style="enable-background:new 0 0 720 720;" xml:space="preserve">
<style type="text/css">
	.st0{fill:url(#SVGID_1_);}
	.st1{fill:url(#SVGID_2_);stroke:url(#SVGID_3_);stroke-miterlimit:10;}
	.st2{fill:url(#SVGID_4_);stroke:url(#SVGID_5_);stroke-miterlimit:10;}
</style>
<g>
	
		<linearGradient id="SVGID_1_" gradientUnits="userSpaceOnUse" x1="1184.6541" y1="-1115.2468" x2="1081.6643" y2="-1683.4067" gradientTransform="matrix(0.7071 -0.7071 0.7071 0.7071 523.6966 2156.0579)">
		<stop  offset="0" style="stop-color:#F2D432"/>
		<stop  offset="1" style="stop-color:#DEB800"/>
	</linearGradient>
	<path class="st0" d="M601.2,482.3L460,623.5c-10.4,10.4-27.3,10.4-37.7,0L118.8,319.9c-10.4-10.4-10.4-27.3,0-37.7L260,141.1
		c10.4-10.4,27.3-10.4,37.7,0l303.5,303.5C611.5,455,611.5,471.9,601.2,482.3z"/>
	<linearGradient id="SVGID_2_" gradientUnits="userSpaceOnUse" x1="576.196" y1="966.4681" x2="381.6402" y2="440.8656">
		<stop  offset="0" style="stop-color:#DEB800;stop-opacity:0.5"/>
		<stop  offset="1" style="stop-color:#F4F0EF;stop-opacity:0.5"/>
	</linearGradient>
	
		<linearGradient id="SVGID_3_" gradientUnits="userSpaceOnUse" x1="1026.1102" y1="-1370.0369" x2="1250.8268" y2="-1370.0369" gradientTransform="matrix(0.7071 -0.7071 0.7071 0.7071 523.6966 2156.0579)">
		<stop  offset="0" style="stop-color:#DEB800;stop-opacity:0.5"/>
		<stop  offset="1" style="stop-color:#F4F0EF;stop-opacity:0.3"/>
	</linearGradient>
	<path class="st1" d="M267.4,156.4l-32.1,32.1l7.6,7.6c4.4,4.4,4.4,11.5,0,15.9l-52.4,52.4c-4.4,4.4-11.5,4.4-15.9,0l-7.6-7.6
		L134,289.7c-6.8,6.8-6.8,18,0,24.8l293.6,293.6c6.8,6.8,18,6.8,24.8,0l133.4-133.4c6.8-6.8,6.8-18,0-24.8L292.2,156.4
		C285.4,149.5,274.2,149.5,267.4,156.4z"/>
	
		<linearGradient id="SVGID_4_" gradientUnits="userSpaceOnUse" x1="1301.8253" y1="-1174.2493" x2="1039.4485" y2="-1628.6991" gradientTransform="matrix(0.7071 -0.7071 0.7071 0.7071 523.6966 2156.0579)">
		<stop  offset="0" style="stop-color:#DEB800;stop-opacity:0.5"/>
		<stop  offset="1" style="stop-color:#F4F0EF;stop-opacity:0.5"/>
	</linearGradient>
	
		<linearGradient id="SVGID_5_" gradientUnits="userSpaceOnUse" x1="1302.0753" y1="-1173.8163" x2="1039.1985" y2="-1629.1322" gradientTransform="matrix(0.7071 -0.7071 0.7071 0.7071 523.6966 2156.0579)">
		<stop  offset="0" style="stop-color:#DEB800;stop-opacity:0.5"/>
		<stop  offset="1" style="stop-color:#F4F0EF;stop-opacity:0.3"/>
	</linearGradient>
	<path class="st2" d="M263.2,94.4l-35,35l8.1,8.1c4.7,4.7,4.6,12.4-0.2,17.1l-57.2,57.2c-4.8,4.8-12.5,4.8-17.1,0.2l-8.1-8.1
		L117.6,240c-7.4,7.4-7.6,19.5-0.3,26.8L431,580.5c7.3,7.3,19.3,7.2,26.8-0.3l145.6-145.6c7.4-7.4,7.6-19.5,0.3-26.8L290,94.1
		C282.7,86.8,270.6,87,263.2,94.4z"/>
</g>
</svg>
