<?xml version="1.0" standalone="no"?><!DOCTYPE svg PUBLIC "-//W3C//DTD SVG 1.1//EN" "http://www.w3.org/Graphics/SVG/1.1/DTD/svg11.dtd">
<svg x="0.0000mm" y="0.0000mm" width="130.9690mm" height="52.9170mm" viewBox="0.0000 0.0000 130.9690 52.9170" version="1.1" xmlns="http://www.w3.org/2000/svg" shape-rendering="crispEdges">
<title>TBarCode - 11.13.0.16567</title>
<desc>BarCode licensed to MEM:TEC-IT Datenverarbeitung GmbH Internal License</desc>
<g fill="rgb(0%,0%,0%)">
</g>
<g fill="rgb(100%,100%,100%)">
<rect x="0.0000" y="0.0000" width="130.9690" height="52.9170" />
</g>
<g fill="rgb(0%,0%,0%)">
</g>
<g fill="rgb(0%,0%,0%)">
<rect x="0.0000" y="0.0000" width="1.3229" height="38.0219" />
<rect x="2.6458" y="0.0000" width="1.3229" height="38.0219" />
<rect x="5.2917" y="0.0000" width="3.9688" height="38.0219" />
<rect x="10.5834" y="0.0000" width="1.3229" height="38.0219" />
<rect x="15.8750" y="0.0000" width="1.3229" height="38.0219" />
<rect x="18.5209" y="0.0000" width="1.3229" height="38.0219" />
<rect x="21.1667" y="0.0000" width="3.9688" height="38.0219" />
<rect x="29.1042" y="0.0000" width="3.9688" height="38.0219" />
<rect x="34.3959" y="0.0000" width="3.9688" height="38.0219" />
<rect x="39.6876" y="0.0000" width="1.3229" height="38.0219" />
<rect x="44.9793" y="0.0000" width="1.3229" height="38.0219" />
<rect x="47.6251" y="0.0000" width="1.3229" height="38.0219" />
<rect x="52.9168" y="0.0000" width="3.9688" height="38.0219" />
<rect x="58.2084" y="0.0000" width="1.3229" height="38.0219" />
<rect x="63.5001" y="0.0000" width="3.9688" height="38.0219" />
<rect x="71.4376" y="0.0000" width="1.3229" height="38.0219" />
<rect x="74.0835" y="0.0000" width="1.3229" height="38.0219" />
<rect x="76.7293" y="0.0000" width="1.3229" height="38.0219" />
<rect x="82.0210" y="0.0000" width="1.3229" height="38.0219" />
<rect x="84.6668" y="0.0000" width="1.3229" height="38.0219" />
<rect x="87.3127" y="0.0000" width="3.9688" height="38.0219" />
<rect x="95.2502" y="0.0000" width="3.9688" height="38.0219" />
<rect x="100.5419" y="0.0000" width="1.3229" height="38.0219" />
<rect x="103.1877" y="0.0000" width="3.9688" height="38.0219" />
<rect x="108.4794" y="0.0000" width="1.3229" height="38.0219" />
<rect x="113.7711" y="0.0000" width="3.9688" height="38.0219" />
<rect x="121.7086" y="0.0000" width="1.3229" height="38.0219" />
<rect x="124.3544" y="0.0000" width="3.9688" height="38.0219" />
<rect x="129.6461" y="0.0000" width="1.3229" height="38.0219" />
</g>
<g fill="rgb(0%,0%,0%)">
<text x="65.4845" y="50.1242" transform="rotate(360 65.4845,50.1242)" text-anchor="middle" font-family="Arial" font-size="13.4056" >1234567890</text>
</g>
</svg>
