<?xml version="1.0" standalone="no"?>
<!DOCTYPE svg PUBLIC "-//W3C//DTD SVG 20010904//EN"
 "http://www.w3.org/TR/2001/REC-SVG-20010904/DTD/svg10.dtd">
<svg version="1.0" xmlns="http://www.w3.org/2000/svg"
 width="460.000000pt" height="460.000000pt" viewBox="0 0 460.000000 460.000000"
 preserveAspectRatio="xMidYMid meet">
<metadata>
Created by potrace 1.16, written by Peter Selinger 2001-2019
</metadata>
<g transform="translate(0.000000,460.000000) scale(0.100000,-0.100000)"
fill="#000000" stroke="none">
<path d="M0 3835 l0 -765 765 0 765 0 0 765 0 765 -765 0 -765 0 0 -765z
m1310 0 l0 -545 -545 0 -545 0 0 545 0 545 545 0 545 0 0 -545z"/>
<path d="M440 3830 l0 -330 330 0 330 0 0 330 0 330 -330 0 -330 0 0 -330z"/>
<path d="M1750 4490 l0 -110 110 0 110 0 0 110 0 110 -110 0 -110 0 0 -110z"/>
<path d="M2190 4380 l0 -220 -220 0 -220 0 0 -330 0 -330 110 0 110 0 0 -105
0 -105 -110 0 -110 0 0 -110 0 -110 110 0 110 0 0 110 0 110 110 0 110 0 0
-110 0 -110 110 0 110 0 0 -110 0 -110 -330 0 -330 0 0 -220 0 -220 110 0 110
0 0 -110 0 -110 -110 0 -110 0 0 -110 0 -110 -220 0 -220 0 0 -110 0 -110 220
0 220 0 0 -110 0 -110 110 0 110 0 0 110 0 110 110 0 110 0 0 -110 0 -110 110
0 110 0 0 -110 0 -110 -110 0 -110 0 0 -105 0 -105 110 0 110 0 0 105 0 105
110 0 110 0 0 220 0 220 110 0 110 0 0 110 0 110 110 0 110 0 0 -220 0 -220
-110 0 -110 0 0 -110 0 -110 220 0 220 0 0 220 0 220 105 0 105 0 0 -220 0
-220 110 0 110 0 0 -435 0 -435 110 0 110 0 0 110 0 110 220 0 220 0 0 110 0
110 110 0 110 0 0 215 0 215 -110 0 -110 0 0 -105 0 -105 -110 0 -110 0 0 215
0 215 110 0 110 0 0 110 0 110 -110 0 -110 0 0 -110 0 -110 -110 0 -110 0 0
110 0 110 -220 0 -220 0 0 110 0 110 220 0 220 0 0 110 0 110 330 0 330 0 0
330 0 330 -110 0 -110 0 0 -110 0 -110 -110 0 -110 0 0 110 0 110 -330 0 -330
0 0 -110 0 -110 -215 0 -215 0 0 110 0 110 -110 0 -110 0 0 220 0 220 -110 0
-110 0 0 -110 0 -110 -110 0 -110 0 0 215 0 215 110 0 110 0 0 110 0 110 110
0 110 0 0 110 0 110 -110 0 -110 0 0 -110 0 -110 -110 0 -110 0 0 -110 0 -110
-220 0 -220 0 0 110 0 110 110 0 110 0 0 220 0 220 220 0 220 0 0 110 0 110
110 0 110 0 0 110 0 110 -110 0 -110 0 0 -110 0 -110 -110 0 -110 0 0 110 0
110 -110 0 -110 0 0 -220z m440 -1640 l0 -110 110 0 110 0 0 -220 0 -220 -110
0 -110 0 0 -110 0 -110 -110 0 -110 0 0 -110 0 -110 -110 0 -110 0 0 110 0
110 110 0 110 0 0 110 0 110 -110 0 -110 0 0 110 0 110 -110 0 -110 0 0 110 0
110 220 0 220 0 0 110 0 110 110 0 110 0 0 -110z m1310 -220 l0 -110 -110 0
-110 0 0 -110 0 -110 -110 0 -110 0 0 -110 0 -110 -215 0 -215 0 0 110 0 110
110 0 110 0 0 110 0 110 105 0 105 0 0 110 0 110 220 0 220 0 0 -110z m-1970
-660 l0 -110 -110 0 -110 0 0 110 0 110 110 0 110 0 0 -110z"/>
<path d="M2410 2300 l0 -110 110 0 110 0 0 110 0 110 -110 0 -110 0 0 -110z"/>
<path d="M3070 3835 l0 -765 765 0 765 0 0 765 0 765 -765 0 -765 0 0 -765z
m1310 0 l0 -545 -545 0 -545 0 0 545 0 545 545 0 545 0 0 -545z"/>
<path d="M3500 3830 l0 -330 330 0 330 0 0 330 0 330 -330 0 -330 0 0 -330z"/>
<path d="M0 2740 l0 -110 110 0 110 0 0 -110 0 -110 -110 0 -110 0 0 -220 0
-220 330 0 330 0 0 110 0 110 -110 0 -110 0 0 110 0 110 110 0 110 0 0 110 0
110 110 0 110 0 0 -110 0 -110 110 0 110 0 0 -110 0 -110 215 0 215 0 0 110 0
110 -215 0 -215 0 0 110 0 110 -110 0 -110 0 0 110 0 110 -440 0 -440 0 0
-110z"/>
<path d="M1310 2740 l0 -110 110 0 110 0 0 110 0 110 -110 0 -110 0 0 -110z"/>
<path d="M0 765 l0 -765 765 0 765 0 0 765 0 765 -765 0 -765 0 0 -765z m1310
0 l0 -545 -545 0 -545 0 0 545 0 545 545 0 545 0 0 -545z"/>
<path d="M440 770 l0 -330 330 0 330 0 0 330 0 330 -330 0 -330 0 0 -330z"/>
<path d="M2630 880 l0 -220 -220 0 -220 0 0 110 0 110 -220 0 -220 0 0 -440 0
-440 660 0 660 0 0 110 0 110 110 0 110 0 0 -110 0 -110 215 0 215 0 0 110 0
110 -215 0 -215 0 0 110 0 110 -110 0 -110 0 0 110 0 110 -110 0 -110 0 0 220
0 220 -110 0 -110 0 0 -220z m-440 -550 l0 -110 -110 0 -110 0 0 110 0 110
110 0 110 0 0 -110z m440 0 l0 -110 -110 0 -110 0 0 110 0 110 110 0 110 0 0
-110z m440 0 l0 -110 -110 0 -110 0 0 110 0 110 110 0 110 0 0 -110z"/>
<path d="M3070 990 l0 -110 215 0 215 0 0 110 0 110 -215 0 -215 0 0 -110z"/>
<path d="M4380 330 l0 -110 110 0 110 0 0 110 0 110 -110 0 -110 0 0 -110z"/>
<path d="M3940 110 l0 -110 110 0 110 0 0 110 0 110 -110 0 -110 0 0 -110z"/>
</g>
</svg>
