<?xml version="1.0" encoding="utf-8"?>
<!-- Generator: Adobe Illustrator 25.0.1, SVG Export Plug-In . SVG Version: 6.00 Build 0)  -->
<svg version="1.1" id="Layer_1" xmlns="http://www.w3.org/2000/svg" xmlns:xlink="http://www.w3.org/1999/xlink" x="0px" y="0px"
	 viewBox="0 0 720 720" style="enable-background:new 0 0 720 720;" xml:space="preserve">
<style type="text/css">
	.st0{opacity:0.38;fill:url(#SVGID_1_);stroke:url(#SVGID_2_);stroke-miterlimit:10;}
	.st1{fill:url(#SVGID_3_);}
</style>
<g>
	<linearGradient id="SVGID_1_" gradientUnits="userSpaceOnUse" x1="113.6179" y1="288.138" x2="499.218" y2="288.138">
		<stop  offset="0" style="stop-color:#FFFFFF"/>
		<stop  offset="1" style="stop-color:#000000"/>
	</linearGradient>
	<linearGradient id="SVGID_2_" gradientUnits="userSpaceOnUse" x1="113.1179" y1="288.2215" x2="499.718" y2="288.2215">
		<stop  offset="0" style="stop-color:#FFFFFF"/>
		<stop  offset="1" style="stop-color:#000000;stop-opacity:0.5"/>
	</linearGradient>
	<path class="st0" d="M214.8,443.6c-21.4,10-42.6,19.9-64.2,30c-9.2-20.1-18.9-40.1-26.2-61C94.2,330,128.4,226.2,212,190.1
		c16.4-7.4,33.7-10.7,51.7-10.8c33.7-0.2,67.3-0.5,101.1-0.6c0-21.7,0-43.2,0-64.8c-0.4-6.5,4.3-15.5,11.3-9
		c39.4,34.8,78.8,69.7,118.3,104.4c6.5,5.7,6.3,14.6-0.2,20.3c-34.3,29.8-68.6,59.7-102.9,89.6c-5.3,4.6-10.6,9.2-15.9,13.8
		c-7.2,6.4-11.1-3.2-10.7-9.6c-0.1-24.5,0-48.7,0-73.2c-32.6,0-65.1,0.3-97.7-0.1c-15.4-0.2-28.7,4.8-40.7,13.7
		c-32.4,24-45.5,56.5-41.6,96.2C187.5,390.2,202.4,416.3,214.8,443.6z"/>
	<linearGradient id="SVGID_3_" gradientUnits="userSpaceOnUse" x1="223.1513" y1="431.9493" x2="608.5334" y2="431.9493">
		<stop  offset="0" style="stop-color:#FFFFFF"/>
		<stop  offset="1" style="stop-color:#000000"/>
	</linearGradient>
	<path class="st1" d="M357.5,470.1c32.7,0,65.2-0.2,97.9,0.1c11.3,0.1,21.8-2.6,31.4-8.2c53.3-29,62.8-95.2,38.4-146.8
		c-5.6-13.1-12-25.7-17.7-38.8c21.4-9.9,42.6-19.8,64.1-29.8c10.3,22.3,21.5,43.7,28.4,67.3c24.8,78.8-5.4,173.5-81.3,212
		c-18.6,9.8-38.6,14.6-59.6,14.8c-33.9,0.3-67.6,0.5-101.5,0.7c0,21.4,0,42.6-0.1,64c0.4,6.6-3.9,16.3-11.3,9.7
		c-39.3-34.4-78.3-69.2-117.6-103.7c-6.5-5.1-7.5-14.4-1.4-20.1c39.7-34.7,79.4-69.3,119.2-103.9c7.7-6.6,11.7,3,11.1,10
		C357.6,421.7,357.5,445.8,357.5,470.1z"/>
</g>
</svg>
