<?xml version="1.0" encoding="utf-8"?>
<!-- Generator: Adobe Illustrator 25.0.1, SVG Export Plug-In . SVG Version: 6.00 Build 0)  -->
<svg version="1.1" id="Layer_1" xmlns="http://www.w3.org/2000/svg" xmlns:xlink="http://www.w3.org/1999/xlink" x="0px" y="0px"
	 viewBox="0 0 720 720" style="enable-background:new 0 0 720 720;" xml:space="preserve">
<style type="text/css">
	.st0{opacity:0.76;fill:url(#SVGID_1_);stroke:url(#SVGID_2_);stroke-width:0.5;stroke-miterlimit:10;}
	.st1{fill:url(#SVGID_3_);}
</style>
<g>
	<linearGradient id="SVGID_1_" gradientUnits="userSpaceOnUse" x1="112.8302" y1="288.2628" x2="497.9815" y2="288.2628">
		<stop  offset="3.534978e-03" style="stop-color:#FFFFFF;stop-opacity:0.7"/>
		<stop  offset="1" style="stop-color:#A0AE32"/>
	</linearGradient>
	<linearGradient id="SVGID_2_" gradientUnits="userSpaceOnUse" x1="112.5802" y1="288.3033" x2="498.2315" y2="288.3033">
		<stop  offset="0" style="stop-color:#FFFFFF"/>
		<stop  offset="1" style="stop-color:#718416;stop-opacity:0.8"/>
	</linearGradient>
	<path class="st0" d="M214,443.5c-21.4,10-42.6,19.9-64.1,30c-1-2-2-3.9-2.8-5.8c-7.9-18.3-17-36.2-23.4-55.1
		c-14.3-42.4-15.2-85.4,0.7-127.8c16.2-42.9,44.3-75.4,86.6-94.4c16.4-7.4,33.7-10.7,51.7-10.8c32.1-0.2,64.2-0.4,96.2-0.6
		c1.4,0,2.9,0,4.7,0c0-1.6,0-2.8,0-4.1c0-20.2,0-40.4,0-60.7c0-2.3,0.4-4.8,1.2-6.9c2.1-4.9,6-5.6,10-2.1
		c20.8,18.4,41.6,36.8,62.5,55.2c18.5,16.4,37.1,32.7,55.7,49.1c6.4,5.7,6.3,14.6-0.2,20.3c-34.3,29.8-68.5,59.6-102.7,89.5
		c-5.3,4.6-10.5,9.2-15.9,13.8c-4,3.4-7.6,2.6-9.5-2.3c-0.9-2.2-1.1-4.8-1.1-7.3c-0.1-22.8,0-45.6,0-68.5c0-1.3,0-2.7,0-4.6
		c-1.5,0-2.8,0-4.1,0c-31.2,0-62.4,0.3-93.5-0.1c-15.4-0.2-28.7,4.8-40.6,13.6c-32.3,23.9-45.4,56.4-41.5,96.1
		c1.9,19.6,8.5,37.8,16.8,55.4C205.3,424.6,209.6,433.9,214,443.5z"/>
	<linearGradient id="SVGID_3_" gradientUnits="userSpaceOnUse" x1="222.2944" y1="431.83" x2="607.1698" y2="431.83">
		<stop  offset="0" style="stop-color:#ADBA3E"/>
		<stop  offset="1" style="stop-color:#718200"/>
	</linearGradient>
	<path class="st1" d="M356.5,470c1.9,0,3.2,0,4.6,0c31.1,0,62.1-0.1,93.2,0.1c11.3,0.1,21.8-2.6,31.4-8.2
		c29.2-16.9,46-42.3,50.3-75.7c3.2-24.8-2.2-48.3-12-70.9c-5.1-11.9-10.8-23.6-16.2-35.4c-0.5-1-0.9-2.1-1.4-3.4
		c21.3-9.9,42.5-19.8,64-29.8c1.9,4.1,3.7,7.8,5.5,11.6c8.5,18.2,17.3,36.2,22.8,55.6c12,42.3,12,84.3-4.5,125.5
		c-15.2,37.8-40.3,67.1-76.7,86.1c-18.6,9.7-38.6,14.6-59.6,14.8c-32.3,0.3-64.6,0.5-96.9,0.7c-1.3,0-2.7,0-4.4,0c0,1.6,0,3,0,4.3
		c0,19.9,0,39.8-0.1,59.7c0,2.5-0.4,5.2-1.3,7.6c-2,4.9-6,5.6-10,2.1c-13.8-12.1-27.7-24.3-41.5-36.5c-25.3-22.3-50.6-44.8-76-67
		c-4.7-4.1-6.6-8.8-4.8-14.7c0.6-1.9,1.9-4,3.4-5.3c39.6-34.6,79.3-69.2,119-103.8c4.3-3.8,8.6-2.6,10.3,3c0.7,2.2,0.8,4.7,0.8,7
		c0.1,22.7,0,45.4,0,68.1C356.5,466.8,356.5,468.2,356.5,470z"/>
</g>
</svg>
