<?xml version="1.0" encoding="utf-8"?>
<!-- Generator: Adobe Illustrator 25.0.1, SVG Export Plug-In . SVG Version: 6.00 Build 0)  -->
<svg version="1.1" id="Layer_1" xmlns="http://www.w3.org/2000/svg" xmlns:xlink="http://www.w3.org/1999/xlink" x="0px" y="0px"
	 viewBox="0 0 720 720" style="enable-background:new 0 0 720 720;" xml:space="preserve">
<style type="text/css">
	.st0{fill:url(#SVGID_1_);stroke:url(#SVGID_2_);stroke-miterlimit:10;}
	.st1{fill:url(#SVGID_3_);}
</style>
<g>
	<linearGradient id="SVGID_1_" gradientUnits="userSpaceOnUse" x1="112.9039" y1="287.9294" x2="499.6237" y2="287.9294">
		<stop  offset="0" style="stop-color:#DEB800;stop-opacity:0.5"/>
		<stop  offset="1" style="stop-color:#F4F0EF;stop-opacity:0.5"/>
	</linearGradient>
	<linearGradient id="SVGID_2_" gradientUnits="userSpaceOnUse" x1="112.4039" y1="288.0128" x2="500.1237" y2="288.0128">
		<stop  offset="0" style="stop-color:#DEB800;stop-opacity:0.5"/>
		<stop  offset="1" style="stop-color:#F4F0EF;stop-opacity:0.3"/>
	</linearGradient>
	<path class="st0" d="M214.4,443.8c-21.4,10-42.8,20-64.3,30.1c-9.2-20.2-19-40.3-26.3-61.1c-30.4-82.9,3.9-187,87.7-223.2
		c16.4-7.4,33.8-10.7,51.9-10.8c33.8-0.2,67.5-0.5,101.4-0.6c0-21.7,0-43.3,0-65c-0.4-6.5,4.3-15.5,11.3-9
		c39.6,34.9,79,69.9,118.7,104.7c6.5,5.7,6.4,14.7-0.2,20.3c-34.4,29.9-68.8,59.9-103.2,89.8c-5.3,4.6-10.6,9.2-15.9,13.8
		c-7.2,6.4-11.2-3.2-10.7-9.6c-0.1-24.5,0-48.8,0-73.4c-32.7,0-65.3,0.3-98-0.1c-15.4-0.2-28.8,4.8-40.8,13.7
		c-32.5,24-45.6,56.7-41.7,96.5C187,390.3,202,416.5,214.4,443.8z"/>
	<linearGradient id="SVGID_3_" gradientUnits="userSpaceOnUse" x1="222.7554" y1="432.1583" x2="609.2566" y2="432.1583">
		<stop  offset="0" style="stop-color:#F2D432"/>
		<stop  offset="1" style="stop-color:#DEB800"/>
	</linearGradient>
	<path class="st1" d="M357.5,470.4c32.8,0,65.4-0.2,98.2,0.1c11.3,0.1,21.9-2.6,31.5-8.2c53.4-29.1,63-95.4,38.5-147.3
		c-5.6-13.2-12.1-25.8-17.7-38.9c21.4-10,42.7-19.9,64.3-29.9c10.4,22.3,21.6,43.8,28.4,67.5c24.9,79.1-5.4,174-81.6,212.6
		c-18.7,9.8-38.7,14.6-59.8,14.9c-34,0.3-67.8,0.5-101.8,0.7c0,21.5,0,42.8-0.1,64.2c0.4,6.6-3.9,16.4-11.3,9.7
		c-39.4-34.5-78.6-69.4-117.9-104c-6.5-5.1-7.5-14.5-1.4-20.1c39.8-34.8,79.7-69.5,119.5-104.2c7.8-6.7,11.7,3,11.2,10
		C357.6,421.9,357.5,446.1,357.5,470.4z"/>
</g>
</svg>
