<?xml version="1.0" encoding="utf-8"?>
<!-- Generator: Adobe Illustrator 25.0.1, SVG Export Plug-In . SVG Version: 6.00 Build 0)  -->
<svg version="1.1" id="Layer_1" xmlns="http://www.w3.org/2000/svg" xmlns:xlink="http://www.w3.org/1999/xlink" x="0px" y="0px"
	 viewBox="0 0 720 720" style="enable-background:new 0 0 720 720;" xml:space="preserve">
<style type="text/css">
	.st0{fill:url(#SVGID_1_);}
	.st1{fill:url(#SVGID_2_);}
	.st2{fill:url(#SVGID_3_);stroke:url(#SVGID_4_);stroke-miterlimit:10;}
	.st3{fill:url(#SVGID_5_);stroke:url(#SVGID_6_);stroke-miterlimit:10;}
	.st4{fill:url(#SVGID_7_);}
	.st5{fill:url(#SVGID_8_);stroke:url(#SVGID_9_);stroke-miterlimit:10;}
	.st6{fill:url(#SVGID_10_);stroke:url(#SVGID_11_);stroke-miterlimit:10;}
	.st7{fill:url(#SVGID_12_);stroke:url(#SVGID_13_);stroke-miterlimit:10;}
	.st8{fill:url(#SVGID_14_);stroke:url(#SVGID_15_);stroke-miterlimit:10;}
</style>
<g>
	<linearGradient id="SVGID_1_" gradientUnits="userSpaceOnUse" x1="610.396" y1="424.7536" x2="62.7597" y2="201.2502">
		<stop  offset="0" style="stop-color:#F2D432"/>
		<stop  offset="1" style="stop-color:#DEB800"/>
	</linearGradient>
	<path class="st0" d="M97.1,355.1c9.8,0,19.1,0,28.4,0c10.2,0,17.6-6.9,17.7-16.3c0-9.8-7.2-16.9-17.4-17c-9.5-0.1-18.9,0-28.4,0
		c0-5.5,0-10.8,0-16.5c28.8,0,57.5,0,86.3,0c9.7,0,16.4-5.1,18.1-13.7c2.4-11.7-8.4-21.2-19.8-19.9c-28.2,0-56.3,0-84.6,0
		c0-5.5,0-10.8,0-16.6c43,0,86,0,128.9,0c10.3,0,17.9-7,17.9-16.6c0-9.8-7.4-16.8-17.9-16.8c-43.1,0-86.1,0-129.1,0
		c0-13.7,0-27.2,0-40.9c0-12.9,9.6-22.6,22.6-22.8c96.6,0,193.1,0,289.7,0c15-0.3,24.7,10.8,24.1,24.7c0,67.6,0,135.3,0,202.9
		c0,15.2-9.4,24.6-24.6,24.6c-95.8,0-191.5,0-287.3,0C89.5,409.4,98.3,377.2,97.1,355.1z"/>
	<linearGradient id="SVGID_2_" gradientUnits="userSpaceOnUse" x1="612.447" y1="419.7281" x2="64.8108" y2="196.2248">
		<stop  offset="0" style="stop-color:#F2D432"/>
		<stop  offset="1" style="stop-color:#DEB800"/>
	</linearGradient>
	<path class="st1" d="M448.8,192.9c19,0,37.4,0.1,56.3,0c16.3-0.1,30.2,5.5,41.9,16.8c34.8,33.5,69.7,66.9,104.6,100.4
		c18.1,17.6,29.7,39.2,33.3,64.2c-3.4,0-6.7-0.1-10,0c-22.1,0.5-35.1,23.7-23.8,42.7c7.1,13.2,21.4,14.2,35,13.3
		c0,21.5,0,42.4,0,63.6c-15.9,0.6-31.9,0-47.9,0.3c-2,0-2.8-0.4-3-2.6c-2-27-14-48.9-35.1-65.6c-57.2-45.5-143.7-6.8-148,68
		c-39.6,0-79.1,0-119,0c-2-29.4-15-52.9-39-71c51.9,0,103.2,0,154.7,0C448.8,346.1,448.8,269.7,448.8,192.9z M479.6,349.7
		c34.4,0,68.5,0,102.8,0c0-14.3,0-28.3,0-42.4c0.1-15-5.2-27.7-16.2-38.1c-14-13.4-28.1-26.7-41.9-40.3
		c-11.7-12.9-29.1-8.7-44.7-9.1C479.6,263.2,479.6,306.4,479.6,349.7z"/>
	<linearGradient id="SVGID_3_" gradientUnits="userSpaceOnUse" x1="177.0721" y1="498.1293" x2="305.8773" y2="498.1293">
		<stop  offset="0" style="stop-color:#DEB800;stop-opacity:0.5"/>
		<stop  offset="1" style="stop-color:#F4F0EF;stop-opacity:0.5"/>
	</linearGradient>
	<linearGradient id="SVGID_4_" gradientUnits="userSpaceOnUse" x1="176.5721" y1="498.1293" x2="306.3773" y2="498.1293">
		<stop  offset="0" style="stop-color:#DEB800;stop-opacity:0.5"/>
		<stop  offset="1" style="stop-color:#F4F0EF;stop-opacity:0.3"/>
	</linearGradient>
	<path class="st2" d="M241.6,562.2c-36,0.8-64.8-29.1-64.6-65.2c5-85,126.2-83.3,128.8,1.6C305.8,535.1,274.5,563.5,241.6,562.2z
		 M241.6,465.1c-18.2-0.1-33,14.6-33,32.8c1,43.7,64.3,43.7,66,0.5C274.6,480.1,259.9,465.1,241.6,465.1z"/>
	<linearGradient id="SVGID_5_" gradientUnits="userSpaceOnUse" x1="479.5169" y1="498.1433" x2="608.3372" y2="498.1433">
		<stop  offset="0" style="stop-color:#DEB800;stop-opacity:0.5"/>
		<stop  offset="1" style="stop-color:#F4F0EF;stop-opacity:0.5"/>
	</linearGradient>
	<linearGradient id="SVGID_6_" gradientUnits="userSpaceOnUse" x1="479.0169" y1="498.1433" x2="608.8373" y2="498.1433">
		<stop  offset="0" style="stop-color:#DEB800;stop-opacity:0.5"/>
		<stop  offset="1" style="stop-color:#F4F0EF;stop-opacity:0.3"/>
	</linearGradient>
	<path class="st3" d="M543.7,562.2c-33.8,1-64.8-27.3-64.2-65.5c4.7-84.4,126.2-83.1,128.8,1.9C608,536.6,575.7,563.7,543.7,562.2z
		 M543.8,465.1c-18.6,0.3-33.3,15.2-33,33.3c2.1,43.7,64.6,43.1,66.1-0.4C576.7,479.6,561.7,464.7,543.8,465.1z"/>
	<linearGradient id="SVGID_7_" gradientUnits="userSpaceOnUse" x1="97.2784" y1="458.4753" x2="188.7584" y2="458.4753">
		<stop  offset="0" style="stop-color:#F2D432"/>
		<stop  offset="1" style="stop-color:#DEB800"/>
	</linearGradient>
	<path class="st4" d="M149.9,493.9c-17.8,0-35.1,0-52.6,0c0-23.7,0-47.2,0-70.9c30.4,0,60.6,0,91.5,0
		C164.9,440.9,151.9,464.4,149.9,493.9z"/>
	<linearGradient id="SVGID_8_" gradientUnits="userSpaceOnUse" x1="65.3437" y1="238.3058" x2="244.8149" y2="238.3058">
		<stop  offset="0" style="stop-color:#DEB800;stop-opacity:0.5"/>
		<stop  offset="1" style="stop-color:#F4F0EF;stop-opacity:0.5"/>
	</linearGradient>
	<linearGradient id="SVGID_9_" gradientUnits="userSpaceOnUse" x1="64.8437" y1="238.3058" x2="245.3149" y2="238.3058">
		<stop  offset="0" style="stop-color:#DEB800;stop-opacity:0.5"/>
		<stop  offset="1" style="stop-color:#F4F0EF;stop-opacity:0.3"/>
	</linearGradient>
	<path class="st5" d="M227.7,255.6H82.4c-22.8-0.7-22.8-33.7,0-34.5c0,0,145.3,0,145.3,0C250.5,221.8,250.6,254.8,227.7,255.6z"/>
	<linearGradient id="SVGID_10_" gradientUnits="userSpaceOnUse" x1="646.0804" y1="402.572" x2="704.2846" y2="402.572">
		<stop  offset="0" style="stop-color:#DEB800;stop-opacity:0.5"/>
		<stop  offset="1" style="stop-color:#F4F0EF;stop-opacity:0.5"/>
	</linearGradient>
	<linearGradient id="SVGID_11_" gradientUnits="userSpaceOnUse" x1="645.5804" y1="402.572" x2="704.7846" y2="402.572">
		<stop  offset="0" style="stop-color:#DEB800;stop-opacity:0.5"/>
		<stop  offset="1" style="stop-color:#F4F0EF;stop-opacity:0.3"/>
	</linearGradient>
	<path class="st6" d="M677.6,431.2c-18.8,1.7-32.9-11.6-31.4-30.6c0-17,15-28.3,31.4-26.6C713.2,374.7,713.2,430.5,677.6,431.2z"/>
	<linearGradient id="SVGID_12_" gradientUnits="userSpaceOnUse" x1="38.0485" y1="288.5544" x2="201.7125" y2="288.5544">
		<stop  offset="0" style="stop-color:#DEB800;stop-opacity:0.5"/>
		<stop  offset="1" style="stop-color:#F4F0EF;stop-opacity:0.5"/>
	</linearGradient>
	<linearGradient id="SVGID_13_" gradientUnits="userSpaceOnUse" x1="37.5485" y1="288.5544" x2="202.2125" y2="288.5544">
		<stop  offset="0" style="stop-color:#DEB800;stop-opacity:0.5"/>
		<stop  offset="1" style="stop-color:#F4F0EF;stop-opacity:0.3"/>
	</linearGradient>
	<path class="st7" d="M185.1,305.3H54.6c-22.1-0.7-22.2-32.8,0-33.5c0,0,130.5,0,130.5,0C207.2,272.5,207.3,304.6,185.1,305.3z"/>
	<linearGradient id="SVGID_14_" gradientUnits="userSpaceOnUse" x1="15.7154" y1="338.2953" x2="144.3232" y2="338.2953">
		<stop  offset="0" style="stop-color:#DEB800;stop-opacity:0.5"/>
		<stop  offset="1" style="stop-color:#F4F0EF;stop-opacity:0.5"/>
	</linearGradient>
	<linearGradient id="SVGID_15_" gradientUnits="userSpaceOnUse" x1="15.2154" y1="338.2953" x2="144.8232" y2="338.2953">
		<stop  offset="0" style="stop-color:#DEB800;stop-opacity:0.5"/>
		<stop  offset="1" style="stop-color:#F4F0EF;stop-opacity:0.3"/>
	</linearGradient>
	<path class="st8" d="M127.7,355H32.3c-22.1-0.7-22.1-32.8,0-33.5c0,0,95.4,0,95.4,0C149.8,322.3,149.9,354.3,127.7,355z"/>
</g>
</svg>
