<?xml version="1.0" encoding="utf-8"?>
<!-- Generator: Adobe Illustrator 25.0.1, SVG Export Plug-In . SVG Version: 6.00 Build 0)  -->
<svg version="1.1" id="Layer_1" xmlns="http://www.w3.org/2000/svg" xmlns:xlink="http://www.w3.org/1999/xlink" x="0px" y="0px"
	 viewBox="0 0 720 720" style="enable-background:new 0 0 720 720;" xml:space="preserve">
<style type="text/css">
	.st0{fill:url(#SVGID_1_);}
	.st1{fill:url(#SVGID_2_);}
	.st2{opacity:0.38;fill:url(#SVGID_3_);stroke:url(#SVGID_4_);stroke-miterlimit:10;}
	.st3{opacity:0.38;fill:url(#SVGID_5_);stroke:url(#SVGID_6_);stroke-miterlimit:10;}
	.st4{fill:url(#SVGID_7_);}
	.st5{opacity:0.38;fill:url(#SVGID_8_);stroke:url(#SVGID_9_);stroke-miterlimit:10;}
	.st6{opacity:0.38;fill:url(#SVGID_10_);stroke:url(#SVGID_11_);stroke-miterlimit:10;}
	.st7{opacity:0.38;fill:url(#SVGID_12_);stroke:url(#SVGID_13_);stroke-miterlimit:10;}
	.st8{opacity:0.38;fill:url(#SVGID_14_);stroke:url(#SVGID_15_);stroke-miterlimit:10;}
</style>
<g>
	<linearGradient id="SVGID_1_" gradientUnits="userSpaceOnUse" x1="610.0235" y1="424.6573" x2="63.2019" y2="201.4864">
		<stop  offset="0" style="stop-color:#FFFFFF"/>
		<stop  offset="1" style="stop-color:#000000"/>
	</linearGradient>
	<path class="st0" d="M97.5,355.1c9.8,0,19.1,0,28.4,0c10.2,0,17.6-6.9,17.7-16.3c0-9.7-7.2-16.9-17.4-17c-9.5-0.1-18.9,0-28.4,0
		c0-5.5,0-10.7,0-16.5c28.7,0,57.4,0,86.1,0c9.6,0,16.3-5.1,18.1-13.7c2.4-11.7-8.4-21.2-19.8-19.8c-28.2,0-56.3,0-84.4,0
		c0-5.5,0-10.8,0-16.6c42.9,0,85.8,0,128.7,0c10.3,0,17.9-7,17.9-16.5c0-9.8-7.4-16.8-17.9-16.8c-43,0-85.9,0-128.9,0
		c0-13.7,0-27.2,0-40.8c0-12.9,9.6-22.5,22.6-22.7c96.4,0,192.8,0,289.3,0c14.9-0.3,24.7,10.8,24,24.7c0,67.5,0,135.1,0,202.6
		c0,15.2-9.4,24.5-24.6,24.5c-95.6,0-191.2,0-286.8,0C89.9,409.3,98.7,377.2,97.5,355.1z"/>
	<linearGradient id="SVGID_2_" gradientUnits="userSpaceOnUse" x1="612.0715" y1="419.6393" x2="65.2499" y2="196.4684">
		<stop  offset="0" style="stop-color:#FFFFFF"/>
		<stop  offset="1" style="stop-color:#000000"/>
	</linearGradient>
	<path class="st1" d="M448.7,193.1c18.9,0,37.3,0.1,56.2,0c16.3-0.1,30.1,5.5,41.8,16.7c34.8,33.4,69.6,66.8,104.4,100.3
		c18,17.5,29.7,39.1,33.3,64.1c-3.4,0-6.7-0.1-10,0c-22.1,0.5-35.1,23.7-23.7,42.7c7.1,13.2,21.4,14.2,35,13.3c0,21.4,0,42.4,0,63.5
		c-15.9,0.6-31.9,0-47.8,0.3c-2,0-2.8-0.4-3-2.6c-2-27-14-48.8-35-65.5c-57.1-45.4-143.5-6.8-147.8,67.9c-39.5,0-79,0-118.8,0
		c-2-29.4-14.9-52.8-39-70.9c51.8,0,103,0,154.5,0C448.7,346.1,448.7,269.8,448.7,193.1z M479.4,349.8c34.4,0,68.4,0,102.6,0
		c0-14.3,0-28.3,0-42.3c0.1-15-5.2-27.7-16.1-38.1c-14-13.4-28.1-26.7-41.9-40.3c-11.7-12.9-29.1-8.7-44.6-9.1
		C479.4,263.3,479.4,306.4,479.4,349.8z"/>
	<linearGradient id="SVGID_3_" gradientUnits="userSpaceOnUse" x1="177.3442" y1="497.9238" x2="305.9578" y2="497.9238">
		<stop  offset="0" style="stop-color:#FFFFFF"/>
		<stop  offset="1" style="stop-color:#000000"/>
	</linearGradient>
	<linearGradient id="SVGID_4_" gradientUnits="userSpaceOnUse" x1="176.8442" y1="497.9238" x2="306.4579" y2="497.9238">
		<stop  offset="0" style="stop-color:#FFFFFF"/>
		<stop  offset="1" style="stop-color:#000000;stop-opacity:0.5"/>
	</linearGradient>
	<path class="st2" d="M241.8,561.9c-36,0.8-64.7-29-64.5-65.1c5-84.9,126-83.2,128.6,1.6C305.9,534.9,274.6,563.2,241.8,561.9z
		 M241.8,464.9c-18.2-0.1-32.9,14.6-33,32.8c1,43.7,64.2,43.7,65.9,0.5C274.8,479.9,260,465,241.8,464.9z"/>
	<linearGradient id="SVGID_5_" gradientUnits="userSpaceOnUse" x1="479.3391" y1="497.9378" x2="607.9678" y2="497.9378">
		<stop  offset="0" style="stop-color:#FFFFFF"/>
		<stop  offset="1" style="stop-color:#000000"/>
	</linearGradient>
	<linearGradient id="SVGID_6_" gradientUnits="userSpaceOnUse" x1="478.8391" y1="497.9378" x2="608.4679" y2="497.9378">
		<stop  offset="0" style="stop-color:#FFFFFF"/>
		<stop  offset="1" style="stop-color:#000000;stop-opacity:0.5"/>
	</linearGradient>
	<path class="st3" d="M543.4,561.9c-33.7,1-64.7-27.3-64.1-65.4c4.7-84.3,126-83,128.6,1.9C607.6,536.3,575.4,563.4,543.4,561.9z
		 M543.6,464.9c-18.5,0.3-33.3,15.2-32.9,33.3c2.1,43.6,64.5,43,66-0.4C576.4,479.4,561.4,464.6,543.6,464.9z"/>
	<linearGradient id="SVGID_7_" gradientUnits="userSpaceOnUse" x1="97.6692" y1="458.3289" x2="189.0131" y2="458.3289">
		<stop  offset="0" style="stop-color:#FFFFFF"/>
		<stop  offset="1" style="stop-color:#000000"/>
	</linearGradient>
	<path class="st4" d="M150.2,493.7c-17.8,0-35.1,0-52.5,0c0-23.7,0-47.1,0-70.8c30.3,0,60.5,0,91.3,0
		C165.2,440.8,152.2,464.2,150.2,493.7z"/>
	<linearGradient id="SVGID_8_" gradientUnits="userSpaceOnUse" x1="65.782" y1="238.4869" x2="244.9862" y2="238.4869">
		<stop  offset="0" style="stop-color:#FFFFFF"/>
		<stop  offset="1" style="stop-color:#000000"/>
	</linearGradient>
	<linearGradient id="SVGID_9_" gradientUnits="userSpaceOnUse" x1="65.282" y1="238.4869" x2="245.4862" y2="238.4869">
		<stop  offset="0" style="stop-color:#FFFFFF"/>
		<stop  offset="1" style="stop-color:#000000;stop-opacity:0.5"/>
	</linearGradient>
	<path class="st5" d="M227.9,255.7H82.9c-22.7-0.7-22.8-33.7,0-34.5c0,0,145.1,0,145.1,0C250.6,222,250.7,255,227.9,255.7z"/>
	<linearGradient id="SVGID_10_" gradientUnits="userSpaceOnUse" x1="645.6548" y1="402.5117" x2="703.7725" y2="402.5117">
		<stop  offset="0" style="stop-color:#FFFFFF"/>
		<stop  offset="1" style="stop-color:#000000"/>
	</linearGradient>
	<linearGradient id="SVGID_11_" gradientUnits="userSpaceOnUse" x1="645.1548" y1="402.5117" x2="704.2725" y2="402.5117">
		<stop  offset="0" style="stop-color:#FFFFFF"/>
		<stop  offset="1" style="stop-color:#000000;stop-opacity:0.5"/>
	</linearGradient>
	<path class="st6" d="M677.1,431.1c-18.8,1.7-32.8-11.6-31.3-30.5c0-16.9,15-28.3,31.3-26.5C712.7,374.7,712.7,430.4,677.1,431.1z"
		/>
	<linearGradient id="SVGID_12_" gradientUnits="userSpaceOnUse" x1="38.5274" y1="288.6606" x2="201.948" y2="288.6606">
		<stop  offset="0" style="stop-color:#FFFFFF"/>
		<stop  offset="1" style="stop-color:#000000"/>
	</linearGradient>
	<linearGradient id="SVGID_13_" gradientUnits="userSpaceOnUse" x1="38.0274" y1="288.6606" x2="202.448" y2="288.6606">
		<stop  offset="0" style="stop-color:#FFFFFF"/>
		<stop  offset="1" style="stop-color:#000000;stop-opacity:0.5"/>
	</linearGradient>
	<path class="st7" d="M185.4,305.4H55.1c-22.1-0.7-22.1-32.7,0-33.4c0,0,130.3,0,130.3,0C207.4,272.7,207.5,304.6,185.4,305.4z"/>
	<linearGradient id="SVGID_14_" gradientUnits="userSpaceOnUse" x1="16.2275" y1="338.3276" x2="144.644" y2="338.3276">
		<stop  offset="0" style="stop-color:#FFFFFF"/>
		<stop  offset="1" style="stop-color:#000000"/>
	</linearGradient>
	<linearGradient id="SVGID_15_" gradientUnits="userSpaceOnUse" x1="15.7275" y1="338.3276" x2="145.144" y2="338.3276">
		<stop  offset="0" style="stop-color:#FFFFFF"/>
		<stop  offset="1" style="stop-color:#000000;stop-opacity:0.5"/>
	</linearGradient>
	<path class="st8" d="M128.1,355.1H32.8c-22.1-0.7-22.1-32.7,0-33.4c0,0,95.3,0,95.3,0C150.1,322.3,150.2,354.3,128.1,355.1z"/>
</g>
</svg>
