<?xml version="1.0" encoding="utf-8"?>
<!-- Generator: Adobe Illustrator 25.0.1, SVG Export Plug-In . SVG Version: 6.00 Build 0)  -->
<svg version="1.1" id="Layer_1" xmlns="http://www.w3.org/2000/svg" xmlns:xlink="http://www.w3.org/1999/xlink" x="0px" y="0px"
	 viewBox="0 0 720 720" style="enable-background:new 0 0 720 720;" xml:space="preserve">
<style type="text/css">
	.st0{fill:url(#SVGID_1_);}
	.st1{fill:url(#SVGID_2_);}
	.st2{opacity:0.76;fill:url(#SVGID_3_);stroke:url(#SVGID_4_);stroke-width:0.5;stroke-miterlimit:10;}
	.st3{opacity:0.76;fill:url(#SVGID_5_);stroke:url(#SVGID_6_);stroke-width:0.5;stroke-miterlimit:10;}
	.st4{fill:url(#SVGID_7_);}
	.st5{opacity:0.76;fill:url(#SVGID_8_);stroke:url(#SVGID_9_);stroke-width:0.5;stroke-miterlimit:10;}
	.st6{opacity:0.76;fill:url(#SVGID_10_);stroke:url(#SVGID_11_);stroke-width:0.5;stroke-miterlimit:10;}
	.st7{opacity:0.76;fill:url(#SVGID_12_);stroke:url(#SVGID_13_);stroke-width:0.5;stroke-miterlimit:10;}
	.st8{opacity:0.76;fill:url(#SVGID_14_);stroke:url(#SVGID_15_);stroke-width:0.5;stroke-miterlimit:10;}
</style>
<g>
	<linearGradient id="SVGID_1_" gradientUnits="userSpaceOnUse" x1="606.2004" y1="423.6122" x2="68.0813" y2="203.9929">
		<stop  offset="0" style="stop-color:#ADBA3E"/>
		<stop  offset="1" style="stop-color:#718200"/>
	</linearGradient>
	<path class="st0" d="M101.8,355.2c9.7,0,18.8,0,27.9,0c10,0,17.3-6.8,17.4-16.1c0-9.6-7.1-16.6-17.1-16.7c-8.3-0.1-16.7,0-25,0
		c-0.9,0-1.8,0-2.9,0c0-5.4,0-10.6,0-16.2c1.1,0,2.3,0,3.4,0c27.1,0,54.2,0,81.4,0c9.5,0,16.1-5,17.8-13.5c1.9-9.2-5-18.5-14.4-19.3
		c-1.7-0.2-3.4-0.2-5.1-0.2c-26.3,0-52.7,0-79,0c-1.3,0-2.6,0-4.1,0c0-5.4,0-10.6,0-16.3c1,0,2.1,0,3.3,0c41.1,0,82.3,0,123.4,0
		c10.1,0,17.6-6.9,17.6-16.3c0-9.7-7.3-16.5-17.6-16.5c-41,0-82.1,0-123.1,0c-1.2,0-2.3,0-3.8,0c0-1.2,0-2.1,0-2.9
		c0-12.4,0-24.8,0-37.3c0-12.7,9.5-22.2,22.2-22.4c4.6-0.1,9.1,0,13.7,0c90.3,0,180.6,0,270.9,0c11.9,0,20.5,6.4,23,17.2
		c0.5,2.3,0.7,4.7,0.7,7.1c0,66.5,0,132.9,0,199.4c0,14.9-9.3,24.2-24.2,24.2c-94.1,0-188.2,0-282.3,0c-15,0-24.1-9.2-24.1-24.2
		c0-8.7,0-17.5,0-26.2C101.8,357.7,101.8,356.6,101.8,355.2z"/>
	<linearGradient id="SVGID_2_" gradientUnits="userSpaceOnUse" x1="608.2064" y1="418.6968" x2="70.0873" y2="199.0776">
		<stop  offset="0" style="stop-color:#ADBA3E"/>
		<stop  offset="1" style="stop-color:#718200"/>
	</linearGradient>
	<path class="st1" d="M447.4,195.8c3.4,0,6.2,0,9.1,0c15.4,0,30.8,0.1,46.2,0c16-0.1,29.7,5.4,41.2,16.5
		c34.2,32.9,68.5,65.8,102.7,98.7c17.5,16.9,28.3,37.4,32.6,61.2c0.1,0.5,0.1,1,0.1,1.8c-3.4,0-6.6-0.1-9.9,0
		c-21.7,0.5-34.5,23.3-23.3,42c4.7,7.9,11.8,12.5,21.2,13.1c4.3,0.3,8.7,0,13.3,0c0,21.1,0,41.7,0,62.5c-0.9,0.1-1.8,0.2-2.7,0.2
		c-14.8,0-29.6,0-44.4,0c-1.9,0-2.8-0.4-3-2.6c-2-26.5-13.7-48-34.5-64.4c-18.4-14.6-39.5-20.4-62.9-18.7
		c-38,2.8-72.7,31.7-80.6,72.2c-0.9,4.4-1.3,8.8-1.9,13.4c-38.9,0-77.8,0-116.9,0c-1.9-28.9-14.7-51.9-38.3-69.8c51,0,101.4,0,152,0
		C447.4,346.3,447.4,271.3,447.4,195.8z M477.7,349.9c33.8,0,67.3,0,101,0c0-14.1,0-27.9,0-41.6c0.1-14.8-5.2-27.3-15.9-37.5
		c-13.8-13.1-27.6-26.3-41.2-39.6c-6.4-6.3-13.6-9.6-22.7-9.1c-6,0.3-12.1,0-18.2,0.1c-1,0-1.9,0.1-3,0.1
		C477.7,264.9,477.7,307.3,477.7,349.9z"/>
	<linearGradient id="SVGID_3_" gradientUnits="userSpaceOnUse" x1="180.3977" y1="495.5751" x2="306.9644" y2="495.5751">
		<stop  offset="3.534978e-03" style="stop-color:#FFFFFF;stop-opacity:0.7"/>
		<stop  offset="1" style="stop-color:#A0AE32"/>
	</linearGradient>
	<linearGradient id="SVGID_4_" gradientUnits="userSpaceOnUse" x1="180.1477" y1="495.5751" x2="307.2144" y2="495.5751">
		<stop  offset="0" style="stop-color:#FFFFFF"/>
		<stop  offset="1" style="stop-color:#718416;stop-opacity:0.8"/>
	</linearGradient>
	<path class="st2" d="M243.8,558.6c-35.4,0.7-63.7-28.6-63.4-64c0.3-33.5,28.8-62.2,62.3-62.2c36.3,0.1,64.3,27.9,64.3,63.7
		C306.9,532.1,276.1,560,243.8,558.6z M243.8,463.2c-17.9-0.1-32.4,14.4-32.5,32.3c-0.1,18.1,14,32.4,32.1,32.5
		c18,0.1,32.6-14.2,32.7-32C276.3,478,261.8,463.3,243.8,463.2z"/>
	<linearGradient id="SVGID_5_" gradientUnits="userSpaceOnUse" x1="477.5865" y1="495.5838" x2="604.1705" y2="495.5838">
		<stop  offset="3.534978e-03" style="stop-color:#FFFFFF;stop-opacity:0.7"/>
		<stop  offset="1" style="stop-color:#A0AE32"/>
	</linearGradient>
	<linearGradient id="SVGID_6_" gradientUnits="userSpaceOnUse" x1="477.3365" y1="495.5838" x2="604.4205" y2="495.5838">
		<stop  offset="0" style="stop-color:#FFFFFF"/>
		<stop  offset="1" style="stop-color:#718416;stop-opacity:0.8"/>
	</linearGradient>
	<path class="st3" d="M540.7,558.6c-33.2,0.9-63.6-26.8-63.1-64.4c0.5-33.8,28.3-61.9,63.1-61.8c35.2,0,63.7,28.5,63.4,63.7
		C603.8,533.5,572.1,560.2,540.7,558.6z M540.8,463.2c-18.2,0.3-32.7,15-32.4,32.7c0.4,18.1,14.7,32,32.4,32.1
		c17.5,0.1,32.7-14.4,32.5-32.5C573.1,477.5,558.3,462.9,540.8,463.2z"/>
	<linearGradient id="SVGID_7_" gradientUnits="userSpaceOnUse" x1="101.9907" y1="456.7706" x2="191.8809" y2="456.7706">
		<stop  offset="0" style="stop-color:#ADBA3E"/>
		<stop  offset="1" style="stop-color:#718200"/>
	</linearGradient>
	<path class="st4" d="M153.7,491.6c-17.5,0-34.5,0-51.7,0c0-23.3,0-46.4,0-69.7c29.8,0,59.6,0,89.9,0
		C168.5,439.5,155.7,462.6,153.7,491.6z"/>
	<linearGradient id="SVGID_8_" gradientUnits="userSpaceOnUse" x1="70.4521" y1="240.4274" x2="247.1221" y2="240.4274">
		<stop  offset="3.534978e-03" style="stop-color:#FFFFFF;stop-opacity:0.7"/>
		<stop  offset="1" style="stop-color:#A0AE32"/>
	</linearGradient>
	<linearGradient id="SVGID_9_" gradientUnits="userSpaceOnUse" x1="70.2021" y1="240.4274" x2="247.3721" y2="240.4274">
		<stop  offset="0" style="stop-color:#FFFFFF"/>
		<stop  offset="1" style="stop-color:#718416;stop-opacity:0.8"/>
	</linearGradient>
	<path class="st5" d="M230.2,257.4H87.4c-9.3,0-17-7.6-17-17v0c0-9.3,7.6-17,17-17h142.8c9.3,0,17,7.6,17,17v0
		C247.1,249.8,239.5,257.4,230.2,257.4z"/>
	<linearGradient id="SVGID_10_" gradientUnits="userSpaceOnUse" x1="641.3645" y1="401.8891" x2="698.3085" y2="401.8891">
		<stop  offset="3.534978e-03" style="stop-color:#FFFFFF;stop-opacity:0.7"/>
		<stop  offset="1" style="stop-color:#A0AE32"/>
	</linearGradient>
	<linearGradient id="SVGID_11_" gradientUnits="userSpaceOnUse" x1="641.1145" y1="401.8891" x2="698.5585" y2="401.8891">
		<stop  offset="0" style="stop-color:#FFFFFF"/>
		<stop  offset="1" style="stop-color:#718416;stop-opacity:0.8"/>
	</linearGradient>
	<path class="st6" d="M670.2,430h-0.8c-15.4,0-28.1-12.6-28.1-28.1v0c0-15.4,12.6-28.1,28.1-28.1h0.8c15.4,0,28.1,12.6,28.1,28.1v0
		C698.3,417.3,685.7,430,670.2,430z"/>
	<linearGradient id="SVGID_12_" gradientUnits="userSpaceOnUse" x1="43.6361" y1="289.8026" x2="204.764" y2="289.8026">
		<stop  offset="3.534978e-03" style="stop-color:#FFFFFF;stop-opacity:0.7"/>
		<stop  offset="1" style="stop-color:#A0AE32"/>
	</linearGradient>
	<linearGradient id="SVGID_13_" gradientUnits="userSpaceOnUse" x1="43.3861" y1="289.8026" x2="205.014" y2="289.8026">
		<stop  offset="0" style="stop-color:#FFFFFF"/>
		<stop  offset="1" style="stop-color:#718416;stop-opacity:0.8"/>
	</linearGradient>
	<path class="st7" d="M188.3,306.3H60.1c-9.1,0-16.5-7.4-16.5-16.5v0c0-9.1,7.4-16.5,16.5-16.5h128.2c9.1,0,16.5,7.4,16.5,16.5v0
		C204.8,298.9,197.4,306.3,188.3,306.3z"/>
	<linearGradient id="SVGID_14_" gradientUnits="userSpaceOnUse" x1="21.6915" y1="338.6792" x2="148.3716" y2="338.6792">
		<stop  offset="3.534978e-03" style="stop-color:#FFFFFF;stop-opacity:0.7"/>
		<stop  offset="1" style="stop-color:#A0AE32"/>
	</linearGradient>
	<linearGradient id="SVGID_15_" gradientUnits="userSpaceOnUse" x1="21.4415" y1="338.6792" x2="148.6216" y2="338.6792">
		<stop  offset="0" style="stop-color:#FFFFFF"/>
		<stop  offset="1" style="stop-color:#718416;stop-opacity:0.8"/>
	</linearGradient>
	<path class="st8" d="M131.9,355.1H38.1c-9.1,0-16.5-7.4-16.5-16.5v0c0-9.1,7.4-16.5,16.5-16.5h93.8c9.1,0,16.5,7.4,16.5,16.5v0
		C148.4,347.7,141,355.1,131.9,355.1z"/>
</g>
</svg>
